<?xml version="1.0" encoding="UTF-8" standalone="no"?>
<!-- Generator: Adobe Illustrator 18.0.0, SVG Export Plug-In . SVG Version: 6.00 Build 0)  -->

<svg
   xmlns:dc="http://purl.org/dc/elements/1.1/"
   xmlns:cc="http://creativecommons.org/ns#"
   xmlns:rdf="http://www.w3.org/1999/02/22-rdf-syntax-ns#"
   xmlns:svg="http://www.w3.org/2000/svg"
   xmlns="http://www.w3.org/2000/svg"
   xmlns:sodipodi="http://sodipodi.sourceforge.net/DTD/sodipodi-0.dtd"
   xmlns:inkscape="http://www.inkscape.org/namespaces/inkscape"
   version="1.1"
   x="0px"
   y="0px"
   viewBox="0 0 174 48"
   enable-background="new 0 0 792 360"
   xml:space="preserve"
   id="svg2"
   inkscape:version="0.48.4 r9939"
   width="100%"
   height="100%"
   sodipodi:docname="kitware.svg"><metadata
   id="metadata42"><rdf:RDF><cc:Work
       rdf:about=""><dc:format>image/svg+xml</dc:format><dc:type
         rdf:resource="http://purl.org/dc/dcmitype/StillImage" /></cc:Work></rdf:RDF></metadata><defs
   id="defs40"><filter
     id="filter3019"
     inkscape:label="Desaturate"
     x="0"
     y="0"
     width="1"
     height="1"
     inkscape:menu="Color"
     inkscape:menu-tooltip="Render in shades of gray by reducing saturation to zero"
     color-interpolation-filters="sRGB"><feColorMatrix
       id="feColorMatrix3021"
       type="saturate"
       values="0" /></filter><filter
     id="filter3023"
     inkscape:label="Desaturate"
     x="0"
     y="0"
     width="1"
     height="1"
     inkscape:menu="Color"
     inkscape:menu-tooltip="Render in shades of gray by reducing saturation to zero"
     color-interpolation-filters="sRGB"><feColorMatrix
       id="feColorMatrix3025"
       type="saturate"
       values="0" /></filter></defs><sodipodi:namedview
   pagecolor="#ffffff"
   bordercolor="#666666"
   borderopacity="1"
   objecttolerance="10"
   gridtolerance="10"
   guidetolerance="10"
   inkscape:pageopacity="0"
   inkscape:pageshadow="2"
   inkscape:window-width="1680"
   inkscape:window-height="988"
   id="namedview38"
   showgrid="false"
   inkscape:zoom="2.6784348"
   inkscape:cx="206.03164"
   inkscape:cy="55.626583"
   inkscape:window-x="-8"
   inkscape:window-y="320"
   inkscape:window-maximized="1"
   inkscape:current-layer="svg2"
   fit-margin-top="2"
   fit-margin-left="2"
   fit-margin-bottom="2"
   fit-margin-right="2" />

<g
   id="g3003"
   transform="matrix(0.25304767,0,0,0.25304767,0.98780932,1.3876953)"><g
     transform="translate(-58.1,-59.2)"
     style="filter:url(#filter3023)"
     id="LogoMark">
	<g
   id="g5">
		<path
   style="fill:#00539b"
   inkscape:connector-curvature="0"
   id="path7"
   d="m 159,220.4 c -2.1,0 -4.1,0 -6.2,0 C 91.7,204 90.5,119.1 149.2,102.8 c 4.5,0 9,0 13.5,0 -61.1,16.4 -62.4,101.3 -3.7,117.6 z" />
	</g>
	<g
   id="g9">
		<path
   style="fill:#00539b"
   inkscape:connector-curvature="0"
   id="path11"
   d="m 172.8,225.5 c -2.1,0 -4.1,0 -6.2,0 -61.1,-16.4 -62.3,-101.3 -3.6,-117.6 4.5,0 9,0 13.5,0 -61.1,16.3 -62.4,101.2 -3.7,117.6 z" />
	</g>
	<g
   id="g13">
		<path
   style="fill:#00539b"
   inkscape:connector-curvature="0"
   id="path15"
   d="m 186.6,230.5 c -2.1,0 -4.1,0 -6.2,0 -61.1,-16.4 -62.3,-101.3 -3.6,-117.6 4.5,0 9,0 13.5,0 -61.2,16.3 -62.4,101.2 -3.7,117.6 z" />
	</g>
	<path
   style="fill:#00a94f"
   inkscape:connector-curvature="0"
   id="path17"
   d="m 80.9,227.2 c -1,-1 -2.1,-2 -3.1,-3 11.3,-44.9 4.8,-88 -15.7,-119.7 3.8,-3.6 7.6,-7.2 11.4,-10.9 19.9,39.7 23,87.7 7.4,133.6 z" />
	<path
   style="fill:#00a94f"
   inkscape:connector-curvature="0"
   id="path19"
   d="m 85.3,231.4 c -1,-1 -2.1,-2 -3.1,-3 17.3,-46.3 15.5,-96.3 -4.1,-139.1 3.8,-3.6 7.6,-7.2 11.3,-10.9 19.1,50.7 17.4,105.7 -4.1,153 z" />
	<path
   style="fill:#00a94f"
   inkscape:connector-curvature="0"
   id="path21"
   d="m 89.6,235.5 c -1,-1 -2.1,-2 -3.1,-3 23.2,-47.6 26.3,-104.6 7.4,-158.4 3.8,-3.6 7.6,-7.2 11.4,-10.9 C 123.6,125 117,187 89.6,235.5 z" />
</g><g
     transform="translate(-58.1,-59.2)"
     style="filter:url(#filter3019)"
     id="Kitware">
	<path
   style="fill:#00539b"
   inkscape:connector-curvature="0"
   id="path24"
   d="m 243.3,118.7 -8.7,40.3 h 0.3 l 40.8,-40.3 h 28.7 l -51.9,46.8 33.1,55.9 H 261 l -28.5,-52.2 -11.2,52.2 h -20.6 l 22.1,-102.7 h 20.5 z" />
	<path
   style="fill:#00539b"
   inkscape:connector-curvature="0"
   id="path26"
   d="m 312,145.6 h 19.7 l -16.2,75.8 H 295.8 L 312,145.6 z m 7.2,-32.6 h 19.7 l -4.1,18.8 h -19.7 l 4.1,-18.8 z" />
	<path
   style="fill:#00539b"
   inkscape:connector-curvature="0"
   id="path28"
   d="m 343,145.6 h 14.3 l 3.4,-15.6 21.2,-6.9 -4.9,22.5 h 17.7 l -3.1,14.4 h -17.7 l -7.2,33.1 c -0.4,1.8 -0.9,4.4 -0.9,7.3 0,4.6 3.1,7.4 7.5,7.4 3.5,0 7.1,-0.7 9.6,-1.8 l -3.4,15.3 c -3.4,0.7 -7.2,1.8 -10.6,1.8 -13.4,0 -22.8,-5.3 -22.8,-19.9 0,-5.9 1.2,-11.6 2.5,-17.7 l 5.6,-25.6 h -14.3 l 3.1,-14.3 z" />
	<path
   style="fill:#00539b"
   inkscape:connector-curvature="0"
   id="path30"
   d="m 402.9,145.6 h 19.7 l 5.4,56.9 h 0.3 l 27.8,-56.9 H 478 l 4.1,56.9 h 0.3 l 29.1,-56.9 h 20.2 l -42.1,75.8 h -22.2 l -4.3,-58 h -0.3 l -27.6,58 h -22.4 l -9.9,-75.8 z" />
	<path
   style="fill:#00539b"
   inkscape:connector-curvature="0"
   id="path32"
   d="m 570.5,209.8 h -0.3 c -6.8,8.5 -13.5,13.4 -24.4,13.4 -13.7,0 -23.4,-7.6 -23.4,-21.6 0,-25 27.9,-26.9 46.5,-26.9 h 6.9 c 0.6,-2.1 0.6,-4.3 0.6,-6.5 0,-7.7 -8.2,-9.9 -15.2,-9.9 -8.7,0 -17.1,2.2 -24.9,5.9 l 2.8,-15.7 c 8.4,-2.9 16.9,-4.6 25.7,-4.6 15.2,0 29.4,5.6 29.4,23.4 0,10.1 -7.5,39.9 -9.3,54.1 h -16.6 l 2.2,-11.6 z m -19.3,-1.1 c 14.7,0 19.3,-10.2 22.4,-22.4 h -6.9 c -9.6,0 -25.5,1.6 -25.5,14.4 0,5.4 5,8 10,8 z" />
	<path
   style="fill:#00539b"
   inkscape:connector-curvature="0"
   id="path34"
   d="m 614.1,155.8 c 0.6,-3.2 1.2,-6.6 1.8,-10.2 h 18.8 l -2.6,14.3 h 0.3 c 3.5,-8.2 13.2,-16 22.4,-16 2.5,0 5.2,0.1 7.5,0.7 l -4.1,19.3 c -2.2,-0.7 -5,-1.2 -7.5,-1.2 -14,0 -20.7,12.5 -23.3,24.7 l -7.1,34 h -19.7 l 13.5,-65.6 z" />
	<path
   style="fill:#00539b"
   inkscape:connector-curvature="0"
   id="path36"
   d="m 676.8,189.6 c 0,14 7.5,19.1 21,19.1 8.1,0 15.9,-2.1 23.2,-5.4 l -2.5,15.6 c -7.6,2.4 -16,4.3 -24.1,4.3 -21.8,0 -36.5,-10.6 -36.5,-33.1 0,-23.5 18.2,-46.2 43.1,-46.2 18.7,0 31,9.6 31,28.8 0,5.7 -0.7,11.3 -1.9,16.9 h -53.3 z m 36,-13.5 c 0.3,-1.8 0.4,-3.4 0.4,-5.1 0,-8.1 -4.3,-12.7 -12.5,-12.7 -12.2,0 -17.5,7.4 -21.3,17.8 h 33.4 z" />
</g></g>
</svg>