<?xml version="1.0" encoding="UTF-8" standalone="no"?>
<!-- Created with Inkscape (http://www.inkscape.org/) -->

<svg
   xmlns:dc="http://purl.org/dc/elements/1.1/"
   xmlns:cc="http://creativecommons.org/ns#"
   xmlns:rdf="http://www.w3.org/1999/02/22-rdf-syntax-ns#"
   xmlns:svg="http://www.w3.org/2000/svg"
   xmlns="http://www.w3.org/2000/svg"
   xmlns:sodipodi="http://sodipodi.sourceforge.net/DTD/sodipodi-0.dtd"
   xmlns:inkscape="http://www.inkscape.org/namespaces/inkscape"
   width="630.65845"
   height="386.53998"
   id="svg97986"
   sodipodi:version="0.32"
   inkscape:version="0.48.4 r9939"
   version="1.0"
   sodipodi:docname="computer-associates.svg">
  <defs
     id="defs97988">
    <clipPath
       id="clp234"
       clip-rule="nonzero">
      <path
         d="M 0,0 L 567.36,0 L 567.36,756 L 0,756 L 0,0 z "
         id="path6856" />
    </clipPath>
    <clipPath
       id="clp235"
       clip-rule="nonzero">
      <path
         d="M 0,0 L 567.36,0 L 567.36,756 L 0,756 L 0,0 z "
         id="path6866" />
    </clipPath>
    <clipPath
       id="clp236"
       clip-rule="nonzero">
      <path
         d="M 0,0 L 567.36,0 L 567.36,756 L 0,756 L 0,0 z "
         id="path6876" />
    </clipPath>
    <clipPath
       id="clp237"
       clip-rule="nonzero">
      <path
         d="M 0,0 L 567.36,0 L 567.36,756 L 0,756 L 0,0 z "
         id="path6886" />
    </clipPath>
    <clipPath
       id="clipPath74457"
       clip-rule="nonzero">
      <path
         d="M 0,0 L 567.36,0 L 567.36,756 L 0,756 L 0,0 z "
         id="path74459" />
    </clipPath>
    <clipPath
       id="clipPath74466"
       clip-rule="nonzero">
      <path
         d="M 0,0 L 567.36,0 L 567.36,756 L 0,756 L 0,0 z "
         id="path74468" />
    </clipPath>
    <clipPath
       id="clipPath74475"
       clip-rule="nonzero">
      <path
         d="M 0,0 L 567.36,0 L 567.36,756 L 0,756 L 0,0 z "
         id="path74477" />
    </clipPath>
    <clipPath
       id="clipPath74484"
       clip-rule="nonzero">
      <path
         d="M 0,0 L 567.36,0 L 567.36,756 L 0,756 L 0,0 z "
         id="path74486" />
    </clipPath>
    <filter
       id="filter3003"
       inkscape:label="Desaturate"
       x="0"
       y="0"
       width="1"
       height="1"
       inkscape:menu="Color"
       inkscape:menu-tooltip="Render in shades of gray by reducing saturation to zero"
       color-interpolation-filters="sRGB">
      <feColorMatrix
         id="feColorMatrix3005"
         type="saturate"
         values="0" />
    </filter>
  </defs>
  <sodipodi:namedview
     id="base"
     pagecolor="#ffffff"
     bordercolor="#666666"
     borderopacity="1.0"
     inkscape:pageopacity="0.0"
     inkscape:pageshadow="2"
     inkscape:zoom="0.35"
     inkscape:cx="350"
     inkscape:cy="520"
     inkscape:document-units="px"
     inkscape:current-layer="layer1"
     inkscape:window-width="1051"
     inkscape:window-height="776"
     inkscape:window-x="188"
     inkscape:window-y="328"
     showgrid="false"
     inkscape:window-maximized="0" />
  <metadata
     id="metadata97991">
    <rdf:RDF>
      <cc:Work
         rdf:about="">
        <dc:format>image/svg+xml</dc:format>
        <dc:type
           rdf:resource="http://purl.org/dc/dcmitype/StillImage" />
      </cc:Work>
    </rdf:RDF>
  </metadata>
  <g
     inkscape:label="Ebene 1"
     inkscape:groupmode="layer"
     id="layer1"
     transform="translate(-68.95702,-494.2568)">
    <g
       id="g1990"
       style="filter:url(#filter3003)">
      <path
         id="path6861"
         class="ps018"
         d="M 520.38674,779.7165 C 507.93433,798.69569 488.18224,810.46106 466.19731,810.46106 C 436.22566,810.46106 411.14909,796.80636 411.14909,764.17247 C 411.14909,716.1663 481.31195,699.07645 535.07199,695.98482 L 535.07199,710.24068 C 535.07199,741.32875 534.47083,758.16096 520.38674,779.7165 M 642.33442,817.84663 L 642.33442,624.27615 C 642.33442,577.30053 633.48892,551.10754 608.32647,528.17794 C 584.36633,506.27888 545.37742,494.25587 492.56205,494.25587 C 441.63601,494.25587 398.43905,506.36476 367.38533,529.552 C 395.23578,551.79457 413.72545,584.60021 417.33236,627.62542 C 417.33236,591.04111 442.40892,576.01235 480.02377,576.01235 C 522.10431,576.01235 534.38496,605.46872 534.72847,630.1159 L 535.07199,641.88127 C 418.62054,647.54926 308.90197,669.27656 311.01459,775.76609 C 312.50029,850.39463 380.06102,880.88155 426.43549,880.79568 C 480.36729,880.79568 510.51069,866.36806 540.13883,829.612 C 540.6541,845.15604 542.62931,861.55886 545.29154,873.49599 L 649.6341,873.49599 C 643.79436,855.20384 642.33442,836.91169 642.33442,817.84663"
         style="fill:#49ac44;fill-rule:nonzero;stroke:none" />
      <path
         id="path6871"
         class="ps019"
         d="M 311.01459,775.76609 C 310.85142,767.60762 311.34951,759.87854 312.45735,752.75061 C 307.58803,779.63063 286.04966,793.0277 258.86907,793.0277 C 204.62812,793.0277 189.46195,752.23534 189.46195,682.41599 C 189.46195,613.54132 205.78748,576.1841 258.59426,576.1841 C 291.39132,576.1841 315.11959,593.96098 315.11959,627.62542 L 417.33236,627.62542 C 409.92103,539.42804 339.99004,494.25587 254.94442,494.25587 C 137.78017,494.25587 68.957024,576.95701 68.957024,691.17562 C 68.957024,801.01441 135.58168,880.79568 248.34035,880.79568 C 281.18893,880.79568 318.41733,872.80896 348.38898,853.57214 C 327.28,836.56817 311.71879,811.14809 311.01459,775.76609"
         style="fill:#0084ca;fill-rule:nonzero;stroke:none" />
      <path
         id="path6881"
         class="ps02"
         d="M 672.39195,858.12371 L 672.39195,873.49599 L 670.07322,873.49599 L 670.07322,858.12371 L 664.31935,858.12371 L 664.31935,856.06262 L 677.88818,856.06262 L 678.23169,858.12371"
         style="fill:#221f1f;fill-rule:nonzero;stroke:none" />
      <path
         id="path6891"
         class="ps02"
         d="M 697.55439,873.49599 L 697.55439,859.32601 L 691.54289,873.49599 L 689.4818,873.49599 L 683.55617,859.32601 L 683.55617,873.49599 L 681.49508,873.49599 L 681.49508,856.06262 L 684.58671,856.06262 L 690.59822,870.83375 L 696.60973,856.06262 L 699.61548,856.06262 L 699.61548,873.49599"
         style="fill:#221f1f;fill-rule:nonzero;stroke:none" />
    </g>
  </g>
</svg>
