<?xml version="1.0" encoding="UTF-8" standalone="no"?>
<!-- Created with Inkscape (http://www.inkscape.org/) -->

<svg
   xmlns:dc="http://purl.org/dc/elements/1.1/"
   xmlns:cc="http://creativecommons.org/ns#"
   xmlns:rdf="http://www.w3.org/1999/02/22-rdf-syntax-ns#"
   xmlns:svg="http://www.w3.org/2000/svg"
   xmlns="http://www.w3.org/2000/svg"
   version="1.1"
   width="260"
   height="42"
   viewBox="0 0 260 42"
   id="Layer_1"
   xml:space="preserve"><metadata
     id="metadata61"><rdf:RDF><cc:Work
         rdf:about=""><dc:format>image/svg+xml</dc:format><dc:type
           rdf:resource="http://purl.org/dc/dcmitype/StillImage" /><dc:title></dc:title></cc:Work></rdf:RDF></metadata><defs
     id="defs59" /><path
     d="m 132.543,426.333 -0.018,22.175 0,0 33.261,0.024 0.016,-22.175 z"
     transform="matrix(0.21842609,0,0,0.21842609,0.11728775,-70.481792)"
     id="polygon5"
     style="fill:#808080;fill-rule:evenodd" /><path
     d="m 176.889,426.367 -0.017,22.174 0,0 33.26,0.024 0.017,-22.172 z"
     transform="matrix(0.21842609,0,0,0.21842609,0.11728775,-70.481792)"
     id="polygon7"
     style="fill:#808080;fill-rule:evenodd" /><path
     d="m 132.518,459.594 -0.017,22.085 0,0 33.26,0.026 0.017,-22.086 z"
     transform="matrix(0.21842609,0,0,0.21842609,0.11728775,-70.481792)"
     id="polygon9"
     style="fill:#808080;fill-rule:evenodd" /><path
     d="m 44.012,326.66 -0.016,22.173 0,0 33.259,0.026 0.017,-22.174 z"
     transform="matrix(0.21842609,0,0,0.21842609,0.11728775,-70.481792)"
     id="polygon11"
     style="fill:#808080;fill-rule:evenodd" /><path
     d="m 88.11,426.213 -0.017,22.173 0,0 33.259,0.026 0.017,-22.174 z"
     transform="matrix(0.21842609,0,0,0.21842609,0.11728775,-70.481792)"
     id="polygon13"
     style="fill:#808080;fill-rule:evenodd" /><path
     d="m 88.247,359.694 -0.017,22.173 0,0 33.259,0.026 0.018,-22.174 z"
     transform="matrix(0.21842609,0,0,0.21842609,0.11728775,-70.481792)"
     id="polygon15"
     style="fill:#808080;fill-rule:evenodd" /><path
     d="m 43.962,393.006 -0.016,22.175 0,0 33.259,0.025 0.016,-22.174 z"
     transform="matrix(0.21842609,0,0,0.21842609,0.11728775,-70.481792)"
     id="polygon17"
     style="fill:#808080;fill-rule:evenodd" /><path
     d="m 88.222,393.041 -0.017,22.172 0,0 33.26,0.026 0.017,-22.174 z"
     transform="matrix(0.21842609,0,0,0.21842609,0.11728775,-70.481792)"
     id="polygon19"
     style="fill:#808080;fill-rule:evenodd" /><path
     d="m 132.531,326.555 -0.016,22.173 0,0 33.259,0.024 0.017,-22.172 z"
     transform="matrix(0.21842609,0,0,0.21842609,0.11728775,-70.481792)"
     id="polygon21"
     style="fill:#808080;fill-rule:evenodd" /><path
     d="m 176.791,326.588 -0.016,22.173 0,0 33.259,0.025 0.018,-22.173 z"
     transform="matrix(0.21842609,0,0,0.21842609,0.11728775,-70.481792)"
     id="polygon23"
     style="fill:#808080;fill-rule:evenodd" /><path
     d="m 132.507,359.813 -0.017,22.175 0,0 33.26,0.025 0.016,-22.174 z"
     transform="matrix(0.21842609,0,0,0.21842609,0.11728775,-70.481792)"
     id="polygon25"
     style="fill:#808080;fill-rule:evenodd" /><path
     d="m 176.914,393.107 -0.016,22.174 0,0 33.259,0.025 0.017,-22.174 z"
     transform="matrix(0.21842609,0,0,0.21842609,0.11728775,-70.481792)"
     id="polygon27"
     style="fill:#808080;fill-rule:evenodd" /><path
     d="m -0.495,426.146 -0.016,22.174 0,0 33.258,0.025 0.016,-22.173 z"
     transform="matrix(0.21842609,0,0,0.21842609,0.11728775,-70.481792)"
     id="polygon29"
     style="fill:#808080;fill-rule:evenodd" /><path
     d="m -0.521,459.406 -0.016,22.086 0,0 33.259,0.026 0.016,-22.086 z"
     transform="matrix(0.21842609,0,0,0.21842609,0.11728775,-70.481792)"
     id="polygon31"
     style="fill:#808080;fill-rule:evenodd" /><path
     d="m 43.739,459.525 -0.018,22.088 0,0 33.261,0.025 0.016,-22.086 z"
     transform="matrix(0.21842609,0,0,0.21842609,0.11728775,-70.481792)"
     id="polygon33"
     style="fill:#808080;fill-rule:evenodd" /><path
     d="m 176.863,459.627 -0.016,21.999 0,0 33.26,0.026 0.017,-22.001 z"
     transform="matrix(0.21842609,0,0,0.21842609,0.11728775,-70.481792)"
     id="polygon35"
     style="fill:#808080;fill-rule:evenodd" /><path
     d="m 43.887,492.612 -0.017,22.173 0,0 33.26,0.026 0.017,-22.174 z"
     transform="matrix(0.21842609,0,0,0.21842609,0.11728775,-70.481792)"
     id="polygon37"
     style="fill:#808080;fill-rule:evenodd" /><path
     d="m 88.147,492.646 -0.017,22.174 0,0 33.259,0.024 0.018,-22.172 z"
     transform="matrix(0.21842609,0,0,0.21842609,0.11728775,-70.481792)"
     id="polygon39"
     style="fill:#808080;fill-rule:evenodd" /><path
     d="m 132.406,492.766 -0.017,22.173 0,0 33.26,0.026 0.016,-22.174 z"
     transform="matrix(0.21842609,0,0,0.21842609,0.11728775,-70.481792)"
     id="polygon41"
     style="fill:#808080;fill-rule:evenodd" /><path
     d="m 99.042901,32.94733 c 0,5.341392 -1.910792,6.940052 -7.36926,6.940052 h -8.187265 v -2.612157 h 7.87579 c 2.144289,0 2.612157,-0.585164 2.612157,-2.963169 V 28.07337 h -0.117076 c -0.350792,0.702022 -0.740683,1.091912 -1.208333,1.364945 -0.468306,0.272596 -1.208989,0.350574 -2.339562,0.350574 h -6.822976 v -2.612158 h 7.87579 c 2.144289,0 2.612157,-0.584508 2.612157,-2.962731 V 8.6959182 c 0,-2.3780048 -0.468087,-2.9627315 -2.612157,-2.9627315 h -7.87579 V 3.1210291 h 6.316227 c 2.300027,0 3.74295,0.5849451 4.054644,2.3395619 h 0.117076 l 0.351011,-2.3395619 h 5.263195 C 99.159759,4.7194712 99.042901,6.2012738 99.042901,8.813213 V 32.94733 l 0,0 z M 83.486376,39.887382 H 69.216163 l -0.358437,-2.612594 c 1.716829,0.01376 3.204747,4.37e-4 5.97308,4.37e-4 h 8.65557 v 2.612157 l 0,0 z m 0,-10.098275 h -8.2268 c -5.41937,0 -7.368604,-1.598442 -7.368604,-6.939615 V 10.0613 c 0,-5.3418288 1.949453,-6.9400525 7.368604,-6.9400525 h 8.2268 v 2.6121577 h -7.914888 c -2.105409,0 -2.612157,0.5847266 -2.612157,2.9627314 V 24.214218 c 0,2.378442 0.506748,2.962732 2.612157,2.962732 h 7.914888 v 2.612157 l 0,0 z"
     id="path45"
     style="fill:#808080;fill-rule:evenodd" /><path
     d="m 121.11071,27.17695 h 9.86412 c 2.80721,0 4.28814,0.01485 5.96063,0.0098 l -0.5026,2.602328 H 121.11071 V 27.17695 l 0,0 z m 0,-24.0561393 h 8.53849 c 5.45825,0 7.36882,1.5984421 7.36882,6.9400523 v 8.031746 h -15.90731 v -2.612595 h 10.83895 V 8.6956998 c 0,-2.3780049 -0.46808,-2.9627315 -2.57349,-2.9627315 h -8.26524 V 3.1208107 l -2.2e-4,0 z M 110.27153,18.092827 V 24.214 c 0,2.378441 0.50675,2.962731 2.61238,2.962731 h 8.2268 v 2.612158 h -8.53915 c -5.41915,0 -7.36839,-1.598442 -7.36839,-6.939615 V 10.061081 c 0,-5.3418282 1.94924,-6.9400519 7.36839,-6.9400519 h 8.53915 v 2.6121576 h -8.2268 c -2.10563,0 -2.61238,0.5847267 -2.61238,2.9627315 v 6.7843148 h 10.8394 v 2.612594 h -10.8394 l 0,0 z"
     id="path47"
     style="fill:#808080;fill-rule:evenodd" /><path
     d="m 196.78748,27.17695 h 9.86456 c 2.80743,0 4.26718,0.01485 5.95037,0.0098 l -0.49212,2.602328 H 196.78748 V 27.17695 l 0,0 z m 0,-24.0561393 h 8.53915 c 5.45847,0 7.36839,1.5984421 7.36839,6.9400523 v 8.031746 h -15.90754 v -2.612595 h 10.8394 V 8.6956998 c 0,-2.3780049 -0.46787,-2.9627315 -2.61194,-2.9627315 h -8.22746 V 3.1208107 l 0,0 z M 185.94874,18.092827 V 24.214 c 0,2.378441 0.50719,2.962731 2.61238,2.962731 h 8.22636 v 2.612158 h -8.53805 c -5.41937,0 -7.36948,-1.598442 -7.36948,-6.939615 V 10.061081 c 0,-5.3418282 1.95033,-6.9400519 7.36948,-6.9400519 h 8.53805 v 2.6121576 h -8.22636 c -2.10519,0 -2.61238,0.5847267 -2.61238,2.9627315 v 6.7843148 h 10.83874 v 2.612594 h -10.83874 l 0,0 z"
     id="path49"
     style="fill:#808080;fill-rule:evenodd" /><path
     d="m 240.53321,13.452802 c 5.41937,0 7.36882,1.598442 7.36882,6.901172 v 4.912621 c 0,2.92407 -1.7544,4.522512 -6.82276,4.522512 h -22.57455 l -0.37198,-2.640553 c 2.02502,0 3.21851,0.0284 5.98618,0.0284 h 16.60912 c 2.10585,0 2.57372,-0.584509 2.57372,-2.962732 v -3.158223 c 0,-2.378223 -0.46809,-2.96295 -2.57372,-2.96295 h -15.36103 c -5.41981,0 -7.36926,-1.55978 -7.36926,-6.901172 V 10.0613 c 0,-5.3418288 1.94967,-6.9400525 7.36926,-6.9400525 h 21.98917 l 0.46569,2.6123761 c -1.69106,0.00437 -3.1947,-2.184e-4 -5.96304,-2.184e-4 h -16.18035 c -2.10519,0 -2.57327,0.5847266 -2.57327,2.9627314 v 1.7937154 c 0,2.37866 0.4683,2.96295 2.57327,2.96295 h 14.85473 l 0,0 z"
     id="path51"
     style="fill:#808080;fill-rule:evenodd" /><path
     d="m 259.98864,24.096705 c 0,2.612158 0.0114,5.36804 0.0114,5.692402 h -5.09063 c 0,-0.885281 0.0109,-3.080244 0.0109,-5.692402 V 8.8129946 c 0,-2.6119392 0.003,-4.0664385 -0.0109,-5.6921839 h 5.07928 V 24.096705 l 0,0 z"
     id="path53"
     style="fill:#808080;fill-rule:evenodd" /><path
     d="m 157.33842,3.1769462 h -6.43811 c -5.45847,0 -7.36904,1.5986606 -7.36904,6.9398338 v 14.036279 c 0,2.612158 0.007,3.967928 0.007,5.692402 h 5.07186 c -0.005,-0.587129 -0.0101,-3.080244 -0.0101,-5.692402 V 8.7522721 c 0,-2.3782232 0.46809,-2.9631683 2.61216,-2.9631683 h 6.12641 l 0.11489,0.00131 h 8.89694 c 2.14428,0 2.61215,0.584945 2.61215,2.9629499 V 24.153933 c 0,2.612376 0.01,3.53042 -0.004,5.69262 h 5.07666 c 4.4e-4,-1.871038 -0.005,-3.080244 -0.005,-5.69262 V 10.11809 c 0,-5.3413911 -1.91013,-6.9400517 -7.36882,-6.9400517 h -9.20862 l -0.11468,-0.00109 z"
     id="path55"
     style="fill:#808080;fill-rule:evenodd" /></svg>