<?xml version="1.0" encoding="UTF-8" standalone="no"?>
<!-- Created with Inkscape (http://www.inkscape.org/) -->

<svg
   xmlns:dc="http://purl.org/dc/elements/1.1/"
   xmlns:cc="http://creativecommons.org/ns#"
   xmlns:rdf="http://www.w3.org/1999/02/22-rdf-syntax-ns#"
   xmlns:svg="http://www.w3.org/2000/svg"
   xmlns="http://www.w3.org/2000/svg"
   xmlns:sodipodi="http://sodipodi.sourceforge.net/DTD/sodipodi-0.dtd"
   xmlns:inkscape="http://www.inkscape.org/namespaces/inkscape"
   width="1133.7838"
   height="821.49896"
   id="svg2"
   version="1.1"
   inkscape:version="0.48.4 r9939"
   sodipodi:docname="sessions2.svg">
  <defs
     id="defs4" />
  <sodipodi:namedview
     id="base"
     pagecolor="#ffffff"
     bordercolor="#666666"
     borderopacity="1.0"
     inkscape:pageopacity="0.0"
     inkscape:pageshadow="2"
     inkscape:zoom="0.7"
     inkscape:cx="764.00295"
     inkscape:cy="432.04647"
     inkscape:document-units="px"
     inkscape:current-layer="layer1"
     showgrid="false"
     fit-margin-top="10"
     fit-margin-left="10"
     fit-margin-bottom="10"
     fit-margin-right="10"
     inkscape:window-width="1440"
     inkscape:window-height="838"
     inkscape:window-x="-8"
     inkscape:window-y="-8"
     inkscape:window-maximized="1" />
  <metadata
     id="metadata7">
    <rdf:RDF>
      <cc:Work
         rdf:about="">
        <dc:format>image/svg+xml</dc:format>
        <dc:type
           rdf:resource="http://purl.org/dc/dcmitype/StillImage" />
        <dc:title />
      </cc:Work>
    </rdf:RDF>
  </metadata>
  <g
     inkscape:label="Ebene 1"
     inkscape:groupmode="layer"
     id="layer1"
     transform="translate(753.62421,254.55252)">
    <g
       id="g3086"
       transform="translate(-745.52794,-246.46045)">
      <path
         id="path3088"
         d="m 230.78125,193.75 0,165.3125 614.14063,0 0,-165.3125 -614.14063,0 z"
         style="fill:#bfbfbf;fill-opacity:1;fill-rule:evenodd;stroke:none"
         inkscape:connector-curvature="0" />
      <text
         id="text3090"
         style="font-size:23.75px;font-style:normal;font-weight:normal;text-align:start;text-anchor:start;fill:#000000;font-family:Arial"
         y="235"
         x="487.5"
         xml:space="preserve">Transport</text>
      <path
         id="path3092"
         d="m 136.25,339.6875 c 13.04688,0 23.67188,-10.625 23.67188,-23.67188 l 0,0 0,-69.6875 c 0,-13.04687 -10.625,-23.59374 -23.67188,-23.59374 l 0,0 -108.671875,0 c -13.046875,0 -23.59375,10.54687 -23.59375,23.59374 l 0,0 0,69.6875 c 0,13.04688 10.546875,23.67188 23.59375,23.67188 l 0,0 108.671875,0 z"
         style="fill:#bdf808;fill-opacity:1;fill-rule:evenodd;stroke:none"
         inkscape:connector-curvature="0" />
      <path
         id="path3094"
         d="m 136.25,339.6875 c 13.04688,0 23.67188,-10.625 23.67188,-23.67188 l 0,0 0,-69.6875 c 0,-13.04687 -10.625,-23.59374 -23.67188,-23.59374 l 0,0 -108.671875,0 c -13.046875,0 -23.59375,10.54687 -23.59375,23.59374 l 0,0 0,69.6875 c 0,13.04688 10.546875,23.67188 23.59375,23.67188 l 0,0 108.671875,0 z"
         style="fill:none;stroke:#000000;stroke-width:2.03125px;stroke-linecap:round;stroke-linejoin:round;stroke-opacity:1;stroke-dasharray:none"
         inkscape:connector-curvature="0" />
      <text
         id="text3096"
         style="font-size:23.75px;font-style:normal;font-weight:bold;text-align:start;text-anchor:start;fill:#000000;font-family:Arial"
         y="288.75"
         x="50"
         xml:space="preserve">Client</text>
      <path
         id="path3098"
         d="m 1048.125,339.6875 c 12.9688,0 23.5938,-10.625 23.5938,-23.67188 l 0,0 0,-69.6875 c 0,-13.04687 -10.625,-23.59374 -23.5938,-23.59374 l 0,0 -108.67188,0 c -13.04687,0 -23.67187,10.54687 -23.67187,23.59374 l 0,0 0,69.6875 c 0,13.04688 10.625,23.67188 23.67187,23.67188 l 108.67188,0 z"
         style="fill:#fa72c6;fill-opacity:1;fill-rule:evenodd;stroke:none"
         inkscape:connector-curvature="0" />
      <path
         id="path3100"
         d="m 1048.125,339.6875 c 12.9688,0 23.5938,-10.625 23.5938,-23.67188 l 0,0 0,-69.6875 c 0,-13.04687 -10.625,-23.59374 -23.5938,-23.59374 l 0,0 -108.67188,0 c -13.04687,0 -23.67187,10.54687 -23.67187,23.59374 l 0,0 0,69.6875 c 0,13.04688 10.625,23.67188 23.67187,23.67188 l 108.67188,0 z"
         style="fill:none;stroke:#000000;stroke-width:2.03125px;stroke-linecap:round;stroke-linejoin:round;stroke-opacity:1;stroke-dasharray:none"
         inkscape:connector-curvature="0" />
      <text
         id="text3102"
         style="font-size:23.75px;font-style:normal;font-weight:bold;text-align:start;text-anchor:start;fill:#ffffff;font-family:Arial"
         y="288.75"
         x="956.25"
         xml:space="preserve">Router</text>
      <path
         id="path3104"
         d="m 159.92188,257.57812 0,47.26563 755.85937,0 0,-47.26563 -755.85937,0 z"
         style="fill:#fa72c6;fill-opacity:1;fill-rule:evenodd;stroke:none"
         inkscape:connector-curvature="0" />
      <path
         id="path3106"
         d="m 159.92188,304.84375 755.85937,0 0,-47.26563 -755.85937,0 0,47.26563 z"
         style="fill:none;stroke:#000000;stroke-width:1.171875px;stroke-linecap:round;stroke-linejoin:round;stroke-opacity:1;stroke-dasharray:none"
         inkscape:connector-curvature="0" />
      <text
         id="text3108"
         style="font-size:23.75px;font-style:normal;font-weight:normal;text-align:start;text-anchor:start;fill:#ffffff;font-family:Arial"
         y="288.75"
         x="496.25"
         xml:space="preserve">Session</text>
      <path
         id="path3110"
         d="m 409.29688,443.98438 0,56.95312 253.35937,0 0,-56.95312 -253.35937,0 z"
         style="fill:#ffffff;fill-opacity:1;fill-rule:evenodd;stroke:none"
         inkscape:connector-curvature="0" />
      <path
         id="path3112"
         d="m 409.29688,500.9375 253.35937,0 0,-56.95312 -253.35937,0 0,56.95312 z"
         style="fill:none;stroke:#000000;stroke-width:0.390625px;stroke-linecap:round;stroke-linejoin:round;stroke-opacity:1;stroke-dasharray:none"
         inkscape:connector-curvature="0" />
      <text
         id="text3114"
         style="font-size:23.75px;font-style:normal;font-weight:normal;text-align:start;text-anchor:start;fill:#000000;font-family:Arial"
         y="480"
         x="511.25"
         xml:space="preserve">Peer</text>
      <path
         id="path3116"
         d="m 230.78125,193.75 614.14063,0"
         style="fill:none;stroke:#000000;stroke-width:3.59375px;stroke-linecap:round;stroke-linejoin:round;stroke-opacity:1;stroke-dasharray:none"
         inkscape:connector-curvature="0" />
      <path
         id="path3118"
         d="M 670.78125,469.21875 993.75,339.6875"
         style="fill:none;stroke:#000000;stroke-width:0.390625px;stroke-linecap:round;stroke-linejoin:round;stroke-opacity:1;stroke-dasharray:none"
         inkscape:connector-curvature="0" />
      <path
         id="path3120"
         d="m 662.65625,472.5 8.59375,-9.6875 c -0.3125,4.0625 1.25,8.04688 4.29688,10.70312 L 662.65625,472.5 z"
         style="fill:#000000;fill-opacity:1;fill-rule:evenodd;stroke:none"
         inkscape:connector-curvature="0" />
      <path
         id="path3122"
         d="m 811.17188,405.46875 28.90624,-11.5625 -8.90624,-22.26563 -28.90626,11.5625 8.90626,22.26563 z"
         style="fill:#ffffff;fill-opacity:1;fill-rule:evenodd;stroke:none"
         inkscape:connector-curvature="0" />
      <text
         id="text3124"
         style="font-size:20px;font-style:normal;font-weight:normal;text-align:start;text-anchor:start;fill:#000000;font-family:Arial"
         transform="matrix(0.93358043,-0.35836795,0.35836795,0.93358043,-89.63035,316.39791)"
         y="400"
         x="808.75"
         xml:space="preserve">i</text>
      <text
         id="text3126"
         style="font-size:20px;font-style:normal;font-weight:normal;text-align:start;text-anchor:start;fill:#000000;font-family:Arial"
         transform="matrix(0.93358043,-0.35836795,0.35836795,0.93358043,-88.933316,317.65876)"
         y="398.75"
         x="812.5"
         xml:space="preserve">s</text>
      <text
         id="text3128"
         style="font-size:20px;font-style:normal;font-weight:normal;text-align:start;text-anchor:start;fill:#000000;font-family:Arial"
         transform="matrix(0.93358043,-0.35836795,0.35836795,0.93358043,-86.925241,320.99337)"
         y="395"
         x="822.5"
         xml:space="preserve"> </text>
      <text
         id="text3130"
         style="font-size:20px;font-style:normal;font-weight:normal;text-align:start;text-anchor:start;fill:#000000;font-family:Arial"
         transform="matrix(0.93358043,-0.35836795,0.35836795,0.93358043,-85.697223,322.61916)"
         y="392.5"
         x="827.5"
         xml:space="preserve">a</text>
      <path
         id="path3132"
         d="M 401.17188,469.21875 81.953125,339.6875"
         style="fill:none;stroke:#000000;stroke-width:0.390625px;stroke-linecap:round;stroke-linejoin:round;stroke-opacity:1;stroke-dasharray:none"
         inkscape:connector-curvature="0" />
      <path
         id="path3134"
         d="m 409.29688,472.5 -12.89063,1.01562 c 3.04687,-2.73437 4.60937,-6.71874 4.29687,-10.78124 l 8.59376,9.76562 z"
         style="fill:#000000;fill-opacity:1;fill-rule:evenodd;stroke:none"
         inkscape:connector-curvature="0" />
      <path
         id="path3136"
         d="m 233.82812,393.82812 28.82813,11.71876 8.98437,-22.26563 -28.82812,-11.71875 -8.98438,22.26562 z"
         style="fill:#ffffff;fill-opacity:1;fill-rule:evenodd;stroke:none"
         inkscape:connector-curvature="0" />
      <text
         id="text3138"
         style="font-size:20px;font-style:normal;font-weight:normal;text-align:start;text-anchor:start;fill:#000000;font-family:Arial"
         transform="matrix(0.92050485,0.39073113,-0.39073113,0.92050485,170.67745,-61.406491)"
         y="388.75"
         x="236.25"
         xml:space="preserve">i</text>
      <text
         id="text3140"
         style="font-size:20px;font-style:normal;font-weight:normal;text-align:start;text-anchor:start;fill:#000000;font-family:Arial"
         transform="matrix(0.92050485,0.39073113,-0.39073113,0.92050485,171.46398,-62.772364)"
         y="390"
         x="240"
         xml:space="preserve">s</text>
      <text
         id="text3142"
         style="font-size:20px;font-style:normal;font-weight:normal;text-align:start;text-anchor:start;fill:#000000;font-family:Arial"
         transform="matrix(0.92050485,0.39073113,-0.39073113,0.92050485,173.72417,-66.381568)"
         y="393.75"
         x="250"
         xml:space="preserve"> </text>
      <text
         id="text3144"
         style="font-size:20px;font-style:normal;font-weight:normal;text-align:start;text-anchor:start;fill:#000000;font-family:Arial"
         transform="matrix(0.92050485,0.39073113,-0.39073113,0.92050485,175.09847,-68.136486)"
         y="396.25"
         x="255"
         xml:space="preserve">a</text>
      <path
         id="path3146"
         d="m 2.109375,526.79688 c 0,-16.95313 35.9375,-30.70313 80.3125,-30.70313 44.375005,0 80.312505,13.75 80.312505,30.70313 0,0 0,0 0,0 0,16.95312 -35.9375,30.70312 -80.312505,30.70312 -44.375,0 -80.3125,-13.75 -80.3125,-30.70312"
         style="fill:#ffffff;fill-opacity:1;fill-rule:evenodd;stroke:none"
         inkscape:connector-curvature="0" />
      <path
         id="path3148"
         d="m 2.109375,526.79688 c 0,-16.95313 35.9375,-30.70313 80.3125,-30.70313 44.375005,0 80.312505,13.75 80.312505,30.70313 0,0 0,0 0,0 0,16.95312 -35.9375,30.70312 -80.312505,30.70312 -44.375,0 -80.3125,-13.75 -80.3125,-30.70312"
         style="fill:none;stroke:#000000;stroke-width:0.390625px;stroke-linecap:round;stroke-linejoin:round;stroke-opacity:1;stroke-dasharray:none"
         inkscape:connector-curvature="0" />
      <text
         id="text3150"
         style="font-size:23.75px;font-style:italic;font-weight:normal;text-align:start;text-anchor:start;fill:#000000;font-family:Arial"
         y="533.75"
         x="52.5"
         xml:space="preserve">Caller</text>
      <path
         id="path3152"
         d="m 2.109375,576.40625 c 0,-16.95313 35.9375,-30.70313 80.3125,-30.70313 44.375005,0 80.312505,13.75 80.312505,30.70313 0,0 0,0 0,0 0,16.95313 -35.9375,30.70313 -80.312505,30.70313 -44.375,0 -80.3125,-13.75 -80.3125,-30.70313"
         style="fill:#ffffff;fill-opacity:1;fill-rule:evenodd;stroke:none"
         inkscape:connector-curvature="0" />
      <path
         id="path3154"
         d="m 2.109375,576.40625 c 0,-16.95313 35.9375,-30.70313 80.3125,-30.70313 44.375005,0 80.312505,13.75 80.312505,30.70313 0,0 0,0 0,0 0,16.95313 -35.9375,30.70313 -80.312505,30.70313 -44.375,0 -80.3125,-13.75 -80.3125,-30.70313"
         style="fill:none;stroke:#000000;stroke-width:0.390625px;stroke-linecap:round;stroke-linejoin:round;stroke-opacity:1;stroke-dasharray:none"
         inkscape:connector-curvature="0" />
      <text
         id="text3156"
         style="font-size:23.75px;font-style:italic;font-weight:normal;text-align:start;text-anchor:start;fill:#000000;font-family:Arial"
         y="583.75"
         x="48.75"
         xml:space="preserve">Callee</text>
      <path
         id="path3158"
         d="m 2.109375,626.01562 c 0,-16.95312 35.9375,-30.70312 80.3125,-30.70312 44.375005,0 80.312505,13.75 80.312505,30.70312 0,0 0,0 0,0 0,16.95313 -35.9375,30.70313 -80.312505,30.70313 -44.375,0 -80.3125,-13.75 -80.3125,-30.70313"
         style="fill:#ffffff;fill-opacity:1;fill-rule:evenodd;stroke:none"
         inkscape:connector-curvature="0" />
      <path
         id="path3160"
         d="m 2.109375,626.01562 c 0,-16.95312 35.9375,-30.70312 80.3125,-30.70312 44.375005,0 80.312505,13.75 80.312505,30.70312 0,0 0,0 0,0 0,16.95313 -35.9375,30.70313 -80.312505,30.70313 -44.375,0 -80.3125,-13.75 -80.3125,-30.70313"
         style="fill:none;stroke:#000000;stroke-width:0.390625px;stroke-linecap:round;stroke-linejoin:round;stroke-opacity:1;stroke-dasharray:none"
         inkscape:connector-curvature="0" />
      <text
         id="text3162"
         style="font-size:23.75px;font-style:italic;font-weight:normal;text-align:start;text-anchor:start;fill:#000000;font-family:Arial"
         y="632.5"
         x="33.75"
         xml:space="preserve">Publisher</text>
      <path
         id="path3164"
         d="m 2.109375,677.96875 c 0,-16.95313 35.9375,-30.70313 80.3125,-30.70313 44.375005,0 80.312505,13.75 80.312505,30.70313 0,0 0,0 0,0 0,16.95313 -35.9375,30.70313 -80.312505,30.70313 -44.375,0 -80.3125,-13.75 -80.3125,-30.70313"
         style="fill:#ffffff;fill-opacity:1;fill-rule:evenodd;stroke:none"
         inkscape:connector-curvature="0" />
      <path
         id="path3166"
         d="m 2.109375,677.96875 c 0,-16.95313 35.9375,-30.70313 80.3125,-30.70313 44.375005,0 80.312505,13.75 80.312505,30.70313 0,0 0,0 0,0 0,16.95313 -35.9375,30.70313 -80.312505,30.70313 -44.375,0 -80.3125,-13.75 -80.3125,-30.70313"
         style="fill:none;stroke:#000000;stroke-width:0.390625px;stroke-linecap:round;stroke-linejoin:round;stroke-opacity:1;stroke-dasharray:none"
         inkscape:connector-curvature="0" />
      <text
         id="text3168"
         style="font-size:23.75px;font-style:italic;font-weight:normal;text-align:start;text-anchor:start;fill:#000000;font-family:Arial"
         y="685"
         x="26.25"
         xml:space="preserve">Subscriber</text>
      <path
         id="path3170"
         d="m 230.78125,359.0625 614.14063,0"
         style="fill:none;stroke:#000000;stroke-width:3.59375px;stroke-linecap:round;stroke-linejoin:round;stroke-opacity:1;stroke-dasharray:none"
         inkscape:connector-curvature="0" />
      <path
         id="path3172"
         d="m 913.90625,623.67188 c 0,-16.95313 35.9375,-30.70313 80.3125,-30.70313 44.37505,0 80.31245,13.75 80.31245,30.70313 0,0 0,0 0,0 0,16.95312 -35.9374,30.70312 -80.31245,30.70312 -44.375,0 -80.3125,-13.75 -80.3125,-30.70312"
         style="fill:#ffffff;fill-opacity:1;fill-rule:evenodd;stroke:none"
         inkscape:connector-curvature="0" />
      <path
         id="path3174"
         d="m 913.90625,623.67188 c 0,-16.95313 35.9375,-30.70313 80.3125,-30.70313 44.37505,0 80.31245,13.75 80.31245,30.70313 0,0 0,0 0,0 0,16.95312 -35.9374,30.70312 -80.31245,30.70312 -44.375,0 -80.3125,-13.75 -80.3125,-30.70312"
         style="fill:none;stroke:#000000;stroke-width:0.390625px;stroke-linecap:round;stroke-linejoin:round;stroke-opacity:1;stroke-dasharray:none"
         inkscape:connector-curvature="0" />
      <text
         id="text3176"
         style="font-size:23.75px;font-style:italic;font-weight:normal;text-align:start;text-anchor:start;fill:#000000;font-family:Arial"
         y="631.25"
         x="960"
         xml:space="preserve">Dealer</text>
      <path
         id="path3178"
         d="m 913.90625,673.28125 c 0,-16.95313 35.9375,-30.70313 80.3125,-30.70313 44.37505,0 80.31245,13.75 80.31245,30.70313 0,0 0,0 0,0 0,16.95313 -35.9374,30.70313 -80.31245,30.70313 -44.375,0 -80.3125,-13.75 -80.3125,-30.70313"
         style="fill:#ffffff;fill-opacity:1;fill-rule:evenodd;stroke:none"
         inkscape:connector-curvature="0" />
      <path
         id="path3180"
         d="m 913.90625,673.28125 c 0,-16.95313 35.9375,-30.70313 80.3125,-30.70313 44.37505,0 80.31245,13.75 80.31245,30.70313 0,0 0,0 0,0 0,16.95313 -35.9374,30.70313 -80.31245,30.70313 -44.375,0 -80.3125,-13.75 -80.3125,-30.70313"
         style="fill:none;stroke:#000000;stroke-width:0.390625px;stroke-linecap:round;stroke-linejoin:round;stroke-opacity:1;stroke-dasharray:none"
         inkscape:connector-curvature="0" />
      <text
         id="text3182"
         style="font-size:23.75px;font-style:italic;font-weight:normal;text-align:start;text-anchor:start;fill:#000000;font-family:Arial"
         y="680"
         x="960"
         xml:space="preserve">Broker</text>
      <path
         id="path3184"
         d="m 417.89062,746.25 0,56.95312 253.28126,0 0,-56.95312 -253.28126,0 z"
         style="fill:#ffffff;fill-opacity:1;fill-rule:evenodd;stroke:none"
         inkscape:connector-curvature="0" />
      <path
         id="path3186"
         d="m 417.89062,803.20312 253.28126,0 0,-56.95312 -253.28126,0 0,56.95312 z"
         style="fill:none;stroke:#000000;stroke-width:0.390625px;stroke-linecap:round;stroke-linejoin:round;stroke-opacity:1;stroke-dasharray:none"
         inkscape:connector-curvature="0" />
      <text
         id="text3188"
         style="font-size:23.75px;font-style:normal;font-weight:normal;text-align:start;text-anchor:start;fill:#000000;font-family:Arial"
         y="781.25"
         x="520"
         xml:space="preserve">Role</text>
      <path
         id="path3190"
         d="m 540.23438,500.9375 0,245.3125"
         style="fill:none;stroke:#000000;stroke-width:0.390625px;stroke-linecap:round;stroke-linejoin:round;stroke-opacity:1;stroke-dasharray:none"
         inkscape:connector-curvature="0" />
      <path
         id="path3192"
         d="m 515.78125,611.5625 0,24.0625 48.90625,0 0,-24.0625 -48.90625,0 z"
         style="fill:#ffffff;fill-opacity:1;fill-rule:evenodd;stroke:none"
         inkscape:connector-curvature="0" />
      <text
         id="text3194"
         style="font-size:20px;font-style:normal;font-weight:normal;text-align:start;text-anchor:start;fill:#000000;font-family:Arial"
         y="630"
         x="516.25"
         xml:space="preserve">has a</text>
      <path
         id="path3196"
         d="M 409.21875,773.04688 82.421875,708.67188"
         style="fill:none;stroke:#000000;stroke-width:0.390625px;stroke-linecap:round;stroke-linejoin:round;stroke-opacity:1;stroke-dasharray:none"
         inkscape:connector-curvature="0" />
      <path
         id="path3198"
         d="m 417.89062,774.6875 -12.5,3.51562 c 2.5,-3.28124 3.28126,-7.5 2.1875,-11.40624 l 0,0 10.3125,7.89062 z"
         style="fill:#000000;fill-opacity:1;fill-rule:evenodd;stroke:none"
         inkscape:connector-curvature="0" />
      <path
         id="path3200"
         d="m 236.17188,731.95312 30.54687,6.01563 4.6875,-23.59375 -30.54687,-6.01562 -4.6875,23.59374 z"
         style="fill:#ffffff;fill-opacity:1;fill-rule:evenodd;stroke:none"
         inkscape:connector-curvature="0" />
      <text
         id="text3202"
         style="font-size:20px;font-style:normal;font-weight:normal;text-align:start;text-anchor:start;fill:#000000;font-family:Arial"
         transform="matrix(0.9781476,0.20791169,-0.20791169,0.9781476,156.18581,-33.508722)"
         y="726.25"
         x="237.5"
         xml:space="preserve">i</text>
      <text
         id="text3204"
         style="font-size:20px;font-style:normal;font-weight:normal;text-align:start;text-anchor:start;fill:#000000;font-family:Arial"
         transform="matrix(0.9781476,0.20791169,-0.20791169,0.9781476,156.26776,-34.28839)"
         y="726.25"
         x="241.25"
         xml:space="preserve">s</text>
      <text
         id="text3206"
         style="font-size:20px;font-style:normal;font-weight:normal;text-align:start;text-anchor:start;fill:#000000;font-family:Arial"
         transform="matrix(0.9781476,0.20791169,-0.20791169,0.9781476,157.00606,-36.312876)"
         y="728.75"
         x="251.25"
         xml:space="preserve"> </text>
      <text
         id="text3208"
         style="font-size:20px;font-style:normal;font-weight:normal;text-align:start;text-anchor:start;fill:#000000;font-family:Arial"
         transform="matrix(0.9781476,0.20791169,-0.20791169,0.9781476,157.40253,-37.585009)"
         y="730"
         x="257.5"
         xml:space="preserve">a</text>
      <path
         id="path3210"
         d="M 679.76562,772.8125 994.21875,703.98438"
         style="fill:none;stroke:#000000;stroke-width:0.390625px;stroke-linecap:round;stroke-linejoin:round;stroke-opacity:1;stroke-dasharray:none"
         inkscape:connector-curvature="0" />
      <path
         id="path3212"
         d="m 671.17188,774.6875 10.07812,-8.125 c -0.9375,3.98438 -0.0781,8.125 2.5,11.32812 l -12.57812,-3.20312 z"
         style="fill:#000000;fill-opacity:1;fill-rule:evenodd;stroke:none"
         inkscape:connector-curvature="0" />
      <path
         id="path3214"
         d="m 816.01562,735.9375 30.39063,-6.64062 -5.07813,-23.4375 -30.39062,6.64062 5.07812,23.4375 z"
         style="fill:#ffffff;fill-opacity:1;fill-rule:evenodd;stroke:none"
         inkscape:connector-curvature="0" />
      <text
         id="text3216"
         style="font-size:20px;font-style:normal;font-weight:normal;text-align:start;text-anchor:start;fill:#000000;font-family:Arial"
         transform="matrix(0.9781476,-0.20791169,0.20791169,0.9781476,-133.96583,185.40028)"
         y="730"
         x="815"
         xml:space="preserve">i</text>
      <text
         id="text3218"
         style="font-size:20px;font-style:normal;font-weight:normal;text-align:start;text-anchor:start;fill:#000000;font-family:Arial"
         transform="matrix(0.9781476,-0.20791169,0.20791169,0.9781476,-133.62399,186.15263)"
         y="728.75"
         x="818.75"
         xml:space="preserve">s</text>
      <text
         id="text3220"
         style="font-size:20px;font-style:normal;font-weight:normal;text-align:start;text-anchor:start;fill:#000000;font-family:Arial"
         transform="matrix(0.9781476,-0.20791169,0.20791169,0.9781476,-133.14558,188.20443)"
         y="727.5"
         x="828.75"
         xml:space="preserve"> </text>
      <text
         id="text3222"
         style="font-size:20px;font-style:normal;font-weight:normal;text-align:start;text-anchor:start;fill:#000000;font-family:Arial"
         transform="matrix(0.9781476,-0.20791169,0.20791169,0.9781476,-132.77643,189.21668)"
         y="726.25"
         x="833.75"
         xml:space="preserve">a</text>
      <path
         id="path3224"
         d="M 994.21875,584.14062 993.75,339.6875"
         style="fill:none;stroke:#000000;stroke-width:0.390625px;stroke-linecap:round;stroke-linejoin:round;stroke-opacity:1;stroke-dasharray:none"
         inkscape:connector-curvature="0" />
      <path
         id="path3226"
         d="m 994.21875,592.96875 -5.78125,-11.5625 c 3.59375,1.79687 7.96875,1.79687 11.5625,-0.0781 l -5.78125,11.64063 z"
         style="fill:#000000;fill-opacity:1;fill-rule:evenodd;stroke:none"
         inkscape:connector-curvature="0" />
      <path
         id="path3228"
         d="m 1000.8594,427.96875 0.078,76.71875 24.0625,-0.0781 -0.1562,-76.71876 -23.9844,0.0781 z"
         style="fill:#ffffff;fill-opacity:1;fill-rule:evenodd;stroke:none"
         inkscape:connector-curvature="0" />
      <text
         id="text3230"
         style="font-size:20px;font-style:normal;font-weight:normal;text-align:start;text-anchor:start;fill:#000000;font-family:Arial"
         transform="matrix(0,1,-1,0,1433.75,-578.75)"
         y="427.5"
         x="1006.25"
         xml:space="preserve">s</text>
      <text
         id="text3232"
         style="font-size:20px;font-style:normal;font-weight:normal;text-align:start;text-anchor:start;fill:#000000;font-family:Arial"
         transform="matrix(0,1,-1,0,1443.75,-568.75)"
         y="437.5"
         x="1006.25"
         xml:space="preserve">u</text>
      <text
         id="text3234"
         style="font-size:20px;font-style:normal;font-weight:normal;text-align:start;text-anchor:start;fill:#000000;font-family:Arial"
         transform="matrix(0,1,-1,0,1455,-557.5)"
         y="448.75"
         x="1006.25"
         xml:space="preserve">p</text>
      <text
         id="text3236"
         style="font-size:20px;font-style:normal;font-weight:normal;text-align:start;text-anchor:start;fill:#000000;font-family:Arial"
         transform="matrix(0,1,-1,0,1466.25,-546.25)"
         y="460"
         x="1006.25"
         xml:space="preserve">p</text>
      <text
         id="text3238"
         style="font-size:20px;font-style:normal;font-weight:normal;text-align:start;text-anchor:start;fill:#000000;font-family:Arial"
         transform="matrix(0,1,-1,0,1477.5,-535)"
         y="471.25"
         x="1006.25"
         xml:space="preserve">o</text>
      <text
         id="text3240"
         style="font-size:20px;font-style:normal;font-weight:normal;text-align:start;text-anchor:start;fill:#000000;font-family:Arial"
         transform="matrix(0,1,-1,0,1490,-525)"
         y="482.5"
         x="1007.5"
         xml:space="preserve">r</text>
      <text
         id="text3242"
         style="font-size:20px;font-style:normal;font-weight:normal;text-align:start;text-anchor:start;fill:#000000;font-family:Arial"
         transform="matrix(0,1,-1,0,1496.25,-518.75)"
         y="488.75"
         x="1007.5"
         xml:space="preserve">t</text>
      <text
         id="text3244"
         style="font-size:20px;font-style:normal;font-weight:normal;text-align:start;text-anchor:start;fill:#000000;font-family:Arial"
         transform="matrix(0,1,-1,0,1502.5,-512.5)"
         y="495"
         x="1007.5"
         xml:space="preserve">s</text>
      <path
         id="path3246"
         d="M 82.421875,487.34375 81.953125,339.6875"
         style="fill:none;stroke:#000000;stroke-width:0.390625px;stroke-linecap:round;stroke-linejoin:round;stroke-opacity:1;stroke-dasharray:none"
         inkscape:connector-curvature="0" />
      <path
         id="path3248"
         d="M 82.421875,496.09375 76.5625,484.53125 c 3.671875,1.79687 7.96875,1.79687 11.640625,-0.0781 l -5.78125,11.64063 z"
         style="fill:#000000;fill-opacity:1;fill-rule:evenodd;stroke:none"
         inkscape:connector-curvature="0" />
      <path
         id="path3250"
         d="m 88.984375,379.53125 0.234375,76.71875 23.98437,-0.0781 -0.23437,-76.71876 -23.984375,0.0781 z"
         style="fill:#ffffff;fill-opacity:1;fill-rule:evenodd;stroke:none"
         inkscape:connector-curvature="0" />
      <text
         id="text3252"
         style="font-size:20px;font-style:normal;font-weight:normal;text-align:start;text-anchor:start;fill:#000000;font-family:Arial"
         transform="matrix(0,1,-1,0,475,285)"
         y="380"
         x="95"
         xml:space="preserve">s</text>
      <text
         id="text3254"
         style="font-size:20px;font-style:normal;font-weight:normal;text-align:start;text-anchor:start;fill:#000000;font-family:Arial"
         transform="matrix(0,1,-1,0,485,295)"
         y="390"
         x="95"
         xml:space="preserve">u</text>
      <text
         id="text3256"
         style="font-size:20px;font-style:normal;font-weight:normal;text-align:start;text-anchor:start;fill:#000000;font-family:Arial"
         transform="matrix(0,1,-1,0,495,305)"
         y="400"
         x="95"
         xml:space="preserve">p</text>
      <text
         id="text3258"
         style="font-size:20px;font-style:normal;font-weight:normal;text-align:start;text-anchor:start;fill:#000000;font-family:Arial"
         transform="matrix(0,1,-1,0,506.25,316.25)"
         y="411.25"
         x="95"
         xml:space="preserve">p</text>
      <text
         id="text3260"
         style="font-size:20px;font-style:normal;font-weight:normal;text-align:start;text-anchor:start;fill:#000000;font-family:Arial"
         transform="matrix(0,1,-1,0,517.5,327.5)"
         y="422.5"
         x="95"
         xml:space="preserve">o</text>
      <text
         id="text3262"
         style="font-size:20px;font-style:normal;font-weight:normal;text-align:start;text-anchor:start;fill:#000000;font-family:Arial"
         transform="matrix(0,1,-1,0,528.75,338.75)"
         y="433.75"
         x="95"
         xml:space="preserve">r</text>
      <text
         id="text3264"
         style="font-size:20px;font-style:normal;font-weight:normal;text-align:start;text-anchor:start;fill:#000000;font-family:Arial"
         transform="matrix(0,1,-1,0,535,345)"
         y="440"
         x="95"
         xml:space="preserve">t</text>
      <text
         id="text3266"
         style="font-size:20px;font-style:normal;font-weight:normal;text-align:start;text-anchor:start;fill:#000000;font-family:Arial"
         transform="matrix(0,1,-1,0,541.25,351.25)"
         y="446.25"
         x="95"
         xml:space="preserve">s</text>
      <path
         id="path3268"
         d="M 724.92188,257.57812 C 746.32812,207.1875 722.73438,149.0625 672.34375,127.65625 621.95312,106.32812 563.75,129.92188 542.42188,180.3125 c -0.70313,1.64062 -1.32813,3.35938 -1.95313,5.07812"
         style="fill:none;stroke:#000000;stroke-width:0.390625px;stroke-linecap:round;stroke-linejoin:round;stroke-opacity:1;stroke-dasharray:none"
         inkscape:connector-curvature="0" />
      <path
         id="path3270"
         d="m 726.64062,253.59375 c -2.1875,-0.9375 -4.76562,0.0781 -5.70312,2.26563 -0.9375,2.26562 0.0781,4.76562 2.34375,5.70312 0,0 0,0 0,0 2.1875,0.9375 4.76563,-0.0781 5.70313,-2.26562 0.9375,-2.26563 -0.15626,-4.76563 -2.34376,-5.70313"
         style="fill:#000000;fill-opacity:1;fill-rule:evenodd;stroke:none"
         inkscape:connector-curvature="0" />
      <path
         id="path3272"
         d="m 537.8125,193.75 -2.03125,-12.8125 c 2.89063,2.8125 7.03125,4.14062 11.01563,3.4375 l 0,0 -8.98438,9.375 z"
         style="fill:#000000;fill-opacity:1;fill-rule:evenodd;stroke:none"
         inkscape:connector-curvature="0" />
      <path
         id="path3274"
         d="m 659.60938,134.53125 0,23.98437 83.4375,0 0,-23.98437 -83.4375,0 z"
         style="fill:#ffffff;fill-opacity:1;fill-rule:evenodd;stroke:none"
         inkscape:connector-curvature="0" />
      <text
         id="text3276"
         style="font-size:20px;font-style:normal;font-weight:normal;text-align:start;text-anchor:start;fill:#000000;font-family:Arial"
         y="152.5"
         x="660"
         xml:space="preserve">runs over</text>
      <path
         id="path3278"
         d="M 81.953125,222.73438 C 281.17188,-29.0625 646.79688,-71.640625 898.59375,127.57812 c 32.96875,26.09376 63.04687,55.70313 89.6875,88.28126"
         style="fill:none;stroke:#000000;stroke-width:0.390625px;stroke-linecap:round;stroke-linejoin:round;stroke-opacity:1;stroke-dasharray:none"
         inkscape:connector-curvature="0" />
      <path
         id="path3280"
         d="m 993.75,222.73438 -11.79688,-5.39063 c 3.98438,-0.85937 7.34376,-3.59375 9.0625,-7.26563 l 0,0 2.73438,12.65626 z"
         style="fill:#000000;fill-opacity:1;fill-rule:evenodd;stroke:none"
         inkscape:connector-curvature="0" />
      <path
         id="path3282"
         d="m 190.9375,63.671875 0,23.984375 127.89062,0 0,-23.984375 -127.89062,0 z"
         style="fill:#ffffff;fill-opacity:1;fill-rule:evenodd;stroke:none"
         inkscape:connector-curvature="0" />
      <text
         id="text3284"
         style="font-size:20px;font-style:normal;font-weight:normal;text-align:start;text-anchor:start;fill:#000000;font-family:Arial"
         y="81.25"
         x="191.25"
         xml:space="preserve">opens session</text>
      <path
         id="path3286"
         d="m 1091.0938,252.1875 c 13.0468,0 23.5937,-10.54688 23.5937,-23.59375 l 0,0 0,-11.25 c 0,-13.04687 -10.5469,-23.59375 -23.5937,-23.59375 l -56.7188,0 c -13.0469,0 -23.5938,10.54688 -23.5938,23.59375 l 0,0 0,11.25 c 0,13.04687 10.5469,23.59375 23.5938,23.59375 l 56.7188,0 z"
         style="fill:#7395bf;fill-opacity:1;fill-rule:evenodd;stroke:none"
         inkscape:connector-curvature="0" />
      <path
         id="path3288"
         d="m 1091.0938,252.1875 c 13.0468,0 23.5937,-10.54688 23.5937,-23.59375 l 0,0 0,-11.25 c 0,-13.04687 -10.5469,-23.59375 -23.5937,-23.59375 l -56.7188,0 c -13.0469,0 -23.5938,10.54688 -23.5938,23.59375 l 0,0 0,11.25 c 0,13.04687 10.5469,23.59375 23.5938,23.59375 l 56.7188,0 z"
         style="fill:none;stroke:#000000;stroke-width:2.03125px;stroke-linecap:round;stroke-linejoin:round;stroke-opacity:1;stroke-dasharray:none"
         inkscape:connector-curvature="0" />
      <text
         id="text3290"
         style="font-size:20px;font-style:normal;font-weight:bold;text-align:start;text-anchor:start;fill:#ffffff;font-family:Arial"
         y="228.75"
         x="1032.5"
         xml:space="preserve">Realm</text>
      <path
         id="path3292"
         d="m 869.0625,257.57812 c -20,-52.73437 6.5625,-111.64062 59.29688,-131.5625 52.73437,-20 111.64062,6.5625 131.64062,59.29688 0,0.0781 0,0.0781 0,0.0781"
         style="fill:none;stroke:#000000;stroke-width:0.390625px;stroke-linecap:round;stroke-linejoin:round;stroke-opacity:1;stroke-dasharray:none"
         inkscape:connector-curvature="0" />
      <path
         id="path3294"
         d="m 867.5,253.51562 c 2.26562,-0.85937 4.76562,0.3125 5.625,2.5 0.85938,2.26563 -0.3125,4.76563 -2.57812,5.625 0,0 0,0 0,0 -2.1875,0.85938 -4.6875,-0.23437 -5.54688,-2.5 -0.85938,-2.26562 0.23438,-4.76562 2.5,-5.625"
         style="fill:#000000;fill-opacity:1;fill-rule:evenodd;stroke:none"
         inkscape:connector-curvature="0" />
      <path
         id="path3296"
         d="m 1062.7344,193.75 1.875,-12.8125 c -2.8906,2.8125 -6.9532,4.21875 -11.0156,3.59375 l 9.1406,9.21875 z"
         style="fill:#000000;fill-opacity:1;fill-rule:evenodd;stroke:none"
         inkscape:connector-curvature="0" />
      <path
         id="path3298"
         d="m 846.09375,134.14062 0,24.0625 98.98437,0 0,-24.0625 -98.98437,0 z"
         style="fill:#ffffff;fill-opacity:1;fill-rule:evenodd;stroke:none"
         inkscape:connector-curvature="0" />
      <text
         id="text3300"
         style="font-size:20px;font-style:normal;font-weight:normal;text-align:start;text-anchor:start;fill:#000000;font-family:Arial"
         y="152.5"
         x="846.25"
         xml:space="preserve">attached to</text>
    </g>
  </g>
</svg>
