<?xml version="1.0" encoding="UTF-8" standalone="no"?>
<!-- Created with Inkscape (http://www.inkscape.org/) -->

<svg
   xmlns:dc="http://purl.org/dc/elements/1.1/"
   xmlns:cc="http://creativecommons.org/ns#"
   xmlns:rdf="http://www.w3.org/1999/02/22-rdf-syntax-ns#"
   xmlns:svg="http://www.w3.org/2000/svg"
   xmlns="http://www.w3.org/2000/svg"
   xmlns:sodipodi="http://sodipodi.sourceforge.net/DTD/sodipodi-0.dtd"
   xmlns:inkscape="http://www.inkscape.org/namespaces/inkscape"
   width="936.59424"
   height="887.49023"
   id="svg2"
   version="1.1"
   inkscape:version="0.48.4 r9939"
   sodipodi:docname="Neues Dokument 1">
  <defs
     id="defs4" />
  <sodipodi:namedview
     id="base"
     pagecolor="#ffffff"
     bordercolor="#666666"
     borderopacity="1.0"
     inkscape:pageopacity="0.0"
     inkscape:pageshadow="2"
     inkscape:zoom="0.7"
     inkscape:cx="509.84893"
     inkscape:cy="483.28597"
     inkscape:document-units="px"
     inkscape:current-layer="layer1"
     showgrid="false"
     fit-margin-top="10"
     fit-margin-left="10"
     fit-margin-bottom="10"
     fit-margin-right="10"
     inkscape:window-width="1440"
     inkscape:window-height="838"
     inkscape:window-x="-8"
     inkscape:window-y="-8"
     inkscape:window-maximized="1" />
  <metadata
     id="metadata7">
    <rdf:RDF>
      <cc:Work
         rdf:about="">
        <dc:format>image/svg+xml</dc:format>
        <dc:type
           rdf:resource="http://purl.org/dc/dcmitype/StillImage" />
        <dc:title></dc:title>
      </cc:Work>
    </rdf:RDF>
  </metadata>
  <g
     inkscape:label="Ebene 1"
     inkscape:groupmode="layer"
     id="layer1"
     transform="translate(118.29712,-88.617068)">
    <g
       id="g2989"
       transform="translate(-111.26587,86.341677)">
      <path
         id="path2991"
         d="m 188.90625,308.67188 0,141.71874 14.14063,0 0,-141.71874 -14.14063,0 z"
         style="fill:#fa72c6;fill-opacity:1;fill-rule:evenodd;stroke:none"
         inkscape:connector-curvature="0" />
      <text
         id="text2993"
         style="font-size:30px;font-style:normal;font-weight:normal;text-align:start;text-anchor:start;fill:#000000;font-family:Arial"
         y="35"
         x="121.25"
         xml:space="preserve">Peer</text>
      <path
         id="path2995"
         d="m 146.40625,96.09375 0,779.53125 14.14063,0 0,-779.53125 -14.14063,0 z"
         style="fill:#404040;fill-opacity:1;fill-rule:evenodd;stroke:none"
         inkscape:connector-curvature="0" />
      <path
         id="path2997"
         d="m 160.54688,166.95312 0,637.73438 14.14062,0 0,-637.73438 -14.14062,0 z"
         style="fill:#737373;fill-opacity:1;fill-rule:evenodd;stroke:none"
         inkscape:connector-curvature="0" />
      <path
         id="path2999"
         d="m 174.6875,237.8125 0,496.01562 14.21875,0 0,-496.01562 -14.21875,0 z"
         style="fill:#8c8c8c;fill-opacity:1;fill-rule:evenodd;stroke:none"
         inkscape:connector-curvature="0" />
      <path
         id="path3001"
         d="m 746.40625,96.09375 0,779.53125 14.14063,0 0,-779.53125 -14.14063,0 z"
         style="fill:#404040;fill-opacity:1;fill-rule:evenodd;stroke:none"
         inkscape:connector-curvature="0" />
      <path
         id="path3003"
         d="m 732.1875,166.95312 0,637.73438 14.21875,0 0,-637.73438 -14.21875,0 z"
         style="fill:#737373;fill-opacity:1;fill-rule:evenodd;stroke:none"
         inkscape:connector-curvature="0" />
      <path
         id="path3005"
         d="m 166.875,96.09375 573.125,0"
         style="fill:none;stroke:#595959;stroke-width:1.171875px;stroke-linecap:round;stroke-linejoin:round;stroke-opacity:1;stroke-dasharray:none"
         inkscape:connector-curvature="0" />
      <path
         id="path3007"
         d="m 160.54688,96.09375 8.4375,-4.21875 c -1.32813,2.65625 -1.32813,5.703125 0,8.35938 l -8.4375,-4.14063 z"
         style="fill:#595959;fill-opacity:1;fill-rule:evenodd;stroke:none"
         inkscape:connector-curvature="0" />
      <path
         id="path3009"
         d="m 746.40625,96.09375 -8.4375,4.14063 c 1.32813,-2.656255 1.32813,-5.70313 0,-8.35938 l 8.4375,4.21875 z"
         style="fill:#595959;fill-opacity:1;fill-rule:evenodd;stroke:none"
         inkscape:connector-curvature="0" />
      <path
         id="path3011"
         d="m 380.07812,65.15625 0,23.984375 146.71876,0 0,-23.984375 -146.71876,0 z"
         style="fill:#ffffff;fill-opacity:1;fill-rule:evenodd;stroke:none"
         inkscape:connector-curvature="0" />
      <text
         id="text3013"
         style="font-size:20px;font-style:normal;font-weight:normal;text-align:start;text-anchor:start;fill:#000000;font-family:Arial"
         y="83.75"
         x="380"
         xml:space="preserve">TCP established</text>
      <path
         id="path3015"
         d="m 173.98438,166.95312 551.875,0"
         style="fill:none;stroke:#595959;stroke-width:1.171875px;stroke-linecap:round;stroke-linejoin:round;stroke-opacity:1;stroke-dasharray:none"
         inkscape:connector-curvature="0" />
      <path
         id="path3017"
         d="m 167.65625,166.95312 8.35937,-4.21874 c -1.32812,2.65624 -1.32812,5.78124 0,8.35937 l -8.35937,-4.14063 z"
         style="fill:#595959;fill-opacity:1;fill-rule:evenodd;stroke:none"
         inkscape:connector-curvature="0" />
      <path
         id="path3019"
         d="m 732.1875,166.95312 -8.35938,4.14063 c 1.32813,-2.57813 1.32813,-5.70313 0,-8.35937 l 8.35938,4.21874 z"
         style="fill:#595959;fill-opacity:1;fill-rule:evenodd;stroke:none"
         inkscape:connector-curvature="0" />
      <path
         id="path3021"
         d="m 378.20312,136.01562 0,23.98438 143.4375,0 0,-23.98438 -143.4375,0 z"
         style="fill:#ffffff;fill-opacity:1;fill-rule:evenodd;stroke:none"
         inkscape:connector-curvature="0" />
      <text
         id="text3023"
         style="font-size:20px;font-style:normal;font-weight:normal;text-align:start;text-anchor:start;fill:#000000;font-family:Arial"
         y="153.75"
         x="378.75"
         xml:space="preserve">TLS established</text>
      <path
         id="path3025"
         d="m 195.23438,237.8125 516.40624,0.39062"
         style="fill:none;stroke:#595959;stroke-width:1.171875px;stroke-linecap:round;stroke-linejoin:round;stroke-opacity:1;stroke-dasharray:none"
         inkscape:connector-curvature="0" />
      <path
         id="path3027"
         d="m 188.90625,237.8125 8.35937,-4.21875 c -1.32812,2.65625 -1.32812,5.78125 0,8.4375 l 0,0 -8.35937,-4.21875 z"
         style="fill:#595959;fill-opacity:1;fill-rule:evenodd;stroke:none"
         inkscape:connector-curvature="0" />
      <path
         id="path3029"
         d="m 718.04688,238.20312 -8.4375,4.21876 c 1.32812,-2.65626 1.32812,-5.78126 0,-8.4375 l 0,0 8.4375,4.21874 z"
         style="fill:#595959;fill-opacity:1;fill-rule:evenodd;stroke:none"
         inkscape:connector-curvature="0" />
      <path
         id="path3031"
         d="m 348.98438,231.01562 208.98437,0.15626 0,-23.98438 -208.98437,-0.15625 0,23.98437 z"
         style="fill:#ffffff;fill-opacity:1;fill-rule:evenodd;stroke:none"
         inkscape:connector-curvature="0" />
      <text
         id="text3033"
         style="font-size:20px;font-style:normal;font-weight:normal;text-align:start;text-anchor:start;fill:#000000;font-family:Arial"
         y="225"
         x="348.75"
         xml:space="preserve">W</text>
      <text
         id="text3035"
         style="font-size:20px;font-style:normal;font-weight:normal;text-align:start;text-anchor:start;fill:#000000;font-family:Arial"
         y="225"
         x="367.5"
         xml:space="preserve">e</text>
      <text
         id="text3037"
         style="font-size:20px;font-style:normal;font-weight:normal;text-align:start;text-anchor:start;fill:#000000;font-family:Arial"
         y="225"
         x="378.75"
         xml:space="preserve">b</text>
      <text
         id="text3039"
         style="font-size:20px;font-style:normal;font-weight:normal;text-align:start;text-anchor:start;fill:#000000;font-family:Arial"
         y="225"
         x="390"
         xml:space="preserve">S</text>
      <text
         id="text3041"
         style="font-size:20px;font-style:normal;font-weight:normal;text-align:start;text-anchor:start;fill:#000000;font-family:Arial"
         y="225"
         x="403.75"
         xml:space="preserve">o</text>
      <text
         id="text3043"
         style="font-size:20px;font-style:normal;font-weight:normal;text-align:start;text-anchor:start;fill:#000000;font-family:Arial"
         y="225"
         x="415"
         xml:space="preserve">c</text>
      <text
         id="text3045"
         style="font-size:20px;font-style:normal;font-weight:normal;text-align:start;text-anchor:start;fill:#000000;font-family:Arial"
         y="225"
         x="425"
         xml:space="preserve">k</text>
      <text
         id="text3047"
         style="font-size:20px;font-style:normal;font-weight:normal;text-align:start;text-anchor:start;fill:#000000;font-family:Arial"
         y="225"
         x="435"
         xml:space="preserve">e</text>
      <text
         id="text3049"
         style="font-size:20px;font-style:normal;font-weight:normal;text-align:start;text-anchor:start;fill:#000000;font-family:Arial"
         y="225"
         x="446.25"
         xml:space="preserve">t</text>
      <text
         id="text3051"
         style="font-size:20px;font-style:normal;font-weight:normal;text-align:start;text-anchor:start;fill:#000000;font-family:Arial"
         y="225"
         x="451.25"
         xml:space="preserve"> </text>
      <text
         id="text3053"
         style="font-size:20px;font-style:normal;font-weight:normal;text-align:start;text-anchor:start;fill:#000000;font-family:Arial"
         y="225"
         x="456.25"
         xml:space="preserve">e</text>
      <text
         id="text3055"
         style="font-size:20px;font-style:normal;font-weight:normal;text-align:start;text-anchor:start;fill:#000000;font-family:Arial"
         y="225"
         x="467.5"
         xml:space="preserve">s</text>
      <text
         id="text3057"
         style="font-size:20px;font-style:normal;font-weight:normal;text-align:start;text-anchor:start;fill:#000000;font-family:Arial"
         y="225"
         x="477.5"
         xml:space="preserve">t</text>
      <text
         id="text3059"
         style="font-size:20px;font-style:normal;font-weight:normal;text-align:start;text-anchor:start;fill:#000000;font-family:Arial"
         y="225"
         x="483.75"
         xml:space="preserve">a</text>
      <text
         id="text3061"
         style="font-size:20px;font-style:normal;font-weight:normal;text-align:start;text-anchor:start;fill:#000000;font-family:Arial"
         y="225"
         x="495"
         xml:space="preserve">b</text>
      <text
         id="text3063"
         style="font-size:20px;font-style:normal;font-weight:normal;text-align:start;text-anchor:start;fill:#000000;font-family:Arial"
         y="225"
         x="506.25"
         xml:space="preserve">l</text>
      <text
         id="text3065"
         style="font-size:20px;font-style:normal;font-weight:normal;text-align:start;text-anchor:start;fill:#000000;font-family:Arial"
         y="225"
         x="510"
         xml:space="preserve">i</text>
      <text
         id="text3067"
         style="font-size:20px;font-style:normal;font-weight:normal;text-align:start;text-anchor:start;fill:#000000;font-family:Arial"
         y="225"
         x="515"
         xml:space="preserve">s</text>
      <text
         id="text3069"
         style="font-size:20px;font-style:normal;font-weight:normal;text-align:start;text-anchor:start;fill:#000000;font-family:Arial"
         y="225"
         x="525"
         xml:space="preserve">h</text>
      <text
         id="text3071"
         style="font-size:20px;font-style:normal;font-weight:normal;text-align:start;text-anchor:start;fill:#000000;font-family:Arial"
         y="225"
         x="536.25"
         xml:space="preserve">e</text>
      <text
         id="text3073"
         style="font-size:20px;font-style:normal;font-weight:normal;text-align:start;text-anchor:start;fill:#000000;font-family:Arial"
         y="225"
         x="546.25"
         xml:space="preserve">d</text>
      <path
         id="path3075"
         d="m 718.04688,238.20312 0,495.625 14.14062,0 0,-495.625 -14.14062,0 z"
         style="fill:#8c8c8c;fill-opacity:1;fill-rule:evenodd;stroke:none"
         inkscape:connector-curvature="0" />
      <path
         id="path3077"
         d="m 188.90625,521.25 0,141.71875 14.14063,0 0,-141.71875 -14.14063,0 z"
         style="fill:#fa72c6;fill-opacity:1;fill-rule:evenodd;stroke:none"
         inkscape:connector-curvature="0" />
      <path
         id="path3079"
         d="m 703.82812,308.67188 0,141.71874 14.21876,0 0,-141.71874 -14.21876,0 z"
         style="fill:#fa72c6;fill-opacity:1;fill-rule:evenodd;stroke:none"
         inkscape:connector-curvature="0" />
      <path
         id="path3081"
         d="m 703.82812,521.25 0,141.71875 14.21876,0 0,-141.71875 -14.21876,0 z"
         style="fill:#fa72c6;fill-opacity:1;fill-rule:evenodd;stroke:none"
         inkscape:connector-curvature="0" />
      <path
         id="path3083"
         d="m 210.625,308.67188 485.625,0"
         style="fill:none;stroke:#fa72c6;stroke-width:2.03125px;stroke-linecap:round;stroke-linejoin:round;stroke-opacity:1;stroke-dasharray:none"
         inkscape:connector-curvature="0" />
      <path
         id="path3085"
         d="m 203.04688,308.67188 10,-5 c -1.5625,3.125 -1.5625,6.875 0,10 l 0,0 -10,-5 z"
         style="fill:#fa72c6;fill-opacity:1;fill-rule:evenodd;stroke:none"
         inkscape:connector-curvature="0" />
      <path
         id="path3087"
         d="m 703.82812,308.67188 -10,5 c 1.5625,-3.125 1.5625,-6.875 0,-10 l 10,5 z"
         style="fill:#fa72c6;fill-opacity:1;fill-rule:evenodd;stroke:none"
         inkscape:connector-curvature="0" />
      <path
         id="path3089"
         d="m 363.98438,277.73438 0,24.0625 178.90624,0 0,-24.0625 -178.90624,0 z"
         style="fill:#ffffff;fill-opacity:1;fill-rule:evenodd;stroke:none"
         inkscape:connector-curvature="0" />
      <text
         id="text3091"
         style="font-size:20px;font-style:normal;font-weight:bold;text-align:start;text-anchor:start;fill:#fa72c6;font-family:Arial"
         y="296.25"
         x="363.75"
         xml:space="preserve">WAMP established</text>
      <path
         id="path3093"
         d="m 210.625,450.39062 485.625,0"
         style="fill:none;stroke:#fa72c6;stroke-width:2.03125px;stroke-linecap:round;stroke-linejoin:round;stroke-opacity:1;stroke-dasharray:none"
         inkscape:connector-curvature="0" />
      <path
         id="path3095"
         d="m 203.04688,450.39062 10,-5 c -1.5625,3.125 -1.5625,6.875 0,10 l 0,0 -10,-5 z"
         style="fill:#fa72c6;fill-opacity:1;fill-rule:evenodd;stroke:none"
         inkscape:connector-curvature="0" />
      <path
         id="path3097"
         d="m 703.82812,450.39062 -10,5 c 1.5625,-3.125 1.5625,-6.875 0,-10 l 10,5 z"
         style="fill:#fa72c6;fill-opacity:1;fill-rule:evenodd;stroke:none"
         inkscape:connector-curvature="0" />
      <path
         id="path3099"
         d="m 387.34375,419.53125 0,23.98437 132.26563,0 0,-23.98437 -132.26563,0 z"
         style="fill:#ffffff;fill-opacity:1;fill-rule:evenodd;stroke:none"
         inkscape:connector-curvature="0" />
      <text
         id="text3101"
         style="font-size:20px;font-style:normal;font-weight:bold;text-align:start;text-anchor:start;fill:#fa72c6;font-family:Arial"
         y="437.5"
         x="387.5"
         xml:space="preserve">WAMP closed</text>
      <path
         id="path3103"
         d="m 210.625,662.96875 485.625,0"
         style="fill:none;stroke:#fa72c6;stroke-width:2.03125px;stroke-linecap:round;stroke-linejoin:round;stroke-opacity:1;stroke-dasharray:none"
         inkscape:connector-curvature="0" />
      <path
         id="path3105"
         d="m 203.04688,662.96875 10,-5 c -1.5625,3.20313 -1.5625,6.875 0,10 l 0,0 -10,-5 z"
         style="fill:#fa72c6;fill-opacity:1;fill-rule:evenodd;stroke:none"
         inkscape:connector-curvature="0" />
      <path
         id="path3107"
         d="m 703.82812,662.96875 -10,5 c 1.5625,-3.125 1.5625,-6.79687 0,-10 l 10,5 z"
         style="fill:#fa72c6;fill-opacity:1;fill-rule:evenodd;stroke:none"
         inkscape:connector-curvature="0" />
      <path
         id="path3109"
         d="m 387.34375,632.10938 0,23.98437 132.26563,0 0,-23.98437 -132.26563,0 z"
         style="fill:#ffffff;fill-opacity:1;fill-rule:evenodd;stroke:none"
         inkscape:connector-curvature="0" />
      <text
         id="text3111"
         style="font-size:20px;font-style:normal;font-weight:bold;text-align:start;text-anchor:start;fill:#fa72c6;font-family:Arial"
         y="650"
         x="387.5"
         xml:space="preserve">WAMP closed</text>
      <path
         id="path3113"
         d="m 210.625,521.25 485.625,0"
         style="fill:none;stroke:#fa72c6;stroke-width:2.03125px;stroke-linecap:round;stroke-linejoin:round;stroke-opacity:1;stroke-dasharray:none"
         inkscape:connector-curvature="0" />
      <path
         id="path3115"
         d="m 203.04688,521.25 10,-5 c -1.5625,3.125 -1.5625,6.875 0,10 l 0,0 -10,-5 z"
         style="fill:#fa72c6;fill-opacity:1;fill-rule:evenodd;stroke:none"
         inkscape:connector-curvature="0" />
      <path
         id="path3117"
         d="m 703.82812,521.25 -10,5 c 1.5625,-3.125 1.5625,-6.875 0,-10 l 10,5 z"
         style="fill:#fa72c6;fill-opacity:1;fill-rule:evenodd;stroke:none"
         inkscape:connector-curvature="0" />
      <path
         id="path3119"
         d="m 363.98438,490.39062 0,23.98438 178.90624,0 0,-23.98438 -178.90624,0 z"
         style="fill:#ffffff;fill-opacity:1;fill-rule:evenodd;stroke:none"
         inkscape:connector-curvature="0" />
      <text
         id="text3121"
         style="font-size:20px;font-style:normal;font-weight:bold;text-align:start;text-anchor:start;fill:#fa72c6;font-family:Arial"
         y="508.75"
         x="363.75"
         xml:space="preserve">WAMP established</text>
      <path
         id="path3123"
         d="m 195.23438,733.4375 516.40624,0.39062"
         style="fill:none;stroke:#595959;stroke-width:1.171875px;stroke-linecap:round;stroke-linejoin:round;stroke-opacity:1;stroke-dasharray:none"
         inkscape:connector-curvature="0" />
      <path
         id="path3125"
         d="m 188.90625,733.4375 8.35937,-4.14062 c -1.32812,2.57812 -1.32812,5.70312 0,8.35937 l 0,0 -8.35937,-4.21875 z"
         style="fill:#595959;fill-opacity:1;fill-rule:evenodd;stroke:none"
         inkscape:connector-curvature="0" />
      <path
         id="path3127"
         d="m 718.04688,733.82812 -8.4375,4.21876 c 1.32812,-2.65626 1.32812,-5.78126 0,-8.35938 l 0,0 8.4375,4.14062 z"
         style="fill:#595959;fill-opacity:1;fill-rule:evenodd;stroke:none"
         inkscape:connector-curvature="0" />
      <path
         id="path3129"
         d="m 370.625,726.71875 165.625,0.0781 0.0781,-23.98438 -165.70312,-0.15625 0,24.0625 z"
         style="fill:#ffffff;fill-opacity:1;fill-rule:evenodd;stroke:none"
         inkscape:connector-curvature="0" />
      <text
         id="text3131"
         style="font-size:20px;font-style:normal;font-weight:normal;text-align:start;text-anchor:start;fill:#000000;font-family:Arial"
         y="721.25"
         x="370"
         xml:space="preserve">W</text>
      <text
         id="text3133"
         style="font-size:20px;font-style:normal;font-weight:normal;text-align:start;text-anchor:start;fill:#000000;font-family:Arial"
         y="721.25"
         x="390"
         xml:space="preserve">e</text>
      <text
         id="text3135"
         style="font-size:20px;font-style:normal;font-weight:normal;text-align:start;text-anchor:start;fill:#000000;font-family:Arial"
         y="721.25"
         x="400"
         xml:space="preserve">b</text>
      <text
         id="text3137"
         style="font-size:20px;font-style:normal;font-weight:normal;text-align:start;text-anchor:start;fill:#000000;font-family:Arial"
         y="721.25"
         x="411.25"
         xml:space="preserve">S</text>
      <text
         id="text3139"
         style="font-size:20px;font-style:normal;font-weight:normal;text-align:start;text-anchor:start;fill:#000000;font-family:Arial"
         y="721.25"
         x="425"
         xml:space="preserve">o</text>
      <text
         id="text3141"
         style="font-size:20px;font-style:normal;font-weight:normal;text-align:start;text-anchor:start;fill:#000000;font-family:Arial"
         y="721.25"
         x="436.25"
         xml:space="preserve">c</text>
      <text
         id="text3143"
         style="font-size:20px;font-style:normal;font-weight:normal;text-align:start;text-anchor:start;fill:#000000;font-family:Arial"
         y="721.25"
         x="446.25"
         xml:space="preserve">k</text>
      <text
         id="text3145"
         style="font-size:20px;font-style:normal;font-weight:normal;text-align:start;text-anchor:start;fill:#000000;font-family:Arial"
         y="721.25"
         x="456.25"
         xml:space="preserve">e</text>
      <text
         id="text3147"
         style="font-size:20px;font-style:normal;font-weight:normal;text-align:start;text-anchor:start;fill:#000000;font-family:Arial"
         y="721.25"
         x="467.5"
         xml:space="preserve">t</text>
      <text
         id="text3149"
         style="font-size:20px;font-style:normal;font-weight:normal;text-align:start;text-anchor:start;fill:#000000;font-family:Arial"
         y="721.25"
         x="472.5"
         xml:space="preserve"> </text>
      <text
         id="text3151"
         style="font-size:20px;font-style:normal;font-weight:normal;text-align:start;text-anchor:start;fill:#000000;font-family:Arial"
         y="721.25"
         x="478.75"
         xml:space="preserve">c</text>
      <text
         id="text3153"
         style="font-size:20px;font-style:normal;font-weight:normal;text-align:start;text-anchor:start;fill:#000000;font-family:Arial"
         y="721.25"
         x="488.75"
         xml:space="preserve">l</text>
      <text
         id="text3155"
         style="font-size:20px;font-style:normal;font-weight:normal;text-align:start;text-anchor:start;fill:#000000;font-family:Arial"
         y="721.25"
         x="492.5"
         xml:space="preserve">o</text>
      <text
         id="text3157"
         style="font-size:20px;font-style:normal;font-weight:normal;text-align:start;text-anchor:start;fill:#000000;font-family:Arial"
         y="721.25"
         x="503.75"
         xml:space="preserve">s</text>
      <text
         id="text3159"
         style="font-size:20px;font-style:normal;font-weight:normal;text-align:start;text-anchor:start;fill:#000000;font-family:Arial"
         y="721.25"
         x="513.75"
         xml:space="preserve">e</text>
      <text
         id="text3161"
         style="font-size:20px;font-style:normal;font-weight:normal;text-align:start;text-anchor:start;fill:#000000;font-family:Arial"
         y="721.25"
         x="525"
         xml:space="preserve">d</text>
      <path
         id="path3163"
         d="m 181.09375,804.6875 551.79687,0"
         style="fill:none;stroke:#595959;stroke-width:1.171875px;stroke-linecap:round;stroke-linejoin:round;stroke-opacity:1;stroke-dasharray:none"
         inkscape:connector-curvature="0" />
      <path
         id="path3165"
         d="m 174.6875,804.6875 8.4375,-4.14062 c -1.32812,2.65624 -1.32812,5.70312 0,8.35937 l 0,0 -8.4375,-4.21875 z"
         style="fill:#595959;fill-opacity:1;fill-rule:evenodd;stroke:none"
         inkscape:connector-curvature="0" />
      <path
         id="path3167"
         d="m 739.29688,804.6875 -8.4375,4.21875 c 1.32812,-2.65625 1.32812,-5.70313 0,-8.35937 l 0,0 8.4375,4.14062 z"
         style="fill:#595959;fill-opacity:1;fill-rule:evenodd;stroke:none"
         inkscape:connector-curvature="0" />
      <path
         id="path3169"
         d="m 406.95312,773.82812 0,23.98438 100.07813,0 0,-23.98438 -100.07813,0 z"
         style="fill:#ffffff;fill-opacity:1;fill-rule:evenodd;stroke:none"
         inkscape:connector-curvature="0" />
      <text
         id="text3171"
         style="font-size:20px;font-style:normal;font-weight:normal;text-align:start;text-anchor:start;fill:#000000;font-family:Arial"
         y="791.25"
         x="407.5"
         xml:space="preserve">TLS closed</text>
      <path
         id="path3173"
         d="m 166.875,875.625 573.125,0"
         style="fill:none;stroke:#595959;stroke-width:1.171875px;stroke-linecap:round;stroke-linejoin:round;stroke-opacity:1;stroke-dasharray:none"
         inkscape:connector-curvature="0" />
      <path
         id="path3175"
         d="m 160.54688,875.625 8.4375,-4.21875 c -1.32813,2.65625 -1.32813,5.70313 0,8.35937 l -8.4375,-4.14062 z"
         style="fill:#595959;fill-opacity:1;fill-rule:evenodd;stroke:none"
         inkscape:connector-curvature="0" />
      <path
         id="path3177"
         d="m 746.40625,875.625 -8.4375,4.14062 c 1.32813,-2.65624 1.32813,-5.70312 0,-8.35937 l 8.4375,4.21875 z"
         style="fill:#595959;fill-opacity:1;fill-rule:evenodd;stroke:none"
         inkscape:connector-curvature="0" />
      <path
         id="path3179"
         d="m 401.79688,844.6875 0,23.98438 103.35937,0 0,-23.98438 -103.35937,0 z"
         style="fill:#ffffff;fill-opacity:1;fill-rule:evenodd;stroke:none"
         inkscape:connector-curvature="0" />
      <text
         id="text3181"
         style="font-size:20px;font-style:normal;font-weight:normal;text-align:start;text-anchor:start;fill:#000000;font-family:Arial"
         y="862.5"
         x="401.25"
         xml:space="preserve">TCP closed</text>
      <path
         id="path3183"
         d="m 184.14062,733.82812 -56.95312,0 c -8.98438,0 -16.25,-7.26562 -16.25,-16.17187 0,0 0,0 0,0 l 0,0 0,-220.3125 c 0,-8.98437 -7.26562,-16.25 -16.25,-16.25 0,0 0,0 0,0 8.98438,0 16.25,-7.26563 16.25,-16.25 0,0 0,0 0,0 l 0,-210.78125 c 0,-8.98438 7.26562,-16.25 16.25,-16.25 0,0 0,0 0,0 l 56.95312,0"
         style="fill:none;stroke:#000000;stroke-width:0.390625px;stroke-linecap:round;stroke-linejoin:round;stroke-opacity:1;stroke-dasharray:none"
         inkscape:connector-curvature="0" />
      <text
         id="text3185"
         style="font-size:20px;font-style:normal;font-weight:normal;text-align:start;text-anchor:start;fill:#000000;font-family:Arial"
         y="462.5"
         x="13.75"
         xml:space="preserve">WAMP </text>
      <text
         id="text3187"
         style="font-size:20px;font-style:normal;font-weight:normal;text-align:start;text-anchor:start;fill:#000000;font-family:Arial"
         y="487.5"
         x="2.5"
         xml:space="preserve">Transport </text>
      <text
         id="text3189"
         style="font-size:20px;font-style:normal;font-weight:normal;text-align:start;text-anchor:start;fill:#000000;font-family:Arial"
         y="511.25"
         x="10"
         xml:space="preserve">Lifetime</text>
      <path
         id="path3191"
         d="m 713.28125,308.67188 66.48437,0 c 8.90626,0 16.25,7.26562 16.25,16.25 0,0 0,0 0,0 l 0,0 0,38.35937 c 0,8.98437 7.26563,16.25 16.17188,16.25 0,0 0,0 0,0 -8.90625,0 -16.17188,7.26563 -16.17188,16.25 0,0 0,0 0,0 l 0,0 0,38.35937 c 0,8.98438 -7.34374,16.25 -16.25,16.25 0,0 0,0 0,0 l -66.48437,0"
         style="fill:none;stroke:#fa72c6;stroke-width:2.03125px;stroke-linecap:round;stroke-linejoin:round;stroke-opacity:1;stroke-dasharray:none"
         inkscape:connector-curvature="0" />
      <text
         id="text3193"
         style="font-size:23.75px;font-style:normal;font-weight:normal;text-align:start;text-anchor:start;fill:#fa72c6;font-family:Arial"
         y="358.75"
         x="833.75"
         xml:space="preserve">WAMP </text>
      <text
         id="text3195"
         style="font-size:23.75px;font-style:normal;font-weight:normal;text-align:start;text-anchor:start;fill:#fa72c6;font-family:Arial"
         y="386.25"
         x="828.75"
         xml:space="preserve">Session </text>
      <text
         id="text3197"
         style="font-size:23.75px;font-style:normal;font-weight:normal;text-align:start;text-anchor:start;fill:#fa72c6;font-family:Arial"
         y="415"
         x="830"
         xml:space="preserve">Lifetime</text>
      <text
         id="text3199"
         style="font-size:30px;font-style:normal;font-weight:normal;text-align:start;text-anchor:start;fill:#000000;font-family:Arial"
         y="33.75"
         x="721.25"
         xml:space="preserve">Peer</text>
      <path
         id="path3201"
         d="m 719.21875,521.25 66.40625,0 c 8.98438,0 16.25,7.26562 16.25,16.25 0,0 0,0 0,0 l 0,43.125 c 0,8.98438 7.26562,16.25 16.25,16.25 0,0 0,0 0,0 -8.98438,0 -16.25,7.26562 -16.25,16.17188 0,0 0,0 0,0 l 0,33.67187 c 0,8.98437 -7.26562,16.25 -16.25,16.25 0,0 0,0 0,0 l 0,0 -66.40625,0"
         style="fill:none;stroke:#fa72c6;stroke-width:2.03125px;stroke-linecap:round;stroke-linejoin:round;stroke-opacity:1;stroke-dasharray:none"
         inkscape:connector-curvature="0" />
      <text
         id="text3203"
         style="font-size:23.75px;font-style:normal;font-weight:normal;text-align:start;text-anchor:start;fill:#fa72c6;font-family:Arial"
         y="576.25"
         x="840"
         xml:space="preserve">WAMP </text>
      <text
         id="text3205"
         style="font-size:23.75px;font-style:normal;font-weight:normal;text-align:start;text-anchor:start;fill:#fa72c6;font-family:Arial"
         y="603.75"
         x="835"
         xml:space="preserve">Session </text>
      <text
         id="text3207"
         style="font-size:23.75px;font-style:normal;font-weight:normal;text-align:start;text-anchor:start;fill:#fa72c6;font-family:Arial"
         y="631.25"
         x="835"
         xml:space="preserve">Lifetime</text>
    </g>
  </g>
</svg>
