<?xml version="1.0" encoding="UTF-8" standalone="no"?>
<!-- Created with Inkscape (http://www.inkscape.org/) -->

<svg
   xmlns:dc="http://purl.org/dc/elements/1.1/"
   xmlns:cc="http://creativecommons.org/ns#"
   xmlns:rdf="http://www.w3.org/1999/02/22-rdf-syntax-ns#"
   xmlns:svg="http://www.w3.org/2000/svg"
   xmlns="http://www.w3.org/2000/svg"
   xmlns:sodipodi="http://sodipodi.sourceforge.net/DTD/sodipodi-0.dtd"
   xmlns:inkscape="http://www.inkscape.org/namespaces/inkscape"
   width="1090.375"
   height="508.06738"
   id="svg2"
   version="1.1"
   inkscape:version="0.48.4 r9939"
   sodipodi:docname="Neues Dokument 1">
  <defs
     id="defs4" />
  <sodipodi:namedview
     id="base"
     pagecolor="#ffffff"
     bordercolor="#666666"
     borderopacity="1.0"
     inkscape:pageopacity="0.0"
     inkscape:pageshadow="2"
     inkscape:zoom="0.98994949"
     inkscape:cx="634.24468"
     inkscape:cy="331.2162"
     inkscape:document-units="px"
     inkscape:current-layer="layer1"
     showgrid="false"
     fit-margin-top="10"
     fit-margin-left="10"
     fit-margin-bottom="10"
     fit-margin-right="10"
     inkscape:window-width="1680"
     inkscape:window-height="988"
     inkscape:window-x="-8"
     inkscape:window-y="320"
     inkscape:window-maximized="1" />
  <metadata
     id="metadata7">
    <rdf:RDF>
      <cc:Work
         rdf:about="">
        <dc:format>image/svg+xml</dc:format>
        <dc:type
           rdf:resource="http://purl.org/dc/dcmitype/StillImage" />
        <dc:title></dc:title>
      </cc:Work>
    </rdf:RDF>
  </metadata>
  <g
     inkscape:label="Ebene 1"
     inkscape:groupmode="layer"
     id="layer1"
     transform="translate(562.32758,-368.33082)">
    <g
       id="g3099"
       transform="translate(-554.20258,376.36452)">
      <path
         id="path3101"
         d="m 227.94064,3.7521093 0,484.4911107 614.48606,0 0,-484.4911107 -614.48606,0 z"
         style="fill:#d9d9d9;fill-opacity:1;fill-rule:evenodd;stroke:none"
         inkscape:connector-curvature="0" />
      <text
         id="text3103"
         style="font-size:23.76335907px;font-style:normal;font-weight:normal;text-align:start;text-anchor:start;fill:#000000;font-family:Arial"
         y="45.025311"
         x="368.9574"
         xml:space="preserve">Physical Transport </text>
      <text
         id="text3105"
         style="font-size:23.76335907px;font-style:normal;font-weight:normal;text-align:start;text-anchor:start;fill:#000000;font-family:Arial"
         y="45.025311"
         x="567.81921"
         xml:space="preserve">(</text>
      <text
         id="text3107"
         style="font-size:23.76335907px;font-style:normal;font-weight:normal;text-align:start;text-anchor:start;fill:#000000;font-family:Arial"
         y="45.025311"
         x="576.57416"
         xml:space="preserve">Multiplexed</text>
      <text
         id="text3109"
         style="font-size:23.76335907px;font-style:normal;font-weight:normal;text-align:start;text-anchor:start;fill:#000000;font-family:Arial"
         y="45.025311"
         x="694.1402"
         xml:space="preserve">)</text>
      <path
         id="path3111"
         d="m 253.26738,86.454852 0,165.405488 565.5523,0 0,-165.405488 -565.5523,0 z"
         style="fill:#a6a6a6;fill-opacity:1;fill-rule:evenodd;stroke:none"
         inkscape:connector-curvature="0" />
      <text
         id="text3113"
         style="font-size:20.01124954px;font-style:normal;font-weight:normal;text-align:start;text-anchor:start;fill:#ffffff;font-family:Arial"
         y="123.81961"
         x="459.00803"
         xml:space="preserve">Logical Transport</text>
      <path
         id="path3115"
         d="m 135.23227,232.47444 c 13.05422,0 23.68519,-10.63098 23.68519,-23.68519 l 0,0 0,-69.7267 c 0,-13.05421 -10.63097,-23.60702 -23.68519,-23.60702 l 0,0 -108.654829,0 c -13.054214,0 -23.6851901,10.55281 -23.6851901,23.60702 l 0,0 0,69.7267 c 0,13.05421 10.6309761,23.68519 23.6851901,23.68519 l 0,0 108.654829,0 z"
         style="fill:#bdf808;fill-opacity:1;fill-rule:evenodd;stroke:none"
         inkscape:connector-curvature="0" />
      <path
         id="path3117"
         d="m 135.23227,232.47444 c 13.05422,0 23.68519,-10.63098 23.68519,-23.68519 l 0,0 0,-69.7267 c 0,-13.05421 -10.63097,-23.60702 -23.68519,-23.60702 l 0,0 -108.654829,0 c -13.054214,0 -23.6851901,10.55281 -23.6851901,23.60702 l 0,0 0,69.7267 c 0,13.05421 10.6309761,23.68519 23.6851901,23.68519 l 0,0 108.654829,0 z"
         style="fill:none;stroke:#000000;stroke-width:2.0323925px;stroke-linecap:round;stroke-linejoin:round;stroke-opacity:1;stroke-dasharray:none"
         inkscape:connector-curvature="0" />
      <text
         id="text3119"
         style="font-size:23.76335907px;font-style:normal;font-weight:bold;text-align:start;text-anchor:start;fill:#000000;font-family:Arial"
         y="181.35194"
         x="30.016874"
         xml:space="preserve">Endpoint</text>
      <path
         id="path3121"
         d="m 1047.6202,232.47444 c 13.0542,0 23.607,-10.63098 23.607,-23.68519 l 0,0 0,-69.7267 c 0,-13.05421 -10.5528,-23.60702 -23.607,-23.60702 l 0,0 -108.73302,0 c -13.05421,0 -23.68519,10.55281 -23.68519,23.60702 l 0,0 0,69.7267 c 0,13.05421 10.63098,23.68519 23.68519,23.68519 l 0,0 108.73302,0 z"
         style="fill:#fa72c6;fill-opacity:1;fill-rule:evenodd;stroke:none"
         inkscape:connector-curvature="0" />
      <path
         id="path3123"
         d="m 1047.6202,232.47444 c 13.0542,0 23.607,-10.63098 23.607,-23.68519 l 0,0 0,-69.7267 c 0,-13.05421 -10.5528,-23.60702 -23.607,-23.60702 l 0,0 -108.73302,0 c -13.05421,0 -23.68519,10.55281 -23.68519,23.60702 l 0,0 0,69.7267 c 0,13.05421 10.63098,23.68519 23.68519,23.68519 l 0,0 108.73302,0 z"
         style="fill:none;stroke:#000000;stroke-width:2.0323925px;stroke-linecap:round;stroke-linejoin:round;stroke-opacity:1;stroke-dasharray:none"
         inkscape:connector-curvature="0" />
      <text
         id="text3125"
         style="font-size:23.76335907px;font-style:normal;font-weight:bold;text-align:start;text-anchor:start;fill:#ffffff;font-family:Arial"
         y="181.35194"
         x="955.53717"
         xml:space="preserve">Router</text>
      <path
         id="path3127"
         d="m 158.91746,150.31888 0,47.29221 756.28453,0 0,-47.29221 -756.28453,0 z"
         style="fill:#fa72c6;fill-opacity:1;fill-rule:evenodd;stroke:none"
         inkscape:connector-curvature="0" />
      <path
         id="path3129"
         d="m 158.91746,197.61109 756.28453,0 0,-47.29221 -756.28453,0 0,47.29221 z"
         style="fill:none;stroke:#000000;stroke-width:1.17253411px;stroke-linecap:round;stroke-linejoin:round;stroke-opacity:1;stroke-dasharray:none"
         inkscape:connector-curvature="0" />
      <text
         id="text3131"
         style="font-size:23.76335907px;font-style:normal;font-weight:normal;text-align:start;text-anchor:start;fill:#ffffff;font-family:Arial"
         y="181.35194"
         x="495.27844"
         xml:space="preserve">Session</text>
      <path
         id="path3133"
         d="m 135.23227,420.31441 c 13.05422,0 23.68519,-10.55281 23.68519,-23.60702 l 0,0 0,-69.7267 c 0,-13.05421 -10.63097,-23.60702 -23.68519,-23.60702 l 0,0 -108.654829,0 c -13.054214,0 -23.6851901,10.55281 -23.6851901,23.60702 l 0,0 0,69.7267 c 0,13.05421 10.6309761,23.60702 23.6851901,23.60702 l 0,0 108.654829,0 z"
         style="fill:#bdf808;fill-opacity:1;fill-rule:evenodd;stroke:none"
         inkscape:connector-curvature="0" />
      <path
         id="path3135"
         d="m 135.23227,420.31441 c 13.05422,0 23.68519,-10.55281 23.68519,-23.60702 l 0,0 0,-69.7267 c 0,-13.05421 -10.63097,-23.60702 -23.68519,-23.60702 l 0,0 -108.654829,0 c -13.054214,0 -23.6851901,10.55281 -23.6851901,23.60702 l 0,0 0,69.7267 c 0,13.05421 10.6309761,23.60702 23.6851901,23.60702 l 0,0 108.654829,0 z"
         style="fill:none;stroke:#000000;stroke-width:2.0323925px;stroke-linecap:round;stroke-linejoin:round;stroke-opacity:1;stroke-dasharray:none"
         inkscape:connector-curvature="0" />
      <text
         id="text3137"
         style="font-size:23.76335907px;font-style:normal;font-weight:bold;text-align:start;text-anchor:start;fill:#000000;font-family:Arial"
         y="368.9574"
         x="30.016874"
         xml:space="preserve">Endpoint</text>
      <path
         id="path3139"
         d="m 1047.6202,420.31441 c 13.0542,0 23.607,-10.55281 23.607,-23.60702 l 0,0 0,-69.7267 c 0,-13.05421 -10.5528,-23.60702 -23.607,-23.60702 l 0,0 -108.73302,0 c -13.05421,0 -23.68519,10.55281 -23.68519,23.60702 l 0,69.7267 c 0,13.05421 10.63098,23.60702 23.68519,23.60702 l 0,0 108.73302,0 z"
         style="fill:#fa72c6;fill-opacity:1;fill-rule:evenodd;stroke:none"
         inkscape:connector-curvature="0" />
      <path
         id="path3141"
         d="m 1047.6202,420.31441 c 13.0542,0 23.607,-10.55281 23.607,-23.60702 l 0,0 0,-69.7267 c 0,-13.05421 -10.5528,-23.60702 -23.607,-23.60702 l 0,0 -108.73302,0 c -13.05421,0 -23.68519,10.55281 -23.68519,23.60702 l 0,69.7267 c 0,13.05421 10.63098,23.60702 23.68519,23.60702 l 0,0 108.73302,0 z"
         style="fill:none;stroke:#000000;stroke-width:2.0323925px;stroke-linecap:round;stroke-linejoin:round;stroke-opacity:1;stroke-dasharray:none"
         inkscape:connector-curvature="0" />
      <text
         id="text3143"
         style="font-size:23.76335907px;font-style:normal;font-weight:bold;text-align:start;text-anchor:start;fill:#ffffff;font-family:Arial"
         y="368.9574"
         x="955.53717"
         xml:space="preserve">Router</text>
      <path
         id="path3145"
         d="m 253.26738,86.454852 565.5523,0"
         style="fill:none;stroke:#000000;stroke-width:2.0323925px;stroke-linecap:round;stroke-linejoin:round;stroke-opacity:1;stroke-dasharray:none"
         inkscape:connector-curvature="0" />
      <path
         id="path3147"
         d="m 253.26738,251.86034 565.5523,0"
         style="fill:none;stroke:#000000;stroke-width:2.0323925px;stroke-linecap:round;stroke-linejoin:round;stroke-opacity:1;stroke-dasharray:none"
         inkscape:connector-curvature="0" />
      <path
         id="path3149"
         d="m 251.54766,275.54553 0,165.40548 565.55231,0 0,-165.40548 -565.55231,0 z"
         style="fill:#a6a6a6;fill-opacity:1;fill-rule:evenodd;stroke:none"
         inkscape:connector-curvature="0" />
      <text
         id="text3151"
         style="font-size:20.01124954px;font-style:normal;font-weight:normal;text-align:start;text-anchor:start;fill:#ffffff;font-family:Arial"
         y="313.92648"
         x="456.50662"
         xml:space="preserve">Logical Transport</text>
      <path
         id="path3153"
         d="m 251.54766,275.54553 565.55231,0"
         style="fill:none;stroke:#000000;stroke-width:2.0323925px;stroke-linecap:round;stroke-linejoin:round;stroke-opacity:1;stroke-dasharray:none"
         inkscape:connector-curvature="0" />
      <path
         id="path3155"
         d="m 251.54766,440.95101 565.55231,0"
         style="fill:none;stroke:#000000;stroke-width:2.0323925px;stroke-linecap:round;stroke-linejoin:round;stroke-opacity:1;stroke-dasharray:none"
         inkscape:connector-curvature="0" />
      <path
         id="path3157"
         d="m 158.91746,338.23702 0,47.21404 756.28453,0 0,-47.21404 -756.28453,0 z"
         style="fill:#fa72c6;fill-opacity:1;fill-rule:evenodd;stroke:none"
         inkscape:connector-curvature="0" />
      <path
         id="path3159"
         d="m 158.91746,385.45106 756.28453,0 0,-47.21404 -756.28453,0 0,47.21404 z"
         style="fill:none;stroke:#000000;stroke-width:1.17253411px;stroke-linecap:round;stroke-linejoin:round;stroke-opacity:1;stroke-dasharray:none"
         inkscape:connector-curvature="0" />
      <text
         id="text3161"
         style="font-size:23.76335907px;font-style:normal;font-weight:normal;text-align:start;text-anchor:start;fill:#ffffff;font-family:Arial"
         y="368.9574"
         x="495.27844"
         xml:space="preserve">Session</text>
      <path
         id="path3163"
         d="m 227.94064,488.24322 614.48606,0"
         style="fill:none;stroke:#000000;stroke-width:3.59577131px;stroke-linecap:round;stroke-linejoin:round;stroke-opacity:1;stroke-dasharray:none"
         inkscape:connector-curvature="0" />
      <path
         id="path3165"
         d="m 227.94064,3.7521093 614.48606,0"
         style="fill:none;stroke:#000000;stroke-width:3.59577131px;stroke-linecap:round;stroke-linejoin:round;stroke-opacity:1;stroke-dasharray:none"
         inkscape:connector-curvature="0" />
    </g>
  </g>
</svg>
