<?xml version="1.0" encoding="UTF-8" standalone="no"?>
<!-- Created with Inkscape (http://www.inkscape.org/) -->

<svg
   xmlns:dc="http://purl.org/dc/elements/1.1/"
   xmlns:cc="http://creativecommons.org/ns#"
   xmlns:rdf="http://www.w3.org/1999/02/22-rdf-syntax-ns#"
   xmlns:svg="http://www.w3.org/2000/svg"
   xmlns="http://www.w3.org/2000/svg"
   xmlns:sodipodi="http://sodipodi.sourceforge.net/DTD/sodipodi-0.dtd"
   xmlns:inkscape="http://www.inkscape.org/namespaces/inkscape"
   width="568.65637"
   height="103.34551"
   id="svg3547"
   version="1.1"
   inkscape:version="0.48.4 r9939"
   sodipodi:docname="unified_routing_broker_dealer.svg">
  <defs
     id="defs3549" />
  <sodipodi:namedview
     id="base"
     pagecolor="#ffffff"
     bordercolor="#666666"
     borderopacity="1.0"
     inkscape:pageopacity="0.0"
     inkscape:pageshadow="2"
     inkscape:zoom="0.9899495"
     inkscape:cx="537.95452"
     inkscape:cy="138.26037"
     inkscape:document-units="px"
     inkscape:current-layer="layer1"
     showgrid="false"
     fit-margin-top="5"
     fit-margin-left="5"
     fit-margin-right="5"
     fit-margin-bottom="5"
     inkscape:window-width="1680"
     inkscape:window-height="988"
     inkscape:window-x="-8"
     inkscape:window-y="320"
     inkscape:window-maximized="1"
     showguides="true"
     inkscape:guide-bbox="true">
    <sodipodi:guide
       orientation="0,1"
       position="720.35324,64.598852"
       id="guide3045" />
  </sodipodi:namedview>
  <metadata
     id="metadata3552">
    <rdf:RDF>
      <cc:Work
         rdf:about="">
        <dc:format>image/svg+xml</dc:format>
        <dc:type
           rdf:resource="http://purl.org/dc/dcmitype/StillImage" />
        <dc:title />
      </cc:Work>
    </rdf:RDF>
  </metadata>
  <g
     inkscape:label="Ebene 1"
     inkscape:groupmode="layer"
     id="layer1"
     transform="translate(393.31257,-382.40455)">
    <g
       transform="translate(-132.6295,399.34402)"
       style="font-size:40px;font-style:normal;font-variant:normal;font-weight:normal;font-stretch:normal;line-height:125%;letter-spacing:0px;word-spacing:0px;fill:#000000;fill-opacity:1;stroke:none;font-family:Open Sans;-inkscape-font-specification:Open Sans"
       id="flowRoot3045" />
    <path
       inkscape:connector-curvature="0"
       style="fill:#ffffff;fill-opacity:1;fill-rule:evenodd;stroke:none"
       d="m -162.14465,389.1956 0,88.59376 118.125,0 0,-88.59376 -118.125,0 z"
       id="path3018" />
    <path
       inkscape:connector-curvature="0"
       style="fill:none;stroke:#000000;stroke-width:3.59375px;stroke-linecap:round;stroke-linejoin:round;stroke-opacity:1;stroke-dasharray:none"
       d="m -162.14465,477.78936 118.125,0 0,-88.59376 -118.125,0 0,88.59376 z"
       id="path3020" />
    <g
       style="font-size:23.75px;font-style:normal;font-weight:normal;text-align:start;text-anchor:start;fill:#262626;font-family:Arial"
       id="text3022">
      <path
         d="m -135.40515,440.67999 0,-17.00073 6.37817,0 c 1.29882,2e-5 2.34059,0.17203 3.12531,0.51605 0.78469,0.34405 1.39932,0.87363 1.84387,1.58875 0.44453,0.71514 0.6668,1.46313 0.66681,2.24396 -1e-5,0.72673 -0.19716,1.41094 -0.59143,2.05261 -0.3943,0.64169 -0.9896,1.15967 -1.78589,1.55395 1.02823,0.30152 1.81873,0.81564 2.37152,1.54236 0.55276,0.72673 0.82915,1.58489 0.82916,2.57446 -1e-5,0.79631 -0.16816,1.53657 -0.50445,2.22077 -0.33632,0.6842 -0.75187,1.21185 -1.24665,1.58294 -0.4948,0.3711 -1.11522,0.65135 -1.86126,0.84076 -0.74607,0.18942 -1.66027,0.28412 -2.74262,0.28412 z m 2.24975,-9.85718 3.67615,0 c 0.99731,10e-6 1.71244,-0.0657 2.14539,-0.19714 0.57209,-0.17007 1.0031,-0.45226 1.29303,-0.84656 0.2899,-0.39427 0.43486,-0.88906 0.43487,-1.48437 -1e-5,-0.56436 -0.1353,-1.06108 -0.40588,-1.49017 -0.2706,-0.42907 -0.65716,-0.72285 -1.15967,-0.88135 -0.50253,-0.15848 -1.36455,-0.23772 -2.58606,-0.23773 l -3.39783,0 z m 0,7.85096 4.23279,0 c 0.72672,0 1.23697,-0.0271 1.53076,-0.0812 0.51798,-0.0928 0.95092,-0.24739 1.29883,-0.46387 0.34789,-0.21647 0.63394,-0.53151 0.85816,-0.94513 0.22419,-0.41361 0.33629,-0.891 0.3363,-1.43219 -1e-5,-0.63394 -0.16237,-1.18478 -0.48706,-1.65252 -0.32472,-0.46773 -0.77506,-0.7963 -1.35101,-0.98572 -0.57598,-0.18941 -1.40514,-0.28411 -2.48749,-0.28412 l -3.93128,0 z"
         style="font-size:23.75px;font-style:normal;font-weight:normal;text-align:start;text-anchor:start;fill:#262626;font-family:Arial"
         id="path3001"
         inkscape:connector-curvature="0" />
      <path
         d="m -119.73804,440.67999 0,-12.31567 1.87866,0 0,1.86706 c 0.47933,-0.8736 0.92194,-1.44957 1.32782,-1.7279 0.40588,-0.27831 0.85236,-0.41747 1.33942,-0.41748 0.70353,10e-6 1.41865,0.22421 2.14539,0.67261 l -0.719,1.93664 c -0.51026,-0.3015 -1.02051,-0.45226 -1.53076,-0.45227 -0.45614,1e-5 -0.86589,0.13724 -1.22925,0.41168 -0.36336,0.27447 -0.62236,0.65522 -0.77697,1.14228 -0.23194,0.74219 -0.34791,1.55396 -0.3479,2.4353 l 0,6.44775 z"
         style="font-size:23.75px;font-style:normal;font-weight:normal;text-align:start;text-anchor:start;fill:#262626;font-family:Arial"
         id="path3003"
         inkscape:connector-curvature="0" />
      <path
         d="m -112.55969,434.52216 c 0,-2.28068 0.63395,-3.96992 1.90185,-5.06775 1.05916,-0.91226 2.35026,-1.3684 3.87329,-1.36841 1.69311,10e-6 3.07698,0.55472 4.15162,1.66412 1.07461,1.10943 1.61192,2.64212 1.61193,4.59809 -1e-5,1.58488 -0.23774,2.83152 -0.71319,3.73992 -0.47548,0.90841 -1.16741,1.61388 -2.07581,2.1164 -0.90841,0.50252 -1.89993,0.75378 -2.97455,0.75378 -1.72404,0 -3.11757,-0.55277 -4.1806,-1.65832 -1.06303,-1.10555 -1.59454,-2.69816 -1.59454,-4.77783 z m 2.14538,0 c 0,1.57715 0.34403,2.75808 1.03211,3.54278 0.68806,0.78471 1.55395,1.17707 2.59765,1.17706 1.03597,10e-6 1.89799,-0.39428 2.58606,-1.18286 0.68806,-0.78857 1.0321,-1.99076 1.03211,-3.60656 -1e-5,-1.52303 -0.34598,-2.6769 -1.0379,-3.46161 -0.69195,-0.7847 -1.55203,-1.17706 -2.58027,-1.17707 -1.0437,1e-5 -1.90959,0.39044 -2.59765,1.17127 -0.68808,0.78085 -1.03211,1.95985 -1.03211,3.53699 z"
         style="font-size:23.75px;font-style:normal;font-weight:normal;text-align:start;text-anchor:start;fill:#262626;font-family:Arial"
         id="path3005"
         inkscape:connector-curvature="0" />
      <path
         d="m -98.550903,440.67999 0,-17.00073 2.087402,0 0,9.69482 4.940186,-5.00976 2.702026,0 -4.708252,4.56909 5.183716,7.74658 -2.574463,0 -4.070435,-6.29699 -1.472778,1.41479 0,4.8822 z"
         style="font-size:23.75px;font-style:normal;font-weight:normal;text-align:start;text-anchor:start;fill:#262626;font-family:Arial"
         id="path3007"
         inkscape:connector-curvature="0" />
      <path
         d="m -78.256714,436.71393 2.156983,0.26672 c -0.340182,1.26018 -0.970267,2.23816 -1.890259,2.93396 -0.920013,0.6958 -2.095142,1.0437 -3.525391,1.0437 -1.801356,0 -3.229679,-0.5547 -4.284973,-1.66412 -1.055299,-1.10941 -1.582948,-2.6653 -1.582947,-4.66766 -10e-7,-2.07194 0.533446,-3.68001 1.600342,-4.82422 1.066891,-1.1442 2.45076,-1.7163 4.151611,-1.71631 1.646721,10e-6 2.991934,0.56052 4.035645,1.68152 1.043689,1.12102 1.565539,2.69817 1.565552,4.73144 -1.3e-5,0.12371 -0.0039,0.30925 -0.0116,0.55664 l -9.18457,0 c 0.07731,1.35295 0.459998,2.38892 1.148071,3.10791 0.688065,0.719 1.546218,1.0785 2.574463,1.07849 0.765373,10e-6 1.418652,-0.201 1.959839,-0.60302 0.541169,-0.40202 0.970246,-1.0437 1.287231,-1.92505 z m -6.853638,-3.37464 6.876831,0 c -0.09278,-1.03596 -0.355641,-1.81293 -0.788574,-2.33093 -0.664885,-0.80402 -1.526904,-1.20604 -2.586059,-1.20605 -0.958665,1e-5 -1.764633,0.32085 -2.417908,0.96252 -0.653283,0.64169 -1.014713,1.49985 -1.08429,2.57446 z"
         style="font-size:23.75px;font-style:normal;font-weight:normal;text-align:start;text-anchor:start;fill:#262626;font-family:Arial"
         id="path3009"
         inkscape:connector-curvature="0" />
      <path
         d="m -73.490479,440.67999 0,-12.31567 1.878663,0 0,1.86706 c 0.479325,-0.8736 0.921931,-1.44957 1.327819,-1.7279 0.405879,-0.27831 0.852351,-0.41747 1.339417,-0.41748 0.703525,10e-6 1.418653,0.22421 2.145386,0.67261 l -0.718994,1.93664 c -0.510261,-0.3015 -1.020515,-0.45226 -1.530762,-0.45227 -0.456142,1e-5 -0.865891,0.13724 -1.229248,0.41168 -0.363367,0.27447 -0.62236,0.65522 -0.776978,1.14228 -0.231937,0.74219 -0.347904,1.55396 -0.3479,2.4353 l 0,6.44775 z"
         style="font-size:23.75px;font-style:normal;font-weight:normal;text-align:start;text-anchor:start;fill:#262626;font-family:Arial"
         id="path3011"
         inkscape:connector-curvature="0" />
    </g>
    <path
       inkscape:connector-curvature="0"
       style="fill:#ffffff;fill-opacity:1;fill-rule:evenodd;stroke:none"
       d="m 50.5116,389.1956 0,88.59376 118.04687,0 0,-88.59376 -118.04687,0 z"
       id="path3024" />
    <path
       inkscape:connector-curvature="0"
       style="fill:none;stroke:#000000;stroke-width:3.59375px;stroke-linecap:round;stroke-linejoin:round;stroke-opacity:1;stroke-dasharray:none"
       d="m 50.5116,477.78936 118.04687,0 0,-88.59376 -118.04687,0 0,88.59376 z"
       id="path3026" />
    <g
       style="font-size:23.75px;font-style:normal;font-weight:normal;text-align:start;text-anchor:start;fill:#262626;font-family:Arial"
       id="text3028">
      <path
         d="m 77.187622,440.67999 0,-17.00073 5.856323,0 c 1.322013,2e-5 2.330923,0.0812 3.026734,0.24353 0.974109,0.22422 1.805204,0.6301 2.493286,1.21765 0.896796,0.75767 1.56747,1.72599 2.012024,2.90497 0.444523,1.17901 0.666793,2.52615 0.666809,4.04144 -1.6e-5,1.29111 -0.150773,2.43531 -0.452271,3.43262 -0.301528,0.99732 -0.688084,1.82262 -1.159668,2.47589 -0.471612,0.65328 -0.987663,1.1674 -1.548156,1.54236 -0.560519,0.37496 -1.236991,0.65908 -2.029419,0.85236 -0.79245,0.19327 -1.702788,0.28991 -2.731018,0.28991 z m 2.249756,-2.00622 3.629761,0 c 1.121003,0 2.000417,-0.10437 2.638244,-0.31311 0.637807,-0.20874 1.146127,-0.50252 1.524964,-0.88135 0.533435,-0.53344 0.948982,-1.25051 1.246643,-2.15119 0.297634,-0.90066 0.446458,-1.99268 0.446472,-3.27606 -1.4e-5,-1.77814 -0.291863,-3.14462 -0.875549,-4.09942 -0.583712,-0.95478 -1.293042,-1.59453 -2.127991,-1.91925 -0.603037,-0.23192 -1.573292,-0.34789 -2.910767,-0.3479 l -3.571777,0 z"
         style="font-size:23.75px;font-style:normal;font-weight:normal;text-align:start;text-anchor:start;fill:#262626;font-family:Arial"
         id="path3014"
         inkscape:connector-curvature="0" />
      <path
         d="m 102.51477,436.71393 2.15698,0.26672 c -0.34018,1.26018 -0.97026,2.23816 -1.89026,2.93396 -0.92001,0.6958 -2.09514,1.0437 -3.525386,1.0437 -1.801356,0 -3.229679,-0.5547 -4.284974,-1.66412 -1.055299,-1.10941 -1.582947,-2.6653 -1.582946,-4.66766 -10e-7,-2.07194 0.533445,-3.68001 1.600341,-4.82422 1.066891,-1.1442 2.45076,-1.7163 4.151612,-1.71631 1.646723,10e-6 2.991933,0.56052 4.035643,1.68152 1.04369,1.12102 1.56554,2.69817 1.56555,4.73144 -1e-5,0.12371 -0.004,0.30925 -0.0116,0.55664 l -9.184574,0 c 0.07731,1.35295 0.459998,2.38892 1.148071,3.10791 0.688065,0.719 1.546219,1.0785 2.574463,1.07849 0.76537,10e-6 1.41865,-0.201 1.95984,-0.60302 0.54117,-0.40202 0.97024,-1.0437 1.28723,-1.92505 z m -6.853637,-3.37464 6.876827,0 c -0.0928,-1.03596 -0.35564,-1.81293 -0.78857,-2.33093 -0.66489,-0.80402 -1.5269,-1.20604 -2.58606,-1.20605 -0.958664,1e-5 -1.764633,0.32085 -2.417908,0.96252 -0.653283,0.64169 -1.014712,1.49985 -1.084289,2.57446 z"
         style="font-size:23.75px;font-style:normal;font-weight:normal;text-align:start;text-anchor:start;fill:#262626;font-family:Arial"
         id="path3017"
         inkscape:connector-curvature="0" />
      <path
         d="m 115.3407,439.16083 c -0.77312,0.65714 -1.51724,1.12101 -2.23236,1.3916 -0.71514,0.27059 -1.48245,0.40588 -2.30194,0.40588 -1.35295,0 -2.39279,-0.3305 -3.11951,-0.99151 -0.72673,-0.66101 -1.09009,-1.50564 -1.09009,-2.53388 0,-0.60302 0.13723,-1.15386 0.41168,-1.65252 0.27446,-0.49866 0.63395,-0.89874 1.0785,-1.20026 0.44453,-0.30151 0.94512,-0.52958 1.50177,-0.6842 0.40974,-0.10823 1.02823,-0.2126 1.85546,-0.31312 1.68538,-0.201 2.92622,-0.44066 3.72254,-0.71899 0.008,-0.28604 0.0116,-0.46772 0.0116,-0.54504 0,-0.85042 -0.19715,-1.44958 -0.59143,-1.79749 -0.53345,-0.47159 -1.32589,-0.70739 -2.37732,-0.7074 -0.98185,1e-5 -1.70664,0.17203 -2.17437,0.51606 -0.46774,0.34404 -0.81371,0.95287 -1.03791,1.82647 l -2.04101,-0.27832 c 0.18554,-0.8736 0.49092,-1.57907 0.91614,-2.11639 0.42521,-0.5373 1.03983,-0.95092 1.84387,-1.24085 0.80403,-0.2899 1.73563,-0.43486 2.7948,-0.43487 1.05142,10e-6 1.90571,0.12371 2.56286,0.37109 0.65714,0.24741 1.14033,0.55859 1.44959,0.93353 0.30923,0.37498 0.5257,0.84851 0.64941,1.4206 0.0696,0.35564 0.10436,0.99732 0.10437,1.92505 l 0,2.7832 c -1e-5,1.94051 0.0444,3.16783 0.13337,3.68195 0.0889,0.51412 0.26477,1.00697 0.52764,1.47857 l -2.18017,0 c -0.21648,-0.43294 -0.35564,-0.93933 -0.41748,-1.51916 z m -0.17395,-4.66187 c -0.75766,0.30925 -1.89413,0.57211 -3.40943,0.78858 -0.85816,0.1237 -1.46505,0.26286 -1.82067,0.41748 -0.35564,0.15462 -0.63009,0.38076 -0.82337,0.6784 -0.19328,0.29765 -0.28992,0.62816 -0.28992,0.99152 0,0.55664 0.21067,1.02051 0.63202,1.3916 0.42135,0.3711 1.0379,0.55664 1.84967,0.55664 0.80403,0 1.51916,-0.17588 2.14539,-0.52765 0.62621,-0.35176 1.08621,-0.83302 1.38,-1.44378 0.2242,-0.4716 0.3363,-1.1674 0.33631,-2.08741 z"
         style="font-size:23.75px;font-style:normal;font-weight:normal;text-align:start;text-anchor:start;fill:#262626;font-family:Arial"
         id="path3019"
         inkscape:connector-curvature="0" />
      <path
         d="m 120.47803,440.67999 0,-17.00073 2.0874,0 0,17.00073 z"
         style="font-size:23.75px;font-style:normal;font-weight:normal;text-align:start;text-anchor:start;fill:#262626;font-family:Arial"
         id="path3021"
         inkscape:connector-curvature="0" />
      <path
         d="m 134.24329,436.71393 2.15698,0.26672 c -0.34018,1.26018 -0.97027,2.23816 -1.89026,2.93396 -0.92001,0.6958 -2.09514,1.0437 -3.52539,1.0437 -1.80136,0 -3.22968,-0.5547 -4.28497,-1.66412 -1.0553,-1.10941 -1.58295,-2.6653 -1.58295,-4.66766 0,-2.07194 0.53345,-3.68001 1.60034,-4.82422 1.06689,-1.1442 2.45076,-1.7163 4.15161,-1.71631 1.64672,10e-6 2.99194,0.56052 4.03565,1.68152 1.04369,1.12102 1.56554,2.69817 1.56555,4.73144 -1e-5,0.12371 -0.004,0.30925 -0.0116,0.55664 l -9.18457,0 c 0.0773,1.35295 0.46,2.38892 1.14807,3.10791 0.68807,0.719 1.54622,1.0785 2.57447,1.07849 0.76537,10e-6 1.41865,-0.201 1.95983,-0.60302 0.54117,-0.40202 0.97025,-1.0437 1.28724,-1.92505 z m -6.85364,-3.37464 6.87683,0 c -0.0928,-1.03596 -0.35564,-1.81293 -0.78857,-2.33093 -0.66489,-0.80402 -1.52691,-1.20604 -2.58606,-1.20605 -0.95867,1e-5 -1.76464,0.32085 -2.41791,0.96252 -0.65329,0.64169 -1.01471,1.49985 -1.08429,2.57446 z"
         style="font-size:23.75px;font-style:normal;font-weight:normal;text-align:start;text-anchor:start;fill:#262626;font-family:Arial"
         id="path3023"
         inkscape:connector-curvature="0" />
      <path
         d="m 139.00952,440.67999 0,-12.31567 1.87866,0 0,1.86706 c 0.47933,-0.8736 0.92194,-1.44957 1.32782,-1.7279 0.40588,-0.27831 0.85235,-0.41747 1.33942,-0.41748 0.70353,10e-6 1.41865,0.22421 2.14539,0.67261 l -0.719,1.93664 c -0.51026,-0.3015 -1.02051,-0.45226 -1.53076,-0.45227 -0.45614,1e-5 -0.86589,0.13724 -1.22925,0.41168 -0.36337,0.27447 -0.62236,0.65522 -0.77698,1.14228 -0.23193,0.74219 -0.3479,1.55396 -0.3479,2.4353 l 0,6.44775 z"
         style="font-size:23.75px;font-style:normal;font-weight:normal;text-align:start;text-anchor:start;fill:#262626;font-family:Arial"
         id="path3025"
         inkscape:connector-curvature="0" />
    </g>
    <g
       style="font-size:60px;font-style:normal;font-weight:normal;text-align:start;text-anchor:start;fill:#000000;font-family:Arial"
       id="text3030">
      <path
         d="m 0.38464642,447.48663 0,-11.77734 -11.68945342,0 0,-4.92188 11.68945342,0 0,-11.68945 4.98046878,0 0,11.68945 11.6894528,0 0,4.92188 -11.6894528,0 0,11.77734 z"
         style="font-size:60px;font-style:normal;font-weight:normal;text-align:start;text-anchor:start;fill:#000000;font-family:Arial"
         id="path3028"
         inkscape:connector-curvature="0" />
    </g>
    <path
       inkscape:connector-curvature="0"
       style="fill:#ffffff;fill-opacity:1;fill-rule:evenodd;stroke:none"
       d="m -386.51965,390.36748 0,88.59375 118.125,0 0,-88.59375 -118.125,0 z"
       id="path3032" />
    <path
       inkscape:connector-curvature="0"
       style="fill:none;stroke:#000000;stroke-width:3.59375px;stroke-linecap:round;stroke-linejoin:round;stroke-opacity:1;stroke-dasharray:none"
       d="m -386.51965,478.96123 118.125,0 0,-88.59375 -118.125,0 0,88.59375 z"
       id="path3034" />
    <g
       style="font-size:23.75px;font-style:normal;font-weight:bold;text-align:start;text-anchor:start;fill:#262626;font-family:Arial"
       id="text3036">
      <path
         d="m -362.90515,441.92999 0,-17.00073 7.22473,0 c 1.8168,2e-5 3.13689,0.15271 3.96027,0.45807 0.82335,0.30539 1.48242,0.84851 1.97723,1.62933 0.49478,0.78086 0.74217,1.6738 0.74219,2.67884 -2e-5,1.27564 -0.37498,2.32901 -1.12488,3.16009 -0.74993,0.8311 -1.87094,1.35489 -3.36304,1.57135 0.74218,0.43295 1.35487,0.90841 1.83808,1.42639 0.48318,0.51799 1.13452,1.438 1.95404,2.76001 l 2.0758,3.31665 -4.10522,0 -2.48169,-3.69934 c -0.88136,-1.32201 -1.48439,-2.15504 -1.80908,-2.49908 -0.32472,-0.34403 -0.66875,-0.57983 -1.03211,-0.7074 -0.36337,-0.12756 -0.93934,-0.19134 -1.7279,-0.19135 l -0.6958,0 0,7.09717 z m 3.43262,-9.81079 2.53967,0 c 1.64672,1e-5 2.67496,-0.0696 3.08472,-0.20874 0.40973,-0.13915 0.73057,-0.37881 0.96252,-0.71899 0.23192,-0.34016 0.34789,-0.76537 0.3479,-1.27564 -1e-5,-0.57209 -0.1527,-1.03402 -0.45807,-1.3858 -0.30539,-0.35175 -0.7364,-0.57402 -1.29303,-0.66681 -0.27833,-0.0386 -1.11329,-0.058 -2.50488,-0.058 l -2.67883,0 z"
         style="font-size:23.75px;font-style:normal;font-weight:bold;text-align:start;text-anchor:start;fill:#262626;font-family:Arial"
         id="path3031"
         inkscape:connector-curvature="0" />
      <path
         d="m -346.53064,435.59821 c 0,-1.08235 0.26672,-2.12992 0.80017,-3.1427 0.53345,-1.01277 1.28916,-1.78588 2.26715,-2.31934 0.97798,-0.53344 2.07,-0.80016 3.27606,-0.80017 1.86319,10e-6 3.39009,0.60497 4.58069,1.81488 1.19058,1.20993 1.78588,2.73876 1.78589,4.58649 -1e-5,1.8632 -0.60111,3.40749 -1.80328,4.63287 -1.2022,1.22538 -2.71557,1.83807 -4.5401,1.83807 -1.12875,0 -2.20531,-0.25512 -3.22968,-0.76538 -1.02437,-0.51025 -1.80328,-1.25824 -2.33673,-2.24396 -0.53345,-0.98571 -0.80017,-2.18596 -0.80017,-3.60076 z m 3.33984,0.17395 c 0,1.22152 0.28992,2.15698 0.86976,2.80639 0.57982,0.64942 1.29495,0.97413 2.14538,0.97412 0.85042,1e-5 1.56361,-0.3247 2.13959,-0.97412 0.57596,-0.64941 0.86394,-1.5926 0.86395,-2.82959 -10e-6,-1.20604 -0.28799,-2.13378 -0.86395,-2.7832 -0.57598,-0.64941 -1.28917,-0.97411 -2.13959,-0.97412 -0.85043,10e-6 -1.56556,0.32471 -2.14538,0.97412 -0.57984,0.64942 -0.86976,1.58489 -0.86976,2.8064 z"
         style="font-size:23.75px;font-style:normal;font-weight:bold;text-align:start;text-anchor:start;fill:#262626;font-family:Arial"
         id="path3033"
         inkscape:connector-curvature="0" />
      <path
         d="m -323.15173,441.92999 0,-1.84387 c -0.44842,0.65715 -1.03792,1.17513 -1.7685,1.55396 -0.7306,0.37882 -1.50177,0.56823 -2.31353,0.56823 -0.82724,0 -1.56943,-0.18168 -2.22657,-0.54504 -0.65715,-0.36336 -1.13261,-0.87362 -1.42639,-1.53076 -0.29378,-0.65715 -0.44067,-1.56555 -0.44067,-2.72522 l 0,-7.79297 3.25866,0 0,5.65918 c 0,1.73177 0.0599,2.79287 0.17975,3.18329 0.11983,0.39042 0.33823,0.69967 0.65522,0.92773 0.31697,0.22807 0.71898,0.34211 1.20605,0.3421 0.55663,10e-6 1.05529,-0.15268 1.49597,-0.45807 0.44067,-0.30537 0.74218,-0.6842 0.90454,-1.13647 0.16235,-0.45227 0.24352,-1.55975 0.24353,-3.32245 l 0,-5.19531 3.25867,0 0,12.31567 z"
         style="font-size:23.75px;font-style:normal;font-weight:bold;text-align:start;text-anchor:start;fill:#262626;font-family:Arial"
         id="path3035"
         inkscape:connector-curvature="0" />
      <path
         d="m -311.09119,429.61432 0,2.59766 -2.22656,0 0,4.96337 c 0,1.00505 0.0213,1.59069 0.0638,1.7569 0.0425,0.16622 0.13916,0.30345 0.28992,0.41168 0.15075,0.10824 0.33436,0.16236 0.55084,0.16236 0.30151,0 0.73832,-0.10437 1.31043,-0.31311 l 0.27832,2.52807 c -0.75766,0.32471 -1.61581,0.48706 -2.57447,0.48706 -0.58757,0 -1.11715,-0.0986 -1.58874,-0.29571 -0.4716,-0.19715 -0.81757,-0.45227 -1.0379,-0.76538 -0.22034,-0.31311 -0.37303,-0.73639 -0.45807,-1.26984 -0.0696,-0.37882 -0.10437,-1.1442 -0.10437,-2.29614 l 0,-5.36926 -1.49597,0 0,-2.59766 1.49597,0 0,-2.4469 3.27026,-1.90186 0,4.34876 z"
         style="font-size:23.75px;font-style:normal;font-weight:bold;text-align:start;text-anchor:start;fill:#262626;font-family:Arial"
         id="path3037"
         inkscape:connector-curvature="0" />
      <path
         d="m -301.67468,438.01031 3.24707,0.54505 c -0.41749,1.19059 -1.07657,2.09707 -1.97724,2.71942 -0.90068,0.62236 -2.02749,0.93353 -3.38043,0.93353 -2.14152,0 -3.7264,-0.69966 -4.75464,-2.099 -0.81177,-1.12101 -1.21765,-2.5358 -1.21765,-4.24438 0,-2.04101 0.53345,-3.63942 1.60034,-4.79523 1.06689,-1.15579 2.41597,-1.73369 4.04724,-1.7337 1.83227,10e-6 3.27799,0.60497 4.33716,1.81488 1.05915,1.20993 1.56554,3.06346 1.51917,5.56061 l -8.16406,0 c 0.0232,0.96639 0.28604,1.71824 0.78857,2.25555 0.50252,0.53732 1.12874,0.80597 1.87866,0.80597 0.51025,0 0.93933,-0.13916 1.28723,-0.41748 0.3479,-0.27832 0.61075,-0.72672 0.78858,-1.34522 z m 0.18554,-3.29345 c -0.0232,-0.94319 -0.26673,-1.66025 -0.73059,-2.15119 -0.46387,-0.49091 -1.02824,-0.73638 -1.69311,-0.73639 -0.71127,1e-5 -1.29884,0.25901 -1.7627,0.77698 -0.46387,0.518 -0.69194,1.22153 -0.6842,2.1106 z"
         style="font-size:23.75px;font-style:normal;font-weight:bold;text-align:start;text-anchor:start;fill:#262626;font-family:Arial"
         id="path3039"
         inkscape:connector-curvature="0" />
      <path
         d="m -292.46692,441.92999 -3.25867,0 0,-12.31567 3.02674,0 0,1.7511 c 0.51798,-0.82722 0.98378,-1.37226 1.3974,-1.63513 0.41361,-0.26285 0.88327,-0.39428 1.40899,-0.39429 0.74218,10e-6 1.45731,0.20489 2.14539,0.61462 l -1.00891,2.84119 c -0.54892,-0.35562 -1.05917,-0.53344 -1.53076,-0.53345 -0.45615,1e-5 -0.8427,0.12564 -1.15967,0.37689 -0.31698,0.25127 -0.56631,0.70548 -0.74799,1.36261 -0.18168,0.65716 -0.27252,2.03329 -0.27252,4.12842 z"
         style="font-size:23.75px;font-style:normal;font-weight:bold;text-align:start;text-anchor:start;fill:#262626;font-family:Arial"
         id="path3041"
         inkscape:connector-curvature="0" />
    </g>
    <g
       style="font-size:60px;font-style:normal;font-weight:normal;text-align:start;text-anchor:start;fill:#000000;font-family:Arial"
       id="text3038">
      <path
         d="m -197.94543,429.17609 -28.35938,0 0,-4.92188 28.35938,0 z m 0,13.03711 -28.35938,0 0,-4.92188 28.35938,0 z"
         style="font-size:60px;font-style:normal;font-weight:normal;text-align:start;text-anchor:start;fill:#000000;font-family:Arial"
         id="path3044"
         inkscape:connector-curvature="0" />
    </g>
  </g>
</svg>
