<?xml version="1.0" encoding="UTF-8" standalone="no"?>
<!-- Created with Inkscape (http://www.inkscape.org/) -->

<svg
   xmlns:dc="http://purl.org/dc/elements/1.1/"
   xmlns:cc="http://creativecommons.org/ns#"
   xmlns:rdf="http://www.w3.org/1999/02/22-rdf-syntax-ns#"
   xmlns:svg="http://www.w3.org/2000/svg"
   xmlns="http://www.w3.org/2000/svg"
   xmlns:sodipodi="http://sodipodi.sourceforge.net/DTD/sodipodi-0.dtd"
   xmlns:inkscape="http://www.inkscape.org/namespaces/inkscape"
   width="1044.7646"
   height="798.03375"
   id="svg2"
   version="1.1"
   inkscape:version="0.48.4 r9939"
   sodipodi:docname="Neues Dokument 1">
  <defs
     id="defs4" />
  <sodipodi:namedview
     id="base"
     pagecolor="#ffffff"
     bordercolor="#666666"
     borderopacity="1.0"
     inkscape:pageopacity="0.0"
     inkscape:pageshadow="2"
     inkscape:zoom="0.7"
     inkscape:cx="651.88654"
     inkscape:cy="388.33791"
     inkscape:document-units="px"
     inkscape:current-layer="layer1"
     showgrid="false"
     fit-margin-top="10"
     fit-margin-left="10"
     fit-margin-bottom="10"
     fit-margin-right="10"
     inkscape:window-width="1680"
     inkscape:window-height="988"
     inkscape:window-x="-8"
     inkscape:window-y="320"
     inkscape:window-maximized="1" />
  <metadata
     id="metadata7">
    <rdf:RDF>
      <cc:Work
         rdf:about="">
        <dc:format>image/svg+xml</dc:format>
        <dc:type
           rdf:resource="http://purl.org/dc/dcmitype/StillImage" />
        <dc:title></dc:title>
      </cc:Work>
    </rdf:RDF>
  </metadata>
  <g
     inkscape:label="Ebene 1"
     inkscape:groupmode="layer"
     id="layer1"
     transform="translate(368.10106,-239.05732)">
    <g
       id="g2989"
       transform="translate(-360.00731,247.15358)">
      <path
         id="path2991"
         d="m 935.68225,779.73521 c 13.05422,0 23.68519,-10.63097 23.68519,-23.68519 l 0,0 0,-297.7455 c 0,-13.05422 -10.63097,-23.68519 -23.68519,-23.68519 l 0,0 -909.964668,0 c -13.054213,0 -23.6070205,10.63097 -23.6070205,23.68519 l 0,0 0,297.7455 c 0,13.05422 10.5528075,23.68519 23.6070205,23.68519 l 0,0 909.964668,0 z"
         style="fill:#d9d9d9;fill-opacity:1;fill-rule:evenodd;stroke:none"
         inkscape:connector-curvature="0" />
      <path
         id="path2993"
         d="m 935.68225,779.73521 c 13.05422,0 23.68519,-10.63097 23.68519,-23.68519 l 0,0 0,-297.7455 c 0,-13.05422 -10.63097,-23.68519 -23.68519,-23.68519 l 0,0 -909.964668,0 c -13.054213,0 -23.6070205,10.63097 -23.6070205,23.68519 l 0,0 0,297.7455 c 0,13.05422 10.5528075,23.68519 23.6070205,23.68519 l 0,0 909.964668,0 z"
         style="fill:none;stroke:#000000;stroke-width:0.3908447px;stroke-linecap:round;stroke-linejoin:round;stroke-opacity:1;stroke-dasharray:none"
         inkscape:connector-curvature="0" />
      <text
         id="text2995"
         style="font-size:16.25914001px;font-style:normal;font-weight:normal;text-align:start;text-anchor:start;fill:#000000;font-family:Arial"
         y="761.67816"
         x="464.01086"
         xml:space="preserve">Host</text>
      <path
         id="path2997"
         d="m 935.68225,411.01231 c 13.05422,0 23.68519,-10.55281 23.68519,-23.60703 l 0,0 0,-290.788466 c 0,-13.054213 -10.63097,-23.607021 -23.68519,-23.607021 l -907.54143,0 c -13.054214,0 -23.6851902,10.552808 -23.6851902,23.607021 l 0,0 0,290.788466 c 0,13.05422 10.6309762,23.60703 23.6851902,23.60703 l 0,0 907.54143,0 z"
         style="fill:#d9d9d9;fill-opacity:1;fill-rule:evenodd;stroke:none"
         inkscape:connector-curvature="0" />
      <path
         id="path2999"
         d="m 935.68225,411.01231 c 13.05422,0 23.68519,-10.55281 23.68519,-23.60703 l 0,0 0,-290.788466 c 0,-13.054213 -10.63097,-23.607021 -23.68519,-23.607021 l -907.54143,0 c -13.054214,0 -23.6851902,10.552808 -23.6851902,23.607021 l 0,0 0,290.788466 c 0,13.05422 10.6309762,23.60703 23.6851902,23.60703 l 0,0 907.54143,0 z"
         style="fill:none;stroke:#000000;stroke-width:0.3908447px;stroke-linecap:round;stroke-linejoin:round;stroke-opacity:1;stroke-dasharray:none"
         inkscape:connector-curvature="0" />
      <text
         id="text3001"
         style="font-size:16.25914001px;font-style:normal;font-weight:normal;text-align:start;text-anchor:start;fill:#000000;font-family:Arial"
         y="392.72076"
         x="465.26154"
         xml:space="preserve">Host</text>
      <path
         id="path3003"
         d="m 841.176,340.11307 c 13.05421,0 23.60702,-10.63097 23.60702,-23.68519 l 0,0 0,-189.0125 c 0,-13.05422 -10.55281,-23.68519 -23.60702,-23.68519 l 0,0 -434.932,0 c -13.05421,0 -23.60702,10.63097 -23.60702,23.68519 l 0,0 0,189.0125 c 0,13.05422 10.55281,23.68519 23.60702,23.68519 l 434.932,0 z"
         style="fill:#a6a6a6;fill-opacity:1;fill-rule:evenodd;stroke:none"
         inkscape:connector-curvature="0" />
      <path
         id="path3005"
         d="m 841.176,340.11307 c 13.05421,0 23.60702,-10.63097 23.60702,-23.68519 l 0,0 0,-189.0125 c 0,-13.05422 -10.55281,-23.68519 -23.60702,-23.68519 l 0,0 -434.932,0 c -13.05421,0 -23.60702,10.63097 -23.60702,23.68519 l 0,0 0,189.0125 c 0,13.05422 10.55281,23.68519 23.60702,23.68519 l 434.932,0 z"
         style="fill:none;stroke:#000000;stroke-width:0.3908447px;stroke-linecap:round;stroke-linejoin:round;stroke-opacity:1;stroke-dasharray:none"
         inkscape:connector-curvature="0" />
      <text
         id="text3007"
         style="font-size:16.25914001px;font-style:normal;font-weight:normal;text-align:start;text-anchor:start;fill:#000000;font-family:Arial"
         y="321.43069"
         x="566.56848"
         xml:space="preserve">Server Process</text>
      <path
         id="path3009"
         d="m 595.33467,725.32963 c 13.05422,0 23.68519,-10.55281 23.68519,-23.60702 l 0,0 0,-189.09068 c 0,-13.05421 -10.63097,-23.60702 -23.68519,-23.60702 l -189.09067,0 c -13.05421,0 -23.60702,10.55281 -23.60702,23.60702 l 0,189.09068 c 0,13.05421 10.55281,23.60702 23.60702,23.60702 l 0,0 189.09067,0 z"
         style="fill:#a6a6a6;fill-opacity:1;fill-rule:evenodd;stroke:none"
         inkscape:connector-curvature="0" />
      <path
         id="path3011"
         d="m 595.33467,725.32963 c 13.05422,0 23.68519,-10.55281 23.68519,-23.60702 l 0,0 0,-189.09068 c 0,-13.05421 -10.63097,-23.60702 -23.68519,-23.60702 l -189.09067,0 c -13.05421,0 -23.60702,10.55281 -23.60702,23.60702 l 0,189.09068 c 0,13.05421 10.55281,23.60702 23.60702,23.60702 l 0,0 189.09067,0 z"
         style="fill:none;stroke:#000000;stroke-width:0.3908447px;stroke-linecap:round;stroke-linejoin:round;stroke-opacity:1;stroke-dasharray:none"
         inkscape:connector-curvature="0" />
      <text
         id="text3013"
         style="font-size:16.25914001px;font-style:normal;font-weight:normal;text-align:start;text-anchor:start;fill:#000000;font-family:Arial"
         y="706.64728"
         x="446.50101"
         xml:space="preserve">Client Process</text>
      <path
         id="path3015"
         d="m 406.244,127.41538 0,141.79846 189.09067,0 0,-141.79846 -189.09067,0 z"
         style="fill:#fa72c6;fill-opacity:1;fill-rule:evenodd;stroke:none"
         inkscape:connector-curvature="0" />
      <text
         id="text3017"
         style="font-size:16.25914001px;font-style:normal;font-weight:bold;text-align:start;text-anchor:start;fill:#ffffff;font-family:Arial"
         y="203.86459"
         x="441.4982"
         xml:space="preserve">Router </text>
      <text
         id="text3019"
         style="font-size:16.25914001px;font-style:normal;font-weight:normal;text-align:start;text-anchor:start;fill:#ffffff;font-family:Arial"
         y="203.86459"
         x="500.28125"
         xml:space="preserve">Session</text>
      <path
         id="path3021"
         d="m 406.244,512.63193 0,141.79847 189.09067,0 0,-141.79847 -189.09067,0 z"
         style="fill:#595959;fill-opacity:1;fill-rule:evenodd;stroke:none"
         inkscape:connector-curvature="0" />
      <text
         id="text3023"
         style="font-size:16.25914001px;font-style:normal;font-weight:bold;text-align:start;text-anchor:start;fill:#ffffff;font-family:Arial"
         y="541.55444"
         x="432.74326"
         xml:space="preserve">Endpoint </text>
      <text
         id="text3025"
         style="font-size:16.25914001px;font-style:normal;font-weight:normal;text-align:start;text-anchor:start;fill:#ffffff;font-family:Arial"
         y="541.55444"
         x="509.03616"
         xml:space="preserve">Session</text>
      <path
         id="path3027"
         d="m 429.92919,592.98961 0,61.44079 141.79846,0 0,-61.44079 -141.79846,0 z"
         style="fill:#bdf808;fill-opacity:1;fill-rule:evenodd;stroke:none"
         inkscape:connector-curvature="0" />
      <text
         id="text3029"
         style="font-size:20.01124954px;font-style:normal;font-weight:bold;text-align:start;text-anchor:start;fill:#262626;font-family:Arial"
         y="629.10364"
         x="454.00522"
         xml:space="preserve">App Code</text>
      <path
         id="path3031"
         d="m 652.08533,127.41538 0,141.79846 189.09067,0 0,-141.79846 -189.09067,0 z"
         style="fill:#595959;fill-opacity:1;fill-rule:evenodd;stroke:none"
         inkscape:connector-curvature="0" />
      <text
         id="text3033"
         style="font-size:16.25914001px;font-style:normal;font-weight:bold;text-align:start;text-anchor:start;fill:#ffffff;font-family:Arial"
         y="155.08717"
         x="677.8811"
         xml:space="preserve">Endpoint </text>
      <text
         id="text3035"
         style="font-size:16.25914001px;font-style:normal;font-weight:normal;text-align:start;text-anchor:start;fill:#ffffff;font-family:Arial"
         y="155.08717"
         x="755.42468"
         xml:space="preserve">Session</text>
      <path
         id="path3037"
         d="m 675.69235,207.77305 0,61.44079 141.87663,0 0,-61.44079 -141.87663,0 z"
         style="fill:#bdf808;fill-opacity:1;fill-rule:evenodd;stroke:none"
         inkscape:connector-curvature="0" />
      <text
         id="text3039"
         style="font-size:20.01124954px;font-style:normal;font-weight:bold;text-align:start;text-anchor:start;fill:#262626;font-family:Arial"
         y="243.8871"
         x="699.14301"
         xml:space="preserve">App Code</text>
      <path
         id="path3041"
         d="m 500.82842,269.21384 0,243.41809"
         style="fill:none;stroke:#fa72c6;stroke-width:6.80069828px;stroke-linecap:round;stroke-linejoin:round;stroke-opacity:1;stroke-dasharray:none"
         inkscape:connector-curvature="0" />
      <path
         id="path3043"
         d="m 595.33467,198.31461 56.75066,0"
         style="fill:none;stroke:#fa72c6;stroke-width:6.80069828px;stroke-linecap:round;stroke-linejoin:round;stroke-opacity:1;stroke-dasharray:none"
         inkscape:connector-curvature="0" />
      <path
         id="path3045"
         d="M 250.29696,479.56647 500.82842,465.33972"
         style="fill:none;stroke:#000000;stroke-width:0.3908447px;stroke-linecap:round;stroke-linejoin:round;stroke-opacity:1;stroke-dasharray:none"
         inkscape:connector-curvature="0" />
      <path
         id="path3047"
         d="m 145.08156,455.88128 0,47.29221 210.35263,0 0,-47.29221 -210.35263,0 z"
         style="fill:#ffffff;fill-opacity:1;fill-rule:evenodd;stroke:none"
         inkscape:connector-curvature="0" />
      <path
         id="path3049"
         d="m 145.08156,503.17349 210.35263,0 0,-47.29221 -210.35263,0 0,47.29221 z"
         style="fill:none;stroke:#000000;stroke-width:0.3908447px;stroke-linecap:round;stroke-linejoin:round;stroke-opacity:1;stroke-dasharray:none"
         inkscape:connector-curvature="0" />
      <text
         id="text3051"
         style="font-size:16.25914001px;font-style:normal;font-weight:normal;text-align:start;text-anchor:start;fill:#000000;font-family:Arial"
         y="474.01648"
         x="178.85054"
         xml:space="preserve">WAMP</text>
      <text
         id="text3053"
         style="font-size:16.25914001px;font-style:normal;font-weight:normal;text-align:start;text-anchor:start;fill:#000000;font-family:Arial"
         y="474.01648"
         x="231.38007"
         xml:space="preserve">-</text>
      <text
         id="text3055"
         style="font-size:16.25914001px;font-style:normal;font-weight:normal;text-align:start;text-anchor:start;fill:#000000;font-family:Arial"
         y="474.01648"
         x="236.38289"
         xml:space="preserve">WebSocket</text>
      <text
         id="text3057"
         style="font-size:16.25914001px;font-style:normal;font-weight:normal;text-align:start;text-anchor:start;fill:#000000;font-family:Arial"
         y="496.52914"
         x="215.12093"
         xml:space="preserve">over TCP</text>
      <path
         id="path3059"
         d="M 669.82968,25.717582 623.71,198.31461"
         style="fill:none;stroke:#000000;stroke-width:0.3908447px;stroke-linecap:round;stroke-linejoin:round;stroke-opacity:1;stroke-dasharray:none"
         inkscape:connector-curvature="0" />
      <path
         id="path3061"
         d="m 559.92414,2.1105615 0,47.2922105 219.81107,0 0,-47.2922105 -219.81107,0 z"
         style="fill:#ffffff;fill-opacity:1;fill-rule:evenodd;stroke:none"
         inkscape:connector-curvature="0" />
      <path
         id="path3063"
         d="m 559.92414,49.402772 219.81107,0 0,-47.2922105 -219.81107,0 0,47.2922105 z"
         style="fill:none;stroke:#000000;stroke-width:0.3908447px;stroke-linecap:round;stroke-linejoin:round;stroke-opacity:1;stroke-dasharray:none"
         inkscape:connector-curvature="0" />
      <text
         id="text3065"
         style="font-size:16.25914001px;font-style:normal;font-weight:normal;text-align:start;text-anchor:start;fill:#000000;font-family:Arial"
         y="31.267576"
         x="576.57416"
         xml:space="preserve">Direct calls and callbacks</text>
      <path
         id="path3067"
         d="m 297.58917,340.11307 c 13.05421,0 23.60702,-10.63097 23.60702,-23.68519 l 0,0 0,-189.0125 c 0,-13.05422 -10.55281,-23.68519 -23.60702,-23.68519 l -189.09068,0 c -13.05421,0 -23.685186,10.63097 -23.685186,23.68519 l 0,0 0,189.0125 c 0,13.05422 10.630976,23.68519 23.685186,23.68519 l 0,0 189.09068,0 z"
         style="fill:#a6a6a6;fill-opacity:1;fill-rule:evenodd;stroke:none"
         inkscape:connector-curvature="0" />
      <path
         id="path3069"
         d="m 297.58917,340.11307 c 13.05421,0 23.60702,-10.63097 23.60702,-23.68519 l 0,0 0,-189.0125 c 0,-13.05422 -10.55281,-23.68519 -23.60702,-23.68519 l -189.09068,0 c -13.05421,0 -23.685186,10.63097 -23.685186,23.68519 l 0,0 0,189.0125 c 0,13.05422 10.630976,23.68519 23.685186,23.68519 l 0,0 189.09068,0 z"
         style="fill:none;stroke:#000000;stroke-width:0.3908447px;stroke-linecap:round;stroke-linejoin:round;stroke-opacity:1;stroke-dasharray:none"
         inkscape:connector-curvature="0" />
      <text
         id="text3071"
         style="font-size:16.25914001px;font-style:normal;font-weight:normal;text-align:start;text-anchor:start;fill:#000000;font-family:Arial"
         y="321.43069"
         x="148.83366"
         xml:space="preserve">Client Process</text>
      <path
         id="path3073"
         d="m 108.49849,127.41538 0,141.79846 189.09068,0 0,-141.79846 -189.09068,0 z"
         style="fill:#595959;fill-opacity:1;fill-rule:evenodd;stroke:none"
         inkscape:connector-curvature="0" />
      <text
         id="text3075"
         style="font-size:16.25914001px;font-style:normal;font-weight:bold;text-align:start;text-anchor:start;fill:#ffffff;font-family:Arial"
         y="155.08717"
         x="135.07593"
         xml:space="preserve">Endpoint </text>
      <text
         id="text3077"
         style="font-size:16.25914001px;font-style:normal;font-weight:normal;text-align:start;text-anchor:start;fill:#ffffff;font-family:Arial"
         y="155.08717"
         x="211.36882"
         xml:space="preserve">Session</text>
      <path
         id="path3079"
         d="m 132.10551,207.77305 0,61.44079 141.79847,0 0,-61.44079 -141.79847,0 z"
         style="fill:#bdf808;fill-opacity:1;fill-rule:evenodd;stroke:none"
         inkscape:connector-curvature="0" />
      <text
         id="text3081"
         style="font-size:20.01124954px;font-style:normal;font-weight:bold;text-align:start;text-anchor:start;fill:#262626;font-family:Arial"
         y="243.8871"
         x="156.33789"
         xml:space="preserve">App Code</text>
      <path
         id="path3083"
         d="m 406.244,198.31461 -108.65483,0"
         style="fill:none;stroke:#fa72c6;stroke-width:6.80069828px;stroke-linecap:round;stroke-linejoin:round;stroke-opacity:1;stroke-dasharray:none"
         inkscape:connector-curvature="0" />
      <path
         id="path3085"
         d="M 315.25535,25.717582 344.80321,198.31461"
         style="fill:none;stroke:#000000;stroke-width:0.3908447px;stroke-linecap:round;stroke-linejoin:round;stroke-opacity:1;stroke-dasharray:none"
         inkscape:connector-curvature="0" />
      <path
         id="path3087"
         d="m 177.05266,2.1105615 0,47.2922105 276.48355,0 0,-47.2922105 -276.48355,0 z"
         style="fill:#ffffff;fill-opacity:1;fill-rule:evenodd;stroke:none"
         inkscape:connector-curvature="0" />
      <path
         id="path3089"
         d="m 177.05266,49.402772 276.48355,0 0,-47.2922105 -276.48355,0 0,47.2922105 z"
         style="fill:none;stroke:#000000;stroke-width:0.3908447px;stroke-linecap:round;stroke-linejoin:round;stroke-opacity:1;stroke-dasharray:none"
         inkscape:connector-curvature="0" />
      <text
         id="text3091"
         style="font-size:16.25914001px;font-style:normal;font-weight:normal;text-align:start;text-anchor:start;fill:#000000;font-family:Arial"
         y="20.01125"
         x="243.8871"
         xml:space="preserve">WAMP</text>
      <text
         id="text3093"
         style="font-size:16.25914001px;font-style:normal;font-weight:normal;text-align:start;text-anchor:start;fill:#000000;font-family:Arial"
         y="20.01125"
         x="295.16592"
         xml:space="preserve">-</text>
      <text
         id="text3095"
         style="font-size:16.25914001px;font-style:normal;font-weight:normal;text-align:start;text-anchor:start;fill:#000000;font-family:Arial"
         y="20.01125"
         x="301.41946"
         xml:space="preserve">WebSocket</text>
      <text
         id="text3097"
         style="font-size:16.25914001px;font-style:normal;font-weight:normal;text-align:start;text-anchor:start;fill:#000000;font-family:Arial"
         y="43.774609"
         x="217.62234"
         xml:space="preserve">over Unix Domain Sockets</text>
      <path
         id="path3099"
         d="m 719.46696,394.44049 0,146.56677 307.20394,0 0,-146.56677 -307.20394,0 z"
         style="fill:#c0c0c0;fill-opacity:1;fill-rule:evenodd;stroke:none"
         inkscape:connector-curvature="0" />
      <path
         id="path3101"
         d="m 705.24021,380.29191 0,146.4886 307.28209,0 0,-146.4886 -307.28209,0 z"
         style="fill:#bdf808;fill-opacity:1;fill-rule:evenodd;stroke:none"
         inkscape:connector-curvature="0" />
      <text
         id="text3103"
         style="font-size:20.01124954px;font-style:normal;font-weight:bold;text-align:start;text-anchor:start;fill:#262626;font-family:Arial"
         y="435.24469"
         x="745.41907"
         xml:space="preserve">Application code</text>
      <text
         id="text3105"
         style="font-size:20.01124954px;font-style:normal;font-weight:normal;text-align:start;text-anchor:start;fill:#262626;font-family:Arial"
         y="435.24469"
         x="911.76257"
         xml:space="preserve">can be </text>
      <text
         id="text3107"
         style="font-size:20.01124954px;font-style:normal;font-weight:normal;text-align:start;text-anchor:start;fill:#262626;font-family:Arial"
         y="459.00803"
         x="716.65289"
         xml:space="preserve">deployed and distributed flexibly </text>
      <text
         id="text3109"
         style="font-size:20.01124954px;font-style:normal;font-weight:normal;text-align:start;text-anchor:start;fill:#262626;font-family:Arial"
         y="484.02209"
         x="755.42468"
         xml:space="preserve">-</text>
      <text
         id="text3111"
         style="font-size:20.01124954px;font-style:normal;font-weight:normal;text-align:start;text-anchor:start;fill:#262626;font-family:Arial"
         y="484.02209"
         x="767.9317"
         xml:space="preserve">without code changes</text>
    </g>
  </g>
</svg>
