<?xml version="1.0" encoding="UTF-8" standalone="no"?>
<!-- Created with Inkscape (http://www.inkscape.org/) -->

<svg
   xmlns:dc="http://purl.org/dc/elements/1.1/"
   xmlns:cc="http://creativecommons.org/ns#"
   xmlns:rdf="http://www.w3.org/1999/02/22-rdf-syntax-ns#"
   xmlns:svg="http://www.w3.org/2000/svg"
   xmlns="http://www.w3.org/2000/svg"
   xmlns:sodipodi="http://sodipodi.sourceforge.net/DTD/sodipodi-0.dtd"
   xmlns:inkscape="http://www.inkscape.org/namespaces/inkscape"
   width="1391.2532"
   height="913.78625"
   id="svg2"
   version="1.1"
   inkscape:version="0.48.4 r9939"
   sodipodi:docname="Neues Dokument 1">
  <defs
     id="defs4" />
  <sodipodi:namedview
     id="base"
     pagecolor="#ffffff"
     bordercolor="#666666"
     borderopacity="1.0"
     inkscape:pageopacity="0.0"
     inkscape:pageshadow="2"
     inkscape:zoom="0.35"
     inkscape:cx="542.77217"
     inkscape:cy="245.45445"
     inkscape:document-units="px"
     inkscape:current-layer="layer1"
     showgrid="false"
     fit-margin-top="10"
     fit-margin-left="10"
     fit-margin-bottom="10"
     fit-margin-right="10"
     inkscape:window-width="1680"
     inkscape:window-height="988"
     inkscape:window-x="-8"
     inkscape:window-y="320"
     inkscape:window-maximized="1" />
  <metadata
     id="metadata7">
    <rdf:RDF>
      <cc:Work
         rdf:about="">
        <dc:format>image/svg+xml</dc:format>
        <dc:type
           rdf:resource="http://purl.org/dc/dcmitype/StillImage" />
        <dc:title></dc:title>
      </cc:Work>
    </rdf:RDF>
  </metadata>
  <g
     inkscape:label="Ebene 1"
     inkscape:groupmode="layer"
     id="layer1"
     transform="translate(192.77217,135.96964)">
    <g
       id="g2989"
       transform="translate(-184.67779,-127.87338)">
      <path
         id="path2991"
         d="m 1231.1609,857.74782 c 13.0542,0 23.607,-10.63098 23.607,-23.68519 l 0,-756.284531 c 0,-13.054214 -10.5528,-23.68519 -23.607,-23.68519 l 0,0 -179.6323,0 c -13.0542,0 -23.607,10.630976 -23.607,23.68519 l 0,0 0,756.284531 c 0,13.05421 10.5528,23.68519 23.607,23.68519 l 0,0 179.6323,0 z"
         style="fill:none;stroke:#000000;stroke-width:1.17253411px;stroke-linecap:round;stroke-linejoin:round;stroke-opacity:1;stroke-dasharray:none"
         inkscape:connector-curvature="0" />
      <path
         id="path2993"
         d="m 332.9997,857.74782 c 13.05421,0 23.60702,-10.63098 23.60702,-23.68519 l 0,-756.284531 c 0,-13.054214 -10.55281,-23.68519 -23.60702,-23.68519 l 0,0 -212.6977,0 c -13.05421,0 -23.685186,10.630976 -23.685186,23.68519 l 0,0 0,756.284531 c 0,13.05421 10.630976,23.68519 23.685186,23.68519 l 0,0 212.6977,0 z"
         style="fill:none;stroke:#000000;stroke-width:1.17253411px;stroke-linecap:round;stroke-linejoin:round;stroke-opacity:1;stroke-dasharray:none"
         inkscape:connector-curvature="0" />
      <path
         id="path2995"
         d="m 384.98205,77.778099 0,756.284531 614.56423,0 0,-756.284531 -614.56423,0 z"
         style="fill:#bfbfbf;fill-opacity:1;fill-rule:evenodd;stroke:none"
         inkscape:connector-curvature="0" />
      <text
         id="text2997"
         style="font-size:23.76335907px;font-style:normal;font-weight:normal;text-align:start;text-anchor:start;fill:#000000;font-family:Arial"
         y="118.81679"
         x="642.86139"
         xml:space="preserve">Transport</text>
      <path
         id="path2999"
         d="m 290.47579,243.18358 c 13.05422,0 23.60703,-10.5528 23.60703,-23.60702 l 0,0 0,-69.7267 c 0,-13.05421 -10.55281,-23.68519 -23.60703,-23.68519 l 0,0 -108.733,0 c -13.05421,0 -23.60702,10.63098 -23.60702,23.68519 l 0,0 0,69.7267 c 0,13.05422 10.55281,23.60702 23.60702,23.60702 l 0,0 108.733,0 z"
         style="fill:#bdf808;fill-opacity:1;fill-rule:evenodd;stroke:none"
         inkscape:connector-curvature="0" />
      <path
         id="path3001"
         d="m 290.47579,243.18358 c 13.05422,0 23.60703,-10.5528 23.60703,-23.60702 l 0,0 0,-69.7267 c 0,-13.05421 -10.55281,-23.68519 -23.60703,-23.68519 l 0,0 -108.733,0 c -13.05421,0 -23.60702,10.63098 -23.60702,23.68519 l 0,0 0,69.7267 c 0,13.05422 10.55281,23.60702 23.60702,23.60702 l 0,0 108.733,0 z"
         style="fill:none;stroke:#000000;stroke-width:2.0323925px;stroke-linecap:round;stroke-linejoin:round;stroke-opacity:1;stroke-dasharray:none"
         inkscape:connector-curvature="0" />
      <text
         id="text3003"
         style="font-size:23.76335907px;font-style:normal;font-weight:normal;text-align:start;text-anchor:start;fill:#000000;font-family:Arial"
         y="191.35757"
         x="190.10687"
         xml:space="preserve">Endpoint</text>
      <path
         id="path3005"
         d="m 1202.7855,243.18358 c 13.0542,0 23.6071,-10.5528 23.6071,-23.60702 l 0,0 0,-69.7267 c 0,-13.05421 -10.5529,-23.68519 -23.6071,-23.68519 l 0,0 -108.733,0 c -13.0542,0 -23.607,10.63098 -23.607,23.68519 l 0,69.7267 c 0,13.05422 10.5528,23.60702 23.607,23.60702 l 0,0 108.733,0 z"
         style="fill:#fa72c6;fill-opacity:1;fill-rule:evenodd;stroke:none"
         inkscape:connector-curvature="0" />
      <path
         id="path3007"
         d="m 1202.7855,243.18358 c 13.0542,0 23.6071,-10.5528 23.6071,-23.60702 l 0,0 0,-69.7267 c 0,-13.05421 -10.5529,-23.68519 -23.6071,-23.68519 l 0,0 -108.733,0 c -13.0542,0 -23.607,10.63098 -23.607,23.68519 l 0,69.7267 c 0,13.05422 10.5528,23.60702 23.607,23.60702 l 0,0 108.733,0 z"
         style="fill:none;stroke:#000000;stroke-width:2.0323925px;stroke-linecap:round;stroke-linejoin:round;stroke-opacity:1;stroke-dasharray:none"
         inkscape:connector-curvature="0" />
      <text
         id="text3009"
         style="font-size:23.76335907px;font-style:normal;font-weight:normal;text-align:start;text-anchor:start;fill:#ffffff;font-family:Arial"
         y="191.35757"
         x="1113.1259"
         xml:space="preserve">Router</text>
      <path
         id="path3011"
         d="m 314.08282,161.02802 0,47.29221 756.36268,0 0,-47.29221 -756.36268,0 z"
         style="fill:#fa72c6;fill-opacity:1;fill-rule:evenodd;stroke:none"
         inkscape:connector-curvature="0" />
      <path
         id="path3013"
         d="m 314.08282,208.32023 756.36268,0 0,-47.29221 -756.36268,0 0,47.29221 z"
         style="fill:none;stroke:#000000;stroke-width:1.17253411px;stroke-linecap:round;stroke-linejoin:round;stroke-opacity:1;stroke-dasharray:none"
         inkscape:connector-curvature="0" />
      <text
         id="text3015"
         style="font-size:23.76335907px;font-style:normal;font-weight:normal;text-align:start;text-anchor:start;fill:#ffffff;font-family:Arial"
         y="191.35757"
         x="650.3656"
         xml:space="preserve">Session</text>
      <text
         id="text3017"
         style="font-size:23.76335907px;font-style:normal;font-weight:normal;text-align:start;text-anchor:start;fill:#000000;font-family:Arial"
         y="890.50061"
         x="200.1125"
         xml:space="preserve">Node</text>
      <text
         id="text3019"
         style="font-size:23.76335907px;font-style:normal;font-weight:normal;text-align:start;text-anchor:start;fill:#000000;font-family:Arial"
         y="890.50061"
         x="1113.1259"
         xml:space="preserve">Node</text>
      <path
         id="path3021"
         d="m 290.47579,431.10172 c 13.05422,0 23.60703,-10.5528 23.60703,-23.60702 l 0,0 0,-69.7267 c 0,-13.05421 -10.55281,-23.68518 -23.60703,-23.68518 l 0,0 -108.733,0 c -13.05421,0 -23.60702,10.63097 -23.60702,23.68518 l 0,0 0,69.7267 c 0,13.05422 10.55281,23.60702 23.60702,23.60702 l 0,0 108.733,0 z"
         style="fill:#bdf808;fill-opacity:1;fill-rule:evenodd;stroke:none"
         inkscape:connector-curvature="0" />
      <path
         id="path3023"
         d="m 290.47579,431.10172 c 13.05422,0 23.60703,-10.5528 23.60703,-23.60702 l 0,0 0,-69.7267 c 0,-13.05421 -10.55281,-23.68518 -23.60703,-23.68518 l 0,0 -108.733,0 c -13.05421,0 -23.60702,10.63097 -23.60702,23.68518 l 0,0 0,69.7267 c 0,13.05422 10.55281,23.60702 23.60702,23.60702 l 0,0 108.733,0 z"
         style="fill:none;stroke:#000000;stroke-width:2.0323925px;stroke-linecap:round;stroke-linejoin:round;stroke-opacity:1;stroke-dasharray:none"
         inkscape:connector-curvature="0" />
      <text
         id="text3025"
         style="font-size:23.76335907px;font-style:normal;font-weight:normal;text-align:start;text-anchor:start;fill:#000000;font-family:Arial"
         y="378.96304"
         x="190.10687"
         xml:space="preserve">Endpoint</text>
      <path
         id="path3027"
         d="m 1202.7855,431.10172 c 13.0542,0 23.6071,-10.5528 23.6071,-23.60702 l 0,0 0,-69.7267 c 0,-13.05421 -10.5529,-23.68518 -23.6071,-23.68518 l 0,0 -108.733,0 c -13.0542,0 -23.607,10.63097 -23.607,23.68518 l 0,0 0,69.7267 c 0,13.05422 10.5528,23.60702 23.607,23.60702 l 0,0 108.733,0 z"
         style="fill:#fa72c6;fill-opacity:1;fill-rule:evenodd;stroke:none"
         inkscape:connector-curvature="0" />
      <path
         id="path3029"
         d="m 1202.7855,431.10172 c 13.0542,0 23.6071,-10.5528 23.6071,-23.60702 l 0,0 0,-69.7267 c 0,-13.05421 -10.5529,-23.68518 -23.6071,-23.68518 l 0,0 -108.733,0 c -13.0542,0 -23.607,10.63097 -23.607,23.68518 l 0,0 0,69.7267 c 0,13.05422 10.5528,23.60702 23.607,23.60702 l 0,0 108.733,0 z"
         style="fill:none;stroke:#000000;stroke-width:2.0323925px;stroke-linecap:round;stroke-linejoin:round;stroke-opacity:1;stroke-dasharray:none"
         inkscape:connector-curvature="0" />
      <text
         id="text3031"
         style="font-size:23.76335907px;font-style:normal;font-weight:normal;text-align:start;text-anchor:start;fill:#ffffff;font-family:Arial"
         y="378.96304"
         x="1113.1259"
         xml:space="preserve">Router</text>
      <path
         id="path3033"
         d="m 314.08282,348.94616 0,47.29221 756.36268,0 0,-47.29221 -756.36268,0 z"
         style="fill:#fa72c6;fill-opacity:1;fill-rule:evenodd;stroke:none"
         inkscape:connector-curvature="0" />
      <path
         id="path3035"
         d="m 314.08282,396.23837 756.36268,0 0,-47.29221 -756.36268,0 0,47.29221 z"
         style="fill:none;stroke:#000000;stroke-width:1.17253411px;stroke-linecap:round;stroke-linejoin:round;stroke-opacity:1;stroke-dasharray:none"
         inkscape:connector-curvature="0" />
      <text
         id="text3037"
         style="font-size:23.76335907px;font-style:normal;font-weight:normal;text-align:start;text-anchor:start;fill:#ffffff;font-family:Arial"
         y="378.96304"
         x="650.3656"
         xml:space="preserve">Session</text>
      <path
         id="path3039"
         d="m 1202.7855,621.36493 c 13.0542,0 23.6071,-10.55281 23.6071,-23.60702 l 0,0 0,-69.7267 c 0,-13.05421 -10.5529,-23.68519 -23.6071,-23.68519 l 0,0 -108.733,0 c -13.0542,0 -23.607,10.63098 -23.607,23.68519 l 0,69.7267 c 0,13.05421 10.5528,23.60702 23.607,23.60702 l 0,0 108.733,0 z"
         style="fill:#bdf808;fill-opacity:1;fill-rule:evenodd;stroke:none"
         inkscape:connector-curvature="0" />
      <path
         id="path3041"
         d="m 1202.7855,621.36493 c 13.0542,0 23.6071,-10.55281 23.6071,-23.60702 l 0,0 0,-69.7267 c 0,-13.05421 -10.5529,-23.68519 -23.6071,-23.68519 l 0,0 -108.733,0 c -13.0542,0 -23.607,10.63098 -23.607,23.68519 l 0,69.7267 c 0,13.05421 10.5528,23.60702 23.607,23.60702 l 0,0 108.733,0 z"
         style="fill:none;stroke:#000000;stroke-width:2.0323925px;stroke-linecap:round;stroke-linejoin:round;stroke-opacity:1;stroke-dasharray:none"
         inkscape:connector-curvature="0" />
      <text
         id="text3043"
         style="font-size:23.76335907px;font-style:normal;font-weight:normal;text-align:start;text-anchor:start;fill:#000000;font-family:Arial"
         y="570.32062"
         x="1101.8694"
         xml:space="preserve">Endpoint</text>
      <path
         id="path3045"
         d="m 290.47579,621.36493 c 13.05422,0 23.60703,-10.55281 23.60703,-23.60702 l 0,0 0,-69.7267 c 0,-13.05421 -10.55281,-23.68519 -23.60703,-23.68519 l -108.733,0 c -13.05421,0 -23.60702,10.63098 -23.60702,23.68519 l 0,0 0,69.7267 c 0,13.05421 10.55281,23.60702 23.60702,23.60702 l 0,0 108.733,0 z"
         style="fill:#fa72c6;fill-opacity:1;fill-rule:evenodd;stroke:none"
         inkscape:connector-curvature="0" />
      <path
         id="path3047"
         d="m 290.47579,621.36493 c 13.05422,0 23.60703,-10.55281 23.60703,-23.60702 l 0,0 0,-69.7267 c 0,-13.05421 -10.55281,-23.68519 -23.60703,-23.68519 l -108.733,0 c -13.05421,0 -23.60702,10.63098 -23.60702,23.68519 l 0,0 0,69.7267 c 0,13.05421 10.55281,23.60702 23.60702,23.60702 l 0,0 108.733,0 z"
         style="fill:none;stroke:#000000;stroke-width:2.0323925px;stroke-linecap:round;stroke-linejoin:round;stroke-opacity:1;stroke-dasharray:none"
         inkscape:connector-curvature="0" />
      <text
         id="text3049"
         style="font-size:23.76335907px;font-style:normal;font-weight:normal;text-align:start;text-anchor:start;fill:#ffffff;font-family:Arial"
         y="570.32062"
         x="201.3632"
         xml:space="preserve">Router</text>
      <path
         id="path3051"
         d="m 314.08282,539.20937 0,47.29221 756.36268,0 0,-47.29221 -756.36268,0 z"
         style="fill:#fa72c6;fill-opacity:1;fill-rule:evenodd;stroke:none"
         inkscape:connector-curvature="0" />
      <path
         id="path3053"
         d="m 314.08282,586.50158 756.36268,0 0,-47.29221 -756.36268,0 0,47.29221 z"
         style="fill:none;stroke:#000000;stroke-width:1.17253411px;stroke-linecap:round;stroke-linejoin:round;stroke-opacity:1;stroke-dasharray:none"
         inkscape:connector-curvature="0" />
      <text
         id="text3055"
         style="font-size:23.76335907px;font-style:normal;font-weight:normal;text-align:start;text-anchor:start;fill:#ffffff;font-family:Arial"
         y="570.32062"
         x="650.3656"
         xml:space="preserve">Session</text>
      <path
         id="path3057"
         d="m 148.67733,819.91405 -7.42605,0 c -8.98943,0 -16.25914,-7.26971 -16.25914,-16.25914 0,0 0,0 0,0 l 0,-331.51449 c 0,-8.98943 -7.26971,-16.25914 -16.18097,-16.25914 0,0 0,0 0,0 8.91126,0 16.18097,-7.26971 16.18097,-16.18097 0,0 0,0 0,0 l 0,-322.05605 c 0,-8.98943 7.26971,-16.25914 16.25914,-16.25914 0,0 0,0 0,0 l 7.42605,0"
         style="fill:none;stroke:#000000;stroke-width:0.3908447px;stroke-linecap:round;stroke-linejoin:round;stroke-opacity:1;stroke-dasharray:none"
         inkscape:connector-curvature="0" />
      <text
         id="text3059"
         style="font-size:23.76335907px;font-style:normal;font-weight:normal;text-align:start;text-anchor:start;fill:#000000;font-family:Arial"
         y="462.76016"
         x="20.01125"
         xml:space="preserve">Peers</text>
      <path
         id="path3061"
         d="m 167.59421,39.94433 68.476,86.22034"
         style="fill:none;stroke:#000000;stroke-width:0.3908447px;stroke-linecap:round;stroke-linejoin:round;stroke-opacity:1;stroke-dasharray:none"
         inkscape:connector-curvature="0" />
      <path
         id="path3063"
         d="m 2.1105615,2.1105615 0,75.6675375 330.8891385,0 0,-75.6675375 -330.8891385,0 z"
         style="fill:#ffffff;fill-opacity:1;fill-rule:evenodd;stroke:none"
         inkscape:connector-curvature="0" />
      <path
         id="path3065"
         d="m 2.1105615,77.778099 330.8891385,0 0,-75.6675375 -330.8891385,0 0,75.6675375 z"
         style="fill:none;stroke:#000000;stroke-width:0.3908447px;stroke-linecap:round;stroke-linejoin:round;stroke-opacity:1;stroke-dasharray:none"
         inkscape:connector-curvature="0" />
      <text
         id="text3067"
         style="font-size:16.25914001px;font-style:normal;font-weight:bold;text-align:start;text-anchor:start;fill:#000000;font-family:Arial"
         y="25.014063"
         x="26.264765"
         xml:space="preserve">Endpoints </text>
      <text
         id="text3069"
         style="font-size:16.25914001px;font-style:normal;font-weight:normal;text-align:start;text-anchor:start;fill:#000000;font-family:Arial"
         y="25.014063"
         x="112.56328"
         xml:space="preserve">support one or more of the </text>
      <text
         id="text3071"
         style="font-size:16.25914001px;font-style:normal;font-weight:normal;text-align:start;text-anchor:start;fill:#000000;font-family:Arial"
         y="45.025311"
         x="38.771797"
         xml:space="preserve">Roles</text>
      <text
         id="text3073"
         style="font-size:16.25914001px;font-style:normal;font-weight:normal;text-align:start;text-anchor:start;fill:#000000;font-family:Arial"
         y="45.025311"
         x="81.2957"
         xml:space="preserve">: </text>
      <text
         id="text3075"
         style="font-size:16.25914001px;font-style:normal;font-weight:bold;text-align:start;text-anchor:start;fill:#000000;font-family:Arial"
         y="45.025311"
         x="90.050621"
         xml:space="preserve">Caller</text>
      <text
         id="text3077"
         style="font-size:16.25914001px;font-style:normal;font-weight:normal;text-align:start;text-anchor:start;fill:#000000;font-family:Arial"
         y="45.025311"
         x="136.32664"
         xml:space="preserve">, </text>
      <text
         id="text3079"
         style="font-size:16.25914001px;font-style:normal;font-weight:bold;text-align:start;text-anchor:start;fill:#000000;font-family:Arial"
         y="45.025311"
         x="146.33226"
         xml:space="preserve">Callee</text>
      <text
         id="text3081"
         style="font-size:16.25914001px;font-style:normal;font-weight:normal;text-align:start;text-anchor:start;fill:#000000;font-family:Arial"
         y="45.025311"
         x="195.10968"
         xml:space="preserve">, </text>
      <text
         id="text3083"
         style="font-size:16.25914001px;font-style:normal;font-weight:bold;text-align:start;text-anchor:start;fill:#000000;font-family:Arial"
         y="45.025311"
         x="205.11531"
         xml:space="preserve">Subscriber</text>
      <text
         id="text3085"
         style="font-size:16.25914001px;font-style:normal;font-weight:normal;text-align:start;text-anchor:start;fill:#000000;font-family:Arial"
         y="45.025311"
         x="291.41382"
         xml:space="preserve">, </text>
      <text
         id="text3087"
         style="font-size:16.25914001px;font-style:normal;font-weight:bold;text-align:start;text-anchor:start;fill:#000000;font-family:Arial"
         y="65.03656"
         x="130.07312"
         xml:space="preserve">Publisher</text>
      <path
         id="path3089"
         d="m 1216.9341,39.94433 -68.476,86.22034"
         style="fill:none;stroke:#000000;stroke-width:0.3908447px;stroke-linecap:round;stroke-linejoin:round;stroke-opacity:1;stroke-dasharray:none"
         inkscape:connector-curvature="0" />
      <path
         id="path3091"
         d="m 1060.9871,2.1105615 0,75.6675375 311.9722,0 0,-75.6675375 -311.9722,0 z"
         style="fill:#ffffff;fill-opacity:1;fill-rule:evenodd;stroke:none"
         inkscape:connector-curvature="0" />
      <path
         id="path3093"
         d="m 1060.9871,77.778099 311.9722,0 0,-75.6675375 -311.9722,0 0,75.6675375 z"
         style="fill:none;stroke:#000000;stroke-width:0.3908447px;stroke-linecap:round;stroke-linejoin:round;stroke-opacity:1;stroke-dasharray:none"
         inkscape:connector-curvature="0" />
      <text
         id="text3095"
         style="font-size:16.25914001px;font-style:normal;font-weight:bold;text-align:start;text-anchor:start;fill:#000000;font-family:Arial"
         y="35.019688"
         x="1084.3596"
         xml:space="preserve">Routers</text>
      <text
         id="text3097"
         style="font-size:16.25914001px;font-style:normal;font-weight:normal;text-align:start;text-anchor:start;fill:#000000;font-family:Arial"
         y="35.019688"
         x="1151.8976"
         xml:space="preserve">support one or more of the </text>
      <text
         id="text3099"
         style="font-size:16.25914001px;font-style:normal;font-weight:normal;text-align:start;text-anchor:start;fill:#000000;font-family:Arial"
         y="55.030937"
         x="1134.3877"
         xml:space="preserve">Roles</text>
      <text
         id="text3101"
         style="font-size:16.25914001px;font-style:normal;font-weight:normal;text-align:start;text-anchor:start;fill:#000000;font-family:Arial"
         y="55.030937"
         x="1176.9116"
         xml:space="preserve">: </text>
      <text
         id="text3103"
         style="font-size:16.25914001px;font-style:normal;font-weight:bold;text-align:start;text-anchor:start;fill:#000000;font-family:Arial"
         y="55.030937"
         x="1185.6665"
         xml:space="preserve">Broker</text>
      <text
         id="text3105"
         style="font-size:16.25914001px;font-style:normal;font-weight:normal;text-align:start;text-anchor:start;fill:#000000;font-family:Arial"
         y="55.030937"
         x="1239.4468"
         xml:space="preserve">, </text>
      <text
         id="text3107"
         style="font-size:16.25914001px;font-style:normal;font-weight:bold;text-align:start;text-anchor:start;fill:#000000;font-family:Arial"
         y="55.030937"
         x="1249.4524"
         xml:space="preserve">Dealer</text>
      <path
         id="path3109"
         d="m 290.47579,810.45561 c 13.05422,0 23.60703,-10.63098 23.60703,-23.68519 l 0,0 0,-69.7267 c 0,-13.05421 -10.55281,-23.60702 -23.60703,-23.60702 l -108.733,0 c -13.05421,0 -23.60702,10.55281 -23.60702,23.60702 l 0,0 0,69.7267 c 0,13.05421 10.55281,23.68519 23.60702,23.68519 l 0,0 108.733,0 z"
         style="fill:#fa72c6;fill-opacity:1;fill-rule:evenodd;stroke:none"
         inkscape:connector-curvature="0" />
      <path
         id="path3111"
         d="m 290.47579,810.45561 c 13.05422,0 23.60703,-10.63098 23.60703,-23.68519 l 0,0 0,-69.7267 c 0,-13.05421 -10.55281,-23.60702 -23.60703,-23.60702 l -108.733,0 c -13.05421,0 -23.60702,10.55281 -23.60702,23.60702 l 0,0 0,69.7267 c 0,13.05421 10.55281,23.68519 23.60702,23.68519 l 0,0 108.733,0 z"
         style="fill:none;stroke:#000000;stroke-width:2.0323925px;stroke-linecap:round;stroke-linejoin:round;stroke-opacity:1;stroke-dasharray:none"
         inkscape:connector-curvature="0" />
      <text
         id="text3113"
         style="font-size:23.76335907px;font-style:normal;font-weight:normal;text-align:start;text-anchor:start;fill:#ffffff;font-family:Arial"
         y="759.17676"
         x="201.3632"
         xml:space="preserve">Router</text>
      <path
         id="path3115"
         d="m 314.08282,728.30005 0,47.29221 756.36268,0 0,-47.29221 -756.36268,0 z"
         style="fill:#fa72c6;fill-opacity:1;fill-rule:evenodd;stroke:none"
         inkscape:connector-curvature="0" />
      <path
         id="path3117"
         d="m 314.08282,775.59226 756.36268,0 0,-47.29221 -756.36268,0 0,47.29221 z"
         style="fill:none;stroke:#000000;stroke-width:1.17253411px;stroke-linecap:round;stroke-linejoin:round;stroke-opacity:1;stroke-dasharray:none"
         inkscape:connector-curvature="0" />
      <text
         id="text3119"
         style="font-size:23.76335907px;font-style:normal;font-weight:normal;text-align:start;text-anchor:start;fill:#ffffff;font-family:Arial"
         y="759.17676"
         x="650.3656"
         xml:space="preserve">Session</text>
      <path
         id="path3121"
         d="m 1202.7855,809.28307 c 13.0542,0 23.6071,-10.63097 23.6071,-23.68519 l 0,-69.7267 c 0,-13.05421 -10.5529,-23.60702 -23.6071,-23.60702 l 0,0 -108.733,0 c -13.0542,0 -23.607,10.55281 -23.607,23.60702 l 0,69.7267 c 0,13.05422 10.5528,23.68519 23.607,23.68519 l 0,0 108.733,0 z"
         style="fill:#fa72c6;fill-opacity:1;fill-rule:evenodd;stroke:none"
         inkscape:connector-curvature="0" />
      <path
         id="path3123"
         d="m 1202.7855,809.28307 c 13.0542,0 23.6071,-10.63097 23.6071,-23.68519 l 0,-69.7267 c 0,-13.05421 -10.5529,-23.60702 -23.6071,-23.60702 l 0,0 -108.733,0 c -13.0542,0 -23.607,10.55281 -23.607,23.60702 l 0,69.7267 c 0,13.05422 10.5528,23.68519 23.607,23.68519 l 0,0 108.733,0 z"
         style="fill:none;stroke:#000000;stroke-width:2.0323925px;stroke-linecap:round;stroke-linejoin:round;stroke-opacity:1;stroke-dasharray:none"
         inkscape:connector-curvature="0" />
      <text
         id="text3125"
         style="font-size:23.76335907px;font-style:normal;font-weight:normal;text-align:start;text-anchor:start;fill:#ffffff;font-family:Arial"
         y="757.92609"
         x="1113.1259"
         xml:space="preserve">Router</text>
      <path
         id="path3127"
         d="m 384.98205,77.778099 614.56423,0"
         style="fill:none;stroke:#000000;stroke-width:3.59577131px;stroke-linecap:round;stroke-linejoin:round;stroke-opacity:1;stroke-dasharray:none"
         inkscape:connector-curvature="0" />
      <path
         id="path3129"
         d="m 384.98205,834.06263 614.56423,0"
         style="fill:none;stroke:#000000;stroke-width:3.59577131px;stroke-linecap:round;stroke-linejoin:round;stroke-opacity:1;stroke-dasharray:none"
         inkscape:connector-curvature="0" />
      <path
         id="path3131"
         d="m 602.44805,857.74782 89.81611,-82.15556"
         style="fill:none;stroke:#000000;stroke-width:0.3908447px;stroke-linecap:round;stroke-linejoin:round;stroke-opacity:1;stroke-dasharray:none"
         inkscape:connector-curvature="0" />
      <path
         id="path3133"
         d="m 446.42284,819.91405 0,75.58937 312.05042,0 0,-75.58937 -312.05042,0 z"
         style="fill:#ffffff;fill-opacity:1;fill-rule:evenodd;stroke:none"
         inkscape:connector-curvature="0" />
      <path
         id="path3135"
         d="m 446.42284,895.50342 312.05042,0 0,-75.58937 -312.05042,0 0,75.58937 z"
         style="fill:none;stroke:#000000;stroke-width:0.3908447px;stroke-linecap:round;stroke-linejoin:round;stroke-opacity:1;stroke-dasharray:none"
         inkscape:connector-curvature="0" />
      <text
         id="text3137"
         style="font-size:16.25914001px;font-style:normal;font-weight:bold;text-align:start;text-anchor:start;fill:#000000;font-family:Arial"
         y="852.97949"
         x="469.01367"
         xml:space="preserve">Router</text>
      <text
         id="text3139"
         style="font-size:16.25914001px;font-style:normal;font-weight:bold;text-align:start;text-anchor:start;fill:#000000;font-family:Arial"
         y="852.97949"
         x="522.79388"
         xml:space="preserve">-</text>
      <text
         id="text3141"
         style="font-size:16.25914001px;font-style:normal;font-weight:bold;text-align:start;text-anchor:start;fill:#000000;font-family:Arial"
         y="852.97949"
         x="527.79669"
         xml:space="preserve">to</text>
      <text
         id="text3143"
         style="font-size:16.25914001px;font-style:normal;font-weight:bold;text-align:start;text-anchor:start;fill:#000000;font-family:Arial"
         y="852.97949"
         x="544.05585"
         xml:space="preserve">-</text>
      <text
         id="text3145"
         style="font-size:16.25914001px;font-style:normal;font-weight:bold;text-align:start;text-anchor:start;fill:#000000;font-family:Arial"
         y="852.97949"
         x="549.05865"
         xml:space="preserve">Router</text>
      <text
         id="text3147"
         style="font-size:16.25914001px;font-style:normal;font-weight:normal;text-align:start;text-anchor:start;fill:#000000;font-family:Arial"
         y="852.97949"
         x="607.84167"
         xml:space="preserve">Sessions are an </text>
      <text
         id="text3149"
         style="font-size:16.25914001px;font-style:normal;font-weight:normal;text-align:start;text-anchor:start;fill:#000000;font-family:Arial"
         y="872.99078"
         x="461.50943"
         xml:space="preserve">advanced feature of clustered Routers</text>
    </g>
  </g>
</svg>
