<?xml version="1.0" encoding="UTF-8" standalone="no"?>
<!-- Created with Inkscape (http://www.inkscape.org/) -->

<svg
   xmlns:dc="http://purl.org/dc/elements/1.1/"
   xmlns:cc="http://creativecommons.org/ns#"
   xmlns:rdf="http://www.w3.org/1999/02/22-rdf-syntax-ns#"
   xmlns:svg="http://www.w3.org/2000/svg"
   xmlns="http://www.w3.org/2000/svg"
   xmlns:sodipodi="http://sodipodi.sourceforge.net/DTD/sodipodi-0.dtd"
   xmlns:inkscape="http://www.inkscape.org/namespaces/inkscape"
   width="379.68762"
   height="294.065"
   id="svg3547"
   version="1.1"
   inkscape:version="0.48.4 r9939"
   sodipodi:docname="unified_routing_pubsub_broker.svg">
  <defs
     id="defs3549" />
  <sodipodi:namedview
     id="base"
     pagecolor="#ffffff"
     bordercolor="#666666"
     borderopacity="1.0"
     inkscape:pageopacity="0.0"
     inkscape:pageshadow="2"
     inkscape:zoom="0.9899495"
     inkscape:cx="224.61892"
     inkscape:cy="203.66899"
     inkscape:document-units="px"
     inkscape:current-layer="layer1"
     showgrid="false"
     fit-margin-top="5"
     fit-margin-left="5"
     fit-margin-right="5"
     fit-margin-bottom="5"
     inkscape:window-width="1680"
     inkscape:window-height="988"
     inkscape:window-x="-8"
     inkscape:window-y="320"
     inkscape:window-maximized="1"
     showguides="true"
     inkscape:guide-bbox="true">
    <sodipodi:guide
       orientation="0,1"
       position="361.19698,146.50511"
       id="guide3045" />
  </sodipodi:namedview>
  <metadata
     id="metadata3552">
    <rdf:RDF>
      <cc:Work
         rdf:about="">
        <dc:format>image/svg+xml</dc:format>
        <dc:type
           rdf:resource="http://purl.org/dc/dcmitype/StillImage" />
        <dc:title />
      </cc:Work>
    </rdf:RDF>
  </metadata>
  <g
     inkscape:label="Ebene 1"
     inkscape:groupmode="layer"
     id="layer1"
     transform="translate(34.156317,-273.5913)">
    <g
       transform="translate(-132.6295,399.34402)"
       style="font-size:40px;font-style:normal;font-variant:normal;font-weight:normal;font-stretch:normal;line-height:125%;letter-spacing:0px;word-spacing:0px;fill:#000000;fill-opacity:1;stroke:none;font-family:Open Sans;-inkscape-font-specification:Open Sans"
       id="flowRoot3045" />
    <path
       inkscape:connector-curvature="0"
       style="fill:#ffffff;fill-opacity:1;fill-rule:evenodd;stroke:none"
       d="m -27.365844,472.25344 0,88.59376 118.04687,0 0,-88.59376 -118.04687,0 z"
       id="path3013" />
    <path
       inkscape:connector-curvature="0"
       style="fill:none;stroke:#000000;stroke-width:3.59375px;stroke-linecap:round;stroke-linejoin:round;stroke-opacity:1;stroke-dasharray:none"
       d="m -27.365844,560.8472 118.04687,0 0,-88.59376 -118.04687,0 0,88.59376 z"
       id="path3015" />
    <g
       style="font-size:23.75px;font-style:normal;font-weight:normal;text-align:start;text-anchor:start;fill:#262626;font-family:Arial"
       id="text3017"
       transform="matrix(0.95763372,0,0,0.95763372,-0.66471925,22.174131)">
      <path
         d="m -15.689819,523.11279 0,-17.00073 6.4129635,0 c 1.1287341,2e-5 1.9907531,0.0541 2.5860596,0.16235 0.8349493,0.13918 1.5346149,0.40397 2.098999,0.79438 0.5643583,0.39043 1.0185611,0.93741 1.3626099,1.64093 0.3440202,0.70354 0.5160374,1.47665 0.5160522,2.31933 -1.48e-5,1.44573 -0.4600159,2.66918 -1.3800048,3.67035 -0.9200158,1.00119 -2.5822049,1.50178 -4.9865723,1.50177 l -4.3603511,0 0,6.91162 z m 2.249756,-8.91784 4.3951411,0 c 1.4534406,1e-5 2.4855441,-0.27058 3.0963135,-0.81177 0.6107463,-0.54117 0.9161252,-1.30268 0.9161377,-2.28455 -1.25e-5,-0.71125 -0.1797608,-1.32007 -0.5392456,-1.82647 -0.3595087,-0.50638 -0.8330393,-0.84075 -1.4205933,-1.00312 -0.378835,-0.10049 -1.0785006,-0.15074 -2.098999,-0.15075 l -4.3487544,0 z"
         style="font-size:23.75px;font-style:normal;font-weight:normal;text-align:start;text-anchor:start;fill:#262626;font-family:Arial"
         id="path3003"
         inkscape:connector-curvature="0" />
      <path
         d="m 7.9790039,523.11279 0,-1.80908 c -0.9586675,1.3916 -2.2613599,2.0874 -3.908081,2.0874 -0.7267303,0 -1.4051354,-0.13916 -2.0352173,-0.41748 -0.6300894,-0.27832 -1.09782164,-0.62815 -1.40319828,-1.0495 -0.30538121,-0.42134 -0.51991957,-0.93739 -0.64361572,-1.54815 -0.08504388,-0.40975 -0.12756499,-1.05916 -0.12756347,-1.94825 l 0,-7.63061 2.08740237,0 0,6.83044 c -3.6e-6,1.0901 0.042517,1.82455 0.1275634,2.20337 0.1314252,0.54891 0.4097453,0.97992 0.834961,1.29303 0.4252066,0.31311 0.9509222,0.46967 1.5771484,0.46967 0.626214,0 1.2137785,-0.16042 1.7626953,-0.48126 0.5489011,-0.32084 0.9373895,-0.75765 1.1654663,-1.31043 0.2280588,-0.55277 0.3420927,-1.35487 0.3421021,-2.40631 l 0,-6.59851 2.0874023,0 0,12.31567 z"
         style="font-size:23.75px;font-style:normal;font-weight:normal;text-align:start;text-anchor:start;fill:#262626;font-family:Arial"
         id="path3005"
         inkscape:connector-curvature="0" />
      <path
         d="m 15.052979,523.11279 -1.936646,0 0,-17.00073 2.087402,0 0,6.06506 c 0.881343,-1.10553 2.00622,-1.65831 3.374634,-1.65832 0.757642,10e-6 1.474703,0.1527 2.151184,0.45807 0.676463,0.30539 1.233103,0.73447 1.669922,1.28723 0.436797,0.55278 0.778899,1.21959 1.026306,2.00043 0.247384,0.78085 0.371082,1.61581 0.371094,2.50488 -1.2e-5,2.1106 -0.521862,3.74186 -1.565552,4.8938 -1.043711,1.15194 -2.296151,1.7279 -3.757324,1.7279 -1.453456,0 -2.593795,-0.60689 -3.42102,-1.82068 z m -0.02319,-6.25061 c -3e-6,1.47665 0.201006,2.54354 0.603028,3.20069 0.65714,1.07462 1.546218,1.61194 2.667236,1.61193 0.912264,10e-6 1.700838,-0.39621 2.365722,-1.18865 0.664867,-0.79244 0.997305,-1.97337 0.997315,-3.54279 -10e-6,-1.60807 -0.318919,-2.79479 -0.956726,-3.56018 -0.637826,-0.76537 -1.409004,-1.14806 -2.313538,-1.14807 -0.912278,1e-5 -1.700851,0.39623 -2.365722,1.18866 -0.66488,0.79245 -0.997318,1.93858 -0.997315,3.43841 z"
         style="font-size:23.75px;font-style:normal;font-weight:normal;text-align:start;text-anchor:start;fill:#262626;font-family:Arial"
         id="path3007"
         inkscape:connector-curvature="0" />
      <path
         d="m 26.301758,523.11279 0,-17.00073 2.087402,0 0,17.00073 z"
         style="font-size:23.75px;font-style:normal;font-weight:normal;text-align:start;text-anchor:start;fill:#262626;font-family:Arial"
         id="path3009"
         inkscape:connector-curvature="0" />
      <path
         d="m 31.647827,508.51257 0,-2.40051 2.087402,0 0,2.40051 z m 0,14.60022 0,-12.31567 2.087402,0 0,12.31567 z"
         style="font-size:23.75px;font-style:normal;font-weight:normal;text-align:start;text-anchor:start;fill:#262626;font-family:Arial"
         id="path3012"
         inkscape:connector-curvature="0" />
      <path
         d="m 36.089355,519.43665 2.064209,-0.32471 c 0.115964,0.82723 0.438738,1.46118 0.968323,1.90185 0.529578,0.44068 1.269832,0.66102 2.220764,0.66101 0.958652,10e-6 1.669915,-0.1952 2.133789,-0.58563 0.463859,-0.39042 0.695792,-0.84849 0.695801,-1.3742 -9e-6,-0.4716 -0.204883,-0.84269 -0.614624,-1.11329 -0.286059,-0.18554 -0.997321,-0.42134 -2.133789,-0.70739 -1.530766,-0.38655 -2.591861,-0.72092 -3.183288,-1.00312 -0.591433,-0.28218 -1.039838,-0.6726 -1.345215,-1.17126 -0.305381,-0.49865 -0.45807,-1.04949 -0.458069,-1.65253 -10e-7,-0.5489 0.125629,-1.05722 0.376892,-1.52496 0.25126,-0.46772 0.593361,-0.85621 1.026306,-1.16547 0.324704,-0.23965 0.76731,-0.44259 1.32782,-0.60882 0.560502,-0.16621 1.161596,-0.24932 1.803284,-0.24933 0.966383,10e-6 1.814873,0.13917 2.545471,0.41748 0.730582,0.27833 1.269827,0.65522 1.617737,1.13068 0.34789,0.47547 0.587554,1.11135 0.718994,1.90765 l -2.041016,0.27832 c -0.09278,-0.63394 -0.361438,-1.12873 -0.805969,-1.48438 -0.444547,-0.35562 -1.0727,-0.53343 -1.884461,-0.53344 -0.958663,1e-5 -1.642867,0.1585 -2.052612,0.47546 -0.409753,0.31699 -0.614627,0.68808 -0.614624,1.11328 -3e-6,0.2706 0.08504,0.51413 0.255127,0.73059 0.170081,0.22421 0.436805,0.40976 0.800171,0.55664 0.208736,0.0773 0.823359,0.25514 1.843872,0.53345 1.476636,0.3943 2.506807,0.71707 3.090515,0.96832 0.58369,0.25127 1.041758,0.61657 1.374207,1.09589 0.332427,0.47933 0.498646,1.07463 0.498657,1.78589 -1.1e-5,0.6958 -0.202953,1.35101 -0.608826,1.96564 -0.405893,0.61462 -0.991525,1.09008 -1.756897,1.42639 -0.765388,0.3363 -1.631273,0.50445 -2.597656,0.50445 -1.600346,0 -2.819929,-0.33243 -3.658752,-0.99731 -0.838828,-0.66488 -1.374208,-1.65059 -1.606141,-2.95715 z"
         style="font-size:23.75px;font-style:normal;font-weight:normal;text-align:start;text-anchor:start;fill:#262626;font-family:Arial"
         id="path3014"
         inkscape:connector-curvature="0" />
      <path
         d="m 48.799316,523.11279 0,-17.00073 2.087403,0 0,6.09985 c 0.974116,-1.12873 2.203363,-1.6931 3.687744,-1.69311 0.912264,10e-6 1.704703,0.17976 2.377319,0.53924 0.672597,0.35951 1.153859,0.85624 1.443787,1.49018 0.289905,0.63396 0.434864,1.55396 0.434875,2.76001 l 0,7.80456 -2.087402,0 0,-7.80456 c -1e-5,-1.04369 -0.226145,-1.80328 -0.678406,-2.27875 -0.452279,-0.47545 -1.092028,-0.71319 -1.91925,-0.7132 -0.618496,10e-6 -1.200262,0.16044 -1.745301,0.48127 -0.545048,0.32085 -0.933536,0.75572 -1.165466,1.30462 -0.231937,0.54892 -0.347904,1.30657 -0.3479,2.27295 l 0,6.73767 z"
         style="font-size:23.75px;font-style:normal;font-weight:normal;text-align:start;text-anchor:start;fill:#262626;font-family:Arial"
         id="path3016"
         inkscape:connector-curvature="0" />
      <path
         d="m 70.450317,519.14673 2.156983,0.26672 c -0.340181,1.26018 -0.970267,2.23816 -1.890259,2.93396 -0.920013,0.6958 -2.095142,1.0437 -3.525391,1.0437 -1.801355,0 -3.229678,-0.5547 -4.284973,-1.66412 -1.055299,-1.10941 -1.582947,-2.6653 -1.582947,-4.66766 0,-2.07194 0.533446,-3.68001 1.600342,-4.82422 1.066891,-1.1442 2.45076,-1.7163 4.151612,-1.71631 1.64672,10e-6 2.991933,0.56052 4.035644,1.68152 1.04369,1.12102 1.56554,2.69817 1.565552,4.73144 -1.2e-5,0.12371 -0.0039,0.30925 -0.0116,0.55664 l -9.18457,0 c 0.07731,1.35295 0.459998,2.38892 1.148071,3.10791 0.688065,0.719 1.546218,1.0785 2.574463,1.07849 0.765373,10e-6 1.418652,-0.201 1.959839,-0.60302 0.541169,-0.40202 0.970246,-1.0437 1.287231,-1.92505 z m -6.853637,-3.37464 6.876831,0 c -0.09278,-1.03596 -0.355641,-1.81293 -0.788574,-2.33093 -0.664885,-0.80402 -1.526904,-1.20604 -2.58606,-1.20605 -0.958665,1e-5 -1.764633,0.32085 -2.417908,0.96252 -0.653283,0.64169 -1.014712,1.49985 -1.084289,2.57446 z"
         style="font-size:23.75px;font-style:normal;font-weight:normal;text-align:start;text-anchor:start;fill:#262626;font-family:Arial"
         id="path3018"
         inkscape:connector-curvature="0" />
      <path
         d="m 75.216553,523.11279 0,-12.31567 1.878662,0 0,1.86706 c 0.479325,-0.8736 0.921932,-1.44957 1.32782,-1.7279 0.405878,-0.27831 0.85235,-0.41747 1.339416,-0.41748 0.703525,10e-6 1.418653,0.22421 2.145386,0.67261 l -0.718994,1.93664 c -0.510261,-0.3015 -1.020515,-0.45226 -1.530762,-0.45227 -0.456142,10e-6 -0.86589,0.13724 -1.229248,0.41168 -0.363367,0.27447 -0.622359,0.65523 -0.776978,1.14228 -0.231937,0.74219 -0.347904,1.55396 -0.3479,2.4353 l 0,6.44775 z"
         style="font-size:23.75px;font-style:normal;font-weight:normal;text-align:start;text-anchor:start;fill:#262626;font-family:Arial"
         id="path3020"
         inkscape:connector-curvature="0" />
    </g>
    <path
       inkscape:connector-curvature="0"
       style="fill:#ffffff;fill-opacity:1;fill-rule:evenodd;stroke:none"
       d="m 220.60291,472.25344 0,88.59376 118.125,0 0,-88.59376 -118.125,0 z"
       id="path3019" />
    <path
       inkscape:connector-curvature="0"
       style="fill:none;stroke:#000000;stroke-width:3.59375px;stroke-linecap:round;stroke-linejoin:round;stroke-opacity:1;stroke-dasharray:none"
       d="m 220.60291,560.8472 118.125,0 0,-88.59376 -118.125,0 0,88.59376 z"
       id="path3021" />
    <g
       style="font-size:21.25px;font-style:normal;font-weight:normal;text-align:start;text-anchor:start;fill:#262626;font-family:Arial"
       id="text3023">
      <path
         d="m 228.4325,518.22571 1.8988,-0.16602 c 0.0899,0.76091 0.29917,1.3852 0.62775,1.87287 0.32856,0.48767 0.83872,0.88196 1.53045,1.18286 0.69173,0.3009 1.46993,0.45135 2.3346,0.45135 0.76781,0 1.44571,-0.11413 2.03369,-0.3424 0.58796,-0.22827 1.02548,-0.54128 1.31256,-0.93903 0.28706,-0.39774 0.43059,-0.8318 0.4306,-1.30219 -1e-5,-0.47729 -0.13836,-0.89405 -0.41504,-1.2503 -0.2767,-0.35624 -0.73324,-0.65541 -1.36963,-0.89752 -0.40813,-0.15909 -1.31084,-0.40639 -2.70813,-0.74189 -1.3973,-0.33548 -2.3761,-0.65194 -2.9364,-0.9494 -0.72632,-0.38044 -1.2676,-0.85255 -1.62384,-1.41632 -0.35624,-0.56375 -0.53436,-1.19495 -0.53436,-1.89361 0,-0.76781 0.21789,-1.48548 0.65369,-2.15302 0.43578,-0.66751 1.07218,-1.1742 1.90918,-1.52008 0.83699,-0.34585 1.76736,-0.51878 2.79113,-0.5188 1.12752,2e-5 2.12188,0.1816 2.9831,0.54474 0.86119,0.36317 1.52352,0.89754 1.987,1.60309 0.46344,0.70558 0.71247,1.50453 0.74707,2.39685 l -1.92993,0.14526 c -0.10378,-0.96149 -0.45483,-1.68781 -1.05317,-2.17895 -0.59835,-0.49112 -1.48204,-0.73668 -2.65106,-0.7367 -1.21745,2e-5 -2.1046,0.2231 -2.66144,0.66925 -0.55684,0.44618 -0.83527,0.984 -0.83526,1.61347 -1e-5,0.54648 0.19714,0.9961 0.59143,1.34888 0.38736,0.35279 1.39902,0.71422 3.03497,1.08429 1.63594,0.37008 2.75827,0.69346 3.36701,0.97015 0.8854,0.40813 1.53909,0.9252 1.96106,1.55121 0.42194,0.62602 0.63292,1.34715 0.63293,2.16339 -1e-5,0.80933 -0.23174,1.57196 -0.69519,2.2879 -0.46347,0.71595 -1.12926,1.27279 -1.99738,1.67053 -0.86813,0.39775 -1.8452,0.59662 -2.93121,0.59662 -1.37655,0 -2.53001,-0.2006 -3.46039,-0.6018 -0.93038,-0.40121 -1.66016,-1.00474 -2.18933,-1.81061 -0.52917,-0.80587 -0.8076,-1.71722 -0.83526,-2.73407 z"
         style="font-size:21.25px;font-style:normal;font-weight:normal;text-align:start;text-anchor:start;fill:#262626;font-family:Arial"
         id="path3023"
         inkscape:connector-curvature="0" />
      <path
         d="m 250.29468,523.11279 0,-1.61865 c -0.85776,1.24512 -2.02332,1.86768 -3.49671,1.86768 -0.65023,0 -1.25722,-0.12452 -1.82098,-0.37354 -0.56376,-0.24902 -0.98226,-0.56203 -1.25549,-0.93902 -0.27324,-0.377 -0.46519,-0.83873 -0.57587,-1.3852 -0.0761,-0.36661 -0.11414,-0.94767 -0.11414,-1.74316 l 0,-6.82739 1.86768,0 0,6.11145 c 0,0.97534 0.038,1.63249 0.11414,1.97143 0.11759,0.49113 0.36661,0.87677 0.74707,1.15692 0.38044,0.28016 0.85082,0.42023 1.41113,0.42023 0.5603,0 1.08601,-0.14353 1.57715,-0.4306 0.49112,-0.28707 0.83871,-0.6779 1.04278,-1.17249 0.20406,-0.49458 0.30609,-1.21225 0.30609,-2.15301 l 0,-5.90393 1.86768,0 0,11.01928 z"
         style="font-size:21.25px;font-style:normal;font-weight:normal;text-align:start;text-anchor:start;fill:#262626;font-family:Arial"
         id="path3026"
         inkscape:connector-curvature="0" />
      <path
         d="m 256.62402,523.11279 -1.73278,0 0,-15.21118 1.86767,0 0,5.42664 c 0.78857,-0.98917 1.79504,-1.48376 3.01941,-1.48377 0.67789,1e-5 1.31947,0.13663 1.92474,0.40985 0.60526,0.27325 1.10331,0.65716 1.49414,1.15174 0.39082,0.49459 0.69691,1.09121 0.91828,1.78985 0.22134,0.69866 0.33202,1.44573 0.33203,2.24121 -1e-5,1.88844 -0.46693,3.34799 -1.40076,4.37867 -0.93384,1.03068 -2.05445,1.54602 -3.36181,1.54602 -1.30046,0 -2.32077,-0.54301 -3.06092,-1.62903 z m -0.0207,-5.59265 c 0,1.32121 0.17985,2.2758 0.53955,2.86377 0.58797,0.96151 1.38346,1.44226 2.38648,1.44226 0.81623,0 1.5218,-0.35451 2.1167,-1.06354 0.59488,-0.70902 0.89232,-1.76564 0.89233,-3.16986 -1e-5,-1.43879 -0.28535,-2.5006 -0.85602,-3.18542 -0.57068,-0.68481 -1.26069,-1.02721 -2.07001,-1.02722 -0.81624,10e-6 -1.52181,0.35452 -2.11669,1.06353 -0.5949,0.70904 -0.89234,1.73453 -0.89234,3.07648 z"
         style="font-size:21.25px;font-style:normal;font-weight:normal;text-align:start;text-anchor:start;fill:#262626;font-family:Arial"
         id="path3028"
         inkscape:connector-curvature="0" />
      <path
         d="m 265.98315,519.82361 1.84693,-0.29053 c 0.10376,0.74016 0.39255,1.30738 0.86639,1.70166 0.47383,0.39429 1.13617,0.59143 1.987,0.59143 0.85774,0 1.49414,-0.17466 1.90918,-0.52398 0.41503,-0.34933 0.62255,-0.75918 0.62256,-1.22956 -1e-5,-0.42195 -0.18332,-0.75398 -0.54993,-0.99609 -0.25594,-0.16601 -0.89234,-0.37699 -1.90918,-0.63294 -1.36963,-0.34586 -2.31903,-0.64503 -2.8482,-0.89752 -0.52918,-0.25247 -0.93038,-0.6018 -1.20362,-1.04797 -0.27323,-0.44616 -0.40985,-0.93902 -0.40985,-1.47858 0,-0.49112 0.11241,-0.94593 0.33722,-1.36444 0.22481,-0.41849 0.53091,-0.76608 0.91828,-1.04279 0.29052,-0.21442 0.68654,-0.396 1.18805,-0.54473 0.5015,-0.14872 1.03932,-0.22308 1.61346,-0.22309 0.86466,1e-5 1.62383,0.12453 2.27753,0.37354 0.65368,0.24903 1.13616,0.58625 1.44745,1.01166 0.31127,0.42542 0.5257,0.99437 0.64331,1.70684 l -1.82618,0.24903 c -0.083,-0.56721 -0.32339,-1.00992 -0.72113,-1.32813 -0.39775,-0.31819 -0.95978,-0.47728 -1.68609,-0.47729 -0.85775,10e-6 -1.46994,0.14181 -1.83655,0.42541 -0.36662,0.28362 -0.54993,0.61565 -0.54993,0.9961 0,0.24211 0.0761,0.46001 0.22827,0.65368 0.15218,0.20061 0.39083,0.36663 0.71595,0.49805 0.18676,0.0692 0.73669,0.22828 1.64978,0.47729 1.3212,0.35279 2.24293,0.64159 2.7652,0.8664 0.52224,0.22482 0.93209,0.55166 1.22955,0.98053 0.29743,0.42888 0.44616,0.96151 0.44617,1.5979 -10e-6,0.62256 -0.18159,1.2088 -0.54474,1.75873 -0.36317,0.54992 -0.88716,0.97534 -1.57196,1.27624 -0.68483,0.3009 -1.45956,0.45136 -2.32422,0.45136 -1.43189,0 -2.5231,-0.29745 -3.27362,-0.89234 -0.75053,-0.59489 -1.22956,-1.47684 -1.43708,-2.64587 z"
         style="font-size:21.25px;font-style:normal;font-weight:normal;text-align:start;text-anchor:start;fill:#262626;font-family:Arial"
         id="path3030"
         inkscape:connector-curvature="0" />
      <path
         d="m 284.54578,519.07654 1.83654,0.23865 c -0.20061,1.26587 -0.71422,2.25677 -1.54083,2.97271 -0.82663,0.71595 -1.84174,1.07392 -3.04535,1.07392 -1.50798,0 -2.72024,-0.49286 -3.63678,-1.47858 -0.91654,-0.98572 -1.37481,-2.39858 -1.37481,-4.23859 0,-1.18977 0.19714,-2.23082 0.59143,-3.12317 0.39428,-0.89232 0.99436,-1.56157 1.80023,-2.00775 0.80586,-0.44615 1.68263,-0.66924 2.63031,-0.66925 1.19669,1e-5 2.17549,0.30265 2.9364,0.9079 0.7609,0.60528 1.24857,1.46475 1.46301,2.57843 l -1.81579,0.28015 c -0.17294,-0.74014 -0.47904,-1.29699 -0.91828,-1.67053 -0.43925,-0.37353 -0.97016,-0.56029 -1.59271,-0.5603 -0.94076,10e-6 -1.70512,0.33723 -2.29309,1.01165 -0.58798,0.67445 -0.88196,1.74145 -0.88196,3.20099 0,1.48031 0.28361,2.55596 0.85083,3.22693 0.56722,0.67098 1.30737,1.00647 2.22046,1.00647 0.73323,0 1.34541,-0.22481 1.83655,-0.67444 0.49112,-0.44962 0.8024,-1.14135 0.93384,-2.07519 z"
         style="font-size:21.25px;font-style:normal;font-weight:normal;text-align:start;text-anchor:start;fill:#262626;font-family:Arial"
         id="path3032"
         inkscape:connector-curvature="0" />
      <path
         d="m 287.95947,523.11279 0,-11.01928 1.68091,0 0,1.67053 c 0.42887,-0.78165 0.82489,-1.29699 1.18805,-1.54602 0.36315,-0.24901 0.76263,-0.37353 1.19843,-0.37354 0.62947,1e-5 1.26932,0.20062 1.91955,0.60181 l -0.64331,1.73279 c -0.45655,-0.26977 -0.91309,-0.40466 -1.36963,-0.40467 -0.40813,10e-6 -0.77474,0.1228 -1.09985,0.36835 -0.32512,0.24557 -0.55685,0.58625 -0.69519,1.02203 -0.20753,0.66407 -0.31128,1.39039 -0.31128,2.17896 l 0,5.76904 z"
         style="font-size:21.25px;font-style:normal;font-weight:normal;text-align:start;text-anchor:start;fill:#262626;font-family:Arial"
         id="path3034"
         inkscape:connector-curvature="0" />
      <path
         d="m 295.08777,510.04944 0,-2.14783 1.86767,0 0,2.14783 z m 0,13.06335 0,-11.01928 1.86767,0 0,11.01928 z"
         style="font-size:21.25px;font-style:normal;font-weight:normal;text-align:start;text-anchor:start;fill:#262626;font-family:Arial"
         id="path3036"
         inkscape:connector-curvature="0" />
      <path
         d="m 301.53125,523.11279 -1.73279,0 0,-15.21118 1.86768,0 0,5.42664 c 0.78857,-0.98917 1.79504,-1.48376 3.01941,-1.48377 0.67789,1e-5 1.31947,0.13663 1.92474,0.40985 0.60526,0.27325 1.1033,0.65716 1.49414,1.15174 0.39082,0.49459 0.69691,1.09121 0.91828,1.78985 0.22134,0.69866 0.33202,1.44573 0.33203,2.24121 -10e-6,1.88844 -0.46693,3.34799 -1.40076,4.37867 -0.93385,1.03068 -2.05445,1.54602 -3.36182,1.54602 -1.30046,0 -2.32076,-0.54301 -3.06091,-1.62903 z m -0.0208,-5.59265 c -10e-6,1.32121 0.17985,2.2758 0.53955,2.86377 0.58797,0.96151 1.38346,1.44226 2.38647,1.44226 0.81624,0 1.52181,-0.35451 2.1167,-1.06354 0.59488,-0.70902 0.89233,-1.76564 0.89234,-3.16986 -1e-5,-1.43879 -0.28535,-2.5006 -0.85602,-3.18542 -0.57069,-0.68481 -1.26069,-1.02721 -2.07001,-1.02722 -0.81625,10e-6 -1.52181,0.35452 -2.1167,1.06353 -0.59489,0.70904 -0.89234,1.73453 -0.89233,3.07648 z"
         style="font-size:21.25px;font-style:normal;font-weight:normal;text-align:start;text-anchor:start;fill:#262626;font-family:Arial"
         id="path3038"
         inkscape:connector-curvature="0" />
      <path
         d="m 319.18079,519.56421 1.92993,0.23865 c -0.30437,1.12752 -0.86814,2.00256 -1.69129,2.62512 -0.82317,0.62256 -1.8746,0.93384 -3.15429,0.93384 -1.61174,0 -2.88972,-0.49632 -3.83393,-1.48896 -0.94421,-0.99263 -1.41632,-2.38474 -1.41632,-4.17633 0,-1.85383 0.4773,-3.29263 1.43189,-4.3164 0.95458,-1.02376 2.19278,-1.53564 3.7146,-1.53565 1.47338,1e-5 2.67699,0.50152 3.61084,1.50452 0.93382,1.00302 1.40074,2.41415 1.40075,4.2334 -1e-5,0.11068 -0.003,0.2767 -0.0104,0.49804 l -8.21778,0 c 0.0692,1.21054 0.41158,2.13746 1.02723,2.78077 0.61563,0.64331 1.38345,0.96496 2.30346,0.96496 0.68481,0 1.26932,-0.17985 1.75354,-0.53955 0.48421,-0.3597 0.86812,-0.93383 1.15174,-1.72241 z m -6.13221,-3.01941 6.15296,0 c -0.083,-0.92691 -0.31821,-1.6221 -0.70557,-2.08557 -0.5949,-0.71939 -1.36618,-1.07909 -2.31384,-1.0791 -0.85775,10e-6 -1.57888,0.28708 -2.16339,0.8612 -0.58452,0.57415 -0.9079,1.34197 -0.97016,2.30347 z"
         style="font-size:21.25px;font-style:normal;font-weight:normal;text-align:start;text-anchor:start;fill:#262626;font-family:Arial"
         id="path3040"
         inkscape:connector-curvature="0" />
      <path
         d="m 323.44531,523.11279 0,-11.01928 1.68091,0 0,1.67053 c 0.42887,-0.78165 0.82489,-1.29699 1.18805,-1.54602 0.36315,-0.24901 0.76263,-0.37353 1.19843,-0.37354 0.62947,1e-5 1.26932,0.20062 1.91955,0.60181 l -0.64331,1.73279 c -0.45655,-0.26977 -0.91309,-0.40466 -1.36963,-0.40467 -0.40813,10e-6 -0.77474,0.1228 -1.09985,0.36835 -0.32512,0.24557 -0.55685,0.58625 -0.69519,1.02203 -0.20753,0.66407 -0.31128,1.39039 -0.31128,2.17896 l 0,5.76904 z"
         style="font-size:21.25px;font-style:normal;font-weight:normal;text-align:start;text-anchor:start;fill:#262626;font-family:Arial"
         id="path3042"
         inkscape:connector-curvature="0" />
    </g>
    <path
       inkscape:connector-curvature="0"
       style="fill:#ffffff;fill-opacity:1;fill-rule:evenodd;stroke:none"
       d="m 102.55603,280.37844 0,88.51563 118.04688,0 0,-88.51563 -118.04688,0 z"
       id="path3025" />
    <path
       inkscape:connector-curvature="0"
       style="fill:none;stroke:#000000;stroke-width:3.59375px;stroke-linecap:round;stroke-linejoin:round;stroke-opacity:1;stroke-dasharray:none"
       d="m 102.55603,368.89407 118.04688,0 0,-88.51563 -118.04688,0 0,88.51563 z"
       id="path3027" />
    <g
       style="font-size:23.75px;font-style:normal;font-weight:bold;text-align:start;text-anchor:start;fill:#262626;font-family:Arial"
       id="text3029">
      <path
         d="m 125.46741,314.86209 6.79566,0 c 1.3452,2e-5 2.34832,0.0561 3.00934,0.16815 0.661,0.11212 1.25243,0.34599 1.77429,0.7016 0.52184,0.35565 0.95671,0.82918 1.30463,1.4206 0.34788,0.59144 0.52183,1.25438 0.52185,1.98883 -2e-5,0.79631 -0.21456,1.5269 -0.64362,2.19177 -0.42909,0.66488 -1.01086,1.16354 -1.7453,1.49597 1.03596,0.30152 1.83226,0.81564 2.38892,1.54236 0.55662,0.72673 0.83494,1.58102 0.83496,2.56286 -2e-5,0.77312 -0.17977,1.52497 -0.53925,2.25556 -0.35951,0.73059 -0.85044,1.31429 -1.47278,1.7511 -0.62236,0.43681 -1.38968,0.70546 -2.30194,0.80597 -0.57211,0.0618 -1.95211,0.1005 -4.14001,0.11596 l -5.78675,0 z m 3.43262,2.82959 0,3.93128 2.24976,0 c 1.33747,1e-5 2.16857,-0.0193 2.49328,-0.058 0.58756,-0.0696 1.04949,-0.27251 1.38581,-0.60882 0.33629,-0.3363 0.50444,-0.7789 0.50445,-1.32782 -1e-5,-0.52571 -0.14497,-0.95285 -0.43487,-1.28144 -0.28993,-0.32856 -0.72094,-0.52763 -1.29303,-0.59723 -0.34018,-0.0386 -1.31817,-0.058 -2.93396,-0.058 z m 0,6.76087 0,4.54589 3.17749,0 c 1.23697,10e-6 2.02168,-0.0348 2.35413,-0.10437 0.51024,-0.0928 0.92579,-0.3189 1.24664,-0.6784 0.32083,-0.3595 0.48125,-0.84076 0.48126,-1.44379 -1e-5,-0.51025 -0.12371,-0.94319 -0.37109,-1.29883 -0.24741,-0.35562 -0.60497,-0.61461 -1.07269,-0.77697 -0.46775,-0.16235 -1.48245,-0.24353 -3.04413,-0.24353 z"
         style="font-size:23.75px;font-style:normal;font-weight:bold;text-align:start;text-anchor:start;fill:#262626;font-family:Arial"
         id="path3045"
         inkscape:connector-curvature="0" />
      <path
         d="m 145.71522,331.86282 -3.25867,0 0,-12.31567 3.02673,0 0,1.7511 c 0.51798,-0.82722 0.98378,-1.37226 1.3974,-1.63513 0.41361,-0.26285 0.88328,-0.39428 1.409,-0.39429 0.74218,1e-5 1.45731,0.20489 2.14539,0.61462 l -1.00891,2.84119 c -0.54892,-0.35562 -1.05918,-0.53344 -1.53077,-0.53345 -0.45614,10e-6 -0.84269,0.12564 -1.15966,0.37689 -0.31699,0.25128 -0.56631,0.70548 -0.74799,1.36261 -0.18169,0.65716 -0.27253,2.03329 -0.27252,4.12842 z"
         style="font-size:23.75px;font-style:normal;font-weight:bold;text-align:start;text-anchor:start;fill:#262626;font-family:Arial"
         id="path3047"
         inkscape:connector-curvature="0" />
      <path
         d="m 151.07288,325.53104 c 0,-1.08235 0.26673,-2.12992 0.80017,-3.1427 0.53345,-1.01277 1.28917,-1.78588 2.26716,-2.31934 0.97798,-0.53343 2.07,-0.80016 3.27606,-0.80017 1.86319,1e-5 3.39008,0.60497 4.58069,1.81488 1.19058,1.20993 1.78587,2.73876 1.78588,4.58649 -1e-5,1.8632 -0.6011,3.40749 -1.80328,4.63287 -1.2022,1.22538 -2.71556,1.83807 -4.5401,1.83807 -1.12875,0 -2.20531,-0.25512 -3.22967,-0.76538 -1.02438,-0.51025 -1.80329,-1.25824 -2.33674,-2.24395 -0.53344,-0.98572 -0.80017,-2.18597 -0.80017,-3.60077 z m 3.33985,0.17395 c -1e-5,1.22152 0.28991,2.15698 0.86975,2.80639 0.57983,0.64942 1.29495,0.97413 2.14538,0.97412 0.85042,10e-6 1.56361,-0.3247 2.13959,-0.97412 0.57596,-0.64941 0.86394,-1.5926 0.86395,-2.82959 -1e-5,-1.20604 -0.28799,-2.13378 -0.86395,-2.7832 -0.57598,-0.6494 -1.28917,-0.97411 -2.13959,-0.97412 -0.85043,1e-5 -1.56555,0.32472 -2.14538,0.97412 -0.57984,0.64942 -0.86976,1.58489 -0.86975,2.8064 z"
         style="font-size:23.75px;font-style:normal;font-weight:bold;text-align:start;text-anchor:start;fill:#262626;font-family:Arial"
         id="path3049"
         inkscape:connector-curvature="0" />
      <path
         d="m 166.22974,331.86282 0,-17.00073 3.25867,0 0,9.02222 3.81531,-4.33716 4.01245,0 -4.20959,4.49951 4.5111,7.81616 -3.51379,0 -3.09631,-5.53161 -1.51917,1.58874 0,3.94287 z"
         style="font-size:23.75px;font-style:normal;font-weight:bold;text-align:start;text-anchor:start;fill:#262626;font-family:Arial"
         id="path3051"
         inkscape:connector-curvature="0" />
      <path
         d="m 186.69788,327.94315 3.24707,0.54504 c -0.41749,1.19059 -1.07657,2.09707 -1.97723,2.71942 -0.90068,0.62236 -2.02749,0.93353 -3.38043,0.93353 -2.14153,0 -3.7264,-0.69966 -4.75464,-2.099 -0.81177,-1.121 -1.21765,-2.5358 -1.21765,-4.24438 0,-2.04101 0.53344,-3.63941 1.60034,-4.79523 1.06689,-1.15579 2.41597,-1.73369 4.04724,-1.7337 1.83227,1e-5 3.27799,0.60497 4.33716,1.81488 1.05915,1.20993 1.56554,3.06346 1.51916,5.56061 l -8.16406,0 c 0.0232,0.96639 0.28605,1.71824 0.78858,2.25555 0.50251,0.53732 1.12873,0.80597 1.87866,0.80597 0.51024,0 0.93932,-0.13916 1.28723,-0.41748 0.34789,-0.27832 0.61075,-0.72672 0.78857,-1.34521 z m 0.18555,-3.29346 c -0.0232,-0.94319 -0.26673,-1.66025 -0.73059,-2.15119 -0.46388,-0.49091 -1.02825,-0.73637 -1.69312,-0.73638 -0.71126,1e-5 -1.29883,0.259 -1.76269,0.77697 -0.46387,0.518 -0.69194,1.22153 -0.6842,2.1106 z"
         style="font-size:23.75px;font-style:normal;font-weight:bold;text-align:start;text-anchor:start;fill:#262626;font-family:Arial"
         id="path3053"
         inkscape:connector-curvature="0" />
      <path
         d="m 195.90565,331.86282 -3.25867,0 0,-12.31567 3.02673,0 0,1.7511 c 0.51798,-0.82722 0.98378,-1.37226 1.3974,-1.63513 0.41361,-0.26285 0.88328,-0.39428 1.409,-0.39429 0.74218,1e-5 1.45731,0.20489 2.14539,0.61462 l -1.00892,2.84119 c -0.54891,-0.35562 -1.05917,-0.53344 -1.53076,-0.53345 -0.45614,10e-6 -0.8427,0.12564 -1.15966,0.37689 -0.31699,0.25128 -0.56631,0.70548 -0.74799,1.36261 -0.18169,0.65716 -0.27253,2.03329 -0.27252,4.12842 z"
         style="font-size:23.75px;font-style:normal;font-weight:bold;text-align:start;text-anchor:start;fill:#262626;font-family:Arial"
         id="path3055"
         inkscape:connector-curvature="0" />
    </g>
    <path
       inkscape:connector-curvature="0"
       style="fill:none;stroke:#000000;stroke-width:3.59375px;stroke-linecap:round;stroke-linejoin:round;stroke-opacity:1;stroke-dasharray:none"
       d="m 31.696656,472.25344 0,-147.65624 49.375,0"
       id="path3031" />
    <path
       inkscape:connector-curvature="0"
       style="fill:#000000;fill-opacity:1;fill-rule:evenodd;stroke:none"
       d="m 79.118526,316.86282 23.437504,7.73438 -23.437504,7.8125 0,-15.54688 z"
       id="path3033" />
    <path
       inkscape:connector-curvature="0"
       style="fill:none;stroke:#000000;stroke-width:3.59375px;stroke-linecap:round;stroke-linejoin:round;stroke-opacity:1;stroke-dasharray:none"
       d="m 220.60291,324.5972 59.0625,0 0,126.25"
       id="path3035" />
    <path
       inkscape:connector-curvature="0"
       style="fill:#000000;fill-opacity:1;fill-rule:evenodd;stroke:none"
       d="m 287.47791,448.89407 -7.8125,23.35937 -7.73438,-23.35937 15.54688,0 z"
       id="path3037" />
  </g>
</svg>
