<?xml version="1.0" encoding="UTF-8" standalone="no"?>
<!-- Created with Inkscape (http://www.inkscape.org/) -->

<svg
   xmlns:dc="http://purl.org/dc/elements/1.1/"
   xmlns:cc="http://creativecommons.org/ns#"
   xmlns:rdf="http://www.w3.org/1999/02/22-rdf-syntax-ns#"
   xmlns:svg="http://www.w3.org/2000/svg"
   xmlns="http://www.w3.org/2000/svg"
   xmlns:sodipodi="http://sodipodi.sourceforge.net/DTD/sodipodi-0.dtd"
   xmlns:inkscape="http://www.inkscape.org/namespaces/inkscape"
   width="391.56262"
   height="102.19002"
   id="svg3547"
   version="1.1"
   inkscape:version="0.48.4 r9939"
   sodipodi:docname="unified_routing_rpc_client_server.svg">
  <defs
     id="defs3549" />
  <sodipodi:namedview
     id="base"
     pagecolor="#ffffff"
     bordercolor="#666666"
     borderopacity="1.0"
     inkscape:pageopacity="0.0"
     inkscape:pageshadow="2"
     inkscape:zoom="0.9899495"
     inkscape:cx="188.29826"
     inkscape:cy="171.29162"
     inkscape:document-units="px"
     inkscape:current-layer="layer1"
     showgrid="false"
     fit-margin-top="5"
     fit-margin-left="5"
     fit-margin-right="5"
     fit-margin-bottom="5"
     inkscape:window-width="1680"
     inkscape:window-height="988"
     inkscape:window-x="-8"
     inkscape:window-y="320"
     inkscape:window-maximized="1"
     showguides="true"
     inkscape:guide-bbox="true">
    <sodipodi:guide
       orientation="0,1"
       position="370.69699,97.630102"
       id="guide3045" />
  </sodipodi:namedview>
  <metadata
     id="metadata3552">
    <rdf:RDF>
      <cc:Work
         rdf:about="">
        <dc:format>image/svg+xml</dc:format>
        <dc:type
           rdf:resource="http://purl.org/dc/dcmitype/StillImage" />
        <dc:title />
      </cc:Work>
    </rdf:RDF>
  </metadata>
  <g
     inkscape:label="Ebene 1"
     inkscape:groupmode="layer"
     id="layer1"
     transform="translate(43.656317,-416.5913)">
    <g
       transform="translate(-132.6295,399.34402)"
       style="font-size:40px;font-style:normal;font-variant:normal;font-weight:normal;font-stretch:normal;line-height:125%;letter-spacing:0px;word-spacing:0px;fill:#000000;fill-opacity:1;stroke:none;font-family:Open Sans;-inkscape-font-specification:Open Sans"
       id="flowRoot3045" />
    <path
       inkscape:connector-curvature="0"
       style="fill:#ffffff;fill-opacity:1;fill-rule:evenodd;stroke:none"
       d="m -36.850878,423.38476 0,88.59375 118.125,0 0,-88.59375 -118.125,0 z"
       id="path3059" />
    <path
       inkscape:connector-curvature="0"
       style="fill:none;stroke:#000000;stroke-width:3.59375px;stroke-linecap:round;stroke-linejoin:round;stroke-opacity:1;stroke-dasharray:none"
       d="m -36.850878,511.97851 118.125,0 0,-88.59375 -118.125,0 0,88.59375 z"
       id="path3061" />
    <g
       style="font-size:23.75px;font-style:normal;font-weight:normal;text-align:start;text-anchor:start;fill:#262626;font-family:Arial"
       id="text3063">
      <path
         d="m 6.1740246,468.83032 2.2497558,0.56824 c -0.471614,1.84774 -1.3201036,3.25674 -2.5454712,4.22699 -1.2253949,0.97026 -2.7232978,1.45538 -4.4937133,1.45538 -1.83228276,0 -3.3224546,-0.37302 -4.47052,-1.11908 -1.1480749,-0.74605 -2.0216906,-1.82647 -2.6208497,-3.24127 -0.5991632,-1.41479 -0.8987438,-2.93395 -0.8987426,-4.55749 -1.2e-6,-1.77042 0.3382349,-3.31471 1.0147094,-4.63288 0.6764701,-1.31814 1.6389936,-2.31932 2.8875733,-3.00354 1.2485695,-0.68418 2.62277466,-1.02629 4.1226196,-1.0263 1.7008355,1e-5 3.1310912,0.43296 4.2907715,1.29882 1.1596533,0.8659 1.9675545,2.08356 2.423706,3.65296 L 5.9188976,462.974 c -0.3943004,-1.23697 -0.9664027,-2.13764 -1.7163086,-2.70203 -0.7499298,-0.56435 -1.6931255,-0.84654 -2.8295898,-0.84655 -1.30656711,1e-5 -2.3985867,0.31312 -3.276062,0.93933 -0.8774871,0.62623 -1.4940433,1.46699 -1.8496704,2.52227 -0.3556352,1.05531 -0.5334508,2.14347 -0.5334473,3.26447 -3.5e-6,1.44573 0.2106693,2.70783 0.632019,3.78632 0.4213415,1.07849 1.0765533,1.88446 1.9656373,2.4179 0.88907174,0.53345 1.85159519,0.80018 2.8875732,0.80017 1.2601623,10e-6 2.3270557,-0.36336 3.2006836,-1.09008 0.8736035,-0.72673 1.4650335,-1.80522 1.774292,-3.23548 z"
         style="font-size:23.75px;font-style:normal;font-weight:normal;text-align:start;text-anchor:start;fill:#262626;font-family:Arial"
         id="path3024"
         inkscape:connector-curvature="0" />
      <path
         d="m 18.976759,473.27185 c -0.773121,0.65715 -1.51724,1.12101 -2.232361,1.3916 -0.715135,0.27059 -1.482448,0.40589 -2.301941,0.40589 -1.352949,0 -2.392784,-0.33051 -3.119507,-0.99152 -0.726726,-0.66101 -1.090088,-1.50563 -1.090088,-2.53387 0,-0.60303 0.137227,-1.15387 0.411683,-1.65253 0.274453,-0.49865 0.63395,-0.89874 1.078491,-1.20026 0.444536,-0.30151 0.945126,-0.52957 1.50177,-0.6842 0.409745,-0.10823 1.028234,-0.2126 1.855469,-0.31311 1.685376,-0.201 2.92622,-0.44067 3.722534,-0.719 0.0077,-0.28604 0.01159,-0.46772 0.0116,-0.54504 -9e-6,-0.85041 -0.197152,-1.44958 -0.59143,-1.79749 -0.533456,-0.47158 -1.325895,-0.70738 -2.37732,-0.70739 -0.981857,10e-6 -1.706649,0.17202 -2.174377,0.51605 -0.467737,0.34404 -0.813704,0.95287 -1.037903,1.82648 l -2.041015,-0.27832 c 0.185545,-0.87361 0.490924,-1.57908 0.916137,-2.1164 0.425209,-0.5373 1.039833,-0.95091 1.843872,-1.24084 0.804032,-0.28991 1.735631,-0.43487 2.7948,-0.43488 1.051425,10e-6 1.905712,0.12371 2.562866,0.3711 0.657136,0.2474 1.14033,0.55858 1.449585,0.93353 0.309234,0.37497 0.525705,0.8485 0.649414,1.42059 0.06957,0.35564 0.104359,0.99732 0.10437,1.92505 l 0,2.7832 c -1.1e-5,1.94052 0.04444,3.16783 0.133362,3.68195 0.0889,0.51412 0.264779,1.00698 0.527649,1.47858 l -2.180176,0 c -0.216481,-0.43295 -0.355641,-0.93933 -0.41748,-1.51917 z m -0.17395,-4.66186 c -0.757659,0.30925 -1.894132,0.5721 -3.409424,0.78857 -0.85816,0.1237 -1.465052,0.26286 -1.820679,0.41748 -0.355635,0.15463 -0.63009,0.38076 -0.823364,0.67841 -0.193281,0.29765 -0.28992,0.62815 -0.289917,0.99151 -3e-6,0.55665 0.21067,1.02051 0.632019,1.3916 0.421342,0.3711 1.037898,0.55665 1.84967,0.55664 0.804031,1e-5 1.519158,-0.17588 2.145386,-0.52764 0.626213,-0.35177 1.086214,-0.83303 1.380005,-1.44379 0.224193,-0.4716 0.336294,-1.1674 0.336304,-2.0874 z"
         style="font-size:23.75px;font-style:normal;font-weight:normal;text-align:start;text-anchor:start;fill:#262626;font-family:Arial"
         id="path3026"
         inkscape:connector-curvature="0" />
      <path
         d="m 24.114088,474.79102 0,-17.00074 2.087402,0 0,17.00074 z"
         style="font-size:23.75px;font-style:normal;font-weight:normal;text-align:start;text-anchor:start;fill:#262626;font-family:Arial"
         id="path3028"
         inkscape:connector-curvature="0" />
      <path
         d="m 29.402174,474.79102 0,-17.00074 2.087402,0 0,17.00074 z"
         style="font-size:23.75px;font-style:normal;font-weight:normal;text-align:start;text-anchor:start;fill:#262626;font-family:Arial"
         id="path3030"
         inkscape:connector-curvature="0" />
      <path
         d="m 43.167433,470.82495 2.156982,0.26672 c -0.340181,1.26018 -0.970267,2.23817 -1.890259,2.93396 -0.920012,0.69581 -2.095141,1.04371 -3.52539,1.04371 -1.801356,0 -3.229679,-0.55471 -4.284973,-1.66413 -1.0553,-1.10941 -1.582948,-2.6653 -1.582947,-4.66766 -1e-6,-2.07193 0.533446,-3.68 1.600342,-4.82422 1.066891,-1.14419 2.45076,-1.7163 4.151611,-1.71631 1.64672,10e-6 2.991934,0.56052 4.035645,1.68152 1.043689,1.12102 1.565539,2.69817 1.565551,4.73145 -1.2e-5,0.1237 -0.0039,0.30925 -0.0116,0.55664 l -9.184571,0 c 0.07731,1.35295 0.459998,2.38892 1.148072,3.10791 0.688064,0.71899 1.546218,1.07849 2.574462,1.07849 0.765374,0 1.418653,-0.20101 1.959839,-0.60303 0.541169,-0.40202 0.970246,-1.0437 1.287232,-1.92505 z m -6.853638,-3.37463 6.876831,0 c -0.09278,-1.03596 -0.355641,-1.81294 -0.788574,-2.33094 -0.664885,-0.80402 -1.526904,-1.20604 -2.58606,-1.20605 -0.958664,1e-5 -1.764633,0.32085 -2.417907,0.96252 -0.653284,0.6417 -1.014713,1.49985 -1.08429,2.57447 z"
         style="font-size:23.75px;font-style:normal;font-weight:normal;text-align:start;text-anchor:start;fill:#262626;font-family:Arial"
         id="path3032"
         inkscape:connector-curvature="0" />
      <path
         d="m 47.933668,474.79102 0,-12.31568 1.878662,0 0,1.86707 c 0.479326,-0.87361 0.921932,-1.44958 1.32782,-1.72791 0.405879,-0.27831 0.85235,-0.41747 1.339417,-0.41748 0.703525,10e-6 1.418653,0.22422 2.145385,0.67261 l -0.718994,1.93664 c -0.510261,-0.3015 -1.020514,-0.45226 -1.530762,-0.45227 -0.456141,1e-5 -0.86589,0.13724 -1.229248,0.41169 -0.363367,0.27446 -0.622359,0.65522 -0.776977,1.14227 -0.231937,0.74219 -0.347904,1.55396 -0.347901,2.4353 l 0,6.44776 z"
         style="font-size:23.75px;font-style:normal;font-weight:normal;text-align:start;text-anchor:start;fill:#262626;font-family:Arial"
         id="path3034"
         inkscape:connector-curvature="0" />
    </g>
    <path
       inkscape:connector-curvature="0"
       style="fill:#ffffff;fill-opacity:1;fill-rule:evenodd;stroke:none"
       d="m 222.99287,423.38476 0,88.59375 118.125,0 0,-88.59375 -118.125,0 z"
       id="path3065" />
    <path
       inkscape:connector-curvature="0"
       style="fill:none;stroke:#000000;stroke-width:3.59375px;stroke-linecap:round;stroke-linejoin:round;stroke-opacity:1;stroke-dasharray:none"
       d="m 222.99287,511.97851 118.125,0 0,-88.59375 -118.125,0 0,88.59375 z"
       id="path3067" />
    <g
       style="font-size:23.75px;font-style:normal;font-weight:normal;text-align:start;text-anchor:start;fill:#262626;font-family:Arial"
       id="text3069">
      <path
         d="m 262.42403,468.83032 2.24975,0.56824 c -0.47161,1.84774 -1.3201,3.25674 -2.54547,4.22699 -1.22539,0.97026 -2.7233,1.45538 -4.49371,1.45538 -1.83228,0 -3.32246,-0.37302 -4.47052,-1.11908 -1.14808,-0.74605 -2.02169,-1.82647 -2.62085,-3.24127 -0.59917,-1.41479 -0.89875,-2.93395 -0.89874,-4.55749 -1e-5,-1.77042 0.33823,-3.31471 1.0147,-4.63288 0.67648,-1.31814 1.639,-2.31932 2.88758,-3.00354 1.24857,-0.68418 2.62277,-1.02629 4.12262,-1.0263 1.70083,1e-5 3.13109,0.43296 4.29077,1.29882 1.15965,0.8659 1.96755,2.08356 2.42371,3.65296 l -2.21497,0.52185 c -0.3943,-1.23697 -0.9664,-2.13764 -1.71631,-2.70203 -0.74993,-0.56435 -1.69312,-0.84654 -2.82959,-0.84655 -1.30657,1e-5 -2.39859,0.31312 -3.27606,0.93933 -0.87749,0.62623 -1.49404,1.46699 -1.84967,2.52227 -0.35564,1.05531 -0.53345,2.14347 -0.53345,3.26447 0,1.44573 0.21067,2.70783 0.63202,3.78632 0.42134,1.07849 1.07655,1.88446 1.96564,2.4179 0.88907,0.53345 1.85159,0.80018 2.88757,0.80017 1.26016,10e-6 2.32706,-0.36336 3.20068,-1.09008 0.87361,-0.72673 1.46504,-1.80522 1.7743,-3.23548 z"
         style="font-size:23.75px;font-style:normal;font-weight:normal;text-align:start;text-anchor:start;fill:#262626;font-family:Arial"
         id="path3037"
         inkscape:connector-curvature="0" />
      <path
         d="m 275.22676,473.27185 c -0.77312,0.65715 -1.51724,1.12101 -2.23236,1.3916 -0.71514,0.27059 -1.48245,0.40589 -2.30194,0.40589 -1.35295,0 -2.39279,-0.33051 -3.11951,-0.99152 -0.72672,-0.66101 -1.09009,-1.50563 -1.09009,-2.53387 0,-0.60303 0.13723,-1.15387 0.41169,-1.65253 0.27445,-0.49865 0.63395,-0.89874 1.07849,-1.20026 0.44453,-0.30151 0.94512,-0.52957 1.50177,-0.6842 0.40974,-0.10823 1.02823,-0.2126 1.85547,-0.31311 1.68537,-0.201 2.92622,-0.44067 3.72253,-0.719 0.008,-0.28604 0.0116,-0.46772 0.0116,-0.54504 -1e-5,-0.85041 -0.19716,-1.44958 -0.59143,-1.79749 -0.53346,-0.47158 -1.3259,-0.70738 -2.37732,-0.70739 -0.98186,10e-6 -1.70665,0.17202 -2.17438,0.51605 -0.46774,0.34404 -0.8137,0.95287 -1.0379,1.82648 l -2.04102,-0.27832 c 0.18555,-0.87361 0.49093,-1.57908 0.91614,-2.1164 0.42521,-0.5373 1.03983,-0.95091 1.84387,-1.24084 0.80403,-0.28991 1.73563,-0.43487 2.7948,-0.43488 1.05143,10e-6 1.90571,0.12371 2.56287,0.3711 0.65713,0.2474 1.14033,0.55858 1.44958,0.93353 0.30924,0.37497 0.52571,0.8485 0.64942,1.42059 0.0696,0.35564 0.10435,0.99732 0.10437,1.92505 l 0,2.7832 c -2e-5,1.94052 0.0444,3.16783 0.13336,3.68195 0.0889,0.51412 0.26478,1.00698 0.52765,1.47858 l -2.18018,0 c -0.21648,-0.43295 -0.35564,-0.93933 -0.41748,-1.51917 z m -0.17395,-4.66186 c -0.75766,0.30925 -1.89413,0.5721 -3.40942,0.78857 -0.85816,0.1237 -1.46505,0.26286 -1.82068,0.41748 -0.35564,0.15463 -0.63009,0.38076 -0.82337,0.67841 -0.19328,0.29765 -0.28992,0.62815 -0.28991,0.99151 -10e-6,0.55665 0.21067,1.02051 0.63202,1.3916 0.42134,0.3711 1.03789,0.55665 1.84967,0.55664 0.80403,1e-5 1.51915,-0.17588 2.14538,-0.52764 0.62621,-0.35177 1.08622,-0.83303 1.38001,-1.44379 0.22419,-0.4716 0.33629,-1.1674 0.3363,-2.0874 z"
         style="font-size:23.75px;font-style:normal;font-weight:normal;text-align:start;text-anchor:start;fill:#262626;font-family:Arial"
         id="path3039"
         inkscape:connector-curvature="0" />
      <path
         d="m 280.36409,474.79102 0,-17.00074 2.0874,0 0,17.00074 z"
         style="font-size:23.75px;font-style:normal;font-weight:normal;text-align:start;text-anchor:start;fill:#262626;font-family:Arial"
         id="path3041"
         inkscape:connector-curvature="0" />
      <path
         d="m 285.65218,474.79102 0,-17.00074 2.0874,0 0,17.00074 z"
         style="font-size:23.75px;font-style:normal;font-weight:normal;text-align:start;text-anchor:start;fill:#262626;font-family:Arial"
         id="path3043"
         inkscape:connector-curvature="0" />
      <path
         d="m 299.41743,470.82495 2.15699,0.26672 c -0.34018,1.26018 -0.97027,2.23817 -1.89026,2.93396 -0.92001,0.69581 -2.09514,1.04371 -3.52539,1.04371 -1.80136,0 -3.22968,-0.55471 -4.28498,-1.66413 -1.05529,-1.10941 -1.58294,-2.6653 -1.58294,-4.66766 0,-2.07193 0.53344,-3.68 1.60034,-4.82422 1.06689,-1.14419 2.45076,-1.7163 4.15161,-1.71631 1.64672,10e-6 2.99193,0.56052 4.03565,1.68152 1.04368,1.12102 1.56553,2.69817 1.56555,4.73145 -2e-5,0.1237 -0.004,0.30925 -0.0116,0.55664 l -9.18457,0 c 0.0773,1.35295 0.46,2.38892 1.14807,3.10791 0.68807,0.71899 1.54622,1.07849 2.57446,1.07849 0.76538,0 1.41866,-0.20101 1.95984,-0.60303 0.54117,-0.40202 0.97025,-1.0437 1.28723,-1.92505 z m -6.85363,-3.37463 6.87683,0 c -0.0928,-1.03596 -0.35564,-1.81294 -0.78858,-2.33094 -0.66488,-0.80402 -1.5269,-1.20604 -2.58606,-1.20605 -0.95866,1e-5 -1.76463,0.32085 -2.4179,0.96252 -0.65329,0.6417 -1.01472,1.49985 -1.08429,2.57447 z"
         style="font-size:23.75px;font-style:normal;font-weight:normal;text-align:start;text-anchor:start;fill:#262626;font-family:Arial"
         id="path3045"
         inkscape:connector-curvature="0" />
      <path
         d="m 312.63765,470.82495 2.15698,0.26672 c -0.34018,1.26018 -0.97026,2.23817 -1.89026,2.93396 -0.92001,0.69581 -2.09514,1.04371 -3.52539,1.04371 -1.80135,0 -3.22968,-0.55471 -4.28497,-1.66413 -1.0553,-1.10941 -1.58295,-2.6653 -1.58295,-4.66766 0,-2.07193 0.53345,-3.68 1.60034,-4.82422 1.0669,-1.14419 2.45076,-1.7163 4.15162,-1.71631 1.64672,10e-6 2.99193,0.56052 4.03564,1.68152 1.04369,1.12102 1.56554,2.69817 1.56555,4.73145 -1e-5,0.1237 -0.004,0.30925 -0.0116,0.55664 l -9.18457,0 c 0.0773,1.35295 0.45999,2.38892 1.14807,3.10791 0.68806,0.71899 1.54621,1.07849 2.57446,1.07849 0.76537,0 1.41865,-0.20101 1.95984,-0.60303 0.54117,-0.40202 0.97024,-1.0437 1.28723,-1.92505 z m -6.85364,-3.37463 6.87683,0 c -0.0928,-1.03596 -0.35564,-1.81294 -0.78857,-2.33094 -0.66489,-0.80402 -1.52691,-1.20604 -2.58606,-1.20605 -0.95867,1e-5 -1.76463,0.32085 -2.41791,0.96252 -0.65328,0.6417 -1.01471,1.49985 -1.08429,2.57447 z"
         style="font-size:23.75px;font-style:normal;font-weight:normal;text-align:start;text-anchor:start;fill:#262626;font-family:Arial"
         id="path3048"
         inkscape:connector-curvature="0" />
    </g>
    <path
       inkscape:connector-curvature="0"
       style="fill:none;stroke:#000000;stroke-width:3.59375px;stroke-linecap:round;stroke-linejoin:round;stroke-opacity:1;stroke-dasharray:none"
       d="m 81.274122,467.68163 120.312498,0"
       id="path3071" />
    <path
       inkscape:connector-curvature="0"
       style="fill:#000000;fill-opacity:1;fill-rule:evenodd;stroke:none"
       d="m 199.6335,459.86913 23.35937,7.8125 -23.35937,7.8125 0,-15.625 z"
       id="path3073" />
  </g>
</svg>
