<?xml version="1.0" encoding="UTF-8" standalone="no"?>
<!-- Created with Inkscape (http://www.inkscape.org/) -->

<svg
   xmlns:dc="http://purl.org/dc/elements/1.1/"
   xmlns:cc="http://creativecommons.org/ns#"
   xmlns:rdf="http://www.w3.org/1999/02/22-rdf-syntax-ns#"
   xmlns:svg="http://www.w3.org/2000/svg"
   xmlns="http://www.w3.org/2000/svg"
   xmlns:sodipodi="http://sodipodi.sourceforge.net/DTD/sodipodi-0.dtd"
   xmlns:inkscape="http://www.inkscape.org/namespaces/inkscape"
   width="379.78146"
   height="294.06427"
   id="svg3547"
   version="1.1"
   inkscape:version="0.48.4 r9939"
   sodipodi:docname="unified_routing_rpc_dealer.svg">
  <defs
     id="defs3549" />
  <sodipodi:namedview
     id="base"
     pagecolor="#ffffff"
     bordercolor="#666666"
     borderopacity="1.0"
     inkscape:pageopacity="0.0"
     inkscape:pageshadow="2"
     inkscape:zoom="1.4"
     inkscape:cx="272.46833"
     inkscape:cy="132.82413"
     inkscape:document-units="px"
     inkscape:current-layer="layer1"
     showgrid="false"
     fit-margin-top="5"
     fit-margin-left="5"
     fit-margin-right="5"
     fit-margin-bottom="5"
     inkscape:window-width="1680"
     inkscape:window-height="988"
     inkscape:window-x="-8"
     inkscape:window-y="320"
     inkscape:window-maximized="1"
     showguides="true"
     inkscape:guide-bbox="true">
    <sodipodi:guide
       orientation="0,1"
       position="565.13458,123.2551"
       id="guide3045" />
  </sodipodi:namedview>
  <metadata
     id="metadata3552">
    <rdf:RDF>
      <cc:Work
         rdf:about="">
        <dc:format>image/svg+xml</dc:format>
        <dc:type
           rdf:resource="http://purl.org/dc/dcmitype/StillImage" />
        <dc:title />
      </cc:Work>
    </rdf:RDF>
  </metadata>
  <g
     inkscape:label="Ebene 1"
     inkscape:groupmode="layer"
     id="layer1"
     transform="translate(238.09391,-250.34205)">
    <g
       transform="translate(-132.6295,399.34402)"
       style="font-size:40px;font-style:normal;font-variant:normal;font-weight:normal;font-stretch:normal;line-height:125%;letter-spacing:0px;word-spacing:0px;fill:#000000;fill-opacity:1;stroke:none;font-family:Open Sans;-inkscape-font-specification:Open Sans"
       id="flowRoot3045" />
    <path
       inkscape:connector-curvature="0"
       style="fill:#ffffff;fill-opacity:1;fill-rule:evenodd;stroke:none"
       d="m -231.28305,449.01993 0,88.59376 118.12499,0 0,-88.59376 -118.12499,0 z"
       id="path3013" />
    <path
       inkscape:connector-curvature="0"
       style="fill:none;stroke:#000000;stroke-width:3.59375px;stroke-linecap:round;stroke-linejoin:round;stroke-opacity:1;stroke-dasharray:none"
       d="m -231.28305,537.61369 118.12499,0 0,-88.59376 -118.12499,0 0,88.59376 z"
       id="path3015" />
    <g
       style="font-size:23.75px;font-style:normal;font-weight:normal;text-align:start;text-anchor:start;fill:#262626;font-family:Arial"
       id="text3017">
      <path
         d="m -188.96127,493.91861 2.24975,0.56824 c -0.47161,1.84774 -1.3201,3.25673 -2.54547,4.22699 -1.22539,0.97025 -2.7233,1.45538 -4.49371,1.45538 -1.83228,0 -3.32246,-0.37303 -4.47052,-1.11908 -1.14808,-0.74605 -2.02169,-1.82647 -2.62085,-3.24127 -0.59916,-1.41479 -0.89875,-2.93395 -0.89874,-4.5575 -1e-5,-1.77041 0.33823,-3.3147 1.01471,-4.63287 0.67647,-1.31814 1.63899,-2.31932 2.88757,-3.00354 1.24857,-0.68419 2.62277,-1.02629 4.12262,-1.02631 1.70083,2e-5 3.13109,0.43296 4.29077,1.29883 1.15965,0.8659 1.96755,2.08355 2.42371,3.65296 l -2.21497,0.52185 c -0.3943,-1.23697 -0.9664,-2.13764 -1.71631,-2.70203 -0.74993,-0.56436 -1.69312,-0.84654 -2.82959,-0.84656 -1.30657,2e-5 -2.39859,0.31313 -3.27606,0.93933 -0.87749,0.62624 -1.49404,1.467 -1.84967,2.52228 -0.35564,1.05531 -0.53345,2.14346 -0.53345,3.26447 0,1.44572 0.21067,2.70783 0.63202,3.78631 0.42134,1.0785 1.07655,1.88447 1.96564,2.41791 0.88907,0.53345 1.85159,0.80017 2.88757,0.80017 1.26016,0 2.32706,-0.36336 3.20068,-1.09009 0.87361,-0.72672 1.46504,-1.80521 1.7743,-3.23547 z"
         style="font-size:23.75px;font-style:normal;font-weight:normal;text-align:start;text-anchor:start;fill:#262626;font-family:Arial"
         id="path3003"
         inkscape:connector-curvature="0" />
      <path
         d="m -176.15854,498.36014 c -0.77312,0.65714 -1.51724,1.12101 -2.23236,1.3916 -0.71513,0.27059 -1.48245,0.40588 -2.30194,0.40588 -1.35295,0 -2.39278,-0.3305 -3.11951,-0.99151 -0.72672,-0.66101 -1.09009,-1.50564 -1.09009,-2.53388 0,-0.60302 0.13723,-1.15386 0.41169,-1.65252 0.27445,-0.49866 0.63395,-0.89874 1.07849,-1.20026 0.44453,-0.30151 0.94512,-0.52958 1.50177,-0.6842 0.40974,-0.10823 1.02823,-0.2126 1.85547,-0.31311 1.68537,-0.20101 2.92622,-0.44067 3.72253,-0.719 0.008,-0.28604 0.0116,-0.46772 0.0116,-0.54504 -1e-5,-0.85042 -0.19716,-1.44958 -0.59143,-1.79749 -0.53346,-0.47159 -1.3259,-0.70739 -2.37732,-0.7074 -0.98186,10e-6 -1.70665,0.17203 -2.17438,0.51606 -0.46774,0.34404 -0.8137,0.95287 -1.0379,1.82647 l -2.04102,-0.27832 c 0.18555,-0.8736 0.49093,-1.57907 0.91614,-2.11639 0.42521,-0.5373 1.03983,-0.95092 1.84387,-1.24085 0.80403,-0.2899 1.73563,-0.43486 2.7948,-0.43487 1.05143,1e-5 1.90571,0.12371 2.56287,0.37109 0.65713,0.24741 1.14033,0.55859 1.44958,0.93354 0.30924,0.37497 0.52571,0.8485 0.64942,1.42059 0.0696,0.35564 0.10436,0.99732 0.10437,1.92505 l 0,2.7832 c -1e-5,1.94051 0.0444,3.16783 0.13336,3.68195 0.0889,0.51412 0.26478,1.00698 0.52765,1.47857 l -2.18018,0 c -0.21648,-0.43294 -0.35564,-0.93933 -0.41748,-1.51916 z m -0.17395,-4.66187 c -0.75766,0.30925 -1.89413,0.57211 -3.40942,0.78858 -0.85816,0.1237 -1.46505,0.26286 -1.82068,0.41748 -0.35564,0.15462 -0.63009,0.38076 -0.82337,0.6784 -0.19328,0.29766 -0.28992,0.62816 -0.28991,0.99152 -1e-5,0.55664 0.21067,1.02051 0.63202,1.3916 0.42134,0.3711 1.03789,0.55664 1.84967,0.55664 0.80403,0 1.51915,-0.17588 2.14538,-0.52765 0.62621,-0.35176 1.08622,-0.83302 1.38001,-1.44378 0.22419,-0.4716 0.33629,-1.1674 0.3363,-2.08741 z"
         style="font-size:23.75px;font-style:normal;font-weight:normal;text-align:start;text-anchor:start;fill:#262626;font-family:Arial"
         id="path3005"
         inkscape:connector-curvature="0" />
      <path
         d="m -171.02121,499.8793 0,-17.00073 2.0874,0 0,17.00073 z"
         style="font-size:23.75px;font-style:normal;font-weight:normal;text-align:start;text-anchor:start;fill:#262626;font-family:Arial"
         id="path3007"
         inkscape:connector-curvature="0" />
      <path
         d="m -165.73312,499.8793 0,-17.00073 2.0874,0 0,17.00073 z"
         style="font-size:23.75px;font-style:normal;font-weight:normal;text-align:start;text-anchor:start;fill:#262626;font-family:Arial"
         id="path3009"
         inkscape:connector-curvature="0" />
      <path
         d="m -151.96786,495.91324 2.15698,0.26672 c -0.34018,1.26018 -0.97027,2.23816 -1.89026,2.93396 -0.92001,0.6958 -2.09514,1.0437 -3.52539,1.0437 -1.80136,0 -3.22968,-0.5547 -4.28498,-1.66412 -1.05529,-1.10941 -1.58294,-2.6653 -1.58294,-4.66766 0,-2.07194 0.53344,-3.68001 1.60034,-4.82422 1.06689,-1.1442 2.45076,-1.7163 4.15161,-1.71631 1.64672,1e-5 2.99193,0.56052 4.03565,1.68152 1.04369,1.12102 1.56554,2.69817 1.56555,4.73144 -1e-5,0.12371 -0.004,0.30925 -0.0116,0.55664 l -9.18457,0 c 0.0773,1.35295 0.46,2.38892 1.14807,3.10791 0.68807,0.719 1.54622,1.0785 2.57446,1.07849 0.76538,1e-5 1.41866,-0.201 1.95984,-0.60302 0.54117,-0.40202 0.97025,-1.0437 1.28724,-1.92505 z m -6.85364,-3.37464 6.87683,0 c -0.0928,-1.03596 -0.35564,-1.81293 -0.78858,-2.33093 -0.66488,-0.80402 -1.5269,-1.20604 -2.58606,-1.20605 -0.95866,10e-6 -1.76463,0.32085 -2.4179,0.96252 -0.65329,0.64169 -1.01472,1.49985 -1.08429,2.57446 z"
         style="font-size:23.75px;font-style:normal;font-weight:normal;text-align:start;text-anchor:start;fill:#262626;font-family:Arial"
         id="path3012"
         inkscape:connector-curvature="0" />
      <path
         d="m -147.20163,499.8793 0,-12.31567 1.87866,0 0,1.86706 c 0.47933,-0.8736 0.92193,-1.44957 1.32782,-1.7279 0.40588,-0.27831 0.85235,-0.41747 1.33942,-0.41748 0.70352,1e-5 1.41865,0.22421 2.14538,0.67261 l -0.71899,1.93664 c -0.51026,-0.3015 -1.02051,-0.45226 -1.53076,-0.45227 -0.45614,10e-6 -0.86589,0.13724 -1.22925,0.41168 -0.36337,0.27447 -0.62236,0.65523 -0.77698,1.14228 -0.23193,0.74219 -0.3479,1.55396 -0.3479,2.4353 l 0,6.44775 z"
         style="font-size:23.75px;font-style:normal;font-weight:normal;text-align:start;text-anchor:start;fill:#262626;font-family:Arial"
         id="path3014"
         inkscape:connector-curvature="0" />
    </g>
    <path
       inkscape:connector-curvature="0"
       style="fill:#ffffff;fill-opacity:1;fill-rule:evenodd;stroke:none"
       d="m 16.76382,449.01993 0,88.59376 118.125,0 0,-88.59376 -118.125,0 z"
       id="path3019" />
    <path
       inkscape:connector-curvature="0"
       style="fill:none;stroke:#000000;stroke-width:3.59375px;stroke-linecap:round;stroke-linejoin:round;stroke-opacity:1;stroke-dasharray:none"
       d="m 16.76382,537.61369 118.125,0 0,-88.59376 -118.125,0 0,88.59376 z"
       id="path3021" />
    <g
       style="font-size:21.25px;font-style:normal;font-weight:normal;text-align:start;text-anchor:start;fill:#262626;font-family:Arial"
       id="text3023"
       transform="matrix(1.1284366,0,0,1.1284366,-5.8611616,-64.236112)">
      <path
         d="m 57.068996,494.54605 2.01294,0.50842 c -0.421971,1.65325 -1.181145,2.91393 -2.277527,3.78205 -1.096406,0.86812 -2.436635,1.30218 -4.020691,1.30218 -1.639411,0 -2.972722,-0.33376 -3.999939,-1.00128 -1.027225,-0.66752 -1.808881,-1.63421 -2.344971,-2.90008 -0.536093,-1.26587 -0.804139,-2.62512 -0.804138,-4.07776 -10e-7,-1.58406 0.302632,-2.96579 0.907898,-4.14521 0.605263,-1.17939 1.466468,-2.07518 2.583618,-2.68737 1.117142,-0.61217 2.346694,-0.91826 3.68866,-0.91828 1.5218,2e-5 2.801503,0.38739 3.839111,1.16211 1.037585,0.77475 1.760444,1.86423 2.168579,3.26843 l -1.981811,0.46692 c -0.352795,-1.10676 -0.864676,-1.91262 -1.535645,-2.4176 -0.670989,-0.50495 -1.514901,-0.75743 -2.531738,-0.75745 -1.169034,2e-5 -2.146104,0.28017 -2.931213,0.84046 -0.78512,0.56031 -1.336776,1.31257 -1.654969,2.25677 -0.318199,0.94423 -0.477298,1.91784 -0.477294,2.92084 -4e-6,1.29355 0.188493,2.4228 0.56549,3.38776 0.37699,0.96497 0.963232,1.6861 1.758728,2.16339 0.795486,0.47729 1.656691,0.71594 2.583618,0.71594 1.127514,0 2.082103,-0.32511 2.86377,-0.97534 0.781645,-0.65023 1.31082,-1.61519 1.587524,-2.8949 z"
         style="font-size:21.25px;font-style:normal;font-weight:normal;text-align:start;text-anchor:start;fill:#262626;font-family:Arial"
         id="path3017"
         inkscape:connector-curvature="0" />
      <path
         d="m 68.524075,498.52005 c -0.69174,0.58797 -1.357531,1.00301 -1.997376,1.24512 -0.639858,0.2421 -1.326401,0.36316 -2.059631,0.36316 -1.210534,0 -2.140913,-0.29572 -2.791138,-0.88715 -0.650229,-0.59143 -0.975343,-1.34715 -0.975342,-2.26715 -1e-6,-0.53955 0.122782,-1.03241 0.368347,-1.47858 0.245564,-0.44616 0.567219,-0.80413 0.964966,-1.07391 0.397743,-0.26977 0.845639,-0.47383 1.343689,-0.61218 0.366614,-0.0968 0.919999,-0.19022 1.660156,-0.28015 1.507969,-0.17985 2.618197,-0.39429 3.330689,-0.64332 0.0069,-0.25593 0.01037,-0.41849 0.01038,-0.48767 -9e-6,-0.76089 -0.1764,-1.29698 -0.529175,-1.60827 -0.477302,-0.42195 -1.186327,-0.63293 -2.127075,-0.63294 -0.878504,10e-6 -1.527002,0.15392 -1.945496,0.46173 -0.418501,0.30783 -0.728051,0.85257 -0.92865,1.63422 l -1.826172,-0.24902 c 0.166015,-0.78165 0.439249,-1.41286 0.819703,-1.89362 0.38045,-0.48074 0.930376,-0.85082 1.64978,-1.11023 0.719397,-0.25939 1.552933,-0.38909 2.50061,-0.3891 0.940748,10e-6 1.705111,0.11069 2.293091,0.33203 0.587963,0.22137 1.020295,0.49979 1.296997,0.83527 0.276683,0.3355 0.470368,0.75918 0.581055,1.27106 0.06225,0.3182 0.09337,0.89234 0.09338,1.72241 l 0,2.49023 c -1.1e-5,1.73625 0.03976,2.83438 0.119323,3.29438 0.07954,0.46 0.236908,0.90098 0.472107,1.32293 l -1.950683,0 c -0.193694,-0.38737 -0.318206,-0.84045 -0.373535,-1.35925 z m -0.15564,-4.17114 c -0.677905,0.2767 -1.69475,0.51188 -3.050537,0.70556 -0.767827,0.11069 -1.310836,0.2352 -1.629029,0.37354 -0.3182,0.13835 -0.563764,0.34068 -0.736694,0.60699 -0.172936,0.26632 -0.259402,0.56204 -0.259399,0.88715 -3e-6,0.49805 0.188494,0.91309 0.56549,1.24512 0.376991,0.33203 0.928646,0.49804 1.654969,0.49804 0.719395,0 1.359246,-0.15736 1.919555,-0.4721 0.560296,-0.31474 0.971876,-0.74534 1.234742,-1.29181 0.200593,-0.42196 0.300894,-1.04451 0.300903,-1.86768 z"
         style="font-size:21.25px;font-style:normal;font-weight:normal;text-align:start;text-anchor:start;fill:#262626;font-family:Arial"
         id="path3020"
         inkscape:connector-curvature="0" />
      <path
         d="m 73.120632,499.8793 0,-15.21118 1.867676,0 0,15.21118 z"
         style="font-size:21.25px;font-style:normal;font-weight:normal;text-align:start;text-anchor:start;fill:#262626;font-family:Arial"
         id="path3022"
         inkscape:connector-curvature="0" />
      <path
         d="m 77.852077,499.8793 0,-15.21118 1.867676,0 0,15.21118 z"
         style="font-size:21.25px;font-style:normal;font-weight:normal;text-align:start;text-anchor:start;fill:#262626;font-family:Arial"
         id="path3024"
         inkscape:connector-curvature="0" />
      <path
         d="m 90.168362,496.33072 1.929931,0.23865 c -0.304372,1.12752 -0.868133,2.00256 -1.691284,2.62512 -0.823169,0.62256 -1.8746,0.93384 -3.154297,0.93384 -1.611739,0 -2.889712,-0.49632 -3.833923,-1.48896 -0.944215,-0.99263 -1.416322,-2.38474 -1.416321,-4.17633 -10e-7,-1.85383 0.477294,-3.29263 1.431885,-4.3164 0.954587,-1.02376 2.192785,-1.53564 3.714599,-1.53565 1.473382,10e-6 2.676994,0.50152 3.61084,1.50452 0.933828,1.00302 1.400746,2.41415 1.400757,4.2334 -1.1e-5,0.11068 -0.0035,0.2767 -0.01038,0.49804 l -8.217773,0 c 0.06917,1.21054 0.411577,2.13746 1.027221,2.78077 0.615637,0.64331 1.383459,0.96496 2.303467,0.96496 0.684808,0 1.269321,-0.17985 1.75354,-0.53955 0.484204,-0.3597 0.868115,-0.93383 1.151734,-1.72241 z m -6.132202,-3.01941 6.152954,0 c -0.08302,-0.92691 -0.318206,-1.6221 -0.705567,-2.08557 -0.594897,-0.71939 -1.366177,-1.07909 -2.313843,-1.0791 -0.857752,1e-5 -1.578882,0.28708 -2.163391,0.8612 -0.584516,0.57415 -0.9079,1.34197 -0.970153,2.30347 z"
         style="font-size:21.25px;font-style:normal;font-weight:normal;text-align:start;text-anchor:start;fill:#262626;font-family:Arial"
         id="path3026"
         inkscape:connector-curvature="0" />
      <path
         d="m 101.99697,496.33072 1.92994,0.23865 c -0.30438,1.12752 -0.86814,2.00256 -1.69129,2.62512 -0.82317,0.62256 -1.8746,0.93384 -3.154294,0.93384 -1.61174,0 -2.889713,-0.49632 -3.833924,-1.48896 -0.944215,-0.99263 -1.416321,-2.38474 -1.416321,-4.17633 0,-1.85383 0.477294,-3.29263 1.431885,-4.3164 0.954587,-1.02376 2.192785,-1.53564 3.7146,-1.53565 1.473384,10e-6 2.676994,0.50152 3.610844,1.50452 0.93382,1.00302 1.40074,2.41415 1.40075,4.2334 -1e-5,0.11068 -0.003,0.2767 -0.0104,0.49804 l -8.217777,0 c 0.06917,1.21054 0.411577,2.13746 1.027222,2.78077 0.615637,0.64331 1.383458,0.96496 2.303467,0.96496 0.684807,0 1.269318,-0.17985 1.753538,-0.53955 0.48421,-0.3597 0.86812,-0.93383 1.15173,-1.72241 z m -6.132197,-3.01941 6.152957,0 c -0.083,-0.92691 -0.31821,-1.6221 -0.70557,-2.08557 -0.5949,-0.71939 -1.366177,-1.07909 -2.313842,-1.0791 -0.857753,1e-5 -1.578882,0.28708 -2.163391,0.8612 -0.584517,0.57415 -0.907901,1.34197 -0.970154,2.30347 z"
         style="font-size:21.25px;font-style:normal;font-weight:normal;text-align:start;text-anchor:start;fill:#262626;font-family:Arial"
         id="path3028"
         inkscape:connector-curvature="0" />
    </g>
    <path
       inkscape:connector-curvature="0"
       style="fill:#ffffff;fill-opacity:1;fill-rule:evenodd;stroke:none"
       d="m -101.36118,257.14493 0,88.51563 118.125,0 0,-88.51563 -118.125,0 z"
       id="path3025" />
    <path
       inkscape:connector-curvature="0"
       style="fill:none;stroke:#000000;stroke-width:3.59375px;stroke-linecap:round;stroke-linejoin:round;stroke-opacity:1;stroke-dasharray:none"
       d="m -101.36118,345.66056 118.125,0 0,-88.51563 -118.125,0 0,88.51563 z"
       id="path3027" />
    <g
       style="font-size:23.75px;font-style:normal;font-weight:bold;text-align:start;text-anchor:start;fill:#262626;font-family:Arial"
       id="text3029">
      <path
         d="m -76.207375,291.62857 6.273804,0 c 1.414786,2e-5 2.493276,0.10825 3.235474,0.32471 0.997302,0.2938 1.85159,0.81565 2.562866,1.56555 0.711249,0.74993 1.252426,1.668 1.623535,2.75421 0.371078,1.08623 0.556625,2.42565 0.556641,4.01825 -1.6e-5,1.39934 -0.173966,2.60539 -0.521851,3.61816 -0.425226,1.23699 -1.032119,2.23817 -1.820679,3.00354 -0.595309,0.57984 -1.399344,1.03211 -2.412109,1.35682 -0.75766,0.23966 -1.770436,0.35949 -3.03833,0.35949 l -6.459351,0 z m 3.432618,2.87598 0,11.26037 2.562866,0 c 0.95865,10e-6 1.650585,-0.0541 2.075805,-0.16235 0.556631,-0.13916 1.018565,-0.37496 1.385804,-0.7074 0.367216,-0.33243 0.666797,-0.87941 0.898742,-1.64093 0.231922,-0.76151 0.347888,-1.79941 0.347901,-3.11371 -1.3e-5,-1.31428 -0.115979,-2.32319 -0.347901,-3.02673 -0.231945,-0.70352 -0.556652,-1.25243 -0.974121,-1.64673 -0.417491,-0.39427 -0.947072,-0.661 -1.588745,-0.80017 -0.479338,-0.10822 -1.418668,-0.16234 -2.817993,-0.16235 z"
         style="font-size:23.75px;font-style:normal;font-weight:bold;text-align:start;text-anchor:start;fill:#262626;font-family:Arial"
         id="path3032"
         inkscape:connector-curvature="0" />
      <path
         d="m -51.923927,304.70963 3.24707,0.54504 c -0.417492,1.19059 -1.076569,2.09707 -1.977234,2.71942 -0.900685,0.62236 -2.027494,0.93353 -3.380432,0.93353 -2.141525,0 -3.726403,-0.69966 -4.754639,-2.099 -0.811768,-1.12101 -1.217652,-2.5358 -1.217651,-4.24438 -10e-7,-2.04101 0.533446,-3.63942 1.600342,-4.79523 1.066891,-1.15579 2.41597,-1.73369 4.047241,-1.7337 1.832267,1e-5 3.277985,0.60497 4.337158,1.81488 1.059152,1.20993 1.56554,3.06346 1.519165,5.56061 l -8.164062,0 c 0.02319,0.96639 0.286047,1.71824 0.788574,2.25555 0.502517,0.53732 1.128737,0.80597 1.878662,0.80597 0.510247,0 0.939323,-0.13916 1.287231,-0.41748 0.347892,-0.27832 0.61075,-0.72672 0.788575,-1.34521 z m 0.185547,-3.29346 c -0.0232,-0.94319 -0.266733,-1.66025 -0.730591,-2.15119 -0.463875,-0.49091 -1.028246,-0.73637 -1.693115,-0.73639 -0.711269,2e-5 -1.298834,0.25901 -1.762696,0.77698 -0.463871,0.518 -0.691939,1.22153 -0.684204,2.1106 z"
         style="font-size:23.75px;font-style:normal;font-weight:bold;text-align:start;text-anchor:start;fill:#262626;font-family:Arial"
         id="path3034"
         inkscape:connector-curvature="0" />
      <path
         d="m -43.400368,300.07095 -2.957153,-0.53344 c 0.332437,-1.19059 0.904539,-2.07193 1.716309,-2.64405 0.811763,-0.57209 2.017817,-0.85814 3.618164,-0.85815 1.453442,1e-5 2.535798,0.17203 3.24707,0.51605 0.711252,0.34405 1.211842,0.78086 1.50177,1.31043 0.289905,0.52959 0.434864,1.50178 0.434875,2.91656 l -0.03479,3.80371 c -1.1e-5,1.08236 0.05217,1.8806 0.156556,2.39472 0.104358,0.51412 0.299568,1.06496 0.585632,1.65252 l -3.223877,0 c -0.08505,-0.21647 -0.189422,-0.53731 -0.31311,-0.96252 -0.05413,-0.19328 -0.09278,-0.32084 -0.115967,-0.38269 -0.556649,0.54118 -1.151945,0.94706 -1.785889,1.21765 -0.633958,0.27059 -1.31043,0.40588 -2.029419,0.40588 -1.267907,0 -2.267153,-0.34403 -2.997742,-1.0321 -0.730592,-0.68807 -1.095887,-1.55782 -1.095886,-2.60925 -1e-6,-0.6958 0.166218,-1.31622 0.498657,-1.86127 0.332437,-0.54504 0.798236,-0.96252 1.3974,-1.25244 0.599159,-0.28991 1.463111,-0.54311 2.591858,-0.75959 1.523024,-0.28604 2.578321,-0.55276 3.165894,-0.80017 l 0,-0.3247 c -9e-6,-0.62621 -0.154631,-1.07269 -0.463867,-1.33942 -0.309253,-0.26671 -0.892952,-0.40007 -1.751099,-0.40009 -0.57984,2e-5 -1.03211,0.11405 -1.356812,0.34211 -0.324711,0.22807 -0.587569,0.62816 -0.788574,1.20025 z m 4.360352,2.64405 c -0.417489,0.13916 -1.078499,0.30538 -1.983032,0.49865 -0.904547,0.19329 -1.495977,0.3827 -1.774292,0.56824 -0.425216,0.30152 -0.637822,0.68421 -0.637818,1.14807 -4e-6,0.45614 0.170081,0.85043 0.510254,1.18286 0.340164,0.33244 0.773107,0.49866 1.298828,0.49866 0.587559,0 1.148064,-0.19328 1.681519,-0.57983 0.394279,-0.29378 0.653271,-0.65328 0.776977,-1.07849 0.08503,-0.27832 0.127555,-0.8079 0.127564,-1.58875 z"
         style="font-size:23.75px;font-style:normal;font-weight:bold;text-align:start;text-anchor:start;fill:#262626;font-family:Arial"
         id="path3036"
         inkscape:connector-curvature="0" />
      <path
         d="m -32.615456,308.6293 0,-17.00073 3.258667,0 0,17.00073 z"
         style="font-size:23.75px;font-style:normal;font-weight:bold;text-align:start;text-anchor:start;fill:#262626;font-family:Arial"
         id="path3038"
         inkscape:connector-curvature="0" />
      <path
         d="m -18.896584,304.70963 3.247071,0.54504 c -0.417492,1.19059 -1.07657,2.09707 -1.977234,2.71942 -0.900685,0.62236 -2.027494,0.93353 -3.380432,0.93353 -2.141525,0 -3.726403,-0.69966 -4.754639,-2.099 -0.811769,-1.12101 -1.217652,-2.5358 -1.217651,-4.24438 -10e-7,-2.04101 0.533446,-3.63942 1.600341,-4.79523 1.066892,-1.15579 2.415971,-1.73369 4.047242,-1.7337 1.832267,1e-5 3.277985,0.60497 4.337158,1.81488 1.059152,1.20993 1.565539,3.06346 1.519165,5.56061 l -8.164063,0 c 0.02319,0.96639 0.286048,1.71824 0.788575,2.25555 0.502517,0.53732 1.128737,0.80597 1.878662,0.80597 0.510246,0 0.939323,-0.13916 1.287231,-0.41748 0.347892,-0.27832 0.61075,-0.72672 0.788574,-1.34521 z m 0.185547,-3.29346 c -0.0232,-0.94319 -0.266732,-1.66025 -0.730591,-2.15119 -0.463875,-0.49091 -1.028246,-0.73637 -1.693115,-0.73639 -0.711269,2e-5 -1.298833,0.25901 -1.762695,0.77698 -0.463872,0.518 -0.691939,1.22153 -0.684204,2.1106 z"
         style="font-size:23.75px;font-style:normal;font-weight:bold;text-align:start;text-anchor:start;fill:#262626;font-family:Arial"
         id="path3040"
         inkscape:connector-curvature="0" />
      <path
         d="m -9.6888199,308.6293 -3.2586671,0 0,-12.31567 3.0267335,0 0,1.7511 c 0.5179799,-0.82722 0.9837794,-1.37226 1.3973999,-1.63513 0.4136085,-0.26285 0.8832736,-0.39428 1.4089966,-0.39429 0.7421794,1e-5 1.4573072,0.20489 2.1453857,0.61462 l -1.0089111,2.84119 c -0.5489175,-0.35562 -1.0591709,-0.53344 -1.5307617,-0.53345 -0.4561426,10e-6 -0.8426982,0.12564 -1.159668,0.37689 -0.3169814,0.25127 -0.5663098,0.70548 -0.7479858,1.36261 -0.1816862,0.65716 -0.2725268,2.03329 -0.272522,4.12842 z"
         style="font-size:23.75px;font-style:normal;font-weight:bold;text-align:start;text-anchor:start;fill:#262626;font-family:Arial"
         id="path3042"
         inkscape:connector-curvature="0" />
    </g>
    <path
       inkscape:connector-curvature="0"
       style="fill:none;stroke:#000000;stroke-width:3.59375px;stroke-linecap:round;stroke-linejoin:round;stroke-opacity:1;stroke-dasharray:none"
       d="m -172.22056,449.01993 0,-147.65624 49.45313,0"
       id="path3031" />
    <path
       inkscape:connector-curvature="0"
       style="fill:#000000;fill-opacity:1;fill-rule:evenodd;stroke:none"
       d="m -124.72056,293.62931 23.35938,7.73438 -23.35938,7.8125 0,-15.54688 z"
       id="path3033" />
    <path
       inkscape:connector-curvature="0"
       style="fill:none;stroke:#000000;stroke-width:3.59375px;stroke-linecap:round;stroke-linejoin:round;stroke-opacity:1;stroke-dasharray:none"
       d="m 16.76382,301.36369 59.0625,0 0,126.25"
       id="path3035" />
    <path
       inkscape:connector-curvature="0"
       style="fill:#000000;fill-opacity:1;fill-rule:evenodd;stroke:none"
       d="m 83.63882,425.66056 -7.8125,23.35937 -7.8125,-23.35937 15.625,0 z"
       id="path3037" />
  </g>
</svg>
