<?xml version="1.0" encoding="UTF-8"?>
<svg id="a" version="1.1" viewBox="0 0 1044.8 798.03" xmlns="http://www.w3.org/2000/svg"><g id="b" transform="translate(368.1 -239.06)"><g id="c" transform="translate(-356.39 246.39)"><path id="d" d="m935.16 779.3c13.047 0 23.672-10.625 23.672-23.672v-297.58c0-13.047-10.625-23.672-23.672-23.672h-909.45c-13.047 0-23.594 10.625-23.594 23.672v297.58c0 13.047 10.547 23.672 23.594 23.672h909.45z" fill="#d9d9d9" fill-rule="evenodd"/><path id="e" d="m935.16 779.3c13.047 0 23.672-10.625 23.672-23.672v0-297.58c0-13.047-10.625-23.672-23.672-23.672v0h-909.45c-13.047 0-23.594 10.625-23.594 23.672v0 297.58c0 13.047 10.547 23.672 23.594 23.672v0h909.45z" fill="none" stroke="#000" stroke-linecap="round" stroke-linejoin="round" stroke-width=".39062px"/><text id="f" x="463.75" y="761.25" fill="#000000" font-family="Arial" font-size="16.25px" xml:space="preserve">Host</text><path id="g" d="m935.16 410.78c13.047 0 23.672-10.547 23.672-23.594v-290.62c0-13.047-10.625-23.594-23.672-23.594h-907.03c-13.047 0-23.672 10.547-23.672 23.594v290.62c0 13.047 10.625 23.594 23.672 23.594h907.03z" fill="#d9d9d9" fill-rule="evenodd"/><path id="h" d="m935.16 410.78c13.047 0 23.672-10.547 23.672-23.594v0-290.62c0-13.047-10.625-23.594-23.672-23.594h-907.03c-13.047 0-23.672 10.547-23.672 23.594v0 290.62c0 13.047 10.625 23.594 23.672 23.594v0h907.03z" fill="none" stroke="#000" stroke-linecap="round" stroke-linejoin="round" stroke-width=".39062px"/><text id="i" x="465" y="392.5" fill="#000000" font-family="Arial" font-size="16.25px" xml:space="preserve">Host</text><path id="j" d="m840.7 339.92c13.047 0 23.594-10.625 23.594-23.672v-188.91c0-13.047-10.547-23.672-23.594-23.672h-434.69c-13.047 0-23.594 10.625-23.594 23.672v188.91c0 13.047 10.547 23.672 23.594 23.672h434.69z" fill="#a6a6a6" fill-rule="evenodd"/><path id="k" d="m840.7 339.92c13.047 0 23.594-10.625 23.594-23.672v0-188.91c0-13.047-10.547-23.672-23.594-23.672v0h-434.69c-13.047 0-23.594 10.625-23.594 23.672v0 188.91c0 13.047 10.547 23.672 23.594 23.672h434.69z" fill="none" stroke="#000" stroke-linecap="round" stroke-linejoin="round" stroke-width=".39062px"/><text id="l" x="566.25" y="321.25" fill="#000000" font-family="Arial" font-size="16.25px" xml:space="preserve">Server Process</text><path id="m" d="m595 724.92c13.047 0 23.672-10.547 23.672-23.594v-188.98c0-13.047-10.625-23.594-23.672-23.594h-188.98c-13.047 0-23.594 10.547-23.594 23.594v188.98c0 13.047 10.547 23.594 23.594 23.594h188.98z" fill="#a6a6a6" fill-rule="evenodd"/><path id="n" d="m595 724.92c13.047 0 23.672-10.547 23.672-23.594v0-188.98c0-13.047-10.625-23.594-23.672-23.594h-188.98c-13.047 0-23.594 10.547-23.594 23.594v188.98c0 13.047 10.547 23.594 23.594 23.594v0h188.98z" fill="none" stroke="#000" stroke-linecap="round" stroke-linejoin="round" stroke-width=".39062px"/><text id="o" x="446.25" y="706.25" fill="#000000" font-family="Arial" font-size="16.25px" xml:space="preserve">Client Process</text><path id="p" d="m406.02 127.34v141.72h188.98v-141.72h-188.98z" fill="#fa72c6" fill-rule="evenodd"/><text id="q" x="470" y="203.75" fill="#ffffff" font-family="Arial" font-size="20px" xml:space="preserve">Router</text><path id="r" d="m406.02 512.34v141.72h188.98v-141.72h-188.98z" fill="#595959" fill-rule="evenodd"/><text id="s" x="475" y="543.75" fill="#ffffff" font-family="Arial" font-size="20px" xml:space="preserve">Client</text><path id="t" d="m429.69 592.66v61.406h141.72v-61.406h-141.72z" fill="#bdf808" fill-rule="evenodd"/><text id="u" x="453.75" y="628.75" fill="#262626" font-family="Arial" font-size="20px" font-weight="bold" xml:space="preserve">App Code</text><path id="v" d="m651.72 127.34v141.72h188.98v-141.72h-188.98z" fill="#595959" fill-rule="evenodd"/><text id="w" x="720" y="158.75" fill="#ffffff" font-family="Arial" font-size="20px" xml:space="preserve">Client</text><path id="x" d="m675.31 207.66v61.406h141.8v-61.406h-141.8z" fill="#bdf808" fill-rule="evenodd"/><text id="y" x="698.75" y="243.75" fill="#262626" font-family="Arial" font-size="20px" font-weight="bold" xml:space="preserve">App Code</text><path id="z" d="m500.55 269.06v243.28" fill="none" stroke="#fa72c6" stroke-linecap="round" stroke-linejoin="round" stroke-width="6.7969px"/><path id="aa" d="m595 198.2h56.719" fill="none" stroke="#fa72c6" stroke-linecap="round" stroke-linejoin="round" stroke-width="6.7969px"/><path id="ab" d="m250.16 479.3 250.39-14.219" fill="none" stroke="#000" stroke-linecap="round" stroke-linejoin="round" stroke-width=".39062px"/><path id="ac" d="m145 455.62v47.266h210.23v-47.266h-210.23z" fill="#fff" fill-rule="evenodd"/><path id="ad" d="m145 502.89h210.23v-47.266h-210.23v47.266z" fill="none" stroke="#000" stroke-linecap="round" stroke-linejoin="round" stroke-width=".39062px"/><text id="ae" x="183.75" y="473.75" fill="#000000" font-family="Arial" font-size="16.25px" xml:space="preserve">Session runs over</text><text id="af" x="155" y="496.25" fill="#000000" font-family="Arial" font-size="16.25px" xml:space="preserve">WAMP</text><text id="ag" x="207.5" y="496.25" fill="#000000" font-family="Arial" font-size="16.25px" xml:space="preserve">-</text><text id="ah" x="212.5" y="496.25" fill="#000000" font-family="Arial" font-size="16.25px" xml:space="preserve">WebSocket </text><text id="ai" x="302.5" y="496.25" fill="#000000" font-family="Arial" font-size="16.25px" xml:space="preserve">/ </text><text id="aj" x="311.25" y="496.25" fill="#000000" font-family="Arial" font-size="16.25px" xml:space="preserve">TCP</text><path id="ak" d="m669.45 25.703-46.094 172.5" fill="none" stroke="#000" stroke-linecap="round" stroke-linejoin="round" stroke-width=".39062px"/><path id="al" d="m521.17 2.1094v47.266h296.48v-47.266h-296.48z" fill="#fff" fill-rule="evenodd"/><path id="am" d="m521.17 49.375h296.48v-47.266h-296.48v47.266z" fill="none" stroke="#000" stroke-linecap="round" stroke-linejoin="round" stroke-width=".39062px"/><text id="an" x="602.5" y="20" fill="#000000" font-family="Arial" font-size="16.25px" xml:space="preserve">Session runs over</text><text id="ao" x="548.75" y="43.75" fill="#000000" font-family="Arial" font-size="16.25px" xml:space="preserve">WAMP direct calls and callbacks</text><path id="ap" d="m297.42 339.92c13.047 0 23.594-10.625 23.594-23.672v-188.91c0-13.047-10.547-23.672-23.594-23.672h-188.98c-13.047 0-23.672 10.625-23.672 23.672v188.91c0 13.047 10.625 23.672 23.672 23.672h188.98z" fill="#a6a6a6" fill-rule="evenodd"/><path id="aq" d="m297.42 339.92c13.047 0 23.594-10.625 23.594-23.672v0-188.91c0-13.047-10.547-23.672-23.594-23.672h-188.98c-13.047 0-23.672 10.625-23.672 23.672v0 188.91c0 13.047 10.625 23.672 23.672 23.672v0h188.98z" fill="none" stroke="#000" stroke-linecap="round" stroke-linejoin="round" stroke-width=".39062px"/><text id="ar" x="148.75" y="321.25" fill="#000000" font-family="Arial" font-size="16.25px" xml:space="preserve">Client Process</text><path id="as" d="m108.44 127.34v141.72h188.98v-141.72h-188.98z" fill="#595959" fill-rule="evenodd"/><text id="at" x="177.5" y="158.75" fill="#ffffff" font-family="Arial" font-size="20px" xml:space="preserve">Client</text><path id="au" d="m132.03 207.66v61.406h141.72v-61.406h-141.72z" fill="#bdf808" fill-rule="evenodd"/><text id="av" x="156.25" y="243.75" fill="#262626" font-family="Arial" font-size="20px" font-weight="bold" xml:space="preserve">App Code</text><path id="aw" d="m406.02 198.2h-108.59" fill="none" stroke="#fa72c6" stroke-linecap="round" stroke-linejoin="round" stroke-width="6.7969px"/><path id="ax" d="m315.08 25.703 29.531 172.5" fill="none" stroke="#000" stroke-linecap="round" stroke-linejoin="round" stroke-width=".39062px"/><path id="ay" d="m143.28 2.1094v47.266h343.67v-47.266h-343.67z" fill="#fff" fill-rule="evenodd"/><path id="az" d="m143.28 49.375h343.67v-47.266h-343.67v47.266z" fill="none" stroke="#000" stroke-linecap="round" stroke-linejoin="round" stroke-width=".39062px"/><text id="ba" x="248.75" y="20" fill="#000000" font-family="Arial" font-size="16.25px" xml:space="preserve">Session runs over</text><text id="bb" x="157.5" y="43.75" fill="#000000" font-family="Arial" font-size="16.25px" xml:space="preserve">WAMP</text><text id="bc" x="208.75" y="43.75" fill="#000000" font-family="Arial" font-size="16.25px" xml:space="preserve">-</text><text id="bd" x="215" y="43.75" fill="#000000" font-family="Arial" font-size="16.25px" xml:space="preserve">WebSocket </text><text id="be" x="305" y="43.75" fill="#000000" font-family="Arial" font-size="16.25px" xml:space="preserve">/ </text><text id="bf" x="313.75" y="43.75" fill="#000000" font-family="Arial" font-size="16.25px" xml:space="preserve">Unix Domain Sockets</text><path id="bg" d="m719.06 394.22v146.48h307.03v-146.48h-307.03z" fill="#c0c0c0" fill-rule="evenodd"/><path id="bh" d="m704.84 380.08v146.41h307.11v-146.41h-307.11z" fill="#bdf808" fill-rule="evenodd"/><text id="bi" x="745" y="435" fill="#262626" font-family="Arial" font-size="20px" font-weight="bold" xml:space="preserve">Application code</text><text id="bj" x="911.25" y="435" fill="#262626" font-family="Arial" font-size="20px" xml:space="preserve">can be </text><text id="bk" x="716.25" y="458.75" fill="#262626" font-family="Arial" font-size="20px" xml:space="preserve">deployed and distributed flexibly </text><text id="bl" x="755" y="483.75" fill="#262626" font-family="Arial" font-size="20px" xml:space="preserve">-</text><text id="bm" x="767.5" y="483.75" fill="#262626" font-family="Arial" font-size="20px" xml:space="preserve">without code changes</text></g></g></svg>
