<?xml version="1.0" encoding="UTF-8"?>
<svg id="a" version="1.1" viewBox="0 0 24 24" xmlns="http://www.w3.org/2000/svg" xmlns:xlink="http://www.w3.org/1999/xlink"><g id="b" transform="translate(-414.46 -1676.9)"><rect id="c" x="414.46" y="1676.9" width="24" height="24" rx="36.687" ry=".029183" fill="#fa72c6"/><path id="d" d="m421.02 1695c-1.4734-4.1375-3.0039-8.2419-4.5915-12.313 0.57733 0.013 1.0464 0.017 1.4072 0.017 0.39691 0 0.86599-0.011 1.4072-0.017l2.5258 7.4691 1.0554 2.9407c0.22852-0.4449 0.57281-1.1591 1.0329-2.1424 0.46005-0.9832 0.78931-1.7093 0.98776-2.1784-0.27663-0.8419-0.62694-1.8614-1.0509-3.0581-0.42399-1.1968-0.79533-2.207-1.1141-3.0309 0.51117 0.013 0.9592 0.017 1.3441 0.017 0.42697 0 0.87499-0.011 1.3441-0.017 0.28264 1.0884 0.59535 2.1649 0.93815 3.2294 0.50515-1.0885 0.96822-2.1651 1.3892-3.2294 0.52318 0.013 0.94415 0.017 1.2629 0.017 0.36684 0 0.78779-0.011 1.2629-0.017-0.38488 0.7698-0.86149 1.753-1.4298 2.9498-0.56831 1.1967-1.0269 2.1951-1.3757 2.9947 0.13229 0.4331 0.37886 1.1668 0.7397 2.2012 0.36082 1.0344 0.62541 1.765 0.79382 2.192l2.4266-5.1598 1.759-3.8609 0.57734-1.317c0.5773 0.013 1.0404 0.017 1.3892 0.017 0.38486 0 0.85093-0.011 1.3982-0.017l-1.6959 3.3647-3.5452 7.2708-0.79381 1.6777c-0.64349-0.013-1.1938-0.018-1.6508-0.018-0.48112 0-1.0344 0.011-1.6598 0.018-0.35483-1.2147-0.74572-2.4086-1.1727-3.5811-0.57133 1.1725-1.1126 2.3664-1.6237 3.5811-0.64348-0.013-1.1998-0.018-1.6688-0.018-0.49315 0-1.0494 0.011-1.6688 0.018z" fill="#fff"/></g></svg>
