<?xml version="1.0" encoding="UTF-8"?>
<svg id="a" version="1.1" viewBox="0 0 979.66 500.41" xmlns="http://www.w3.org/2000/svg"><g id="b" transform="translate(475.43 294.97)"><g id="c" transform="translate(-466.48 -296.27)"><path id="d" d="m847.66 186.8h-419.84" fill="none" stroke="#000" stroke-linecap="round" stroke-linejoin="round" stroke-width="3.5938px"/><path id="e" d="m429.45 193.44-13.203-6.6406 13.203-6.5625v13.203z" fill-rule="evenodd"/><path id="f" d="m581.48 157.89v20h100.94v-20h-100.94z" fill="#fff" fill-rule="evenodd"/><text id="g" x="581.25" y="172.5" fill="#000000" font-family="Arial" font-size="16.25px" xml:space="preserve">CHALLENGE</text><path id="h" d="m402.11 76.406v304.3h14.141v-304.3h-14.141z" fill="#fa72c6" fill-rule="evenodd"/><path id="i" d="m848.52 76.406v304.3h14.219v-304.3h-14.219z" fill="#fa72c6" fill-rule="evenodd"/><text id="j" x="803.75" y="33.75" fill="#000000" font-family="Arial" font-size="30px" xml:space="preserve">Router</text><text id="k" x="371.25" y="33.75" fill="#000000" font-family="Arial" font-size="30px" xml:space="preserve">Client</text><path id="l" d="m416.25 111.25h419.92" fill="none" stroke="#000" stroke-linecap="round" stroke-linejoin="round" stroke-width="3.5938px"/><path id="m" d="m834.45 104.61 13.203 6.6406-13.203 6.5625v-13.203z" fill-rule="evenodd"/><path id="n" d="m604.61 82.344v20h54.688v-20h-54.688z" fill="#fff" fill-rule="evenodd"/><text id="o" x="605" y="97.5" fill="#000000" font-family="Arial" font-size="16.25px" xml:space="preserve">HELLO</text><path id="p" d="m335.94 490.86h141.72" fill="none" stroke="#fa72c6" stroke-linecap="round" stroke-linejoin="round" stroke-width="3.5938px"/><path id="q" d="m817.81 443.59h141.72" fill="none" stroke="#fa72c6" stroke-linecap="round" stroke-linejoin="round" stroke-width="3.5938px"/><path id="r" d="m477.66 490.86 340.16-47.266" fill="none" stroke="#fa72c6" stroke-linecap="round" stroke-linejoin="round" stroke-width="3.5938px"/><text id="s" x="598.75" y="422.5" fill="#000000" font-family="Arial" font-size="20px" xml:space="preserve">Session </text><text id="t" x="583.75" y="446.25" fill="#000000" font-family="Arial" font-size="20px" xml:space="preserve">established</text><path id="u" d="m148.59 138.36 198.44 86.406" fill="none" stroke="#000" stroke-linecap="round" stroke-linejoin="round" stroke-width=".39062px"/><path id="v" d="m2.1094 91.172v94.453h292.89v-94.453h-292.89z" fill="#fff" fill-rule="evenodd"/><path id="w" d="m2.1094 185.62h292.89v-94.453h-292.89v94.453z" fill="none" stroke="#000" stroke-linecap="round" stroke-linejoin="round" stroke-width=".39062px"/><text id="x" x="12.5" y="132.5" fill="#000000" font-family="Arial" font-size="20px" xml:space="preserve">Authentication happens before </text><text id="y" x="30" y="156.25" fill="#000000" font-family="Arial" font-size="20px" xml:space="preserve">Session attaches to Realm</text><path id="z" d="m849.3 342.89h-419.92" fill="none" stroke="#000" stroke-linecap="round" stroke-linejoin="round" stroke-width="3.5938px"/><path id="aa" d="m431.09 349.53-13.203-6.6406 13.203-6.5625v13.203z" fill-rule="evenodd"/><path id="ab" d="m590.55 313.98v20h86.094v-20h-86.094z" fill="#fff" fill-rule="evenodd"/><text id="ac" x="590" y="328.75" fill="#000000" font-family="Arial" font-size="16.25px" xml:space="preserve">WELCOME</text><path id="ad" d="m417.89 267.34h419.84" fill="none" stroke="#000" stroke-linecap="round" stroke-linejoin="round" stroke-width="3.5938px"/><path id="ae" d="m836.09 260.7 13.203 6.6406-13.203 6.5625v-13.203z" fill-rule="evenodd"/><path id="af" d="m569.69 238.44v20h127.81v-20h-127.81z" fill="#fff" fill-rule="evenodd"/><text id="ag" x="570" y="253.75" fill="#000000" font-family="Arial" font-size="16.25px" xml:space="preserve">AUTHENTICATE</text><path id="ah" d="m382.42 286.25h-11.797c-6.5625 0-11.797-5.3125-11.797-11.875v0 0-37.734c0-6.5625-5.3125-11.875-11.797-11.875v0c6.4844 0 11.797-5.2344 11.797-11.797v0 0-33.047c0-6.5625 5.2344-11.797 11.797-11.797v0 0h11.797" fill="none" stroke="#000" stroke-linecap="round" stroke-linejoin="round" stroke-width=".39062px"/></g></g></svg>
