<?xml version="1.0" encoding="UTF-8"?>
<svg id="a" version="1.1" viewBox="0 0 981.1 374.47" xmlns="http://www.w3.org/2000/svg"><g id="b" transform="translate(176.25 -476.57)"><g id="c" transform="translate(-167.83 475.73)"><path id="d" d="m849.3 186.8h-419.92" fill="none" stroke="#000" stroke-linecap="round" stroke-linejoin="round" stroke-width="3.5938px"/><path id="e" d="m431.09 193.44-13.203-6.6406 13.203-6.5625v13.203z" fill-rule="evenodd"/><path id="f" d="m590.55 157.89v20h86.094v-20h-86.094z" fill="#fff" fill-rule="evenodd"/><text id="g" x="590" y="172.5" fill="#000000" font-family="Arial" font-size="16.25px" xml:space="preserve">WELCOME</text><path id="h" d="m403.67 76.406v184.61h14.219v-184.61h-14.219z" fill="#fa72c6" fill-rule="evenodd"/><path id="i" d="m850.16 76.406v184.61h14.141v-184.61h-14.141z" fill="#fa72c6" fill-rule="evenodd"/><text id="j" x="805" y="33.75" fill="#000000" font-family="Arial" font-size="30px" xml:space="preserve">Router</text><text id="k" x="372.5" y="33.75" fill="#000000" font-family="Arial" font-size="30px" xml:space="preserve">Client</text><path id="l" d="m417.89 111.25h417.03" fill="none" stroke="#000" stroke-linecap="round" stroke-linejoin="round" stroke-width="5.2344px"/><path id="m" d="m832.89 103.05 16.406 8.2031-16.406 8.2031v-16.406z" fill-rule="evenodd"/><path id="n" d="m606.25 82.344v20h54.688v-20h-54.688z" fill="#fff" fill-rule="evenodd"/><text id="o" x="606.25" y="97.5" fill="#000000" font-family="Arial" font-size="16.25px" xml:space="preserve">HELLO</text><path id="p" d="m337.58 364.92h141.72" fill="none" stroke="#fa72c6" stroke-linecap="round" stroke-linejoin="round" stroke-width="3.5938px"/><path id="q" d="m819.45 317.73h141.72" fill="none" stroke="#fa72c6" stroke-linecap="round" stroke-linejoin="round" stroke-width="3.5938px"/><path id="r" d="m479.3 364.92 340.16-47.188" fill="none" stroke="#fa72c6" stroke-linecap="round" stroke-linejoin="round" stroke-width="3.5938px"/><text id="s" x="601.25" y="296.25" fill="#000000" font-family="Arial" font-size="20px" xml:space="preserve">Session </text><text id="t" x="586.25" y="320" fill="#000000" font-family="Arial" font-size="20px" xml:space="preserve">established</text><path id="u" d="m148.59 199.61 496.02-88.359" fill="none" stroke="#000" stroke-linecap="round" stroke-linejoin="round" stroke-width=".39062px"/><path id="v" d="m2.1094 152.34v94.531h292.89v-94.531h-292.89z" fill="#fff" fill-rule="evenodd"/><path id="w" d="m2.1094 246.88h292.89v-94.531h-292.89v94.531z" fill="none" stroke="#000" stroke-linecap="round" stroke-linejoin="round" stroke-width=".39062px"/><text id="x" x="15" y="193.75" fill="#000000" font-family="Arial" font-size="20px" xml:space="preserve">Session establishment always </text><text id="y" x="70" y="217.5" fill="#000000" font-family="Arial" font-size="20px" xml:space="preserve">initiated by </text><text id="z" x="171.25" y="217.5" fill="#000000" font-family="Arial" font-size="20px" font-weight="bold" xml:space="preserve">Client</text></g></g></svg>
