<?xml version="1.0" encoding="UTF-8"?>
<svg id="a" version="1.1" viewBox="0 0 260 42" xml:space="preserve" xmlns="http://www.w3.org/2000/svg"><path id="b" transform="matrix(.21843 0 0 .21843 .11729 -70.482)" d="m132.54 426.33-0.018 22.175 33.261 0.024 0.016-22.175z" fill="#808080" fill-rule="evenodd"/><path id="c" transform="matrix(.21843 0 0 .21843 .11729 -70.482)" d="m176.89 426.37-0.017 22.174 33.26 0.024 0.017-22.172z" fill="#808080" fill-rule="evenodd"/><path id="d" transform="matrix(.21843 0 0 .21843 .11729 -70.482)" d="m132.52 459.59-0.017 22.085 33.26 0.026 0.017-22.086z" fill="#808080" fill-rule="evenodd"/><path id="e" transform="matrix(.21843 0 0 .21843 .11729 -70.482)" d="m44.012 326.66-0.016 22.173 33.259 0.026 0.017-22.174z" fill="#808080" fill-rule="evenodd"/><path id="f" transform="matrix(.21843 0 0 .21843 .11729 -70.482)" d="m88.11 426.21-0.017 22.173 33.259 0.026 0.017-22.174z" fill="#808080" fill-rule="evenodd"/><path id="g" transform="matrix(.21843 0 0 .21843 .11729 -70.482)" d="m88.247 359.69-0.017 22.173 33.259 0.026 0.018-22.174z" fill="#808080" fill-rule="evenodd"/><path id="h" transform="matrix(.21843 0 0 .21843 .11729 -70.482)" d="m43.962 393.01-0.016 22.175 33.259 0.025 0.016-22.174z" fill="#808080" fill-rule="evenodd"/><path id="i" transform="matrix(.21843 0 0 .21843 .11729 -70.482)" d="m88.222 393.04-0.017 22.172 33.26 0.026 0.017-22.174z" fill="#808080" fill-rule="evenodd"/><path id="j" transform="matrix(.21843 0 0 .21843 .11729 -70.482)" d="m132.53 326.56-0.016 22.173 33.259 0.024 0.017-22.172z" fill="#808080" fill-rule="evenodd"/><path id="k" transform="matrix(.21843 0 0 .21843 .11729 -70.482)" d="m176.79 326.59-0.016 22.173 33.259 0.025 0.018-22.173z" fill="#808080" fill-rule="evenodd"/><path id="l" transform="matrix(.21843 0 0 .21843 .11729 -70.482)" d="m132.51 359.81-0.017 22.175 33.26 0.025 0.016-22.174z" fill="#808080" fill-rule="evenodd"/><path id="m" transform="matrix(.21843 0 0 .21843 .11729 -70.482)" d="m176.91 393.11-0.016 22.174 33.259 0.025 0.017-22.174z" fill="#808080" fill-rule="evenodd"/><path id="n" transform="matrix(.21843 0 0 .21843 .11729 -70.482)" d="m-0.495 426.15-0.016 22.174 33.258 0.025 0.016-22.173z" fill="#808080" fill-rule="evenodd"/><path id="o" transform="matrix(.21843 0 0 .21843 .11729 -70.482)" d="m-0.521 459.41-0.016 22.086 33.259 0.026 0.016-22.086z" fill="#808080" fill-rule="evenodd"/><path id="p" transform="matrix(.21843 0 0 .21843 .11729 -70.482)" d="m43.739 459.52-0.018 22.088 33.261 0.025 0.016-22.086z" fill="#808080" fill-rule="evenodd"/><path id="q" transform="matrix(.21843 0 0 .21843 .11729 -70.482)" d="m176.86 459.63-0.016 21.999 33.26 0.026 0.017-22.001z" fill="#808080" fill-rule="evenodd"/><path id="r" transform="matrix(.21843 0 0 .21843 .11729 -70.482)" d="m43.887 492.61-0.017 22.173 33.26 0.026 0.017-22.174z" fill="#808080" fill-rule="evenodd"/><path id="s" transform="matrix(.21843 0 0 .21843 .11729 -70.482)" d="m88.147 492.65-0.017 22.174 33.259 0.024 0.018-22.172z" fill="#808080" fill-rule="evenodd"/><path id="t" transform="matrix(.21843 0 0 .21843 .11729 -70.482)" d="m132.41 492.77-0.017 22.173 33.26 0.026 0.016-22.174z" fill="#808080" fill-rule="evenodd"/><path id="u" d="m99.043 32.947c0 5.3414-1.9108 6.9401-7.3693 6.9401h-8.1873v-2.6122h7.8758c2.1443 0 2.6122-0.58516 2.6122-2.9632v-6.2387h-0.11708c-0.35079 0.70202-0.74068 1.0919-1.2083 1.3649-0.46831 0.2726-1.209 0.35057-2.3396 0.35057h-6.823v-2.6122h7.8758c2.1443 0 2.6122-0.58451 2.6122-2.9627v-15.518c0-2.378-0.46809-2.9627-2.6122-2.9627h-7.8758v-2.6122h6.3162c2.3 0 3.743 0.58495 4.0546 2.3396h0.11708l0.35101-2.3396h5.2632c-0.42877 1.5984-0.54563 3.0802-0.54563 5.6922v24.134zm-15.557 6.9401h-14.27l-0.35844-2.6126c1.7168 0.01376 3.2047 4.37e-4 5.9731 4.37e-4h8.6556v2.6122zm0-10.098h-8.2268c-5.4194 0-7.3686-1.5984-7.3686-6.9396v-12.788c0-5.3418 1.9495-6.9401 7.3686-6.9401h8.2268v2.6122h-7.9149c-2.1054 0-2.6122 0.58473-2.6122 2.9627v15.518c0 2.3784 0.50675 2.9627 2.6122 2.9627h7.9149v2.6122z" fill="#808080" fill-rule="evenodd"/><path id="v" d="m121.11 27.177h9.8641c2.8072 0 4.2881 0.01485 5.9606 0.0098l-0.5026 2.6023h-15.322v-2.6121zm0-24.056h8.5385c5.4582 0 7.3688 1.5984 7.3688 6.9401v8.0317h-15.907v-2.6126h10.839v-6.7843c0-2.378-0.46808-2.9627-2.5735-2.9627h-8.2652v-2.6122h-2.2e-4zm-10.839 14.972v6.1212c0 2.3784 0.50675 2.9627 2.6124 2.9627h8.2268v2.6122h-8.5392c-5.4192 0-7.3684-1.5984-7.3684-6.9396v-12.788c0-5.3418 1.9492-6.9401 7.3684-6.9401h8.5392v2.6122h-8.2268c-2.1056 0-2.6124 0.58473-2.6124 2.9627v6.7843h10.839v2.6126h-10.839z" fill="#808080" fill-rule="evenodd"/><path id="w" d="m196.79 27.177h9.8646c2.8074 0 4.2672 0.01485 5.9504 0.0098l-0.49212 2.6023h-15.323v-2.6121zm0-24.056h8.5392c5.4585 0 7.3684 1.5984 7.3684 6.9401v8.0317h-15.908v-2.6126h10.839v-6.7843c0-2.378-0.46787-2.9627-2.6119-2.9627h-8.2275v-2.6122zm-10.839 14.972v6.1212c0 2.3784 0.50719 2.9627 2.6124 2.9627h8.2264v2.6122h-8.538c-5.4194 0-7.3695-1.5984-7.3695-6.9396v-12.788c0-5.3418 1.9503-6.9401 7.3695-6.9401h8.538v2.6122h-8.2264c-2.1052 0-2.6124 0.58473-2.6124 2.9627v6.7843h10.839v2.6126h-10.839z" fill="#808080" fill-rule="evenodd"/><path id="x" d="m240.53 13.453c5.4194 0 7.3688 1.5984 7.3688 6.9012v4.9126c0 2.9241-1.7544 4.5225-6.8228 4.5225h-22.575l-0.37198-2.6406c2.025 0 3.2185 0.0284 5.9862 0.0284h16.609c2.1058 0 2.5737-0.58451 2.5737-2.9627v-3.1582c0-2.3782-0.46809-2.963-2.5737-2.963h-15.361c-5.4198 0-7.3693-1.5598-7.3693-6.9012v-1.1306c0-5.3418 1.9497-6.9401 7.3693-6.9401h21.989l0.46569 2.6124c-1.6911 0.00437-3.1947-2.184e-4 -5.963-2.184e-4h-16.18c-2.1052 0-2.5733 0.58473-2.5733 2.9627v1.7937c0 2.3787 0.4683 2.963 2.5733 2.963h14.855z" fill="#808080" fill-rule="evenodd"/><path id="y" d="m259.99 24.097c0 2.6122 0.0114 5.368 0.0114 5.6924h-5.0906c0-0.88528 0.0109-3.0802 0.0109-5.6924v-15.284c0-2.6119 3e-3 -4.0664-0.0109-5.6922h5.0793v20.976z" fill="#808080" fill-rule="evenodd"/><path id="z" d="m157.34 3.1769h-6.4381c-5.4585 0-7.369 1.5987-7.369 6.9398v14.036c0 2.6122 7e-3 3.9679 7e-3 5.6924h5.0719c-5e-3 -0.58713-0.0101-3.0802-0.0101-5.6924v-15.401c0-2.3782 0.46809-2.9632 2.6122-2.9632h6.1264l0.11489 0.00131h8.8969c2.1443 0 2.6122 0.58494 2.6122 2.9629v15.401c0 2.6124 0.01 3.5304-4e-3 5.6926h5.0767c4.4e-4 -1.871-5e-3 -3.0802-5e-3 -5.6926v-14.036c0-5.3414-1.9101-6.9401-7.3688-6.9401h-9.2086l-0.11468-0.00109z" fill="#808080" fill-rule="evenodd"/></svg>
