<?xml version="1.0" encoding="UTF-8"?>
<svg id="a" version="1.1" viewBox="0 0 1027.2 515.09" xmlns="http://www.w3.org/2000/svg"><g id="b" transform="translate(1045.5 -36.509)"><g id="c" transform="translate(-1041 33.565)"><path id="d" d="m931.93 128.82h-420.16" fill="none" stroke="#000" stroke-linecap="round" stroke-linejoin="round" stroke-width="3.5958px"/><path id="e" d="m513.41 135.39-13.211-6.5662 13.211-6.6444v13.211z" fill-rule="evenodd"/><path id="f" d="m667.88 99.9v20.011h96.382v-20.011h-96.382z" fill="#fff" fill-rule="evenodd"/><text id="g" x="667.87543" y="115.06468" fill="#000000" font-family="Arial" font-size="16.259px" xml:space="preserve">SUBSCRIBE</text><path id="h" d="m485.19 76.449v430.55h14.149v-430.55h-14.149z" fill="#fa72c6" fill-rule="evenodd"/><path id="i" d="m57.376 76.449v430.55h14.227v-430.55h-14.227z" fill="#fa72c6" fill-rule="evenodd"/><path id="j" d="m931.93 76.449v430.55h14.149v-430.55h-14.149z" fill="#fa72c6" fill-rule="evenodd"/><path id="k" d="m931.93 388.81h-420.16" fill="none" stroke="#000" stroke-linecap="round" stroke-linejoin="round" stroke-width="3.5958px"/><path id="l" d="m513.41 395.38-13.211-6.5662 13.211-6.6444v13.211z" fill-rule="evenodd"/><path id="m" d="m655.84 359.89v20.011h120.46v-20.011h-120.46z" fill="#fff" fill-rule="evenodd"/><text id="n" x="655.36841" y="375.21094" fill="#000000" font-family="Arial" font-size="16.259px" xml:space="preserve">UNSUBSCRIBE</text><text id="o" x="2.5014062" y="33.768986" fill="#000000" font-family="Arial" font-size="30.017px" xml:space="preserve">Publisher</text><text id="p" x="867.98798" y="33.768986" fill="#000000" font-family="Arial" font-size="30.017px" xml:space="preserve">Subscriber</text><text id="q" x="447.75171" y="33.768986" fill="#000000" font-family="Arial" font-size="30.017px" xml:space="preserve">Broker</text><path id="r" d="m500.2 199.72h420.16" fill="none" stroke="#000" stroke-linecap="round" stroke-linejoin="round" stroke-width="3.5958px"/><path id="s" d="m918.72 193.08 13.211 6.6444-13.211 6.5662v-13.211z" fill-rule="evenodd"/><path id="t" d="m619.72 170.8v20.011h192.69v-20.011h-192.69z" fill="#fff" fill-rule="evenodd"/><text id="u" x="619.09802" y="186.35477" fill="#000000" font-family="Arial" font-size="16.259px" xml:space="preserve">SUBSCRIBED or ERROR</text><path id="v" d="m500.2 459.71h420.16" fill="none" stroke="#000" stroke-linecap="round" stroke-linejoin="round" stroke-width="3.5958px"/><path id="w" d="m918.72 453.07 13.211 6.6444-13.211 6.5662v-13.211z" fill-rule="evenodd"/><path id="x" d="m607.69 430.79v20.011h216.76v-20.011h-216.76z" fill="#fff" fill-rule="evenodd"/><text id="y" x="607.84167" y="445.25031" fill="#000000" font-family="Arial" font-size="16.259px" xml:space="preserve">UNSUBSCRIBED or ERROR</text></g></g></svg>
