<?xml version="1.0" encoding="UTF-8"?>
<svg id="a" version="1.1" viewBox="0 0 965.41 367.35" xmlns="http://www.w3.org/2000/svg"><g id="b" transform="translate(30.863 -490.84)"><g id="c" transform="translate(-26.138 488.88)"><path id="d" d="m461.82 76.449v282.82h14.149v-282.82h-14.149z" fill="#fa72c6" fill-rule="evenodd"/><path id="e" d="m34.003 76.449v282.82h14.227v-282.82h-14.227z" fill="#fa72c6" fill-rule="evenodd"/><path id="f" d="m908.56 76.449v282.82h14.149v-282.82h-14.149z" fill="#fa72c6" fill-rule="evenodd"/><path id="g" d="m48.934 122.88h398.97" fill="none" stroke="#000" stroke-linecap="round" stroke-linejoin="round" stroke-width="3.5958px"/><path id="h" d="m446.27 116.32 13.211 6.5662-13.211 6.6444v-13.211z" fill-rule="evenodd"/><path id="i" d="m233.33 93.959v20.011h41.664v-20.011h-41.664z" fill="#fff" fill-rule="evenodd"/><text id="j" x="233.88148" y="108.81117" fill="#000000" font-family="Arial" font-size="16.259px" xml:space="preserve">CALL</text><path id="k" d="m476.83 145.08h420.16" fill="none" stroke="#000" stroke-linecap="round" stroke-linejoin="round" stroke-width="3.5958px"/><path id="l" d="m895.35 138.52 13.211 6.5662-13.211 6.6444v-13.211z" fill-rule="evenodd"/><path id="m" d="m640.83 116.16v20.011h103.73v-20.011h-103.73z" fill="#fff" fill-rule="evenodd"/><text id="n" x="640.35999" y="131.32384" fill="#000000" font-family="Arial" font-size="16.259px" xml:space="preserve">INVOCATION</text><path id="o" d="m908.56 272.11h-420.16" fill="none" stroke="#000" stroke-linecap="round" stroke-linejoin="round" stroke-width="3.5958px"/><path id="p" d="m490.04 278.75-13.211-6.6444 13.211-6.5662v13.211z" fill-rule="evenodd"/><path id="q" d="m626.45 243.18v20.011h132.5v-20.011h-132.5z" fill="#fff" fill-rule="evenodd"/><text id="r" x="626.60223" y="257.64484" fill="#000000" font-family="Arial" font-size="16.259px" xml:space="preserve">YIELD or ERROR</text><path id="s" d="m459.48 294.31h-399.05" fill="none" stroke="#000" stroke-linecap="round" stroke-linejoin="round" stroke-width="3.5958px"/><path id="t" d="m62.144 300.95-13.211-6.6444 13.211-6.5662v13.211z" fill-rule="evenodd"/><path id="u" d="m179.16 265.38v20.011h150.08v-20.011h-150.08z" fill="#fff" fill-rule="evenodd"/><text id="v" x="178.85054" y="280.1575" fill="#000000" font-family="Arial" font-size="16.259px" xml:space="preserve">RESULT or ERROR</text><text id="w" x="2.5014062" y="33.768986" fill="#000000" font-family="Arial" font-size="30.017px" xml:space="preserve">Caller</text><text id="x" x="865.48651" y="33.768986" fill="#000000" font-family="Arial" font-size="30.017px" xml:space="preserve">Callee</text><text id="y" x="425.23904" y="33.768986" fill="#000000" font-family="Arial" font-size="30.017px" xml:space="preserve">Dealer</text></g></g></svg>
