<?xml version="1.0" encoding="UTF-8"?>
<svg id="a" version="1.1" viewBox="0 0 1090.4 508.07" xmlns="http://www.w3.org/2000/svg"><g id="b" transform="translate(562.33 -368.33)"><g id="c" transform="translate(-554.2 376.36)"><path id="d" d="m227.94 3.7521v484.49h614.49v-484.49h-614.49z" fill="#d9d9d9" fill-rule="evenodd"/><text id="e" x="368.9574" y="45.025311" fill="#000000" font-family="Arial" font-size="23.763px" xml:space="preserve">Physical Transport </text><text id="f" x="567.81921" y="45.025311" fill="#000000" font-family="Arial" font-size="23.763px" xml:space="preserve">(</text><text id="g" x="576.57416" y="45.025311" fill="#000000" font-family="Arial" font-size="23.763px" xml:space="preserve">Multiplexed</text><text id="h" x="694.1402" y="45.025311" fill="#000000" font-family="Arial" font-size="23.763px" xml:space="preserve">)</text><path id="i" d="m253.27 86.455v165.41h565.55v-165.41h-565.55z" fill="#a6a6a6" fill-rule="evenodd"/><text id="j" x="459.00803" y="123.81961" fill="#ffffff" font-family="Arial" font-size="20.011px" xml:space="preserve">Logical Transport</text><path id="k" d="m135.23 232.47c13.054 0 23.685-10.631 23.685-23.685v-69.727c0-13.054-10.631-23.607-23.685-23.607h-108.65c-13.054 0-23.685 10.553-23.685 23.607v69.727c0 13.054 10.631 23.685 23.685 23.685h108.65z" fill="#bdf808" fill-rule="evenodd"/><path id="l" d="m135.23 232.47c13.054 0 23.685-10.631 23.685-23.685v0-69.727c0-13.054-10.631-23.607-23.685-23.607v0h-108.65c-13.054 0-23.685 10.553-23.685 23.607v0 69.727c0 13.054 10.631 23.685 23.685 23.685v0h108.65z" fill="none" stroke="#000" stroke-linecap="round" stroke-linejoin="round" stroke-width="2.0324px"/><text id="m" x="30.016874" y="181.35194" fill="#000000" font-family="Arial" font-size="23.763px" font-weight="bold" xml:space="preserve">Endpoint</text><path id="n" d="m1047.6 232.47c13.054 0 23.607-10.631 23.607-23.685v-69.727c0-13.054-10.553-23.607-23.607-23.607h-108.73c-13.054 0-23.685 10.553-23.685 23.607v69.727c0 13.054 10.631 23.685 23.685 23.685h108.73z" fill="#fa72c6" fill-rule="evenodd"/><path id="o" d="m1047.6 232.47c13.054 0 23.607-10.631 23.607-23.685v0-69.727c0-13.054-10.553-23.607-23.607-23.607v0h-108.73c-13.054 0-23.685 10.553-23.685 23.607v0 69.727c0 13.054 10.631 23.685 23.685 23.685v0h108.73z" fill="none" stroke="#000" stroke-linecap="round" stroke-linejoin="round" stroke-width="2.0324px"/><text id="p" x="955.53717" y="181.35194" fill="#ffffff" font-family="Arial" font-size="23.763px" font-weight="bold" xml:space="preserve">Router</text><path id="q" d="m158.92 150.32v47.292h756.28v-47.292h-756.28z" fill="#fa72c6" fill-rule="evenodd"/><path id="r" d="m158.92 197.61h756.28v-47.292h-756.28v47.292z" fill="none" stroke="#000" stroke-linecap="round" stroke-linejoin="round" stroke-width="1.1725px"/><text id="s" x="495.27844" y="181.35194" fill="#ffffff" font-family="Arial" font-size="23.763px" xml:space="preserve">Session</text><path id="t" d="m135.23 420.31c13.054 0 23.685-10.553 23.685-23.607v-69.727c0-13.054-10.631-23.607-23.685-23.607h-108.65c-13.054 0-23.685 10.553-23.685 23.607v69.727c0 13.054 10.631 23.607 23.685 23.607h108.65z" fill="#bdf808" fill-rule="evenodd"/><path id="u" d="m135.23 420.31c13.054 0 23.685-10.553 23.685-23.607v0-69.727c0-13.054-10.631-23.607-23.685-23.607v0h-108.65c-13.054 0-23.685 10.553-23.685 23.607v0 69.727c0 13.054 10.631 23.607 23.685 23.607v0h108.65z" fill="none" stroke="#000" stroke-linecap="round" stroke-linejoin="round" stroke-width="2.0324px"/><text id="v" x="30.016874" y="368.9574" fill="#000000" font-family="Arial" font-size="23.763px" font-weight="bold" xml:space="preserve">Endpoint</text><path id="w" d="m1047.6 420.31c13.054 0 23.607-10.553 23.607-23.607v-69.727c0-13.054-10.553-23.607-23.607-23.607h-108.73c-13.054 0-23.685 10.553-23.685 23.607v69.727c0 13.054 10.631 23.607 23.685 23.607h108.73z" fill="#fa72c6" fill-rule="evenodd"/><path id="x" d="m1047.6 420.31c13.054 0 23.607-10.553 23.607-23.607v0-69.727c0-13.054-10.553-23.607-23.607-23.607v0h-108.73c-13.054 0-23.685 10.553-23.685 23.607v69.727c0 13.054 10.631 23.607 23.685 23.607v0h108.73z" fill="none" stroke="#000" stroke-linecap="round" stroke-linejoin="round" stroke-width="2.0324px"/><text id="y" x="955.53717" y="368.9574" fill="#ffffff" font-family="Arial" font-size="23.763px" font-weight="bold" xml:space="preserve">Router</text><path id="z" d="m253.27 86.455h565.55" fill="none" stroke="#000" stroke-linecap="round" stroke-linejoin="round" stroke-width="2.0324px"/><path id="aa" d="m253.27 251.86h565.55" fill="none" stroke="#000" stroke-linecap="round" stroke-linejoin="round" stroke-width="2.0324px"/><path id="ab" d="m251.55 275.55v165.41h565.55v-165.41h-565.55z" fill="#a6a6a6" fill-rule="evenodd"/><text id="ac" x="456.50662" y="313.92648" fill="#ffffff" font-family="Arial" font-size="20.011px" xml:space="preserve">Logical Transport</text><path id="ad" d="m251.55 275.55h565.55" fill="none" stroke="#000" stroke-linecap="round" stroke-linejoin="round" stroke-width="2.0324px"/><path id="ae" d="m251.55 440.95h565.55" fill="none" stroke="#000" stroke-linecap="round" stroke-linejoin="round" stroke-width="2.0324px"/><path id="af" d="m158.92 338.24v47.214h756.28v-47.214h-756.28z" fill="#fa72c6" fill-rule="evenodd"/><path id="ag" d="m158.92 385.45h756.28v-47.214h-756.28v47.214z" fill="none" stroke="#000" stroke-linecap="round" stroke-linejoin="round" stroke-width="1.1725px"/><text id="ah" x="495.27844" y="368.9574" fill="#ffffff" font-family="Arial" font-size="23.763px" xml:space="preserve">Session</text><path id="ai" d="m227.94 488.24h614.49" fill="none" stroke="#000" stroke-linecap="round" stroke-linejoin="round" stroke-width="3.5958px"/><path id="aj" d="m227.94 3.7521h614.49" fill="none" stroke="#000" stroke-linecap="round" stroke-linejoin="round" stroke-width="3.5958px"/></g></g></svg>
