<?xml version="1.0" encoding="UTF-8"?>
<svg id="a" version="1.1" viewBox="0 0 936.59 887.49" xmlns="http://www.w3.org/2000/svg"><g id="b" transform="translate(118.3 -88.617)"><g id="c" transform="translate(-111.27 86.342)"><path id="d" d="m188.91 308.67v141.72h14.141v-141.72h-14.141z" fill="#fa72c6" fill-rule="evenodd"/><text id="e" x="121.25" y="35" fill="#000000" font-family="Arial" font-size="30px" xml:space="preserve">Peer</text><path id="f" d="m146.41 96.094v779.53h14.141v-779.53h-14.141z" fill="#404040" fill-rule="evenodd"/><path id="g" d="m160.55 166.95v637.73h14.141v-637.73h-14.141z" fill="#737373" fill-rule="evenodd"/><path id="h" d="m174.69 237.81v496.02h14.219v-496.02h-14.219z" fill="#8c8c8c" fill-rule="evenodd"/><path id="i" d="m746.41 96.094v779.53h14.141v-779.53h-14.141z" fill="#404040" fill-rule="evenodd"/><path id="j" d="m732.19 166.95v637.73h14.219v-637.73h-14.219z" fill="#737373" fill-rule="evenodd"/><path id="k" d="m166.88 96.094h573.12" fill="none" stroke="#595959" stroke-linecap="round" stroke-linejoin="round" stroke-width="1.1719px"/><path id="l" d="m160.55 96.094 8.4375-4.2188c-1.3281 2.6562-1.3281 5.7031 0 8.3594l-8.4375-4.1406z" fill="#595959" fill-rule="evenodd"/><path id="m" d="m746.41 96.094-8.4375 4.1406c1.3281-2.6563 1.3281-5.7031 0-8.3594l8.4375 4.2188z" fill="#595959" fill-rule="evenodd"/><path id="n" d="m380.08 65.156v23.984h146.72v-23.984h-146.72z" fill="#fff" fill-rule="evenodd"/><text id="o" x="380" y="83.75" fill="#000000" font-family="Arial" font-size="20px" xml:space="preserve">TCP established</text><path id="p" d="m173.98 166.95h551.88" fill="none" stroke="#595959" stroke-linecap="round" stroke-linejoin="round" stroke-width="1.1719px"/><path id="q" d="m167.66 166.95 8.3594-4.2187c-1.3281 2.6562-1.3281 5.7812 0 8.3594l-8.3594-4.1406z" fill="#595959" fill-rule="evenodd"/><path id="r" d="m732.19 166.95-8.3594 4.1406c1.3281-2.5781 1.3281-5.7031 0-8.3594l8.3594 4.2187z" fill="#595959" fill-rule="evenodd"/><path id="s" d="m378.2 136.02v23.984h143.44v-23.984h-143.44z" fill="#fff" fill-rule="evenodd"/><text id="t" x="378.75" y="153.75" fill="#000000" font-family="Arial" font-size="20px" xml:space="preserve">TLS established</text><path id="u" d="m195.23 237.81 516.41 0.39062" fill="none" stroke="#595959" stroke-linecap="round" stroke-linejoin="round" stroke-width="1.1719px"/><path id="v" d="m188.91 237.81 8.3594-4.2188c-1.3281 2.6562-1.3281 5.7812 0 8.4375l-8.3594-4.2188z" fill="#595959" fill-rule="evenodd"/><path id="w" d="m718.05 238.2-8.4375 4.2188c1.3281-2.6563 1.3281-5.7813 0-8.4375l8.4375 4.2187z" fill="#595959" fill-rule="evenodd"/><path id="x" d="m348.98 231.02 208.98 0.15626v-23.984l-208.98-0.15625v23.984z" fill="#fff" fill-rule="evenodd"/><text id="y" x="348.75" y="225" fill="#000000" font-family="Arial" font-size="20px" xml:space="preserve">W</text><text id="z" x="367.5" y="225" fill="#000000" font-family="Arial" font-size="20px" xml:space="preserve">e</text><text id="aa" x="378.75" y="225" fill="#000000" font-family="Arial" font-size="20px" xml:space="preserve">b</text><text id="ab" x="390" y="225" fill="#000000" font-family="Arial" font-size="20px" xml:space="preserve">S</text><text id="ac" x="403.75" y="225" fill="#000000" font-family="Arial" font-size="20px" xml:space="preserve">o</text><text id="ad" x="415" y="225" fill="#000000" font-family="Arial" font-size="20px" xml:space="preserve">c</text><text id="ae" x="425" y="225" fill="#000000" font-family="Arial" font-size="20px" xml:space="preserve">k</text><text id="af" x="435" y="225" fill="#000000" font-family="Arial" font-size="20px" xml:space="preserve">e</text><text id="ag" x="446.25" y="225" fill="#000000" font-family="Arial" font-size="20px" xml:space="preserve">t</text><text id="ah" x="451.25" y="225" fill="#000000" font-family="Arial" font-size="20px" xml:space="preserve"> </text><text id="ai" x="456.25" y="225" fill="#000000" font-family="Arial" font-size="20px" xml:space="preserve">e</text><text id="aj" x="467.5" y="225" fill="#000000" font-family="Arial" font-size="20px" xml:space="preserve">s</text><text id="ak" x="477.5" y="225" fill="#000000" font-family="Arial" font-size="20px" xml:space="preserve">t</text><text id="al" x="483.75" y="225" fill="#000000" font-family="Arial" font-size="20px" xml:space="preserve">a</text><text id="am" x="495" y="225" fill="#000000" font-family="Arial" font-size="20px" xml:space="preserve">b</text><text id="an" x="506.25" y="225" fill="#000000" font-family="Arial" font-size="20px" xml:space="preserve">l</text><text id="ao" x="510" y="225" fill="#000000" font-family="Arial" font-size="20px" xml:space="preserve">i</text><text id="ap" x="515" y="225" fill="#000000" font-family="Arial" font-size="20px" xml:space="preserve">s</text><text id="aq" x="525" y="225" fill="#000000" font-family="Arial" font-size="20px" xml:space="preserve">h</text><text id="ar" x="536.25" y="225" fill="#000000" font-family="Arial" font-size="20px" xml:space="preserve">e</text><text id="as" x="546.25" y="225" fill="#000000" font-family="Arial" font-size="20px" xml:space="preserve">d</text><path id="at" d="m718.05 238.2v495.62h14.141v-495.62h-14.141z" fill="#8c8c8c" fill-rule="evenodd"/><path id="au" d="m188.91 521.25v141.72h14.141v-141.72h-14.141z" fill="#fa72c6" fill-rule="evenodd"/><path id="av" d="m703.83 308.67v141.72h14.219v-141.72h-14.219z" fill="#fa72c6" fill-rule="evenodd"/><path id="aw" d="m703.83 521.25v141.72h14.219v-141.72h-14.219z" fill="#fa72c6" fill-rule="evenodd"/><path id="ax" d="m210.62 308.67h485.62" fill="none" stroke="#fa72c6" stroke-linecap="round" stroke-linejoin="round" stroke-width="2.0312px"/><path id="ay" d="m203.05 308.67 10-5c-1.5625 3.125-1.5625 6.875 0 10l-10-5z" fill="#fa72c6" fill-rule="evenodd"/><path id="az" d="m703.83 308.67-10 5c1.5625-3.125 1.5625-6.875 0-10l10 5z" fill="#fa72c6" fill-rule="evenodd"/><path id="ba" d="m363.98 277.73v24.062h178.91v-24.062h-178.91z" fill="#fff" fill-rule="evenodd"/><text id="bb" x="363.75" y="296.25" fill="#fa72c6" font-family="Arial" font-size="20px" font-weight="bold" xml:space="preserve">WAMP established</text><path id="bc" d="m210.62 450.39h485.62" fill="none" stroke="#fa72c6" stroke-linecap="round" stroke-linejoin="round" stroke-width="2.0312px"/><path id="bd" d="m203.05 450.39 10-5c-1.5625 3.125-1.5625 6.875 0 10l-10-5z" fill="#fa72c6" fill-rule="evenodd"/><path id="be" d="m703.83 450.39-10 5c1.5625-3.125 1.5625-6.875 0-10l10 5z" fill="#fa72c6" fill-rule="evenodd"/><path id="bf" d="m387.34 419.53v23.984h132.27v-23.984h-132.27z" fill="#fff" fill-rule="evenodd"/><text id="bg" x="387.5" y="437.5" fill="#fa72c6" font-family="Arial" font-size="20px" font-weight="bold" xml:space="preserve">WAMP closed</text><path id="bh" d="m210.62 662.97h485.62" fill="none" stroke="#fa72c6" stroke-linecap="round" stroke-linejoin="round" stroke-width="2.0312px"/><path id="bi" d="m203.05 662.97 10-5c-1.5625 3.2031-1.5625 6.875 0 10l-10-5z" fill="#fa72c6" fill-rule="evenodd"/><path id="bj" d="m703.83 662.97-10 5c1.5625-3.125 1.5625-6.7969 0-10l10 5z" fill="#fa72c6" fill-rule="evenodd"/><path id="bk" d="m387.34 632.11v23.984h132.27v-23.984h-132.27z" fill="#fff" fill-rule="evenodd"/><text id="bl" x="387.5" y="650" fill="#fa72c6" font-family="Arial" font-size="20px" font-weight="bold" xml:space="preserve">WAMP closed</text><path id="bm" d="m210.62 521.25h485.62" fill="none" stroke="#fa72c6" stroke-linecap="round" stroke-linejoin="round" stroke-width="2.0312px"/><path id="bn" d="m203.05 521.25 10-5c-1.5625 3.125-1.5625 6.875 0 10l-10-5z" fill="#fa72c6" fill-rule="evenodd"/><path id="bo" d="m703.83 521.25-10 5c1.5625-3.125 1.5625-6.875 0-10l10 5z" fill="#fa72c6" fill-rule="evenodd"/><path id="bp" d="m363.98 490.39v23.984h178.91v-23.984h-178.91z" fill="#fff" fill-rule="evenodd"/><text id="bq" x="363.75" y="508.75" fill="#fa72c6" font-family="Arial" font-size="20px" font-weight="bold" xml:space="preserve">WAMP established</text><path id="br" d="m195.23 733.44 516.41 0.39062" fill="none" stroke="#595959" stroke-linecap="round" stroke-linejoin="round" stroke-width="1.1719px"/><path id="bs" d="m188.91 733.44 8.3594-4.1406c-1.3281 2.5781-1.3281 5.7031 0 8.3594l-8.3594-4.2188z" fill="#595959" fill-rule="evenodd"/><path id="bt" d="m718.05 733.83-8.4375 4.2188c1.3281-2.6563 1.3281-5.7813 0-8.3594l8.4375 4.1406z" fill="#595959" fill-rule="evenodd"/><path id="bu" d="m370.62 726.72 165.62 0.0781 0.0781-23.984-165.7-0.15625v24.062z" fill="#fff" fill-rule="evenodd"/><text id="bv" x="370" y="721.25" fill="#000000" font-family="Arial" font-size="20px" xml:space="preserve">W</text><text id="bw" x="390" y="721.25" fill="#000000" font-family="Arial" font-size="20px" xml:space="preserve">e</text><text id="bx" x="400" y="721.25" fill="#000000" font-family="Arial" font-size="20px" xml:space="preserve">b</text><text id="by" x="411.25" y="721.25" fill="#000000" font-family="Arial" font-size="20px" xml:space="preserve">S</text><text id="bz" x="425" y="721.25" fill="#000000" font-family="Arial" font-size="20px" xml:space="preserve">o</text><text id="ca" x="436.25" y="721.25" fill="#000000" font-family="Arial" font-size="20px" xml:space="preserve">c</text><text id="cb" x="446.25" y="721.25" fill="#000000" font-family="Arial" font-size="20px" xml:space="preserve">k</text><text id="cc" x="456.25" y="721.25" fill="#000000" font-family="Arial" font-size="20px" xml:space="preserve">e</text><text id="cd" x="467.5" y="721.25" fill="#000000" font-family="Arial" font-size="20px" xml:space="preserve">t</text><text id="ce" x="472.5" y="721.25" fill="#000000" font-family="Arial" font-size="20px" xml:space="preserve"> </text><text id="cf" x="478.75" y="721.25" fill="#000000" font-family="Arial" font-size="20px" xml:space="preserve">c</text><text id="cg" x="488.75" y="721.25" fill="#000000" font-family="Arial" font-size="20px" xml:space="preserve">l</text><text id="ch" x="492.5" y="721.25" fill="#000000" font-family="Arial" font-size="20px" xml:space="preserve">o</text><text id="ci" x="503.75" y="721.25" fill="#000000" font-family="Arial" font-size="20px" xml:space="preserve">s</text><text id="cj" x="513.75" y="721.25" fill="#000000" font-family="Arial" font-size="20px" xml:space="preserve">e</text><text id="ck" x="525" y="721.25" fill="#000000" font-family="Arial" font-size="20px" xml:space="preserve">d</text><path id="cl" d="m181.09 804.69h551.8" fill="none" stroke="#595959" stroke-linecap="round" stroke-linejoin="round" stroke-width="1.1719px"/><path id="cm" d="m174.69 804.69 8.4375-4.1406c-1.3281 2.6562-1.3281 5.7031 0 8.3594l-8.4375-4.2188z" fill="#595959" fill-rule="evenodd"/><path id="cn" d="m739.3 804.69-8.4375 4.2188c1.3281-2.6562 1.3281-5.7031 0-8.3594l8.4375 4.1406z" fill="#595959" fill-rule="evenodd"/><path id="co" d="m406.95 773.83v23.984h100.08v-23.984h-100.08z" fill="#fff" fill-rule="evenodd"/><text id="cp" x="407.5" y="791.25" fill="#000000" font-family="Arial" font-size="20px" xml:space="preserve">TLS closed</text><path id="cq" d="m166.88 875.62h573.12" fill="none" stroke="#595959" stroke-linecap="round" stroke-linejoin="round" stroke-width="1.1719px"/><path id="cr" d="m160.55 875.62 8.4375-4.2188c-1.3281 2.6562-1.3281 5.7031 0 8.3594l-8.4375-4.1406z" fill="#595959" fill-rule="evenodd"/><path id="cs" d="m746.41 875.62-8.4375 4.1406c1.3281-2.6562 1.3281-5.7031 0-8.3594l8.4375 4.2188z" fill="#595959" fill-rule="evenodd"/><path id="ct" d="m401.8 844.69v23.984h103.36v-23.984h-103.36z" fill="#fff" fill-rule="evenodd"/><text id="cu" x="401.25" y="862.5" fill="#000000" font-family="Arial" font-size="20px" xml:space="preserve">TCP closed</text><path id="cv" d="m184.14 733.83h-56.953c-8.9844 0-16.25-7.2656-16.25-16.172v0 0-220.31c0-8.9844-7.2656-16.25-16.25-16.25v0c8.9844 0 16.25-7.2656 16.25-16.25v0-210.78c0-8.9844 7.2656-16.25 16.25-16.25v0h56.953" fill="none" stroke="#000" stroke-linecap="round" stroke-linejoin="round" stroke-width=".39062px"/><text id="cw" x="13.75" y="462.5" fill="#000000" font-family="Arial" font-size="20px" xml:space="preserve">WAMP </text><text id="cx" x="2.5" y="487.5" fill="#000000" font-family="Arial" font-size="20px" xml:space="preserve">Transport </text><text id="cy" x="10" y="511.25" fill="#000000" font-family="Arial" font-size="20px" xml:space="preserve">Lifetime</text><path id="cz" d="m713.28 308.67h66.484c8.9063 0 16.25 7.2656 16.25 16.25v0 0 38.359c0 8.9844 7.2656 16.25 16.172 16.25v0c-8.9062 0-16.172 7.2656-16.172 16.25v0 0 38.359c0 8.9844-7.3437 16.25-16.25 16.25v0h-66.484" fill="none" stroke="#fa72c6" stroke-linecap="round" stroke-linejoin="round" stroke-width="2.0312px"/><text id="da" x="833.75" y="358.75" fill="#fa72c6" font-family="Arial" font-size="23.75px" xml:space="preserve">WAMP </text><text id="db" x="828.75" y="386.25" fill="#fa72c6" font-family="Arial" font-size="23.75px" xml:space="preserve">Session </text><text id="dc" x="830" y="415" fill="#fa72c6" font-family="Arial" font-size="23.75px" xml:space="preserve">Lifetime</text><text id="dd" x="721.25" y="33.75" fill="#000000" font-family="Arial" font-size="30px" xml:space="preserve">Peer</text><path id="de" d="m719.22 521.25h66.406c8.9844 0 16.25 7.2656 16.25 16.25v0 43.125c0 8.9844 7.2656 16.25 16.25 16.25v0c-8.9844 0-16.25 7.2656-16.25 16.172v0 33.672c0 8.9844-7.2656 16.25-16.25 16.25v0 0h-66.406" fill="none" stroke="#fa72c6" stroke-linecap="round" stroke-linejoin="round" stroke-width="2.0312px"/><text id="df" x="840" y="576.25" fill="#fa72c6" font-family="Arial" font-size="23.75px" xml:space="preserve">WAMP </text><text id="dg" x="835" y="603.75" fill="#fa72c6" font-family="Arial" font-size="23.75px" xml:space="preserve">Session </text><text id="dh" x="835" y="631.25" fill="#fa72c6" font-family="Arial" font-size="23.75px" xml:space="preserve">Lifetime</text></g></g></svg>
