<?xml version="1.0" encoding="UTF-8"?>
<svg id="a" version="1.1" viewBox="0 0 863.52 576.76" xmlns="http://www.w3.org/2000/svg"><g id="b" transform="translate(638.53 -134.28)"><path id="c" d="m-438.79 139.77v241.87h420.97v-241.87h-420.97z" fill="#ccc" fill-rule="evenodd" stroke="#d9d9d9"/><path id="d" d="m-599.12 477.87v228.17h760.62v-228.17h-760.62z" fill="#ccc" fill-rule="evenodd"/><path id="e" d="m-608.58 232.79v88.594h118.12v-88.594h-118.12z" fill="#fff" fill-rule="evenodd"/><path id="f" d="m-608.58 321.39h118.12v-88.594h-118.12v88.594z" fill="none" stroke="#000" stroke-linecap="round" stroke-linejoin="round" stroke-width="3.5938px"/><g id="g" fill="#262626"><path id="h" d="m-561.57 255.47h2.0129v8.7884c-1e-5 1.5287-0.17294 2.7427-0.51879 3.642-0.34588 0.89925-0.97017 1.6308-1.8729 2.1945-0.90272 0.56376-2.0873 0.84564-3.5538 0.84564-1.425 0-2.5905-0.24557-3.4967-0.73669-0.90618-0.49113-1.5529-1.2019-1.9403-2.1323-0.38737-0.93037-0.58106-2.2014-0.58106-3.8132v-8.7884h2.0129v8.7781c0 1.3212 0.12278 2.2948 0.36835 2.9208 0.24556 0.62602 0.66752 1.1085 1.2659 1.4474 0.59834 0.33895 1.3298 0.50843 2.1945 0.50842 1.4803 1e-5 2.5352-0.33548 3.1647-1.0065 0.62947-0.67097 0.9442-1.961 0.94422-3.8702z"/><path id="i" d="m-555.85 270.68v-15.211h2.0129v15.211z"/><path id="j" d="m-545.34 265.17c0-2.0406 0.56722-3.552 1.7017-4.5343 0.94767-0.81623 2.1029-1.2244 3.4656-1.2244 1.5149 1e-5 2.7531 0.49633 3.7146 1.489 0.9615 0.99265 1.4422 2.364 1.4423 4.1141-1e-5 1.418-0.21272 2.5335-0.63812 3.3462-0.42543 0.81279-1.0445 1.444-1.8573 1.8936-0.8128 0.44962-1.6999 0.67443-2.6614 0.67443-1.5426 0-2.7894-0.49458-3.7405-1.4838s-1.4267-2.4141-1.4267-4.2749zm1.9196 0c0 1.4111 0.30782 2.4678 0.92346 3.1699s1.3904 1.0532 2.3242 1.0532c0.92691 0 1.6982-0.35278 2.3138-1.0584 0.61563-0.70556 0.92345-1.7812 0.92346-3.2269-1e-5 -1.3627-0.30956-2.3951-0.92865-3.0972-0.6191-0.7021-1.3886-1.0532-2.3086-1.0532-0.93384 1e-5 -1.7086 0.34933-2.3242 1.048-0.61564 0.69866-0.92346 1.7536-0.92346 3.1647z"/><path id="k" d="m-532.83 270.68v-11.019h1.6809v1.6705c0.42887-0.78165 0.82489-1.297 1.188-1.546 0.36316-0.24901 0.76263-0.37352 1.1984-0.37353 0.62947 1e-5 1.2693 0.20061 1.9196 0.60181l-0.64331 1.7328c-0.45655-0.26976-0.91309-0.40465-1.3696-0.40466-0.40812 1e-5 -0.77474 0.12279-1.0998 0.36835-0.32512 0.24557-0.55685 0.58625-0.69519 1.022-0.20752 0.66407-0.31128 1.3904-0.31128 2.179v5.769z"/></g><g id="l" fill="#262626"><path id="m" d="m-590.38 296.93v-15.211h5.7068c1.1621 1e-5 2.0942 0.15392 2.7963 0.46173 0.7021 0.30783 1.252 0.78167 1.6498 1.4215 0.39773 0.63986 0.59661 1.3091 0.59662 2.0078-1e-5 0.65024-0.1764 1.2624-0.52918 1.8366-0.35279 0.57414-0.88542 1.0376-1.5979 1.3904 0.92 0.26978 1.6273 0.72978 2.1219 1.38 0.49458 0.65024 0.74187 1.4181 0.74188 2.3035-1e-5 0.71249-0.15046 1.3748-0.45135 1.987-0.30092 0.61218-0.67272 1.0843-1.1154 1.4163-0.44272 0.33203-0.99783 0.58279-1.6653 0.75226-0.66753 0.16947-1.4855 0.25421-2.4539 0.25421zm2.0129-8.8196h3.2892c0.89233 1e-5 1.5322-0.0588 1.9196-0.17639 0.51187-0.15217 0.89751-0.40466 1.1569-0.75745 0.25939-0.35277 0.38909-0.79548 0.3891-1.3281-1e-5 -0.50496-0.12107-0.94939-0.36316-1.3333-0.24212-0.38389-0.58798-0.64675-1.0376-0.78857-0.44963-0.14179-1.2209-0.21269-2.3138-0.21271h-3.0402zm0 7.0245h3.7872c0.65022 0 1.1068-0.0242 1.3696-0.0726 0.46345-0.083 0.85082-0.22135 1.1621-0.41503 0.31127-0.19369 0.56721-0.47557 0.76782-0.84565 0.20059-0.37007 0.30089-0.79721 0.3009-1.2814-1e-5 -0.56721-0.14527-1.0601-0.43579-1.4786-0.29054-0.41849-0.69347-0.71247-1.2088-0.88195-0.51535-0.16947-1.2572-0.25421-2.2256-0.25422h-3.5174z"/><path id="n" d="m-569.15 295.58c-0.69174 0.58797-1.3575 1.003-1.9974 1.2451-0.63986 0.24211-1.3264 0.36316-2.0596 0.36316-1.2105 0-2.1409-0.29571-2.7911-0.88714s-0.97534-1.3472-0.97534-2.2672c0-0.53955 0.12278-1.0324 0.36835-1.4786 0.24556-0.44616 0.56722-0.80413 0.96496-1.0739 0.39775-0.26977 0.84564-0.47383 1.3437-0.61219 0.36662-0.0968 0.92-0.19022 1.6602-0.28015 1.508-0.17984 2.6182-0.39428 3.3307-0.64331 7e-3 -0.25593 0.0104-0.41849 0.0104-0.48767-1e-5 -0.7609-0.1764-1.297-0.52917-1.6083-0.4773-0.42194-1.1863-0.63292-2.1271-0.63293-0.8785 1e-5 -1.527 0.15392-1.9455 0.46173-0.4185 0.30783-0.72805 0.85257-0.92865 1.6342l-1.8262-0.24903c0.16602-0.78164 0.43925-1.4128 0.81971-1.8936 0.38045-0.48074 0.93037-0.85082 1.6498-1.1102 0.71939-0.25939 1.5529-0.38909 2.5006-0.3891 0.94075 1e-5 1.7051 0.11069 2.2931 0.33203 0.58796 0.22137 1.0203 0.49979 1.297 0.83527 0.27668 0.3355 0.47036 0.75918 0.58105 1.271 0.0623 0.31821 0.0934 0.89235 0.0934 1.7224v2.4902c-1e-5 1.7362 0.0398 2.8344 0.11933 3.2944 0.0795 0.46001 0.23691 0.90098 0.4721 1.3229h-1.9507c-0.19369-0.38737-0.3182-0.84045-0.37353-1.3592zm-0.15564-4.1712c-0.67791 0.2767-1.6948 0.51189-3.0505 0.70557-0.76783 0.11068-1.3108 0.23519-1.629 0.37354-0.3182 0.13835-0.56376 0.34068-0.73669 0.60699-0.17294 0.26632-0.25941 0.56204-0.2594 0.88715-1e-5 0.49805 0.18849 0.91308 0.56549 1.2451 0.37699 0.33204 0.92864 0.49805 1.655 0.49805 0.71939 0 1.3592-0.15737 1.9196-0.47211 0.5603-0.31473 0.97188-0.74533 1.2347-1.2918 0.2006-0.42196 0.3009-1.0445 0.30091-1.8677z"/><path id="o" d="m-557.32 292.9 1.8366 0.23864c-0.20062 1.2659-0.71423 2.2568-1.5408 2.9727-0.82662 0.71594-1.8417 1.0739-3.0453 1.0739-1.508 0-2.7202-0.49285-3.6368-1.4786-0.91655-0.98572-1.3748-2.3986-1.3748-4.2386 0-1.1898 0.19714-2.2308 0.59143-3.1232 0.39428-0.89232 0.99436-1.5616 1.8002-2.0078 0.80586-0.44616 1.6826-0.66924 2.6303-0.66925 1.1967 1e-5 2.1755 0.30264 2.9364 0.9079 0.7609 0.60527 1.2486 1.4648 1.463 2.5784l-1.8158 0.28015c-0.17294-0.74015-0.47903-1.297-0.91827-1.6705-0.43926-0.37353-0.97016-0.5603-1.5927-0.56031-0.94076 1e-5 -1.7051 0.33723-2.2931 1.0117-0.58797 0.67445-0.88196 1.7414-0.88196 3.201 0 1.4803 0.28361 2.556 0.85083 3.2269s1.3074 1.0065 2.2205 1.0065c0.73323 0 1.3454-0.22481 1.8366-0.67444 0.49112-0.44962 0.8024-1.1414 0.93384-2.0752z"/><path id="p" d="m-553.88 296.93v-15.211h1.8677v8.6743l4.4202-4.4824h2.4176l-4.2126 4.0881 4.6381 6.9312h-2.3035l-3.642-5.6342-1.3178 1.2659v4.3683z"/><path id="q" d="m-535.72 293.39 1.9299 0.23864c-0.30437 1.1275-0.86813 2.0026-1.6913 2.6251-0.82317 0.62255-1.8746 0.93383-3.1543 0.93383-1.6117 0-2.8897-0.49631-3.8339-1.489-0.94422-0.99263-1.4163-2.3847-1.4163-4.1763 0-1.8538 0.47729-3.2926 1.4319-4.3164 0.95459-1.0238 2.1928-1.5356 3.7146-1.5356 1.4734 1e-5 2.677 0.50152 3.6108 1.5045 0.93383 1.003 1.4008 2.4142 1.4008 4.2334-1e-5 0.11069-3e-3 0.2767-0.0104 0.49805h-8.2178c0.0692 1.2105 0.41158 2.1375 1.0272 2.7808 0.61564 0.64332 1.3835 0.96497 2.3035 0.96497 0.68481 0 1.2693-0.17985 1.7535-0.53955 0.4842-0.3597 0.86811-0.93384 1.1517-1.7224zm-6.1322-3.0194h6.153c-0.083-0.92692-0.3182-1.6221-0.70556-2.0856-0.5949-0.7194-1.3662-1.0791-2.3138-1.0791-0.85776 1e-5 -1.5789 0.28708-2.1634 0.86121-0.58451 0.57415-0.9079 1.342-0.97015 2.3035z"/><path id="r" d="m-531.43 296.93v-11.019h1.6809v1.5668c0.80932-1.2105 1.9784-1.8158 3.5071-1.8158 0.66405 1e-5 1.2745 0.11933 1.8314 0.35797 0.55683 0.23866 0.9736 0.55167 1.2503 0.93903 0.27669 0.38738 0.47037 0.84738 0.58106 1.38 0.0692 0.34588 0.10375 0.95114 0.10376 1.8158v6.7755h-1.8677v-6.7029c-1e-5 -0.7609-0.0726-1.3298-0.21789-1.7068-0.14527-0.37698-0.40294-0.67789-0.77301-0.90271-0.37009-0.2248-0.80415-0.33721-1.3022-0.33722-0.7955 1e-5 -1.482 0.25249-2.0596 0.75745-0.5776 0.50497-0.8664 1.463-0.86639 2.8741v6.0181z"/><path id="s" d="m-512.46 296.93v-1.3904c-0.69866 1.0929-1.7259 1.6394-3.0817 1.6394-0.87851 0-1.6861-0.2421-2.4228-0.72631-0.7367-0.48422-1.3074-1.1604-1.712-2.0285-0.40466-0.86812-0.607-1.8659-0.60699-2.9935-1e-5 -1.0998 0.1833-2.0977 0.54992-2.9935 0.36662-0.89578 0.91654-1.5823 1.6498-2.0596 0.73323-0.47728 1.5529-0.71593 2.4591-0.71594 0.66406 1e-5 1.2555 0.14009 1.7743 0.42023 0.51879 0.28016 0.94075 0.64505 1.2659 1.0947v-5.4578h1.8573v15.211zm-5.9039-5.4993c0 1.4111 0.29744 2.466 0.89234 3.1647 0.59488 0.69865 1.297 1.048 2.1063 1.048 0.81624 0 1.5097-0.33376 2.0804-1.0013 0.57067-0.66752 0.85601-1.6861 0.85602-3.0557-1e-5 -1.508-0.29054-2.6147-0.87158-3.3203-0.58106-0.70556-1.297-1.0583-2.1478-1.0584-0.83008 1e-5 -1.5235 0.33896-2.0804 1.0168-0.55685 0.6779-0.83527 1.7466-0.83527 3.2062z"/></g><path id="t" d="m-360.53 232.79v88.594h118.05v-88.594h-118.05z" fill="#fff" fill-rule="evenodd"/><path id="u" d="m-360.53 321.39h118.05v-88.594h-118.05v88.594z" fill="none" stroke="#000" stroke-linecap="round" stroke-linejoin="round" stroke-width="3.5938px"/><g id="v" fill="#262626"><path id="w" d="m-341.97 283.18 5.8417-15.211h2.1686l6.2256 15.211h-2.2931l-1.7743-4.6069h-6.3605l-1.6705 4.6069zm4.389-6.2463h5.1569l-1.5875-4.2126c-0.48422-1.2797-0.84392-2.3311-1.0791-3.1543-0.1937 0.97535-0.46693 1.9438-0.81971 2.9053z"/><path id="x" d="m-319.15 279.15 1.8365 0.23864c-0.20061 1.2659-0.71422 2.2568-1.5408 2.9727-0.82663 0.71594-1.8417 1.0739-3.0454 1.0739-1.508 0-2.7202-0.49285-3.6368-1.4786s-1.3748-2.3986-1.3748-4.2386c0-1.1898 0.19714-2.2308 0.59143-3.1232 0.39428-0.89232 0.99436-1.5616 1.8002-2.0078 0.80586-0.44616 1.6826-0.66924 2.6303-0.66925 1.1967 1e-5 2.1755 0.30264 2.9364 0.9079 0.7609 0.60527 1.2486 1.4648 1.463 2.5784l-1.8158 0.28015c-0.17294-0.74015-0.47904-1.297-0.91828-1.6705-0.43925-0.37353-0.97016-0.5603-1.5927-0.56031-0.94076 1e-5 -1.7051 0.33723-2.2931 1.0117-0.58798 0.67445-0.88196 1.7414-0.88196 3.201 0 1.4803 0.28361 2.556 0.85083 3.2269s1.3074 1.0065 2.2205 1.0065c0.73323 0 1.3454-0.22481 1.8366-0.67444 0.49112-0.44962 0.8024-1.1414 0.93384-2.0752z"/><path id="y" d="m-311.64 281.51 0.26978 1.6498c-0.52572 0.11068-0.9961 0.16601-1.4111 0.16601-0.6779 0-1.2036-0.10721-1.5772-0.32165-0.37354-0.21444-0.6364-0.49632-0.78858-0.84564-0.15218-0.34933-0.22827-1.0843-0.22827-2.2049v-6.3397h-1.3696v-1.4526h1.3696v-2.7289l1.8573-1.1206v3.8495h1.878v1.4526h-1.878v6.4435c0 0.53264 0.0329 0.87504 0.0986 1.0272 0.0657 0.15219 0.17293 0.27324 0.32166 0.36316 0.14872 0.0899 0.36142 0.13489 0.63812 0.13489 0.20752 0 0.48075-0.0242 0.8197-0.0726z"/><path id="z" d="m-302.6 283.18v-1.6186c-0.85776 1.2451-2.0233 1.8677-3.4967 1.8677-0.65023 0-1.2572-0.12451-1.821-0.37353s-0.98226-0.56203-1.2555-0.93903c-0.27324-0.37699-0.46519-0.83872-0.57587-1.3852-0.0761-0.36662-0.11414-0.94767-0.11413-1.7432v-6.8274h1.8677v6.1114c0 0.97535 0.038 1.6325 0.11414 1.9714 0.11759 0.49113 0.36661 0.87677 0.74707 1.1569 0.38045 0.28015 0.85082 0.42023 1.4111 0.42023 0.5603 0 1.086-0.14354 1.5772-0.43061 0.49112-0.28706 0.83872-0.67789 1.0428-1.1725s0.30609-1.2123 0.3061-2.153v-5.9039h1.8677v11.019z"/><path id="aa" d="m-290.8 281.83c-0.69174 0.58797-1.3575 1.003-1.9974 1.2451-0.63986 0.24211-1.3264 0.36316-2.0596 0.36316-1.2105 0-2.1409-0.29571-2.7911-0.88714s-0.97534-1.3472-0.97534-2.2672c0-0.53955 0.12278-1.0324 0.36835-1.4786 0.24556-0.44616 0.56721-0.80413 0.96496-1.0739 0.39774-0.26977 0.84564-0.47383 1.3437-0.61219 0.36661-0.0968 0.92-0.19022 1.6602-0.28015 1.508-0.17984 2.6182-0.39428 3.3307-0.64331 7e-3 -0.25593 0.0104-0.41849 0.0104-0.48767-1e-5 -0.7609-0.1764-1.297-0.52917-1.6083-0.47731-0.42194-1.1863-0.63292-2.1271-0.63293-0.8785 1e-5 -1.527 0.15392-1.9455 0.46173-0.41851 0.30783-0.72806 0.85257-0.92865 1.6342l-1.8262-0.24903c0.16602-0.78164 0.43925-1.4128 0.81971-1.8936 0.38045-0.48074 0.93037-0.85082 1.6498-1.1102 0.71939-0.25939 1.5529-0.38909 2.5006-0.3891 0.94074 1e-5 1.7051 0.11069 2.2931 0.33203 0.58796 0.22137 1.0203 0.49979 1.297 0.83527 0.27669 0.3355 0.47037 0.75918 0.58106 1.271 0.0622 0.31821 0.0934 0.89235 0.0934 1.7224v2.4902c-1e-5 1.7362 0.0398 2.8344 0.11933 3.2944 0.0795 0.46001 0.2369 0.90098 0.4721 1.3229h-1.9507c-0.19369-0.38737-0.31821-0.84045-0.37354-1.3592zm-0.15564-4.1712c-0.6779 0.2767-1.6947 0.51189-3.0505 0.70557-0.76783 0.11068-1.3108 0.23519-1.629 0.37354-0.3182 0.13835-0.56377 0.34068-0.7367 0.60699-0.17293 0.26632-0.2594 0.56204-0.25939 0.88715-1e-5 0.49805 0.18849 0.91308 0.56549 1.2451 0.37699 0.33204 0.92864 0.49805 1.655 0.49805 0.7194 0 1.3592-0.15737 1.9196-0.47211 0.5603-0.31473 0.97188-0.74533 1.2347-1.2918 0.2006-0.42196 0.3009-1.0445 0.3009-1.8677z"/><path id="ab" d="m-282.09 281.51 0.26978 1.6498c-0.52572 0.11068-0.9961 0.16601-1.4111 0.16601-0.6779 0-1.2036-0.10721-1.5772-0.32165-0.37354-0.21444-0.6364-0.49632-0.78858-0.84564-0.15218-0.34933-0.22827-1.0843-0.22827-2.2049v-6.3397h-1.3696v-1.4526h1.3696v-2.7289l1.8573-1.1206v3.8495h1.878v1.4526h-1.878v6.4435c0 0.53264 0.0329 0.87504 0.0986 1.0272 0.0657 0.15219 0.17293 0.27324 0.32166 0.36316 0.14872 0.0899 0.36143 0.13489 0.63812 0.13489 0.20752 0 0.48075-0.0242 0.8197-0.0726z"/><path id="ac" d="m-280.97 277.67c0-2.0406 0.56722-3.552 1.7017-4.5343 0.94767-0.81623 2.1029-1.2244 3.4656-1.2244 1.5149 1e-5 2.7531 0.49633 3.7146 1.489 0.96149 0.99265 1.4422 2.364 1.4423 4.1141-1e-5 1.418-0.21272 2.5335-0.63813 3.3462-0.42542 0.81279-1.0445 1.444-1.8573 1.8936-0.81279 0.44962-1.6999 0.67443-2.6614 0.67443-1.5426 0-2.7894-0.49458-3.7405-1.4838-0.95114-0.98918-1.4267-2.4141-1.4267-4.2749zm1.9196 0c-1e-5 1.4111 0.30781 2.4678 0.92346 3.1699 0.61563 0.70211 1.3904 1.0532 2.3242 1.0532 0.92691 0 1.6982-0.35278 2.3138-1.0584 0.61563-0.70556 0.92345-1.7812 0.92346-3.2269-1e-5 -1.3627-0.30956-2.3951-0.92865-3.0972-0.61911-0.7021-1.3887-1.0532-2.3086-1.0532-0.93385 1e-5 -1.7086 0.34933-2.3242 1.048-0.61565 0.69866-0.92347 1.7536-0.92346 3.1647z"/><path id="ad" d="m-268.46 283.18v-11.019h1.6809v1.6705c0.42887-0.78165 0.82489-1.297 1.188-1.546 0.36315-0.24901 0.76263-0.37352 1.1984-0.37353 0.62947 1e-5 1.2693 0.20061 1.9196 0.60181l-0.64331 1.7328c-0.45655-0.26976-0.91309-0.40465-1.3696-0.40466-0.40813 1e-5 -0.77474 0.12279-1.0998 0.36835-0.32512 0.24557-0.55685 0.58625-0.69519 1.022-0.20753 0.66407-0.31129 1.3904-0.31128 2.179v5.769z"/></g><path id="ae" d="m-469.2 525.14v88.594h118.05v-88.594h-118.05z" fill="#fff" fill-rule="evenodd"/><path id="af" d="m-469.2 613.73h118.05v-88.594h-118.05v88.594z" fill="none" stroke="#000" stroke-linecap="round" stroke-linejoin="round" stroke-width="3.5938px"/><g id="ag" fill="#262626"><path id="ah" d="m-443.97 559.93h6.2738c1.4148 1e-5 2.4933 0.10825 3.2355 0.3247 0.9973 0.2938 1.8516 0.81565 2.5629 1.5656 0.71125 0.74993 1.2524 1.668 1.6235 2.7542 0.37108 1.0862 0.55662 2.4256 0.55664 4.0182-2e-5 1.3993-0.17397 2.6054-0.52185 3.6182-0.42523 1.237-1.0321 2.2382-1.8207 3.0035-0.59531 0.57984-1.3993 1.0321-2.4121 1.3568-0.75766 0.23967-1.7704 0.3595-3.0383 0.3595h-6.4594zm3.4326 2.876v11.26h2.5629c0.95865 0 1.6506-0.0541 2.0758-0.16235 0.55663-0.13916 1.0186-0.37496 1.3858-0.7074 0.36722-0.33243 0.6668-0.87941 0.89875-1.6409 0.23192-0.76151 0.34788-1.7994 0.3479-3.1137-2e-5 -1.3143-0.11598-2.3232-0.3479-3.0267-0.23195-0.70352-0.55666-1.2524-0.97413-1.6467-0.41749-0.39427-0.94707-0.661-1.5887-0.80017-0.47934-0.10822-1.4187-0.16234-2.818-0.16236z"/><path id="ai" d="m-419.69 573.01 3.2471 0.54505c-0.41749 1.1906-1.0766 2.0971-1.9772 2.7194-0.90068 0.62235-2.0275 0.93353-3.3804 0.93353-2.1415 0-3.7264-0.69967-4.7546-2.099-0.81177-1.121-1.2176-2.5358-1.2176-4.2444 0-2.041 0.53345-3.6394 1.6003-4.7952 1.0669-1.1558 2.416-1.7337 4.0472-1.7337 1.8323 1e-5 3.278 0.60497 4.3372 1.8149 1.0592 1.2099 1.5655 3.0635 1.5192 5.5606h-8.1641c0.0232 0.9664 0.28604 1.7182 0.78857 2.2556 0.50252 0.53731 1.1287 0.80597 1.8787 0.80597 0.51025 0 0.93933-0.13916 1.2872-0.41748s0.61075-0.72672 0.78858-1.3452zm0.18554-3.2934c-0.0232-0.94319-0.26673-1.6602-0.73059-2.1512-0.46387-0.49091-1.0282-0.73638-1.6931-0.73639-0.71127 1e-5 -1.2988 0.259-1.7627 0.77698-0.46387 0.51799-0.69194 1.2215-0.6842 2.1106z"/><path id="aj" d="m-411.16 568.38-2.9572-0.53345c0.33244-1.1906 0.90454-2.0719 1.7163-2.644 0.81177-0.57209 2.0178-0.85814 3.6182-0.85815 1.4534 1e-5 2.5358 0.17203 3.2471 0.51605 0.71125 0.34404 1.2118 0.78085 1.5018 1.3104 0.2899 0.5296 0.43486 1.5018 0.43487 2.9166l-0.0348 3.8037c-1e-5 1.0824 0.0522 1.8806 0.15656 2.3947 0.10436 0.51412 0.29957 1.065 0.58563 1.6525h-3.2239c-0.0851-0.21647-0.18942-0.53731-0.31311-0.96252-0.0541-0.19328-0.0928-0.32084-0.11596-0.38269-0.55665 0.54117-1.152 0.94706-1.7859 1.2176-0.63396 0.27059-1.3104 0.40588-2.0294 0.40588-1.2679 0-2.2672-0.34403-2.9977-1.0321-0.7306-0.68807-1.0959-1.5578-1.0959-2.6093 0-0.69579 0.16622-1.3162 0.49866-1.8613 0.33243-0.54504 0.79823-0.96252 1.3974-1.2524 0.59916-0.28991 1.4631-0.5431 2.5919-0.75958 1.523-0.28604 2.5783-0.55277 3.1659-0.80017v-0.32471c-1e-5 -0.62621-0.15463-1.0727-0.46387-1.3394-0.30925-0.26672-0.89295-0.40008-1.7511-0.40009-0.57984 1e-5 -1.0321 0.11405-1.3568 0.3421-0.32471 0.22808-0.58757 0.62817-0.78857 1.2003zm4.3604 2.644c-0.41749 0.13917-1.0785 0.30539-1.983 0.49866-0.90455 0.19328-1.496 0.3827-1.7743 0.56824-0.42521 0.30152-0.63782 0.68421-0.63781 1.1481-1e-5 0.45614 0.17008 0.85043 0.51025 1.1829 0.34017 0.33244 0.77311 0.49866 1.2988 0.49866 0.58756 0 1.1481-0.19328 1.6815-0.57984 0.39428-0.29378 0.65327-0.65327 0.77698-1.0785 0.085-0.27831 0.12755-0.80789 0.12756-1.5887z"/><path id="ak" d="m-400.38 576.93v-17.001h3.2587v17.001z"/><path id="al" d="m-386.66 573.01 3.2471 0.54505c-0.41749 1.1906-1.0766 2.0971-1.9772 2.7194-0.90069 0.62235-2.0275 0.93353-3.3804 0.93353-2.1415 0-3.7264-0.69967-4.7546-2.099-0.81177-1.121-1.2176-2.5358-1.2176-4.2444 0-2.041 0.53344-3.6394 1.6003-4.7952 1.0669-1.1558 2.416-1.7337 4.0472-1.7337 1.8323 1e-5 3.278 0.60497 4.3372 1.8149 1.0592 1.2099 1.5655 3.0635 1.5192 5.5606h-8.1641c0.0232 0.9664 0.28605 1.7182 0.78857 2.2556s1.1287 0.80597 1.8787 0.80597c0.51024 0 0.93932-0.13916 1.2872-0.41748 0.34789-0.27832 0.61075-0.72672 0.78857-1.3452zm0.18555-3.2934c-0.0232-0.94319-0.26673-1.6602-0.73059-2.1512-0.46388-0.49091-1.0282-0.73638-1.6931-0.73639-0.71127 1e-5 -1.2988 0.259-1.7627 0.77698-0.46387 0.51799-0.69194 1.2215-0.68421 2.1106z"/><path id="am" d="m-377.45 576.93h-3.2587v-12.316h3.0267v1.7511c0.51798-0.82722 0.98378-1.3723 1.3974-1.6351 0.41361-0.26284 0.88328-0.39427 1.409-0.39428 0.74218 1e-5 1.4573 0.20488 2.1454 0.61462l-1.0089 2.8412c-0.54891-0.35563-1.0592-0.53344-1.5308-0.53345-0.45614 1e-5 -0.8427 0.12564-1.1597 0.37689-0.31698 0.25127-0.56631 0.70547-0.74798 1.3626-0.18169 0.65715-0.27253 2.0333-0.27252 4.1284z"/></g><path id="an" d="m-549.51 321.39v248.05h58.828" fill="none" stroke="#000" stroke-linecap="round" stroke-linejoin="round" stroke-width="3.5938px"/><path id="ao" d="m-492.64 561.62 23.438 7.8125-23.438 7.7344v-15.547z" fill-rule="evenodd"/><path id="ap" d="m-351.16 569.43h49.609v-226.64" fill="none" stroke="#000" stroke-linecap="round" stroke-linejoin="round" stroke-width="3.5938px"/><path id="aq" d="m-309.28 344.75 7.7344-23.359 7.8125 23.359h-15.547z" fill-rule="evenodd"/><path id="ar" d="m-218.81 232.79v88.594h118.12v-88.594h-118.12z" fill="#fff" fill-rule="evenodd"/><path id="as" d="m-218.81 321.39h118.12v-88.594h-118.12v88.594z" fill="none" stroke="#000" stroke-linecap="round" stroke-linejoin="round" stroke-width="3.5938px"/><g id="at" fill="#262626"><path id="au" d="m-195.87 278.97 2.1222-0.18554c0.1005 0.85043 0.33437 1.5482 0.7016 2.0932 0.36722 0.54504 0.93739 0.98572 1.7105 1.322 0.7731 0.33631 1.6428 0.50446 2.6092 0.50446 0.85815 0 1.6158-0.12757 2.273-0.3827 0.65713-0.25512 1.1461-0.60495 1.467-1.0495 0.32083-0.44454 0.48125-0.92967 0.48126-1.4554-1e-5 -0.53344-0.15463-0.99924-0.46386-1.3974-0.30926-0.39814-0.81951-0.73251-1.5308-1.0031-0.45614-0.17781-1.465-0.4542-3.0267-0.82916-1.5617-0.37495-2.6556-0.72865-3.2819-1.0611-0.81177-0.4252-1.4167-0.95285-1.8149-1.583-0.39816-0.63007-0.59723-1.3355-0.59723-2.1164 0-0.85814 0.24353-1.6602 0.73059-2.4063 0.48706-0.74604 1.1983-1.3123 2.1338-1.6989 0.93546-0.38653 1.9753-0.57981 3.1195-0.57983 1.2602 2e-5 2.3715 0.20296 3.334 0.60883 0.96252 0.4059 1.7028 1.0031 2.2208 1.7917 0.51797 0.78859 0.79629 1.6815 0.83496 2.6788l-2.157 0.16235c-0.11598-1.0746-0.50834-1.8864-1.1771-2.4353-0.66875-0.5489-1.6564-0.82335-2.963-0.82337-1.3607 2e-5 -2.3522 0.24935-2.9746 0.74799-0.62236 0.49867-0.93353 1.0998-0.93353 1.8033 0 0.61077 0.22033 1.1133 0.66101 1.5076 0.43294 0.3943 1.5636 0.79825 3.392 1.2118 1.8284 0.41363 3.0828 0.77506 3.7631 1.0843 0.98957 0.45615 1.7202 1.034 2.1918 1.7337 0.47159 0.69967 0.70739 1.5056 0.7074 2.4179-1e-5 0.90455-0.25901 1.7569-0.77698 2.5571-0.51799 0.80018-1.2621 1.4225-2.2324 1.8671-0.97026 0.44454-2.0623 0.66681-3.2761 0.66681-1.5385 0-2.8277-0.22421-3.8675-0.67261-1.0398-0.4484-1.8555-1.1229-2.4469-2.0236-0.59143-0.90067-0.90261-1.9192-0.93353-3.0557z"/><path id="av" d="m-171.08 280.47 2.157 0.26672c-0.34018 1.2602-0.97027 2.2382-1.8903 2.934-0.92001 0.6958-2.0951 1.0437-3.5254 1.0437-1.8014 0-3.2297-0.55471-4.285-1.6641-1.0553-1.1094-1.583-2.6653-1.583-4.6677 0-2.0719 0.53345-3.68 1.6003-4.8242 1.0669-1.1442 2.4508-1.7163 4.1516-1.7163 1.6467 1e-5 2.9919 0.56051 4.0356 1.6815 1.0437 1.121 1.5655 2.6982 1.5656 4.7314-1e-5 0.1237-4e-3 0.30925-0.0116 0.55664h-9.1846c0.0773 1.353 0.46 2.3889 1.1481 3.1079 0.68807 0.719 1.5462 1.0785 2.5745 1.0785 0.76537 0 1.4186-0.20101 1.9598-0.60303 0.54117-0.40201 0.97024-1.0437 1.2872-1.925zm-6.8536-3.3746h6.8768c-0.0928-1.036-0.35564-1.8129-0.78857-2.3309-0.66489-0.80403-1.5269-1.206-2.5861-1.2061-0.95867 2e-5 -1.7646 0.32086-2.4179 0.96253-0.65328 0.64169-1.0147 1.4998-1.0843 2.5745z"/><path id="aw" d="m-166.29 284.43v-12.316h1.8787v1.7511c0.90454-1.3529 2.2111-2.0294 3.9197-2.0294 0.74218 1e-5 1.4244 0.13337 2.0468 0.40008 0.62235 0.26674 1.0881 0.61657 1.3974 1.0495 0.30923 0.43295 0.5257 0.94707 0.64941 1.5424 0.0773 0.38656 0.11596 1.063 0.11597 2.0294v7.5726h-2.0874v-7.4914c-1e-5 -0.85042-0.0812-1.4863-0.24353-1.9077-0.16236-0.42133-0.45035-0.75764-0.86395-1.0089-0.41363-0.25125-0.89875-0.37688-1.4554-0.37689-0.88908 1e-5 -1.6564 0.28219-2.3019 0.84656-0.64555 0.56438-0.96832 1.6351-0.96832 3.2123v6.7261z"/><path id="ax" d="m-153.9 280.76 2.0642-0.3247c0.11596 0.82723 0.43874 1.4612 0.96832 1.9018 0.52958 0.44068 1.2698 0.66101 2.2208 0.66101 0.95865 0 1.6699-0.19521 2.1338-0.58563 0.46385-0.39042 0.69579-0.84849 0.6958-1.3742-1e-5 -0.47159-0.20489-0.84268-0.61463-1.1133-0.28606-0.18554-0.99732-0.42134-2.1338-0.7074-1.5308-0.38655-2.5919-0.72092-3.1833-1.0031-0.59143-0.28218-1.0398-0.6726-1.3452-1.1713-0.30538-0.49865-0.45807-1.0495-0.45807-1.6525 0-0.5489 0.12563-1.0572 0.37689-1.525 0.25126-0.46772 0.59336-0.85621 1.0263-1.1655 0.3247-0.23965 0.76731-0.44259 1.3278-0.60883 0.5605-0.1662 1.1616-0.24931 1.8033-0.24932 0.96639 1e-5 1.8149 0.13917 2.5455 0.41748 0.73059 0.27833 1.2698 0.65522 1.6177 1.1307 0.34789 0.47548 0.58756 1.1114 0.71899 1.9077l-2.041 0.27832c-0.0928-0.63395-0.36144-1.1287-0.80597-1.4844-0.44455-0.35562-1.0727-0.53343-1.8845-0.53345-0.95866 2e-5 -1.6429 0.1585-2.0526 0.47547-0.40976 0.31698-0.61463 0.68808-0.61463 1.1133 0 0.2706 0.085 0.51413 0.25513 0.73059 0.17008 0.22421 0.4368 0.40976 0.80017 0.55664 0.20874 0.0773 0.82336 0.25514 1.8439 0.53345 1.4766 0.39429 2.5068 0.71707 3.0905 0.96832 0.58369 0.25127 1.0418 0.61656 1.3742 1.0959 0.33243 0.47933 0.49865 1.0746 0.49866 1.7859-1e-5 0.6958-0.20295 1.351-0.60882 1.9656-0.4059 0.61463-0.99153 1.0901-1.7569 1.4264-0.76539 0.3363-1.6313 0.50445-2.5977 0.50445-1.6003 0-2.8199-0.33244-3.6588-0.99731-0.83883-0.66488-1.3742-1.6506-1.6061-2.9572z"/><path id="ay" d="m-141.97 278.28c0-2.2807 0.63395-3.9699 1.9019-5.0678 1.0592-0.91226 2.3502-1.3684 3.8733-1.3684 1.6931 1e-5 3.077 0.55472 4.1516 1.6641 1.0746 1.1094 1.6119 2.6421 1.6119 4.5981-1e-5 1.5849-0.23774 2.8315-0.7132 3.7399-0.47547 0.90841-1.1674 1.6139-2.0758 2.1164-0.90842 0.50252-1.8999 0.75378-2.9746 0.75378-1.724 0-3.1176-0.55277-4.1806-1.6583-1.063-1.1056-1.5946-2.6982-1.5946-4.7778zm2.1454 0c0 1.5772 0.34403 2.7581 1.0321 3.5428s1.554 1.1771 2.5977 1.1771c1.036 0 1.898-0.39428 2.5861-1.1829 0.68806-0.78857 1.0321-1.9908 1.0321-3.6066-1e-5 -1.523-0.34597-2.6769-1.0379-3.4616-0.69194-0.78469-1.552-1.177-2.5803-1.1771-1.0437 1e-5 -1.9096 0.39043-2.5977 1.1713-0.68807 0.78085-1.0321 1.9598-1.0321 3.537z"/><path id="az" d="m-127.99 284.43v-12.316h1.8787v1.8671c0.47933-0.8736 0.92194-1.4496 1.3278-1.7279 0.40588-0.27831 0.85235-0.41747 1.3394-0.41748 0.70353 1e-5 1.4186 0.22421 2.1454 0.6726l-0.719 1.9366c-0.51026-0.3015-1.0205-0.45226-1.5308-0.45227-0.45614 1e-5 -0.86589 0.13724-1.2292 0.41168-0.36336 0.27447-0.62236 0.65522-0.77697 1.1423-0.23194 0.7422-0.34791 1.554-0.34791 2.4353v6.4478z"/></g><path id="ba" d="m29.235 232.79v88.594h118.05v-88.594h-118.05z" fill="#fff" fill-rule="evenodd"/><path id="bb" d="m29.235 321.39h118.05v-88.594h-118.05v88.594z" fill="none" stroke="#000" stroke-linecap="round" stroke-linejoin="round" stroke-width="3.5938px"/><g id="bc" fill="#262626"><path id="bd" d="m75.934 255.47h2.0129v8.7884c-1.4e-5 1.5287-0.17295 2.7427-0.5188 3.642-0.34588 0.89925-0.97017 1.6308-1.8729 2.1945-0.90272 0.56376-2.0873 0.84564-3.5538 0.84564-1.425 0-2.5905-0.24557-3.4967-0.73669-0.90617-0.49113-1.5529-1.2019-1.9403-2.1323-0.38737-0.93037-0.58106-2.2014-0.58106-3.8132v-8.7884h2.0129v8.7781c-4e-6 1.3212 0.12278 2.2948 0.36835 2.9208 0.24556 0.62602 0.66752 1.1085 1.2659 1.4474 0.59834 0.33895 1.3298 0.50843 2.1945 0.50842 1.4803 1e-5 2.5352-0.33548 3.1647-1.0065 0.62946-0.67097 0.9442-1.961 0.94421-3.8702z"/><path id="be" d="m81.651 270.68v-15.211h2.0129v15.211z"/><path id="bf" d="m92.162 265.17c-1e-6 -2.0406 0.56722-3.552 1.7017-4.5343 0.94767-0.81623 2.1029-1.2244 3.4656-1.2244 1.5149 1e-5 2.7531 0.49633 3.7146 1.489 0.9615 0.99265 1.4422 2.364 1.4423 4.1141-1e-5 1.418-0.21272 2.5335-0.63812 3.3462-0.42543 0.81279-1.0445 1.444-1.8573 1.8936-0.81279 0.44962-1.6999 0.67443-2.6614 0.67443-1.5426 0-2.7894-0.49458-3.7405-1.4838-0.95113-0.98918-1.4267-2.4141-1.4267-4.2749zm1.9196 0c-3e-6 1.4111 0.30782 2.4678 0.92346 3.1699 0.61564 0.70211 1.3904 1.0532 2.3242 1.0532 0.92691 0 1.6982-0.35278 2.3138-1.0584 0.61563-0.70556 0.92345-1.7812 0.92346-3.2269-1e-5 -1.3627-0.30955-2.3951-0.92865-3.0972-0.61911-0.7021-1.3887-1.0532-2.3087-1.0532-0.93384 1e-5 -1.7086 0.34933-2.3242 1.048-0.61564 0.69866-0.92346 1.7536-0.92346 3.1647z"/><path id="bg" d="m104.67 270.68v-11.019h1.6809v1.6705c0.42887-0.78165 0.82489-1.297 1.188-1.546 0.36316-0.24901 0.76263-0.37352 1.1984-0.37353 0.62947 1e-5 1.2693 0.20061 1.9196 0.60181l-0.64331 1.7328c-0.45655-0.26976-0.91309-0.40465-1.3696-0.40466-0.40812 1e-5 -0.77474 0.12279-1.0998 0.36835-0.32512 0.24557-0.55685 0.58625-0.69519 1.022-0.20752 0.66407-0.31128 1.3904-0.31128 2.179v5.769z"/></g><g id="bh" fill="#262626"><path id="bi" d="m47.12 296.93v-15.211h5.7068c1.1621 1e-5 2.0942 0.15392 2.7963 0.46173 0.7021 0.30783 1.252 0.78167 1.6498 1.4215 0.39773 0.63986 0.59661 1.3091 0.59662 2.0078-1.2e-5 0.65024-0.1764 1.2624-0.52918 1.8366-0.35279 0.57414-0.88543 1.0376-1.5979 1.3904 0.91999 0.26978 1.6273 0.72978 2.1219 1.38 0.49458 0.65024 0.74187 1.4181 0.74188 2.3035-1.3e-5 0.71249-0.15046 1.3748-0.45136 1.987-0.30092 0.61218-0.67272 1.0843-1.1154 1.4163-0.44272 0.33203-0.99783 0.58279-1.6653 0.75226-0.66753 0.16947-1.4855 0.25421-2.4539 0.25421zm2.0129-8.8196h3.2892c0.89233 1e-5 1.5322-0.0588 1.9196-0.17639 0.51187-0.15217 0.89751-0.40466 1.1569-0.75745 0.25939-0.35277 0.38909-0.79548 0.3891-1.3281-1.1e-5 -0.50496-0.12106-0.94939-0.36316-1.3333-0.24212-0.38389-0.58798-0.64675-1.0376-0.78857-0.44963-0.14179-1.2209-0.21269-2.3138-0.21271h-3.0402zm0 7.0245h3.7872c0.65022 0 1.1068-0.0242 1.3696-0.0726 0.46345-0.083 0.85082-0.22135 1.1621-0.41503 0.31127-0.19369 0.56721-0.47557 0.76782-0.84565 0.20059-0.37007 0.30089-0.79721 0.3009-1.2814-1.1e-5 -0.56721-0.14527-1.0601-0.43579-1.4786-0.29054-0.41849-0.69347-0.71247-1.2088-0.88195-0.51535-0.16947-1.2572-0.25421-2.2256-0.25422h-3.5175z"/><path id="bj" d="m68.349 295.58c-0.69174 0.58797-1.3575 1.003-1.9974 1.2451-0.63986 0.24211-1.3264 0.36316-2.0596 0.36316-1.2105 0-2.1409-0.29571-2.7911-0.88714-0.65023-0.59143-0.97534-1.3472-0.97534-2.2672-1e-6 -0.53955 0.12278-1.0324 0.36835-1.4786 0.24556-0.44616 0.56722-0.80413 0.96497-1.0739 0.39774-0.26977 0.84564-0.47383 1.3437-0.61219 0.36661-0.0968 0.92-0.19022 1.6602-0.28015 1.508-0.17984 2.6182-0.39428 3.3307-0.64331 0.0069-0.25593 0.01037-0.41849 0.01038-0.48767-9e-6 -0.7609-0.1764-1.297-0.52918-1.6083-0.4773-0.42194-1.1863-0.63292-2.1271-0.63293-0.8785 1e-5 -1.527 0.15392-1.9455 0.46173-0.4185 0.30783-0.72805 0.85257-0.92865 1.6342l-1.8262-0.24903c0.16602-0.78164 0.43925-1.4128 0.8197-1.8936 0.38045-0.48074 0.93038-0.85082 1.6498-1.1102 0.7194-0.25939 1.5529-0.38909 2.5006-0.3891 0.94075 1e-5 1.7051 0.11069 2.2931 0.33203 0.58796 0.22137 1.0203 0.49979 1.297 0.83527 0.27668 0.3355 0.47037 0.75918 0.58106 1.271 0.06224 0.31821 0.09337 0.89235 0.09338 1.7224v2.4902c-1.1e-5 1.7362 0.03976 2.8344 0.11932 3.2944 0.07954 0.46001 0.23691 0.90098 0.47211 1.3229h-1.9507c-0.19369-0.38737-0.31821-0.84045-0.37354-1.3592zm-0.15564-4.1712c-0.6779 0.2767-1.6948 0.51189-3.0505 0.70557-0.76783 0.11068-1.3108 0.23519-1.629 0.37354-0.3182 0.13835-0.56376 0.34068-0.73669 0.60699-0.17294 0.26632-0.2594 0.56204-0.2594 0.88715-3e-6 0.49805 0.18849 0.91308 0.56549 1.2451 0.37699 0.33204 0.92865 0.49805 1.655 0.49805 0.7194 0 1.3592-0.15737 1.9196-0.47211 0.5603-0.31473 0.97188-0.74533 1.2347-1.2918 0.20059-0.42196 0.3009-1.0445 0.3009-1.8677z"/><path id="bk" d="m80.177 292.9 1.8365 0.23864c-0.20061 1.2659-0.71422 2.2568-1.5408 2.9727-0.82663 0.71594-1.8417 1.0739-3.0453 1.0739-1.508 0-2.7202-0.49285-3.6368-1.4786-0.91655-0.98572-1.3748-2.3986-1.3748-4.2386-1e-6 -1.1898 0.19714-2.2308 0.59143-3.1232 0.39428-0.89232 0.99436-1.5616 1.8002-2.0078 0.80586-0.44616 1.6826-0.66924 2.6303-0.66925 1.1967 1e-5 2.1755 0.30264 2.9364 0.9079 0.7609 0.60527 1.2486 1.4648 1.463 2.5784l-1.8158 0.28015c-0.17294-0.74015-0.47903-1.297-0.91827-1.6705-0.43926-0.37353-0.97016-0.5603-1.5927-0.56031-0.94076 1e-5 -1.7051 0.33723-2.2931 1.0117-0.58798 0.67445-0.88196 1.7414-0.88196 3.201-3e-6 1.4803 0.28361 2.556 0.85083 3.2269 0.56722 0.67098 1.3074 1.0065 2.2205 1.0065 0.73323 0 1.3454-0.22481 1.8365-0.67444 0.49112-0.44962 0.8024-1.1414 0.93384-2.0752z"/><path id="bl" d="m83.622 296.93v-15.211h1.8677v8.6743l4.4202-4.4824h2.4176l-4.2126 4.0881 4.6381 6.9312h-2.3035l-3.642-5.6342-1.3177 1.2659v4.3683z"/><path id="bm" d="m101.78 293.39 1.9299 0.23864c-0.30437 1.1275-0.86813 2.0026-1.6913 2.6251-0.82317 0.62255-1.8746 0.93383-3.1543 0.93383-1.6117 0-2.8897-0.49631-3.8339-1.489-0.94422-0.99263-1.4163-2.3847-1.4163-4.1763 0-1.8538 0.47729-3.2926 1.4319-4.3164 0.95459-1.0238 2.1928-1.5356 3.7146-1.5356 1.4734 1e-5 2.677 0.50152 3.6108 1.5045 0.93383 1.003 1.4008 2.4142 1.4008 4.2334-1e-5 0.11069-3e-3 0.2767-0.0104 0.49805h-8.2178c0.06917 1.2105 0.41158 2.1375 1.0272 2.7808 0.61564 0.64332 1.3835 0.96497 2.3035 0.96497 0.68481 0 1.2693-0.17985 1.7535-0.53955 0.4842-0.3597 0.86811-0.93384 1.1517-1.7224zm-6.1322-3.0194h6.1529c-0.083-0.92692-0.3182-1.6221-0.70556-2.0856-0.5949-0.7194-1.3662-1.0791-2.3138-1.0791-0.85775 1e-5 -1.5789 0.28708-2.1634 0.86121-0.58452 0.57415-0.9079 1.342-0.97015 2.3035z"/><path id="bn" d="m106.07 296.93v-11.019h1.6809v1.5668c0.80932-1.2105 1.9784-1.8158 3.5071-1.8158 0.66405 1e-5 1.2745 0.11933 1.8314 0.35797 0.55683 0.23866 0.9736 0.55167 1.2503 0.93903 0.27669 0.38738 0.47037 0.84738 0.58106 1.38 0.0692 0.34588 0.10375 0.95114 0.10376 1.8158v6.7755h-1.8677v-6.7029c-1e-5 -0.7609-0.0726-1.3298-0.21789-1.7068-0.14527-0.37698-0.40294-0.67789-0.77301-0.90271-0.37009-0.2248-0.80415-0.33721-1.3022-0.33722-0.79549 1e-5 -1.482 0.25249-2.0596 0.75745-0.5776 0.50497-0.8664 1.463-0.86639 2.8741v6.0181z"/><path id="bo" d="m125.04 296.93v-1.3904c-0.69865 1.0929-1.7259 1.6394-3.0817 1.6394-0.87851 0-1.6861-0.2421-2.4228-0.72631-0.7367-0.48422-1.3074-1.1604-1.712-2.0285-0.40466-0.86812-0.60699-1.8659-0.60699-2.9935 0-1.0998 0.1833-2.0977 0.54992-2.9935 0.36662-0.89578 0.91655-1.5823 1.6498-2.0596 0.73324-0.47728 1.5529-0.71593 2.4591-0.71594 0.66406 1e-5 1.2555 0.14009 1.7743 0.42023 0.51879 0.28016 0.94075 0.64505 1.2659 1.0947v-5.4578h1.8573v15.211zm-5.9039-5.4993c0 1.4111 0.29744 2.466 0.89234 3.1647 0.59488 0.69865 1.297 1.048 2.1063 1.048 0.81624 0 1.5097-0.33376 2.0804-1.0013 0.57067-0.66752 0.85601-1.6861 0.85602-3.0557-1e-5 -1.508-0.29054-2.6147-0.87158-3.3203-0.58106-0.70556-1.297-1.0583-2.1478-1.0584-0.83008 1e-5 -1.5235 0.33896-2.0804 1.0168-0.55685 0.6779-0.83527 1.7466-0.83527 3.2062z"/></g><path id="bp" d="m-79.437 525.14v88.594h118.05v-88.594h-118.05z" fill="#fff" fill-rule="evenodd"/><path id="bq" d="m-79.437 613.73h118.05v-88.594h-118.05v88.594z" fill="none" stroke="#000" stroke-linecap="round" stroke-linejoin="round" stroke-width="3.5938px"/><g id="br" fill="#262626"><path id="bs" d="m-56.447 559.93h6.7957c1.3452 1e-5 2.3483 0.0561 3.0093 0.16815 0.661 0.11212 1.2524 0.34598 1.7743 0.7016 0.52184 0.35565 0.95671 0.82918 1.3046 1.4206 0.34788 0.59145 0.52184 1.2544 0.52185 1.9888-1.6e-5 0.79632-0.21455 1.5269-0.64362 2.1918-0.42909 0.66488-1.0109 1.1635-1.7453 1.496 1.036 0.30152 1.8323 0.81564 2.3889 1.5424 0.55662 0.72673 0.83494 1.581 0.83496 2.5629-1.6e-5 0.77312-0.17976 1.525-0.53925 2.2556-0.35951 0.73059-0.85044 1.3143-1.4728 1.7511-0.62237 0.43681-1.3897 0.70547-2.3019 0.80597-0.57211 0.0619-1.9521 0.10051-4.14 0.11597h-5.7867zm3.4326 2.8296v3.9313h2.2498c1.3375 1e-5 2.1686-0.0193 2.4933-0.058 0.58756-0.0696 1.0495-0.27251 1.3858-0.60883 0.33629-0.33629 0.50444-0.7789 0.50446-1.3278-1.2e-5 -0.5257-0.14497-0.95284-0.43488-1.2814-0.28993-0.32856-0.72094-0.52763-1.293-0.59723-0.34018-0.0386-1.3182-0.058-2.934-0.058zm0 6.7609v4.5459h3.1775c1.237 0 2.0217-0.0348 2.3541-0.10437 0.51024-0.0928 0.92579-0.31891 1.2466-0.67841 0.32083-0.35949 0.48125-0.84075 0.48126-1.4438-1.3e-5 -0.51025-0.12371-0.94319-0.37109-1.2988-0.24741-0.35562-0.60497-0.61462-1.0727-0.77698-0.46774-0.16234-1.4825-0.24352-3.0441-0.24353z"/><path id="bt" d="m-36.199 576.93h-3.2587v-12.316h3.0267v1.7511c0.51798-0.82722 0.98378-1.3723 1.3974-1.6351 0.41361-0.26284 0.88327-0.39427 1.409-0.39428 0.74218 1e-5 1.4573 0.20488 2.1454 0.61462l-1.0089 2.8412c-0.54892-0.35563-1.0592-0.53344-1.5308-0.53345-0.45614 1e-5 -0.8427 0.12564-1.1597 0.37689-0.31698 0.25127-0.56631 0.70547-0.74798 1.3626-0.18169 0.65715-0.27253 2.0333-0.27252 4.1284z"/><path id="bu" d="m-30.842 570.6c-1e-6 -1.0824 0.26672-2.1299 0.80017-3.1427 0.53344-1.0128 1.2892-1.7859 2.2672-2.3193 0.97798-0.53344 2.07-0.80016 3.2761-0.80017 1.8632 1e-5 3.3901 0.60497 4.5807 1.8149 1.1906 1.2099 1.7859 2.7388 1.7859 4.5865-1.4e-5 1.8632-0.60111 3.4075-1.8033 4.6329-1.2022 1.2254-2.7156 1.8381-4.5401 1.8381-1.1288 0-2.2053-0.25513-3.2297-0.76538-1.0244-0.51025-1.8033-1.2582-2.3367-2.244-0.53345-0.98571-0.80017-2.186-0.80017-3.6008zm3.3398 0.17395c-4e-6 1.2215 0.28991 2.157 0.86975 2.8064 0.57983 0.64942 1.295 0.97412 2.1454 0.97412 0.85042 0 1.5636-0.3247 2.1396-0.97412 0.57596-0.64941 0.86394-1.5926 0.86395-2.8296-1e-5 -1.206-0.28799-2.1338-0.86395-2.7832-0.57598-0.64941-1.2892-0.97411-2.1396-0.97412-0.85043 1e-5 -1.5656 0.32471-2.1454 0.97412-0.57984 0.64942-0.86976 1.5849-0.86975 2.8064z"/><path id="bv" d="m-15.685 576.93v-17.001h3.2587v9.0222l3.8153-4.3372h4.0125l-4.2096 4.4995 4.5111 7.8162h-3.5138l-3.0963-5.5316-1.5192 1.5888v3.9429z"/><path id="bw" d="m4.7832 573.01 3.2471 0.54505c-0.41749 1.1906-1.0766 2.0971-1.9772 2.7194-0.90068 0.62235-2.0275 0.93353-3.3804 0.93353-2.1415 0-3.7264-0.69967-4.7546-2.099-0.81177-1.121-1.2177-2.5358-1.2177-4.2444-8e-7 -2.041 0.53345-3.6394 1.6003-4.7952 1.0669-1.1558 2.416-1.7337 4.0472-1.7337 1.8323 1e-5 3.278 0.60497 4.3372 1.8149 1.0592 1.2099 1.5655 3.0635 1.5192 5.5606h-8.1641c0.023189 0.9664 0.28605 1.7182 0.78857 2.2556 0.50252 0.53731 1.1287 0.80597 1.8787 0.80597 0.51025 0 0.93932-0.13916 1.2872-0.41748 0.34789-0.27832 0.61075-0.72672 0.78857-1.3452zm0.18555-3.2934c-0.023202-0.94319-0.26673-1.6602-0.73059-2.1512-0.46388-0.49091-1.0282-0.73638-1.6931-0.73639-0.71127 1e-5 -1.2988 0.259-1.7627 0.77698-0.46387 0.51799-0.69194 1.2215-0.6842 2.1106z"/><path id="bx" d="m13.991 576.93h-3.2587v-12.316h3.0267v1.7511c0.51798-0.82722 0.98378-1.3723 1.3974-1.6351 0.41361-0.26284 0.88327-0.39427 1.409-0.39428 0.74218 1e-5 1.4573 0.20488 2.1454 0.61462l-1.0089 2.8412c-0.54892-0.35563-1.0592-0.53344-1.5308-0.53345-0.45614 1e-5 -0.8427 0.12564-1.1597 0.37689-0.31698 0.25127-0.56631 0.70547-0.74799 1.3626-0.18169 0.65715-0.27253 2.0333-0.27252 4.1284z"/></g><path id="by" d="m-159.75 321.39v248.05h58.828" fill="none" stroke="#000" stroke-linecap="round" stroke-linejoin="round" stroke-width="3.5938px"/><path id="bz" d="m-102.87 561.62 23.438 7.8125-23.438 7.7344v-15.547z" fill-rule="evenodd"/><path id="ca" d="m38.61 569.43h49.609v-226.64" fill="none" stroke="#000" stroke-linecap="round" stroke-linejoin="round" stroke-width="3.5938px"/><path id="cb" d="m80.485 344.75 7.7344-23.359 7.8125 23.359h-15.547z" fill-rule="evenodd"/><path id="cc" d="m-369.98 430.61c0-13.047 10.547-23.594 23.594-23.594 13.047 0 23.594 10.547 23.594 23.594 0 13.047-10.547 23.672-23.594 23.672-13.047 0-23.594-10.625-23.594-23.672" fill="#fff" fill-rule="evenodd"/><path id="cd" d="m-369.98 430.61c0-13.047 10.547-23.594 23.594-23.594 13.047 0 23.594 10.547 23.594 23.594v0c0 13.047-10.547 23.672-23.594 23.672-13.047 0-23.594-10.625-23.594-23.672" fill="none" stroke="#000" stroke-linecap="round" stroke-linejoin="round" stroke-width="3.5938px"/><g id="ce"><path id="cf" d="m-343.26 439.43h-2.6367v-16.802c-0.63477 0.60549-1.4673 1.211-2.4976 1.8164-1.0303 0.60548-1.9556 1.0596-2.7759 1.3623v-2.5488c1.4746-0.69335 2.7637-1.5332 3.8672-2.5195 1.1035-0.9863 1.8848-1.9433 2.3438-2.8711h1.6992z"/></g><g id="cg" transform="translate(-3.0305 -14.142)" fill="#262626"><path id="ch" d="m-317.56 203.18v-17.001h12.292v2.0062h-10.043v5.2069h9.4049v1.9946h-9.4049v5.7867h10.437v2.0062z"/><path id="ci" d="m-302.01 203.18v-12.316h1.8671v1.7279c0.38655-0.60301 0.90067-1.0881 1.5424-1.4554 0.64167-0.36722 1.3723-0.55083 2.1918-0.55084 0.91226 1e-5 1.6602 0.18942 2.244 0.56823 0.58368 0.37884 0.99537 0.90842 1.235 1.5888 0.97411-1.438 2.242-2.157 3.8037-2.157 1.2215 1e-5 2.1608 0.33824 2.818 1.0147 0.65712 0.67648 0.9857 1.7182 0.98571 3.1253v8.454h-2.0758v-7.7582c-2e-5 -0.83495-0.0677-1.436-0.20294-1.8033-0.13531-0.36722-0.38078-0.66294-0.73639-0.88715-0.35565-0.22419-0.77313-0.33629-1.2524-0.3363-0.8659 1e-5 -1.5849 0.28799-2.157 0.86395-0.57211 0.57598-0.85816 1.4979-0.85815 2.7658v7.1552h-2.0874v-8.0017c-1e-5 -0.92772-0.1701-1.6235-0.51026-2.0874-0.34017-0.46386-0.89681-0.69579-1.6699-0.6958-0.58757 1e-5 -1.1307 0.15463-1.6293 0.46387-0.49866 0.30925-0.86009 0.76152-1.0843 1.3568-0.22421 0.5953-0.33631 1.4534-0.33631 2.5745v6.3898z"/><path id="cj" d="m-280.27 203.18h-1.9366v-17.001h2.0874v6.0651c0.88134-1.1055 2.0062-1.6583 3.3746-1.6583 0.75764 1e-5 1.4747 0.1527 2.1512 0.45807 0.67647 0.30539 1.2331 0.73446 1.6699 1.2872 0.43679 0.55278 0.77889 1.2196 1.0263 2.0004 0.24739 0.78085 0.37108 1.6158 0.3711 2.5049-2e-5 2.1106-0.52187 3.7419-1.5656 4.8938-1.0437 1.1519-2.2962 1.7279-3.7573 1.7279-1.4535 0-2.5938-0.60689-3.421-1.8207zm-0.0232-6.2506c-1e-5 1.4766 0.201 2.5435 0.60302 3.2007 0.65714 1.0746 1.5462 1.6119 2.6672 1.6119 0.91226 0 1.7008-0.39622 2.3657-1.1887 0.66487-0.79243 0.99731-1.9734 0.99732-3.5428-1e-5 -1.6081-0.31892-2.7948-0.95673-3.5602-0.63783-0.76537-1.409-1.1481-2.3135-1.1481-0.91228 2e-5 -1.7008 0.39624-2.3657 1.1887-0.66488 0.79245-0.99732 1.9386-0.99731 3.4384z"/><path id="ck" d="m-260.55 199.22 2.157 0.26672c-0.34018 1.2602-0.97026 2.2382-1.8903 2.934-0.92001 0.6958-2.0951 1.0437-3.5254 1.0437-1.8014 0-3.2297-0.55471-4.285-1.6641-1.0553-1.1094-1.583-2.6653-1.583-4.6677 0-2.0719 0.53345-3.68 1.6004-4.8242 1.0669-1.1442 2.4508-1.7163 4.1516-1.7163 1.6467 1e-5 2.9919 0.56051 4.0356 1.6815 1.0437 1.121 1.5655 2.6982 1.5656 4.7314-1e-5 0.1237-4e-3 0.30925-0.0116 0.55664h-9.1846c0.0773 1.353 0.46 2.3889 1.1481 3.1079 0.68806 0.719 1.5462 1.0785 2.5745 1.0785 0.76537 0 1.4186-0.20101 1.9598-0.60303 0.54117-0.40201 0.97025-1.0437 1.2872-1.925zm-6.8536-3.3746h6.8768c-0.0928-1.036-0.35564-1.8129-0.78857-2.3309-0.66488-0.80403-1.5269-1.206-2.5861-1.2061-0.95866 2e-5 -1.7646 0.32086-2.4179 0.96253-0.65328 0.64169-1.0147 1.4998-1.0843 2.5745z"/><path id="cl" d="m-247.77 203.18v-1.554c-0.78085 1.2215-1.9289 1.8323-3.4442 1.8323-0.98186 0-1.8845-0.27059-2.7078-0.81177-0.82336-0.54117-1.4612-1.2969-1.9134-2.2672-0.45227-0.97025-0.6784-2.0855-0.6784-3.3456 0-1.2292 0.20487-2.3444 0.61462-3.3456 0.40975-1.0012 1.0244-1.7685 1.8439-2.3019 0.8195-0.53344 1.7356-0.80016 2.7484-0.80017 0.74218 1e-5 1.4032 0.15656 1.983 0.46966 0.57982 0.31312 1.0514 0.72094 1.4148 1.2234v-6.0998h2.0758v17.001zm-6.5985-6.1462c0 1.5772 0.33244 2.7562 0.99732 3.537 0.66487 0.78084 1.4496 1.1713 2.3541 1.1713 0.91227 0 1.6873-0.37302 2.3251-1.1191 0.6378-0.74605 0.95671-1.8844 0.95672-3.4152-1e-5 -1.6854-0.32471-2.9224-0.97412-3.7109-0.64942-0.78856-1.4496-1.1828-2.4005-1.1829-0.92774 1e-5 -1.7028 0.37884-2.3251 1.1365-0.62235 0.75765-0.93353 1.9521-0.93353 3.5834z"/><path id="cm" d="m-234.55 203.18v-1.554c-0.78085 1.2215-1.9289 1.8323-3.4442 1.8323-0.98185 0-1.8845-0.27059-2.7078-0.81177-0.82337-0.54117-1.4612-1.2969-1.9134-2.2672-0.45228-0.97025-0.67841-2.0855-0.67841-3.3456 0-1.2292 0.20487-2.3444 0.61462-3.3456 0.40975-1.0012 1.0244-1.7685 1.8439-2.3019 0.81949-0.53344 1.7356-0.80016 2.7484-0.80017 0.74218 1e-5 1.4032 0.15656 1.983 0.46966 0.57983 0.31312 1.0514 0.72094 1.4148 1.2234v-6.0998h2.0758v17.001zm-6.5985-6.1462c-1e-5 1.5772 0.33243 2.7562 0.99731 3.537 0.66487 0.78084 1.4496 1.1713 2.3541 1.1713 0.91226 0 1.6873-0.37302 2.3251-1.1191 0.63781-0.74605 0.95672-1.8844 0.95673-3.4152-1e-5 -1.6854-0.32472-2.9224-0.97412-3.7109-0.64943-0.78856-1.4496-1.1828-2.4005-1.1829-0.92774 1e-5 -1.7028 0.37884-2.3251 1.1365-0.62236 0.75765-0.93354 1.9521-0.93353 3.5834z"/><path id="cn" d="m-220.89 199.22 2.157 0.26672c-0.34018 1.2602-0.97027 2.2382-1.8903 2.934-0.92001 0.6958-2.0951 1.0437-3.5254 1.0437-1.8014 0-3.2297-0.55471-4.285-1.6641-1.0553-1.1094-1.583-2.6653-1.583-4.6677 0-2.0719 0.53344-3.68 1.6003-4.8242 1.0669-1.1442 2.4508-1.7163 4.1516-1.7163 1.6467 1e-5 2.9919 0.56051 4.0356 1.6815 1.0437 1.121 1.5655 2.6982 1.5656 4.7314-1e-5 0.1237-4e-3 0.30925-0.0116 0.55664h-9.1846c0.0773 1.353 0.46 2.3889 1.1481 3.1079 0.68807 0.719 1.5462 1.0785 2.5745 1.0785 0.76537 0 1.4186-0.20101 1.9598-0.60303 0.54117-0.40201 0.97025-1.0437 1.2872-1.925zm-6.8536-3.3746h6.8768c-0.0928-1.036-0.35564-1.8129-0.78857-2.3309-0.66489-0.80403-1.5269-1.206-2.5861-1.2061-0.95867 2e-5 -1.7646 0.32086-2.4179 0.96253-0.65329 0.64169-1.0147 1.4998-1.0843 2.5745z"/><path id="co" d="m-208.11 203.18v-1.554c-0.78085 1.2215-1.9289 1.8323-3.4442 1.8323-0.98185 0-1.8845-0.27059-2.7078-0.81177-0.82337-0.54117-1.4612-1.2969-1.9134-2.2672-0.45228-0.97025-0.67841-2.0855-0.67841-3.3456 0-1.2292 0.20487-2.3444 0.61462-3.3456 0.40975-1.0012 1.0244-1.7685 1.8439-2.3019 0.81949-0.53344 1.7356-0.80016 2.7484-0.80017 0.74218 1e-5 1.4032 0.15656 1.983 0.46966 0.57983 0.31312 1.0514 0.72094 1.4148 1.2234v-6.0998h2.0758v17.001zm-6.5985-6.1462c-1e-5 1.5772 0.33243 2.7562 0.99731 3.537 0.66487 0.78084 1.4496 1.1713 2.3541 1.1713 0.91226 0 1.6873-0.37302 2.3251-1.1191 0.63781-0.74605 0.95672-1.8844 0.95673-3.4152-1e-5 -1.6854-0.32472-2.9224-0.97412-3.7109-0.64943-0.78856-1.4496-1.1828-2.4005-1.1829-0.92774 1e-5 -1.7028 0.37884-2.3251 1.1365-0.62236 0.75765-0.93354 1.9521-0.93353 3.5834z"/><path id="cp" d="m-196.02 203.18v-17.001h5.8563c1.322 1e-5 2.3309 0.0812 3.0267 0.24353 0.97411 0.22422 1.8052 0.6301 2.4933 1.2176 0.8968 0.75766 1.5675 1.726 2.012 2.905 0.44453 1.179 0.6668 2.5262 0.66681 4.0414-1e-5 1.2911-0.15077 2.4353-0.45227 3.4326-0.30153 0.99732-0.68808 1.8226-1.1597 2.4759-0.47161 0.65328-0.98766 1.1674-1.5482 1.5424-0.56052 0.37496-1.237 0.65908-2.0294 0.85235-0.79245 0.19328-1.7028 0.28992-2.731 0.28992zm2.2498-2.0062h3.6298c1.121 1e-5 2.0004-0.10436 2.6382-0.31311 0.6378-0.20873 1.1461-0.50252 1.525-0.88134 0.53344-0.53345 0.94898-1.2505 1.2466-2.1512 0.29764-0.90067 0.44646-1.9927 0.44648-3.2761-2e-5 -1.7782-0.29187-3.1446-0.87555-4.0994-0.58371-0.95478-1.293-1.5945-2.128-1.9192-0.60304-0.23191-1.5733-0.34788-2.9108-0.3479h-3.5718z"/><path id="cq" d="m-170.7 199.22 2.157 0.26672c-0.34018 1.2602-0.97027 2.2382-1.8903 2.934-0.92001 0.6958-2.0951 1.0437-3.5254 1.0437-1.8014 0-3.2297-0.55471-4.285-1.6641-1.0553-1.1094-1.583-2.6653-1.583-4.6677 0-2.0719 0.53344-3.68 1.6003-4.8242 1.0669-1.1442 2.4508-1.7163 4.1516-1.7163 1.6467 1e-5 2.9919 0.56051 4.0356 1.6815 1.0437 1.121 1.5655 2.6982 1.5656 4.7314-1e-5 0.1237-4e-3 0.30925-0.0116 0.55664h-9.1846c0.0773 1.353 0.46 2.3889 1.1481 3.1079 0.68807 0.719 1.5462 1.0785 2.5745 1.0785 0.76537 0 1.4186-0.20101 1.9598-0.60303 0.54117-0.40201 0.97025-1.0437 1.2872-1.925zm-6.8536-3.3746h6.8768c-0.0928-1.036-0.35564-1.8129-0.78858-2.3309-0.66488-0.80403-1.5269-1.206-2.586-1.2061-0.95867 2e-5 -1.7646 0.32086-2.4179 0.96253-0.65329 0.64169-1.0147 1.4998-1.0843 2.5745z"/><path id="cr" d="m-162.49 203.18-4.685-12.316h2.2034l2.644 7.3755c0.28604 0.79631 0.5489 1.6235 0.78857 2.4817 0.18554-0.64941 0.44454-1.4302 0.77698-2.3425l2.7368-7.5146h2.1454l-4.6619 12.316z"/><path id="cs" d="m-154.02 188.58v-2.4005h2.0874v2.4005zm0 14.6v-12.316h2.0874v12.316z"/><path id="ct" d="m-140.71 198.67 2.0526 0.26673c-0.22421 1.4148-0.79825 2.5223-1.7221 3.3224-0.92387 0.80018-2.0584 1.2003-3.4036 1.2003-1.6854 0-3.0403-0.55084-4.0646-1.6525-1.0244-1.1017-1.5366-2.6808-1.5366-4.7372 0-1.3298 0.22034-2.4933 0.66101-3.4906 0.44068-0.9973 1.1114-1.7453 2.012-2.244 0.90067-0.49864 1.8806-0.74797 2.9398-0.74798 1.3375 1e-5 2.4314 0.33824 3.2819 1.0147 0.85041 0.67648 1.3954 1.6371 1.6351 2.8818l-2.0294 0.31311c-0.19329-0.82722-0.53539-1.4496-1.0263-1.8671-0.49093-0.41747-1.0843-0.62621-1.7801-0.62623-1.0514 2e-5 -1.9057 0.37691-2.5629 1.1307-0.65715 0.75379-0.98572 1.9463-0.98572 3.5776 0 1.6545 0.31697 2.8566 0.95093 3.6066 0.63394 0.74992 1.4612 1.1249 2.4817 1.1249 0.81949 0 1.5037-0.25126 2.0526-0.75378 0.5489-0.50252 0.8968-1.2756 1.0437-2.3193z"/><path id="cu" d="m-128.44 199.22 2.157 0.26672c-0.34018 1.2602-0.97027 2.2382-1.8903 2.934-0.92001 0.6958-2.0951 1.0437-3.5254 1.0437-1.8014 0-3.2297-0.55471-4.285-1.6641-1.0553-1.1094-1.583-2.6653-1.583-4.6677 0-2.0719 0.53345-3.68 1.6003-4.8242 1.0669-1.1442 2.4508-1.7163 4.1516-1.7163 1.6467 1e-5 2.9919 0.56051 4.0356 1.6815 1.0437 1.121 1.5655 2.6982 1.5656 4.7314-1e-5 0.1237-4e-3 0.30925-0.0116 0.55664h-9.1846c0.0773 1.353 0.46 2.3889 1.1481 3.1079 0.68807 0.719 1.5462 1.0785 2.5745 1.0785 0.76537 0 1.4186-0.20101 1.9598-0.60303 0.54117-0.40201 0.97025-1.0437 1.2872-1.925zm-6.8536-3.3746h6.8768c-0.0928-1.036-0.35564-1.8129-0.78857-2.3309-0.66489-0.80403-1.5269-1.206-2.5861-1.2061-0.95867 2e-5 -1.7646 0.32086-2.4179 0.96253-0.65328 0.64169-1.0147 1.4998-1.0843 2.5745z"/></g><g id="cv" transform="rotate(-90)"><path id="cw" d="m-451.54-516.94-4.0588-17.001h3.5138l2.5629 11.678 3.1079-11.678h4.082l2.9803 11.875 2.6093-11.875h3.4558l-4.1284 17.001h-3.6414l-3.3862-12.71-3.3746 12.71z"/></g><g id="cx" transform="rotate(-90)"><path id="cy" d="m-416.13-516.94h-3.7341l-1.4844-3.8617h-6.7956l-1.4032 3.8617h-3.6414l6.6217-17.001h3.6298zm-6.3202-6.7261-2.3425-6.3086-2.2962 6.3086z"/></g><g id="cz" transform="rotate(-90)"><path id="da" d="m-415.25-516.94v-17.001h5.1373l3.0847 11.597 3.0499-11.597h5.1489v17.001h-3.1891v-13.383l-3.3746 13.383h-3.3051l-3.363-13.383v13.383z"/></g><g id="db" transform="rotate(-90)"><path id="dc" d="m-395.21-516.94v-17.001h5.5084c2.0874 2e-5 3.4481 0.0851 4.082 0.25513 0.97411 0.25514 1.7897 0.80985 2.4469 1.6641 0.65713 0.8543 0.9857 1.9579 0.98572 3.3108-2e-5 1.0437-0.18943 1.9212-0.56824 2.6324-0.37884 0.71127-0.8601 1.2698-1.4438 1.6757-0.58371 0.40589-1.1771 0.67454-1.7801 0.80597-0.81951 0.16236-2.0062 0.24353-3.5602 0.24353h-2.2382v6.413zm3.4326-14.125v4.8242h1.8787c1.3529 1e-5 2.2575-0.0889 2.7136-0.26672 0.45612-0.17781 0.81369-0.45613 1.0727-0.83496 0.25898-0.37881 0.38848-0.81949 0.38849-1.322-1e-5 -0.61848-0.18169-1.1287-0.54504-1.5308-0.36338-0.40201-0.82338-0.65327-1.38-0.75379-0.40976-0.0773-1.2331-0.11595-2.4701-0.11596z"/></g><path id="dd" d="m-138.5 430.61c0-13.047 10.547-23.594 23.594-23.594s23.594 10.547 23.594 23.594c0 13.047-10.547 23.672-23.594 23.672s-23.594-10.625-23.594-23.672" fill="#fff" fill-rule="evenodd"/><path id="de" d="m-138.5 430.61c0-13.047 10.547-23.594 23.594-23.594s23.594 10.547 23.594 23.594v0c0 13.047-10.547 23.672-23.594 23.672s-23.594-10.625-23.594-23.672" fill="none" stroke="#000" stroke-linecap="round" stroke-linejoin="round" stroke-width="3.5938px"/><g id="df"><path id="dg" d="m-108.08 436.9v2.5342h-14.194c-0.0195-0.63476 0.083-1.2451 0.30761-1.831 0.36133-0.9668 0.93994-1.919 1.7358-2.8564 0.7959-0.93749 1.9458-2.0215 3.4497-3.252 2.334-1.9141 3.9111-3.4302 4.7314-4.5483 0.8203-1.1182 1.2305-2.1753 1.2305-3.1714-1e-5 -1.0449-0.37354-1.9262-1.1206-2.644-0.74708-0.71776-1.7212-1.0766-2.9224-1.0767-1.2695 2e-5 -2.2852 0.38088-3.0469 1.1426-0.76172 0.76173-1.1475 1.8164-1.1572 3.1641l-2.71-0.27832c0.18555-2.0215 0.88379-3.562 2.0947-4.6216 1.2109-1.0596 2.8369-1.5893 4.8779-1.5894 2.0605 2e-5 3.6914 0.57131 4.8926 1.7139 1.2012 1.1426 1.8017 2.5586 1.8018 4.248-1e-5 0.85939-0.17579 1.7041-0.52734 2.5342-0.35158 0.83009-0.93507 1.7041-1.7505 2.6221-0.81544 0.91798-2.1704 2.1778-4.0649 3.7793-1.582 1.3281-2.5977 2.229-3.0469 2.7026-0.44923 0.47363-0.82032 0.94971-1.1133 1.4282z"/></g><g id="dh" transform="translate(229.3 -11.112)"><path id="di" d="m-555.87 689.43-5.6982-21.475h2.915l3.2666 14.077c0.35156 1.4746 0.65429 2.9395 0.90821 4.3945 0.54686-2.2949 0.86913-3.6182 0.96679-3.9697l4.0869-14.502h3.4277l3.0762 10.869c0.77147 2.6953 1.3281 5.2295 1.6699 7.6025 0.27341-1.3574 0.62986-2.915 1.0693-4.6728l3.3691-13.799h2.8564l-5.8887 21.475h-2.7393l-4.5264-16.362c-0.38087-1.3672-0.60548-2.207-0.67383-2.5195-0.22462 0.98635-0.43458 1.8262-0.62988 2.5195l-4.5557 16.362z"/><path id="dj" d="m-533.68 689.43 8.2471-21.475h3.0615l8.7891 21.475h-3.2373l-2.5049-6.5039h-8.9795l-2.3584 6.5039zm6.1963-8.8184h7.2803l-2.2412-5.9473c-0.68361-1.8066-1.1914-3.291-1.5234-4.4531-0.27345 1.377-0.65919 2.7442-1.1572 4.1016z"/><path id="dk" d="m-511.37 689.43v-21.475h4.2773l5.083 15.205c0.46874 1.416 0.81053 2.4756 1.0254 3.1787 0.24413-0.78125 0.62499-1.9287 1.1426-3.4424l5.1416-14.941h3.8232v21.475h-2.7393v-17.974l-6.2402 17.974h-2.5635l-6.2109-18.281v18.281z"/><path id="dl" d="m-486.26 689.43v-21.475h8.1006c1.4258 2e-5 2.5146 0.0684 3.2666 0.20508 1.0547 0.1758 1.9385 0.51027 2.6514 1.0034 0.71288 0.49318 1.2866 1.1841 1.7212 2.0728 0.43455 0.88869 0.65183 1.8652 0.65185 2.9297-2e-5 1.8262-0.58107 3.3716-1.7432 4.6362-1.1621 1.2647-3.2617 1.897-6.2988 1.897h-5.5078v8.7305zm2.8418-11.265h5.5518c1.8359 1e-5 3.1396-0.34178 3.9111-1.0254 0.77147-0.68358 1.1572-1.6455 1.1572-2.8857-1e-5 -0.89842-0.22706-1.6675-0.68115-2.3071-0.45411-0.63963-1.0523-1.062-1.7944-1.2671-0.47853-0.12693-1.3623-0.19041-2.6514-0.19043h-5.4932z"/><path id="dm" d="m-457.86 689.43v-21.475h9.5215c1.914 2e-5 3.3691 0.19289 4.3652 0.57861 0.99608 0.38577 1.792 1.0669 2.3877 2.0435 0.59569 0.97658 0.89354 2.0557 0.89356 3.2373-2e-5 1.5234-0.49318 2.8076-1.4795 3.8525-0.98635 1.0449-2.5098 1.709-4.5703 1.9922 0.75194 0.36134 1.3232 0.71778 1.7139 1.0693 0.83006 0.76173 1.6162 1.7139 2.3584 2.8564l3.7354 5.8447h-3.5742l-2.8418-4.4678c-0.8301-1.2891-1.5137-2.2754-2.0508-2.959-0.53712-0.68358-1.0181-1.1621-1.4429-1.4355-0.42481-0.27343-0.85694-0.46386-1.2964-0.57129-0.32228-0.0684-0.84962-0.10253-1.582-0.10254h-3.2959v9.5361zm2.8418-11.997h6.1084c1.2988 1e-5 2.3144-0.13427 3.0469-0.40283 0.73241-0.26854 1.289-0.69823 1.6699-1.2891 0.38084-0.59081 0.57127-1.2329 0.57129-1.9263-2e-5 -1.0156-0.36867-1.8506-1.106-2.5049-0.73732-0.65427-1.9019-0.98142-3.4936-0.98144h-6.7969z"/><path id="dn" d="m-437.54 681.66c0-2.8808 0.80078-5.0146 2.4024-6.4014 1.3379-1.1523 2.9687-1.7285 4.8926-1.7285 2.1387 1e-5 3.8867 0.7007 5.2442 2.102 1.3574 1.4014 2.0361 3.3374 2.0361 5.8081-2e-5 2.002-0.30031 3.5767-0.90088 4.7241-0.6006 1.1475-1.4746 2.0386-2.6221 2.6733-1.1475 0.63477-2.3999 0.95215-3.7573 0.95215-2.1777 0-3.938-0.69824-5.2808-2.0947s-2.0142-3.4082-2.0142-6.0352zm2.71 0c0 1.9922 0.43457 3.4839 1.3037 4.4751s1.9629 1.4868 3.2812 1.4868c1.3086 1e-5 2.3974-0.49804 3.2666-1.4941 0.86912-0.99609 1.3037-2.5146 1.3037-4.5557-2e-5 -1.9238-0.43703-3.3813-1.311-4.3726-0.87403-0.9912-1.9605-1.4868-3.2593-1.4868-1.3184 2e-5 -2.4121 0.49318-3.2812 1.4795-0.86914 0.98634-1.3037 2.4756-1.3037 4.4678z"/><path id="do" d="m-409.67 689.43v-2.2852c-1.211 1.7578-2.8565 2.6367-4.9365 2.6367-0.91798 0-1.7749-0.17578-2.5708-0.52734s-1.3867-0.79346-1.7725-1.3257c-0.38574-0.53223-0.65674-1.1841-0.81298-1.9556-0.10743-0.51758-0.16114-1.3379-0.16114-2.4609v-9.6387h2.6367v8.6279c0 1.377 0.0537 2.3047 0.16113 2.7832 0.16602 0.69337 0.51758 1.2378 1.0547 1.6333 0.53711 0.39551 1.2012 0.59327 1.9922 0.59326 0.79101 1e-5 1.5332-0.20263 2.2266-0.60791 0.69335-0.40527 1.1841-0.95702 1.4722-1.6553 0.28807-0.69824 0.43212-1.7114 0.43213-3.0396v-8.335h2.6367v15.557z"/><path id="dp" d="m-397.41 687.08 0.38086 2.3291c-0.74219 0.15625-1.4063 0.23438-1.9922 0.23438-0.95703 0-1.6992-0.15137-2.2266-0.4541-0.52735-0.30274-0.89844-0.70069-1.1133-1.1938-0.21485-0.49316-0.32227-1.5308-0.32227-3.1128v-8.9502h-1.9336v-2.0508h1.9336v-3.8525l2.6221-1.582v5.4346h2.6514v2.0508h-2.6514v9.0967c0 0.75196 0.0464 1.2354 0.13916 1.4502 0.0928 0.21484 0.24414 0.38574 0.45411 0.51269 0.20995 0.12696 0.51024 0.19043 0.90087 0.19043 0.29297 0 0.67871-0.0342 1.1572-0.10254z"/><path id="dq" d="m-384.19 684.42 2.7246 0.33692c-0.4297 1.5918-1.2256 2.8272-2.3877 3.706-1.1621 0.87891-2.6465 1.3184-4.4531 1.3184-2.2754 0-4.0796-0.70068-5.4126-2.102-1.333-1.4014-1.9995-3.3667-1.9995-5.896 0-2.6172 0.67383-4.6484 2.0215-6.0938 1.3476-1.4453 3.0957-2.168 5.2441-2.168 2.0801 1e-5 3.7793 0.70802 5.0976 2.124 1.3184 1.416 1.9775 3.4082 1.9775 5.9766-1e-5 0.15626-5e-3 0.39064-0.0146 0.70313h-11.602c0.0976 1.709 0.58105 3.0176 1.4502 3.9258 0.86913 0.9082 1.9531 1.3623 3.252 1.3623 0.96679 1e-5 1.792-0.2539 2.4756-0.76171 0.68358-0.50781 1.2256-1.3184 1.626-2.4316zm-8.6572-4.2627h8.6865c-0.1172-1.3086-0.44923-2.29-0.99609-2.9443-0.83986-1.0156-1.9287-1.5234-3.2666-1.5234-1.2109 1e-5 -2.229 0.40528-3.0542 1.2158-0.8252 0.81055-1.2817 1.8945-1.3696 3.252z"/><path id="dr" d="m-378.17 689.43v-15.557h2.373v2.3584c0.60546-1.1035 1.1645-1.831 1.6772-2.1826 0.51269-0.35155 1.0767-0.52733 1.6919-0.52734 0.88866 1e-5 1.792 0.28322 2.71 0.84961l-0.9082 2.4463c-0.64454-0.38085-1.2891-0.57128-1.9336-0.57129-0.57618 1e-5 -1.0938 0.17335-1.5527 0.52002-0.45899 0.34669-0.78614 0.82764-0.98145 1.4429-0.29297 0.93751-0.43946 1.9629-0.43945 3.0762v8.1445z"/></g><g id="ds" fill="#262626"><path id="dt" d="m105.98 348.94 2.2266-0.20874-0.0232 0.59143c0 0.65715 0.15076 1.2582 0.45227 1.8033s0.80017 0.96639 1.496 1.264c0.69579 0.29765 1.523 0.44647 2.4817 0.44647 1.3607 0 2.3986-0.29765 3.1137-0.89295 0.71512-0.59529 1.0727-1.2756 1.0727-2.041-2e-5 -0.53344-0.18943-1.0205-0.56824-1.4612-0.38657-0.43294-1.4419-1.0205-3.1659-1.7627-1.3375-0.57982-2.2498-1.0244-2.7368-1.3336-0.76539-0.50251-1.3298-1.0495-1.6931-1.6409-0.36336-0.59142-0.54504-1.266-0.54504-2.0236 0-0.8736 0.23966-1.6622 0.71899-2.3657 0.47933-0.70352 1.1809-1.2408 2.1048-1.6119 0.92386-0.37108 1.9656-0.55662 3.1253-0.55664 1.3839 2e-5 2.5512 0.23195 3.5022 0.6958 0.95092 0.46388 1.6409 1.0824 2.07 1.8555 0.42906 0.77313 0.6436 1.5114 0.64362 2.215-2e-5 0.0696-4e-3 0.18556-0.0116 0.3479l-2.1918 0.17395c-2e-5 -0.47932-0.0425-0.85428-0.12757-1.1249-0.15463-0.47159-0.3943-0.86974-0.71899-1.1945-0.32472-0.32469-0.77119-0.58562-1.3394-0.78277-0.56825-0.19713-1.2041-0.2957-1.9076-0.29572-1.237 2e-5 -2.1995 0.27834-2.8876 0.83496-0.52573 0.42523-0.78858 0.9896-0.78858 1.6931 0 0.41749 0.10823 0.79051 0.32471 1.1191 0.21646 0.32858 0.60688 0.65135 1.1713 0.96832 0.40201 0.22421 1.3568 0.66875 2.8644 1.3336 1.2215 0.54118 2.0642 0.96639 2.5281 1.2756 0.61848 0.40976 1.0939 0.90648 1.4264 1.4902 0.33242 0.58371 0.49864 1.2466 0.49866 1.9888-2e-5 0.92-0.28027 1.7685-0.84076 2.5455-0.56052 0.77698-1.3356 1.3781-2.3251 1.8033-0.98959 0.42521-2.1222 0.63782-3.3978 0.63782-1.9251 0-3.4964-0.41942-4.714-1.2582-1.2177-0.83883-1.8304-2.3483-1.8381-4.5285z"/><path id="du" d="m129.37 352.21c-1.4766 1.6699-2.9881 2.5049-4.5343 2.5049-0.95093 0-1.7182-0.27252-2.3019-0.81757-0.5837-0.54504-0.87555-1.2118-0.87555-2.0004 0-0.51798 0.13143-1.4071 0.39429-2.6672l1.4844-7.1088h2.099l-1.6467 7.8741c-0.13917 0.65715-0.20875 1.1674-0.20874 1.5308-1e-5 0.46387 0.14109 0.8253 0.42328 1.0843 0.28218 0.259 0.69772 0.38849 1.2466 0.38849 0.58756 0 1.1616-0.14302 1.7221-0.42908 0.56049-0.28604 1.0437-0.6726 1.4496-1.1597 0.40588-0.48706 0.73638-1.063 0.99152-1.7279 0.17007-0.4252 0.36722-1.1713 0.59143-2.2382l1.1133-5.3229h2.099l-2.5745 12.316h-1.9366z"/><path id="dv" d="m134.19 354.43 3.5486-17.001h2.099l-1.264 6.0767c0.66487-0.61075 1.2679-1.0418 1.8091-1.293 0.54117-0.25125 1.1055-0.37688 1.6931-0.37689 1.1519 1e-5 2.1125 0.42909 2.8818 1.2872 0.76923 0.85816 1.1538 2.1067 1.1539 3.7457-2e-5 1.0901-0.15464 2.0874-0.46387 2.9919-0.30926 0.90454-0.69195 1.6641-1.1481 2.2788-0.45615 0.61462-0.92775 1.1056-1.4148 1.4728-0.48707 0.36723-0.98572 0.64169-1.496 0.82337-0.51026 0.18168-1.0012 0.27252-1.4728 0.27252-0.81177 0-1.5269-0.21454-2.1454-0.64362-0.6185-0.42907-1.1017-1.0843-1.4496-1.9656l-0.48706 2.3309zm3.1079-5.0562-0.0116 0.39429c0 1.0514 0.25126 1.8516 0.75379 2.4005 0.50251 0.54891 1.1287 0.82336 1.8787 0.82336 0.73445 0 1.409-0.25706 2.0236-0.77118 0.61461-0.51411 1.1191-1.3162 1.5134-2.4063 0.39427-1.0901 0.59142-2.0951 0.59143-3.0151-1e-5 -1.036-0.24934-1.84-0.74799-2.4121-0.49867-0.5721-1.1152-0.85815-1.8497-0.85816-0.75766 1e-5 -1.4535 0.29186-2.0874 0.87555-0.63396 0.58371-1.1635 1.4824-1.5888 2.6962-0.31698 0.90455-0.47546 1.6622-0.47546 2.273z"/><path id="dw" d="m147.6 350.22 2.099-0.12757c-1e-5 0.60303 0.0928 1.1172 0.27832 1.5424 0.18554 0.42521 0.52764 0.77311 1.0263 1.0437s1.0804 0.40589 1.7453 0.40589c0.92773 0 1.6235-0.18555 2.0874-0.55665 0.46385-0.37109 0.69579-0.80789 0.6958-1.3104-1e-5 -0.36336-0.13917-0.70739-0.41748-1.0321-0.28606-0.32471-0.9838-0.72479-2.0932-1.2003-1.1094-0.47546-1.8188-0.80983-2.128-1.0031-0.51798-0.31697-0.90841-0.69-1.1713-1.1191-0.26286-0.42907-0.39429-0.92193-0.39429-1.4786 0-0.97411 0.38656-1.8091 1.1597-2.5049 0.77311-0.69579 1.8555-1.0437 3.2471-1.0437 1.5462 1e-5 2.7233 0.35757 3.5312 1.0727 0.80789 0.71514 1.2273 1.6564 1.2582 2.8238l-2.0526 0.13916c-0.0309-0.74218-0.29379-1.3297-0.78858-1.7627-0.4948-0.43294-1.1945-0.64941-2.099-0.64942-0.72673 1e-5 -1.2911 0.16623-1.6931 0.49866-0.40202 0.33245-0.60303 0.69194-0.60303 1.0785 0 0.38656 0.17395 0.72673 0.52185 1.0205 0.23193 0.20101 0.83109 0.51026 1.7975 0.92773 1.6081 0.69581 2.6208 1.2447 3.0383 1.6467 0.66486 0.64169 0.9973 1.4225 0.99731 2.3425-1e-5 0.61076-0.18749 1.2099-0.56244 1.7975-0.37497 0.58756-0.94707 1.0572-1.7163 1.409-0.76925 0.35177-1.6757 0.52765-2.7194 0.52765-1.4225 0-2.6324-0.35177-3.6298-1.0553s-1.4689-1.8477-1.4148-3.4326z"/><path id="dx" d="m167.78 349.95 2.099 0.22033c-0.52573 1.5385-1.2737 2.6808-2.244 3.4268-0.97026 0.74605-2.0739 1.1191-3.3108 1.1191-1.3375 0-2.4218-0.43294-3.2529-1.2988-0.8311-0.86588-1.2466-2.0758-1.2466-3.6298 0-1.3452 0.26672-2.6672 0.80017-3.9661 0.53344-1.2988 1.2969-2.2865 2.2903-2.963 0.99345-0.67647 2.128-1.0147 3.4036-1.0147 1.322 1e-5 2.3696 0.37303 3.1427 1.1191 0.7731 0.74606 1.1596 1.7337 1.1597 2.963l-2.0642 0.13916c-8e-3 -0.78084-0.23388-1.3916-0.67841-1.8323-0.44455-0.44066-1.0302-0.661-1.7569-0.66101-0.84269 1e-5 -1.5733 0.26674-2.1918 0.80017-0.61849 0.53346-1.1036 1.3433-1.4554 2.4295-0.35177 1.0862-0.52765 2.1319-0.52765 3.1369 0 1.0514 0.23193 1.84 0.6958 2.3657 0.46386 0.52572 1.036 0.78858 1.7163 0.78858 0.68033 0 1.3317-0.259 1.954-0.77698 0.62235-0.51798 1.1113-1.3066 1.467-2.3657z"/><path id="dy" d="m171.16 354.43 2.5745-12.316h1.8555l-0.52186 2.5165c0.63395-0.95092 1.2544-1.6544 1.8613-2.1106 0.60689-0.45612 1.2273-0.68419 1.8613-0.6842 0.41747 1e-5 0.93159 0.15077 1.5424 0.45227l-0.85816 1.9482c-0.36337-0.26285-0.76152-0.39428-1.1945-0.39429-0.73446 1e-5 -1.4882 0.40976-2.2614 1.2292-0.77311 0.81951-1.38 2.2923-1.8207 4.4183l-1.0437 4.9402z"/><path id="dz" d="m182.07 339.81 0.49866-2.3773h2.0874l-0.49866 2.3773zm-3.0615 14.623 2.5745-12.316h2.099l-2.5745 12.316z"/><path id="ea" d="m184.38 354.43 3.5486-17.001h2.099l-1.264 6.0767c0.66487-0.61075 1.2679-1.0418 1.8091-1.293 0.54117-0.25125 1.1055-0.37688 1.6931-0.37689 1.1519 1e-5 2.1125 0.42909 2.8818 1.2872 0.76923 0.85816 1.1538 2.1067 1.1539 3.7457-2e-5 1.0901-0.15464 2.0874-0.46387 2.9919-0.30926 0.90454-0.69195 1.6641-1.1481 2.2788-0.45615 0.61462-0.92775 1.1056-1.4148 1.4728-0.48707 0.36723-0.98572 0.64169-1.496 0.82337-0.51026 0.18168-1.0012 0.27252-1.4728 0.27252-0.81177 0-1.5269-0.21454-2.1454-0.64362-0.6185-0.42907-1.1017-1.0843-1.4496-1.9656l-0.48706 2.3309zm3.1079-5.0562-0.0116 0.39429c0 1.0514 0.25126 1.8516 0.75379 2.4005 0.50251 0.54891 1.1287 0.82336 1.8787 0.82336 0.73445 0 1.409-0.25706 2.0236-0.77118 0.61461-0.51411 1.1191-1.3162 1.5134-2.4063 0.39427-1.0901 0.59142-2.0951 0.59143-3.0151-1e-5 -1.036-0.24934-1.84-0.74799-2.4121-0.49867-0.5721-1.1152-0.85815-1.8497-0.85816-0.75766 1e-5 -1.4535 0.29186-2.0874 0.87555-0.63396 0.58371-1.1635 1.4824-1.5888 2.6962-0.31698 0.90455-0.47547 1.6622-0.47546 2.273z"/><path id="eb" d="m206.64 350.25 2.041 0.20874c-0.2938 1.0128-0.96833 1.9753-2.0236 2.8876-1.0553 0.91227-2.3136 1.3684-3.7747 1.3684-0.91228 0-1.7492-0.21067-2.5107-0.63202-0.76152-0.42134-1.3414-1.034-1.7395-1.8381-0.39816-0.80404-0.59723-1.7202-0.59723-2.7484 0-1.3452 0.31117-2.6498 0.93353-3.9139 0.62235-1.264 1.4283-2.2034 2.4179-2.818 0.98958-0.61461 2.0603-0.92192 3.2123-0.92193 1.4689 1e-5 2.6421 0.45614 3.5196 1.3684 0.87747 0.91229 1.3162 2.157 1.3162 3.7341-1e-5 0.60303-0.0541 1.2215-0.16235 1.8555h-9.0686c-0.0309 0.23967-0.0464 0.45615-0.0464 0.64942 0 1.1519 0.26479 2.0314 0.79437 2.6382 0.52958 0.6069 1.1771 0.91034 1.9424 0.91034 0.71898 0 1.4264-0.2358 2.1222-0.7074 0.69579-0.47159 1.237-1.1519 1.6235-2.041zm-6.0998-3.0499h6.9116c8e-3 -0.21646 0.0116-0.37108 0.0116-0.46387-1e-5 -1.0514-0.26287-1.8574-0.78858-2.4179-0.52572-0.5605-1.2022-0.84075-2.0294-0.84076-0.89681 1e-5 -1.7144 0.30925-2.4527 0.92773-0.73833 0.6185-1.2892 1.5501-1.6525 2.7948z"/><path id="ec" d="m210.82 354.43 2.5745-12.316h1.8555l-0.52185 2.5165c0.63395-0.95092 1.2544-1.6544 1.8613-2.1106 0.60688-0.45612 1.2273-0.68419 1.8613-0.6842 0.41748 1e-5 0.93159 0.15077 1.5424 0.45227l-0.85815 1.9482c-0.36337-0.26285-0.76153-0.39428-1.1945-0.39429-0.73446 1e-5 -1.4882 0.40976-2.2614 1.2292-0.77312 0.81951-1.38 2.2923-1.8207 4.4183l-1.0437 4.9402z"/></g><g id="ed" fill="#262626"><path id="ee" d="m-130.92 354.43 3.5602-17.001h7.0972c1.2292 1e-5 2.1512 0.14111 2.7658 0.42328 0.61461 0.2822 1.1229 0.76539 1.525 1.4496 0.402 0.68422 0.60301 1.4515 0.60303 2.3019-2e-5 0.70355-0.14304 1.4187-0.42908 2.1454-0.28607 0.72673-0.6475 1.3259-1.0843 1.7975-0.43682 0.47161-0.87943 0.82724-1.3278 1.0669-0.44842 0.23967-0.92775 0.41749-1.438 0.53345-1.0901 0.25513-2.1918 0.38269-3.305 0.38269h-4.256l-1.438 6.9zm4.1168-8.8251h3.7457c1.4534 1e-5 2.5203-0.15655 3.2007-0.46967 0.68033-0.3131 1.2254-0.7905 1.6351-1.4322 0.40974-0.64167 0.61461-1.322 0.61463-2.041-2e-5 -0.55663-0.10825-1.0108-0.32471-1.3626-0.21648-0.35176-0.52186-0.61075-0.91614-0.77698-0.3943-0.16621-1.152-0.24931-2.273-0.24933h-4.3604z"/><path id="ef" d="m-106.88 352.21c-1.4766 1.6699-2.9881 2.5049-4.5343 2.5049-0.95093 0-1.7182-0.27252-2.3019-0.81757-0.5837-0.54504-0.87555-1.2118-0.87555-2.0004 0-0.51798 0.13143-1.4071 0.39429-2.6672l1.4844-7.1088h2.099l-1.6467 7.8741c-0.13917 0.65715-0.20875 1.1674-0.20874 1.5308-1e-5 0.46387 0.14109 0.8253 0.42328 1.0843 0.28218 0.259 0.69772 0.38849 1.2466 0.38849 0.58756 0 1.1616-0.14302 1.7221-0.42908 0.56049-0.28604 1.0437-0.6726 1.4496-1.1597 0.40588-0.48706 0.73638-1.063 0.99152-1.7279 0.17007-0.4252 0.36722-1.1713 0.59143-2.2382l1.1133-5.3229h2.099l-2.5745 12.316h-1.9366z"/><path id="eg" d="m-102.06 354.43 3.5486-17.001h2.099l-1.264 6.0767c0.66487-0.61075 1.2679-1.0418 1.8091-1.293 0.54117-0.25125 1.1055-0.37688 1.6931-0.37689 1.1519 1e-5 2.1125 0.42909 2.8818 1.2872 0.76923 0.85816 1.1539 2.1067 1.1539 3.7457-1.2e-5 1.0901-0.15463 2.0874-0.46387 2.9919-0.30926 0.90454-0.69195 1.6641-1.1481 2.2788-0.45615 0.61462-0.92774 1.1056-1.4148 1.4728-0.48707 0.36723-0.98573 0.64169-1.496 0.82337-0.51026 0.18168-1.0012 0.27252-1.4728 0.27252-0.81177 0-1.5269-0.21454-2.1454-0.64362-0.61849-0.42907-1.1017-1.0843-1.4496-1.9656l-0.48706 2.3309zm3.1079-5.0562-0.0116 0.39429c-4e-6 1.0514 0.25126 1.8516 0.75378 2.4005 0.50252 0.54891 1.1287 0.82336 1.8787 0.82336 0.73445 0 1.409-0.25706 2.0236-0.77118 0.61462-0.51411 1.1191-1.3162 1.5134-2.4063 0.39428-1.0901 0.59142-2.0951 0.59143-3.0151-1.1e-5 -1.036-0.24934-1.84-0.74799-2.4121-0.49867-0.5721-1.1152-0.85815-1.8497-0.85816-0.75766 1e-5 -1.4535 0.29186-2.0874 0.87555-0.63396 0.58371-1.1635 1.4824-1.5887 2.6962-0.31698 0.90455-0.47547 1.6622-0.47546 2.273z"/><path id="eh" d="m-89.006 354.43 3.5486-17.001h2.099l-3.5486 17.001z"/><path id="ei" d="m-80.575 339.81 0.49866-2.3773h2.0874l-0.49866 2.3773zm-3.0615 14.623 2.5745-12.316h2.099l-2.5745 12.316z"/><path id="ej" d="m-78.07 350.22 2.099-0.12757c-3e-6 0.60303 0.09277 1.1172 0.27832 1.5424 0.18554 0.42521 0.52764 0.77311 1.0263 1.0437 0.49865 0.27059 1.0804 0.40589 1.7453 0.40589 0.92773 0 1.6235-0.18555 2.0874-0.55665 0.46386-0.37109 0.69579-0.80789 0.6958-1.3104-9e-6 -0.36336-0.13917-0.70739-0.41748-1.0321-0.28606-0.32471-0.98379-0.72479-2.0932-1.2003-1.1094-0.47546-1.8188-0.80983-2.128-1.0031-0.51799-0.31697-0.90841-0.69-1.1713-1.1191-0.26286-0.42907-0.39429-0.92193-0.39429-1.4786-2e-6 -0.97411 0.38655-1.8091 1.1597-2.5049 0.77311-0.69579 1.8555-1.0437 3.2471-1.0437 1.5462 1e-5 2.7233 0.35757 3.5312 1.0727 0.80789 0.71514 1.2273 1.6564 1.2582 2.8238l-2.0526 0.13916c-0.03093-0.74218-0.29379-1.3297-0.78857-1.7627-0.4948-0.43294-1.1945-0.64941-2.099-0.64942-0.72673 1e-5 -1.2911 0.16623-1.6931 0.49866-0.40202 0.33245-0.60303 0.69194-0.60303 1.0785-4e-6 0.38656 0.17395 0.72673 0.52185 1.0205 0.23193 0.20101 0.83109 0.51026 1.7975 0.92773 1.6081 0.69581 2.6208 1.2447 3.0383 1.6467 0.66487 0.64169 0.9973 1.4225 0.99732 2.3425-1.1e-5 0.61076-0.18749 1.2099-0.56244 1.7975-0.37497 0.58756-0.94707 1.0572-1.7163 1.409-0.76925 0.35177-1.6757 0.52765-2.7194 0.52765-1.4225 0-2.6324-0.35177-3.6298-1.0553-0.99732-0.70353-1.4689-1.8477-1.4148-3.4326z"/><path id="ek" d="m-66.392 354.43 3.5486-17.001h2.099l-1.3568 6.5289c0.78084-0.75764 1.5076-1.3008 2.1802-1.6293 0.6726-0.32857 1.3645-0.49285 2.0758-0.49286 1.0205 1e-5 1.8129 0.26866 2.3773 0.80597 0.56436 0.53732 0.84654 1.2466 0.84656 2.128-1.2e-5 0.43295-0.12371 1.2292-0.37109 2.3889l-1.5192 7.2711h-2.099l1.5656-7.4567c0.22419-1.0824 0.33629-1.7627 0.3363-2.041-1e-5 -0.40201-0.13917-0.73058-0.41748-0.98572-0.27833-0.25511-0.68035-0.38268-1.2061-0.38269-0.75766 1e-5 -1.4805 0.19909-2.1686 0.59723-0.68808 0.39816-1.2273 0.94321-1.6177 1.6351-0.39043 0.69195-0.74799 1.8072-1.0727 3.3456l-1.1017 5.2881z"/><path id="el" d="m-44.127 350.25 2.041 0.20874c-0.29379 1.0128-0.96833 1.9753-2.0236 2.8876-1.0553 0.91227-2.3135 1.3684-3.7747 1.3684-0.91228 0-1.7492-0.21067-2.5107-0.63202-0.76152-0.42134-1.3414-1.034-1.7395-1.8381-0.39815-0.80404-0.59723-1.7202-0.59723-2.7484-1e-6 -1.3452 0.31118-2.6498 0.93353-3.9139 0.62235-1.264 1.4283-2.2034 2.4179-2.818 0.98958-0.61461 2.0603-0.92192 3.2123-0.92193 1.4689 1e-5 2.6421 0.45614 3.5196 1.3684 0.87747 0.91229 1.3162 2.157 1.3162 3.7341-1.2e-5 0.60303-0.05413 1.2215-0.16235 1.8555h-9.0686c-0.03093 0.23967-0.04639 0.45615-0.04639 0.64942-4e-6 1.1519 0.26479 2.0314 0.79437 2.6382 0.52958 0.6069 1.1771 0.91034 1.9424 0.91034 0.71899 0 1.4264-0.2358 2.1222-0.7074 0.69579-0.47159 1.237-1.1519 1.6235-2.041zm-6.0999-3.0499h6.9116c0.0077-0.21646 0.01159-0.37108 0.0116-0.46387-1.1e-5 -1.0514-0.26287-1.8574-0.78857-2.4179-0.52573-0.5605-1.2022-0.84075-2.0294-0.84076-0.89682 1e-5 -1.7144 0.30925-2.4527 0.92773-0.73833 0.6185-1.2892 1.5501-1.6525 2.7948z"/><path id="em" d="m-39.952 354.43 2.5745-12.316h1.8555l-0.52185 2.5165c0.63395-0.95092 1.2544-1.6544 1.8613-2.1106 0.60689-0.45612 1.2273-0.68419 1.8613-0.6842 0.41747 1e-5 0.93159 0.15077 1.5424 0.45227l-0.85815 1.9482c-0.36337-0.26285-0.76152-0.39428-1.1945-0.39429-0.73446 1e-5 -1.4882 0.40976-2.2614 1.2292-0.77312 0.81951-1.38 2.2923-1.8207 4.4183l-1.0437 4.9402z"/></g><g id="en" fill="#262626"><path id="eo" d="m-388.86 348.45 2.2498 0.31311c-0.71128 1.9637-1.7472 3.4481-3.1079 4.4531-1.3607 1.005-2.8876 1.5076-4.5807 1.5076-2.0642 0-3.7013-0.63009-4.9112-1.8903s-1.8149-3.0654-1.8149-5.4156c0-3.0615 0.92-5.5934 2.76-7.5958 1.639-1.7859 3.6761-2.6788 6.1114-2.6788 1.8013 2e-5 3.2606 0.48321 4.3778 1.4496 1.1171 0.9664 1.7646 2.2652 1.9424 3.8965l-2.1222 0.19714c-0.22422-1.2292-0.68615-2.1473-1.3858-2.7542-0.69968-0.60688-1.6023-0.91032-2.7078-0.91034-2.0797 2e-5 -3.7612 0.92389-5.0446 2.7716-1.1133 1.5926-1.6699 3.4829-1.6699 5.6708-1e-5 1.7472 0.42907 3.0808 1.2872 4.0008 0.85815 0.92001 1.9753 1.38 3.3514 1.38 1.1751 0 2.2382-0.38269 3.1891-1.1481 0.95091-0.76537 1.6428-1.8477 2.0758-3.2471z"/><path id="ep" d="m-376.93 352.9c-0.72673 0.62622-1.4264 1.0843-2.099 1.3742-0.67262 0.28991-1.3916 0.43487-2.157 0.43487-1.1365 0-2.0526-0.33437-2.7484-1.0031s-1.0437-1.525-1.0437-2.5687c0-0.68806 0.15655-1.2969 0.46966-1.8265s0.72866-0.95479 1.2466-1.2756c0.51798-0.32083 1.1519-0.55083 1.9018-0.69 0.4716-0.0928 1.3665-0.16621 2.6846-0.22034 1.3182-0.0541 2.2633-0.19327 2.8354-0.41748 0.16235-0.57209 0.24352-1.0476 0.24353-1.4264-1e-5 -0.48705-0.17782-0.86974-0.53344-1.1481-0.48707-0.38655-1.1983-0.57982-2.1338-0.57984-0.88136 2e-5 -1.6023 0.19523-2.1628 0.58564-0.56052 0.39043-0.96833 0.94514-1.2234 1.6641l-2.1222-0.18555c0.43294-1.2215 1.1191-2.157 2.0584-2.8064 0.93933-0.6494 2.1241-0.97411 3.5544-0.97412 1.523 1e-5 2.7291 0.36337 3.6182 1.0901 0.68033 0.54119 1.0205 1.2447 1.0205 2.1106-1e-5 0.65715-0.0967 1.4187-0.28992 2.2846l-0.6842 3.0615c-0.21649 0.97412-0.32472 1.7666-0.32471 2.3773-1e-5 0.38656 0.085 0.9432 0.25513 1.6699h-2.1222c-0.11597-0.40202-0.19715-0.91227-0.24353-1.5308zm0.77698-4.7082c-0.29379 0.11597-0.60883 0.20488-0.94513 0.26672-0.33631 0.0619-0.89875 0.12757-1.6873 0.19714-1.2215 0.10825-2.0836 0.24547-2.5861 0.41169-0.50253 0.16622-0.88136 0.43101-1.1365 0.79437-0.25513 0.36337-0.38269 0.76538-0.38269 1.206 0 0.58757 0.20294 1.0708 0.60883 1.4496 0.40588 0.37882 0.98378 0.56824 1.7337 0.56824 0.6958 0 1.3645-0.18362 2.0062-0.55085 0.64167-0.36722 1.1481-0.87941 1.5192-1.5366 0.37109-0.65714 0.661-1.5926 0.86975-2.8064z"/><path id="eq" d="m-372.18 354.43 3.5486-17.001h2.099l-3.5486 17.001z"/><path id="er" d="m-366.89 354.43 3.5486-17.001h2.099l-3.5486 17.001z"/><path id="es" d="m-352.39 350.25 2.041 0.20874c-0.29379 1.0128-0.96833 1.9753-2.0236 2.8876-1.0553 0.91227-2.3135 1.3684-3.7747 1.3684-0.91227 0-1.7492-0.21067-2.5107-0.63202-0.76151-0.42134-1.3414-1.034-1.7395-1.8381s-0.59723-1.7202-0.59723-2.7484c0-1.3452 0.31118-2.6498 0.93354-3.9139 0.62235-1.264 1.4283-2.2034 2.4179-2.818 0.98958-0.61461 2.0603-0.92192 3.2123-0.92193 1.4689 1e-5 2.6421 0.45614 3.5196 1.3684 0.87747 0.91229 1.3162 2.157 1.3162 3.7341-1e-5 0.60303-0.0541 1.2215-0.16235 1.8555h-9.0686c-0.0309 0.23967-0.0464 0.45615-0.0464 0.64942 0 1.1519 0.26479 2.0314 0.79438 2.6382 0.52957 0.6069 1.1771 0.91034 1.9424 0.91034 0.71899 0 1.4264-0.2358 2.1222-0.7074 0.6958-0.47159 1.237-1.1519 1.6235-2.041zm-6.0998-3.0499h6.9116c8e-3 -0.21646 0.0116-0.37108 0.0116-0.46387-1e-5 -1.0514-0.26287-1.8574-0.78857-2.4179-0.52573-0.5605-1.2022-0.84075-2.0294-0.84076-0.89682 1e-5 -1.7144 0.30925-2.4527 0.92773-0.73832 0.6185-1.2892 1.5501-1.6525 2.7948z"/><path id="et" d="m-339.17 350.25 2.041 0.20874c-0.29379 1.0128-0.96833 1.9753-2.0236 2.8876-1.0553 0.91227-2.3136 1.3684-3.7747 1.3684-0.91228 0-1.7492-0.21067-2.5107-0.63202-0.76152-0.42134-1.3414-1.034-1.7395-1.8381-0.39816-0.80404-0.59723-1.7202-0.59723-2.7484 0-1.3452 0.31117-2.6498 0.93353-3.9139 0.62235-1.264 1.4283-2.2034 2.4179-2.818 0.98958-0.61461 2.0603-0.92192 3.2123-0.92193 1.4689 1e-5 2.6421 0.45614 3.5196 1.3684 0.87747 0.91229 1.3162 2.157 1.3162 3.7341-1e-5 0.60303-0.0541 1.2215-0.16235 1.8555h-9.0686c-0.0309 0.23967-0.0464 0.45615-0.0464 0.64942 0 1.1519 0.26479 2.0314 0.79437 2.6382 0.52958 0.6069 1.1771 0.91034 1.9424 0.91034 0.71898 0 1.4264-0.2358 2.1222-0.7074 0.69579-0.47159 1.237-1.1519 1.6235-2.041zm-6.0998-3.0499h6.9116c8e-3 -0.21646 0.0116-0.37108 0.0116-0.46387-1e-5 -1.0514-0.26287-1.8574-0.78858-2.4179-0.52572-0.5605-1.2022-0.84075-2.0294-0.84076-0.89681 1e-5 -1.7144 0.30925-2.4527 0.92773-0.73833 0.6185-1.2892 1.5501-1.6525 2.7948z"/></g><g id="eu" fill="#262626"><path id="ev" d="m-621.36 348.45 2.2498 0.31311c-0.71128 1.9637-1.7472 3.4481-3.1079 4.4531-1.3607 1.005-2.8876 1.5076-4.5807 1.5076-2.0642 0-3.7013-0.63009-4.9112-1.8903s-1.8149-3.0654-1.8149-5.4156c0-3.0615 0.92-5.5934 2.76-7.5958 1.639-1.7859 3.6761-2.6788 6.1114-2.6788 1.8013 2e-5 3.2606 0.48321 4.3778 1.4496 1.1171 0.9664 1.7646 2.2652 1.9424 3.8965l-2.1222 0.19714c-0.22422-1.2292-0.68615-2.1473-1.3858-2.7542-0.69968-0.60688-1.6023-0.91032-2.7078-0.91034-2.0797 2e-5 -3.7612 0.92389-5.0446 2.7716-1.1133 1.5926-1.6699 3.4829-1.6699 5.6708-1e-5 1.7472 0.42907 3.0808 1.2872 4.0008 0.85815 0.92001 1.9753 1.38 3.3514 1.38 1.1751 0 2.2382-0.38269 3.1891-1.1481 0.95091-0.76537 1.6428-1.8477 2.0758-3.2471z"/><path id="ew" d="m-609.43 352.9c-0.72673 0.62622-1.4264 1.0843-2.099 1.3742-0.67262 0.28991-1.3916 0.43487-2.157 0.43487-1.1365 0-2.0526-0.33437-2.7484-1.0031s-1.0437-1.525-1.0437-2.5687c0-0.68806 0.15655-1.2969 0.46966-1.8265s0.72866-0.95479 1.2466-1.2756c0.51798-0.32083 1.1519-0.55083 1.9018-0.69 0.4716-0.0928 1.3665-0.16621 2.6846-0.22034 1.3182-0.0541 2.2633-0.19327 2.8354-0.41748 0.16235-0.57209 0.24352-1.0476 0.24353-1.4264-1e-5 -0.48705-0.17782-0.86974-0.53344-1.1481-0.48707-0.38655-1.1983-0.57982-2.1338-0.57984-0.88136 2e-5 -1.6023 0.19523-2.1628 0.58564-0.56052 0.39043-0.96833 0.94514-1.2234 1.6641l-2.1222-0.18555c0.43294-1.2215 1.1191-2.157 2.0584-2.8064 0.93933-0.6494 2.1241-0.97411 3.5544-0.97412 1.523 1e-5 2.7291 0.36337 3.6182 1.0901 0.68033 0.54119 1.0205 1.2447 1.0205 2.1106-1e-5 0.65715-0.0967 1.4187-0.28992 2.2846l-0.6842 3.0615c-0.21649 0.97412-0.32472 1.7666-0.32471 2.3773-1e-5 0.38656 0.085 0.9432 0.25513 1.6699h-2.1222c-0.11597-0.40202-0.19715-0.91227-0.24353-1.5308zm0.77698-4.7082c-0.29379 0.11597-0.60883 0.20488-0.94513 0.26672-0.33631 0.0619-0.89875 0.12757-1.6873 0.19714-1.2215 0.10825-2.0836 0.24547-2.5861 0.41169-0.50253 0.16622-0.88136 0.43101-1.1365 0.79437-0.25513 0.36337-0.38269 0.76538-0.38269 1.206 0 0.58757 0.20294 1.0708 0.60883 1.4496 0.40588 0.37882 0.98378 0.56824 1.7337 0.56824 0.69579 0 1.3645-0.18362 2.0062-0.55085 0.64167-0.36722 1.1481-0.87941 1.5192-1.5366 0.37109-0.65714 0.661-1.5926 0.86975-2.8064z"/><path id="ex" d="m-604.68 354.43 3.5486-17.001h2.099l-3.5486 17.001z"/><path id="ey" d="m-599.39 354.43 3.5486-17.001h2.099l-3.5486 17.001z"/><path id="ez" d="m-584.89 350.25 2.041 0.20874c-0.29379 1.0128-0.96833 1.9753-2.0236 2.8876-1.0553 0.91227-2.3135 1.3684-3.7747 1.3684-0.91227 0-1.7492-0.21067-2.5107-0.63202-0.76152-0.42134-1.3414-1.034-1.7395-1.8381s-0.59723-1.7202-0.59723-2.7484c0-1.3452 0.31118-2.6498 0.93353-3.9139 0.62236-1.264 1.4283-2.2034 2.4179-2.818 0.98958-0.61461 2.0603-0.92192 3.2123-0.92193 1.4689 1e-5 2.6421 0.45614 3.5196 1.3684 0.87746 0.91229 1.3162 2.157 1.3162 3.7341-1e-5 0.60303-0.0541 1.2215-0.16236 1.8555h-9.0686c-0.0309 0.23967-0.0464 0.45615-0.0464 0.64942 0 1.1519 0.26479 2.0314 0.79438 2.6382 0.52957 0.6069 1.177 0.91034 1.9424 0.91034 0.71899 0 1.4264-0.2358 2.1222-0.7074 0.6958-0.47159 1.237-1.1519 1.6235-2.041zm-6.0999-3.0499h6.9116c8e-3 -0.21646 0.0116-0.37108 0.0116-0.46387-1e-5 -1.0514-0.26287-1.8574-0.78857-2.4179-0.52573-0.5605-1.2022-0.84075-2.0294-0.84076-0.89682 1e-5 -1.7144 0.30925-2.4527 0.92773-0.73832 0.6185-1.2892 1.5501-1.6525 2.7948z"/><path id="fa" d="m-580.72 354.43 2.5745-12.316h1.8555l-0.52185 2.5165c0.63395-0.95092 1.2544-1.6544 1.8613-2.1106 0.60689-0.45612 1.2273-0.68419 1.8613-0.6842 0.41747 1e-5 0.93159 0.15077 1.5424 0.45227l-0.85816 1.9482c-0.36337-0.26285-0.76152-0.39428-1.1945-0.39429-0.73446 1e-5 -1.4882 0.40976-2.2614 1.2292-0.77311 0.81951-1.38 2.2923-1.8207 4.4183l-1.0437 4.9402z"/></g></g></svg>
