<?xml version="1.0" encoding="UTF-8"?>
<svg id="a" version="1.1" viewBox="0 0 379.69 294.06" xmlns="http://www.w3.org/2000/svg"><g id="b" transform="translate(34.156 -273.59)"><path id="c" d="m-27.366 472.25v88.594h118.05v-88.594h-118.05z" fill="#fff" fill-rule="evenodd"/><path id="d" d="m-27.366 560.85h118.05v-88.594h-118.05v88.594z" fill="none" stroke="#000" stroke-linecap="round" stroke-linejoin="round" stroke-width="3.5938px"/><g id="e" transform="matrix(.95763 0 0 .95763 -.66472 22.174)" fill="#262626"><path id="f" d="m-15.69 523.11v-17.001h6.413c1.1287 2e-5 1.9908 0.0541 2.5861 0.16235 0.83495 0.13918 1.5346 0.40397 2.099 0.79438 0.56436 0.39043 1.0186 0.93741 1.3626 1.6409 0.34402 0.70354 0.51604 1.4766 0.51605 2.3193-1.48e-5 1.4457-0.46002 2.6692-1.38 3.6704-0.92002 1.0012-2.5822 1.5018-4.9866 1.5018h-4.3604v6.9116zm2.2498-8.9178h4.3951c1.4534 1e-5 2.4855-0.27058 3.0963-0.81177 0.61075-0.54117 0.91613-1.3027 0.91614-2.2846-1.25e-5 -0.71125-0.17976-1.3201-0.53925-1.8265-0.35951-0.50638-0.83304-0.84075-1.4206-1.0031-0.37884-0.10049-1.0785-0.15074-2.099-0.15075h-4.3488z"/><path id="g" d="m7.979 523.11v-1.8091c-0.95867 1.3916-2.2614 2.0874-3.9081 2.0874-0.72673 0-1.4051-0.13916-2.0352-0.41748-0.63009-0.27832-1.0978-0.62815-1.4032-1.0495-0.30538-0.42134-0.51992-0.93739-0.64362-1.5482-0.085044-0.40975-0.12756-1.0592-0.12756-1.9482v-7.6306h2.0874v6.8304c-3.6e-6 1.0901 0.042517 1.8246 0.12756 2.2034 0.13143 0.54891 0.40975 0.97992 0.83496 1.293 0.42521 0.31311 0.95092 0.46967 1.5771 0.46967 0.62621 0 1.2138-0.16042 1.7627-0.48126 0.5489-0.32084 0.93739-0.75765 1.1655-1.3104 0.22806-0.55277 0.34209-1.3549 0.3421-2.4063v-6.5985h2.0874v12.316z"/><path id="h" d="m15.053 523.11h-1.9366v-17.001h2.0874v6.0651c0.88134-1.1055 2.0062-1.6583 3.3746-1.6583 0.75764 1e-5 1.4747 0.1527 2.1512 0.45807 0.67646 0.30539 1.2331 0.73447 1.6699 1.2872 0.4368 0.55278 0.7789 1.2196 1.0263 2.0004 0.24738 0.78085 0.37108 1.6158 0.37109 2.5049-1.2e-5 2.1106-0.52186 3.7419-1.5656 4.8938-1.0437 1.1519-2.2962 1.7279-3.7573 1.7279-1.4535 0-2.5938-0.60689-3.421-1.8207zm-0.02319-6.2506c-3e-6 1.4766 0.20101 2.5435 0.60303 3.2007 0.65714 1.0746 1.5462 1.6119 2.6672 1.6119 0.91226 1e-5 1.7008-0.39621 2.3657-1.1886 0.66487-0.79244 0.9973-1.9734 0.99732-3.5428-1e-5 -1.6081-0.31892-2.7948-0.95673-3.5602-0.63783-0.76537-1.409-1.1481-2.3135-1.1481-0.91228 1e-5 -1.7009 0.39623-2.3657 1.1887-0.66488 0.79245-0.99732 1.9386-0.99732 3.4384z"/><path id="i" d="m26.302 523.11v-17.001h2.0874v17.001z"/><path id="j" d="m31.648 508.51v-2.4005h2.0874v2.4005zm0 14.6v-12.316h2.0874v12.316z"/><path id="k" d="m36.089 519.44 2.0642-0.32471c0.11596 0.82723 0.43874 1.4612 0.96832 1.9018 0.52958 0.44068 1.2698 0.66102 2.2208 0.66101 0.95865 1e-5 1.6699-0.1952 2.1338-0.58563 0.46386-0.39042 0.69579-0.84849 0.6958-1.3742-9e-6 -0.4716-0.20488-0.84269-0.61462-1.1133-0.28606-0.18554-0.99732-0.42134-2.1338-0.70739-1.5308-0.38655-2.5919-0.72092-3.1833-1.0031-0.59143-0.28218-1.0398-0.6726-1.3452-1.1713-0.30538-0.49865-0.45807-1.0495-0.45807-1.6525-1e-6 -0.5489 0.12563-1.0572 0.37689-1.525 0.25126-0.46772 0.59336-0.85621 1.0263-1.1655 0.3247-0.23965 0.76731-0.44259 1.3278-0.60882 0.5605-0.16621 1.1616-0.24932 1.8033-0.24933 0.96638 1e-5 1.8149 0.13917 2.5455 0.41748 0.73058 0.27833 1.2698 0.65522 1.6177 1.1307 0.34789 0.47547 0.58755 1.1114 0.71899 1.9076l-2.041 0.27832c-0.09278-0.63394-0.36144-1.1287-0.80597-1.4844-0.44455-0.35562-1.0727-0.53343-1.8845-0.53344-0.95866 1e-5 -1.6429 0.1585-2.0526 0.47546-0.40975 0.31699-0.61463 0.68808-0.61462 1.1133-3e-6 0.2706 0.08504 0.51413 0.25513 0.73059 0.17008 0.22421 0.4368 0.40976 0.80017 0.55664 0.20874 0.0773 0.82336 0.25514 1.8439 0.53345 1.4766 0.3943 2.5068 0.71707 3.0905 0.96832 0.58369 0.25127 1.0418 0.61657 1.3742 1.0959 0.33243 0.47933 0.49865 1.0746 0.49866 1.7859-1.1e-5 0.6958-0.20295 1.351-0.60883 1.9656-0.40589 0.61462-0.99152 1.0901-1.7569 1.4264-0.76539 0.3363-1.6313 0.50445-2.5977 0.50445-1.6003 0-2.8199-0.33243-3.6588-0.99731-0.83883-0.66488-1.3742-1.6506-1.6061-2.9572z"/><path id="l" d="m48.799 523.11v-17.001h2.0874v6.0998c0.97412-1.1287 2.2034-1.6931 3.6877-1.6931 0.91226 1e-5 1.7047 0.17976 2.3773 0.53924 0.6726 0.35951 1.1539 0.85624 1.4438 1.4902 0.2899 0.63396 0.43486 1.554 0.43488 2.76v7.8046h-2.0874v-7.8046c-1e-5 -1.0437-0.22614-1.8033-0.67841-2.2788-0.45228-0.47545-1.092-0.71319-1.9192-0.7132-0.6185 1e-5 -1.2003 0.16044-1.7453 0.48127-0.54505 0.32085-0.93354 0.75572-1.1655 1.3046-0.23194 0.54892-0.3479 1.3066-0.3479 2.273v6.7377z"/><path id="m" d="m70.45 519.15 2.157 0.26672c-0.34018 1.2602-0.97027 2.2382-1.8903 2.934-0.92001 0.6958-2.0951 1.0437-3.5254 1.0437-1.8014 0-3.2297-0.5547-4.285-1.6641-1.0553-1.1094-1.5829-2.6653-1.5829-4.6677 0-2.0719 0.53345-3.68 1.6003-4.8242 1.0669-1.1442 2.4508-1.7163 4.1516-1.7163 1.6467 1e-5 2.9919 0.56052 4.0356 1.6815 1.0437 1.121 1.5655 2.6982 1.5656 4.7314-1.2e-5 0.12371-0.0039 0.30925-0.0116 0.55664h-9.1846c0.07731 1.353 0.46 2.3889 1.1481 3.1079 0.68806 0.719 1.5462 1.0785 2.5745 1.0785 0.76537 1e-5 1.4187-0.201 1.9598-0.60302 0.54117-0.40202 0.97025-1.0437 1.2872-1.925zm-6.8536-3.3746h6.8768c-0.09278-1.036-0.35564-1.8129-0.78857-2.3309-0.66488-0.80402-1.5269-1.206-2.5861-1.206-0.95866 1e-5 -1.7646 0.32085-2.4179 0.96252-0.65328 0.64169-1.0147 1.4998-1.0843 2.5745z"/><path id="n" d="m75.217 523.11v-12.316h1.8787v1.8671c0.47932-0.8736 0.92193-1.4496 1.3278-1.7279 0.40588-0.27831 0.85235-0.41747 1.3394-0.41748 0.70352 1e-5 1.4187 0.22421 2.1454 0.67261l-0.71899 1.9366c-0.51026-0.3015-1.0205-0.45226-1.5308-0.45227-0.45614 1e-5 -0.86589 0.13724-1.2292 0.41168-0.36337 0.27447-0.62236 0.65523-0.77698 1.1423-0.23194 0.74219-0.3479 1.554-0.3479 2.4353v6.4478z"/></g><path id="o" d="m220.6 472.25v88.594h118.12v-88.594h-118.12z" fill="#fff" fill-rule="evenodd"/><path id="p" d="m220.6 560.85h118.12v-88.594h-118.12v88.594z" fill="none" stroke="#000" stroke-linecap="round" stroke-linejoin="round" stroke-width="3.5938px"/><g id="q" fill="#262626"><path id="r" d="m228.43 518.23 1.8988-0.16602c0.0899 0.76091 0.29917 1.3852 0.62775 1.8729 0.32856 0.48767 0.83872 0.88196 1.5304 1.1829s1.4699 0.45135 2.3346 0.45135c0.76781 0 1.4457-0.11413 2.0337-0.3424 0.58796-0.22827 1.0255-0.54128 1.3126-0.93903 0.28706-0.39774 0.43059-0.8318 0.4306-1.3022-1e-5 -0.47729-0.13836-0.89405-0.41504-1.2503-0.2767-0.35624-0.73324-0.65541-1.3696-0.89752-0.40813-0.15909-1.3108-0.40639-2.7081-0.74189-1.3973-0.33548-2.3761-0.65194-2.9364-0.9494-0.72632-0.38044-1.2676-0.85255-1.6238-1.4163-0.35624-0.56375-0.53436-1.195-0.53436-1.8936 0-0.76781 0.21789-1.4855 0.65369-2.153 0.43578-0.66751 1.0722-1.1742 1.9092-1.5201 0.83699-0.34585 1.7674-0.51878 2.7911-0.5188 1.1275 2e-5 2.1219 0.1816 2.9831 0.54474 0.86119 0.36317 1.5235 0.89754 1.987 1.6031 0.46344 0.70558 0.71247 1.5045 0.74707 2.3968l-1.9299 0.14526c-0.10378-0.96149-0.45483-1.6878-1.0532-2.179-0.59835-0.49112-1.482-0.73668-2.6511-0.7367-1.2174 2e-5 -2.1046 0.2231-2.6614 0.66925-0.55684 0.44618-0.83527 0.984-0.83526 1.6135-1e-5 0.54648 0.19714 0.9961 0.59143 1.3489 0.38736 0.35279 1.399 0.71422 3.035 1.0843 1.6359 0.37008 2.7583 0.69346 3.367 0.97015 0.8854 0.40813 1.5391 0.9252 1.9611 1.5512 0.42194 0.62602 0.63292 1.3472 0.63293 2.1634-1e-5 0.80933-0.23174 1.572-0.69519 2.2879-0.46347 0.71595-1.1293 1.2728-1.9974 1.6705-0.86813 0.39775-1.8452 0.59662-2.9312 0.59662-1.3766 0-2.53-0.2006-3.4604-0.6018-0.93038-0.40121-1.6602-1.0047-2.1893-1.8106s-0.8076-1.7172-0.83526-2.7341z"/><path id="s" d="m250.29 523.11v-1.6186c-0.85776 1.2451-2.0233 1.8677-3.4967 1.8677-0.65023 0-1.2572-0.12452-1.821-0.37354s-0.98226-0.56203-1.2555-0.93902c-0.27324-0.377-0.46519-0.83873-0.57587-1.3852-0.0761-0.36661-0.11414-0.94767-0.11414-1.7432v-6.8274h1.8677v6.1114c0 0.97534 0.038 1.6325 0.11414 1.9714 0.11759 0.49113 0.36661 0.87677 0.74707 1.1569 0.38044 0.28016 0.85082 0.42023 1.4111 0.42023 0.5603 0 1.086-0.14353 1.5772-0.4306 0.49112-0.28707 0.83871-0.6779 1.0428-1.1725 0.20406-0.49458 0.30609-1.2122 0.30609-2.153v-5.9039h1.8677v11.019z"/><path id="t" d="m256.62 523.11h-1.7328v-15.211h1.8677v5.4266c0.78857-0.98917 1.795-1.4838 3.0194-1.4838 0.67789 1e-5 1.3195 0.13663 1.9247 0.40985 0.60526 0.27325 1.1033 0.65716 1.4941 1.1517 0.39082 0.49459 0.69691 1.0912 0.91828 1.7898 0.22134 0.69866 0.33202 1.4457 0.33203 2.2412-1e-5 1.8884-0.46693 3.348-1.4008 4.3787-0.93384 1.0307-2.0544 1.546-3.3618 1.546-1.3005 0-2.3208-0.54301-3.0609-1.629zm-0.0207-5.5926c0 1.3212 0.17985 2.2758 0.53955 2.8638 0.58797 0.96151 1.3835 1.4423 2.3865 1.4423 0.81623 0 1.5218-0.35451 2.1167-1.0635 0.59488-0.70902 0.89232-1.7656 0.89233-3.1699-1e-5 -1.4388-0.28535-2.5006-0.85602-3.1854-0.57068-0.68481-1.2607-1.0272-2.07-1.0272-0.81624 1e-5 -1.5218 0.35452-2.1167 1.0635-0.5949 0.70904-0.89234 1.7345-0.89234 3.0765z"/><path id="u" d="m265.98 519.82 1.8469-0.29053c0.10376 0.74016 0.39255 1.3074 0.86639 1.7017 0.47383 0.39429 1.1362 0.59143 1.987 0.59143 0.85774 0 1.4941-0.17466 1.9092-0.52398 0.41503-0.34933 0.62255-0.75918 0.62256-1.2296-1e-5 -0.42195-0.18332-0.75398-0.54993-0.99609-0.25594-0.16601-0.89234-0.37699-1.9092-0.63294-1.3696-0.34586-2.319-0.64503-2.8482-0.89752-0.52918-0.25247-0.93038-0.6018-1.2036-1.048-0.27323-0.44616-0.40985-0.93902-0.40985-1.4786 0-0.49112 0.11241-0.94593 0.33722-1.3644 0.22481-0.41849 0.53091-0.76608 0.91828-1.0428 0.29052-0.21442 0.68654-0.396 1.188-0.54473 0.5015-0.14872 1.0393-0.22308 1.6135-0.22309 0.86466 1e-5 1.6238 0.12453 2.2775 0.37354 0.65368 0.24903 1.1362 0.58625 1.4474 1.0117 0.31127 0.42542 0.5257 0.99437 0.64331 1.7068l-1.8262 0.24903c-0.083-0.56721-0.32339-1.0099-0.72113-1.3281-0.39775-0.31819-0.95978-0.47728-1.6861-0.47729-0.85775 1e-5 -1.4699 0.14181-1.8366 0.42541-0.36662 0.28362-0.54993 0.61565-0.54993 0.9961 0 0.24211 0.0761 0.46001 0.22827 0.65368 0.15218 0.20061 0.39083 0.36663 0.71595 0.49805 0.18676 0.0692 0.73669 0.22828 1.6498 0.47729 1.3212 0.35279 2.2429 0.64159 2.7652 0.8664 0.52224 0.22482 0.93209 0.55166 1.2296 0.98053 0.29743 0.42888 0.44616 0.96151 0.44617 1.5979-1e-5 0.62256-0.18159 1.2088-0.54474 1.7587-0.36317 0.54992-0.88716 0.97534-1.572 1.2762-0.68483 0.3009-1.4596 0.45136-2.3242 0.45136-1.4319 0-2.5231-0.29745-3.2736-0.89234-0.75053-0.59489-1.2296-1.4768-1.4371-2.6459z"/><path id="v" d="m284.55 519.08 1.8365 0.23865c-0.20061 1.2659-0.71422 2.2568-1.5408 2.9727-0.82663 0.71595-1.8417 1.0739-3.0454 1.0739-1.508 0-2.7202-0.49286-3.6368-1.4786s-1.3748-2.3986-1.3748-4.2386c0-1.1898 0.19714-2.2308 0.59143-3.1232 0.39428-0.89232 0.99436-1.5616 1.8002-2.0078 0.80586-0.44615 1.6826-0.66924 2.6303-0.66925 1.1967 1e-5 2.1755 0.30265 2.9364 0.9079 0.7609 0.60528 1.2486 1.4648 1.463 2.5784l-1.8158 0.28015c-0.17294-0.74014-0.47904-1.297-0.91828-1.6705-0.43925-0.37353-0.97016-0.56029-1.5927-0.5603-0.94076 1e-5 -1.7051 0.33723-2.2931 1.0116-0.58798 0.67445-0.88196 1.7414-0.88196 3.201 0 1.4803 0.28361 2.556 0.85083 3.2269 0.56722 0.67098 1.3074 1.0065 2.2205 1.0065 0.73323 0 1.3454-0.22481 1.8366-0.67444 0.49112-0.44962 0.8024-1.1414 0.93384-2.0752z"/><path id="w" d="m287.96 523.11v-11.019h1.6809v1.6705c0.42887-0.78165 0.82489-1.297 1.188-1.546 0.36315-0.24901 0.76263-0.37353 1.1984-0.37354 0.62947 1e-5 1.2693 0.20062 1.9196 0.60181l-0.64331 1.7328c-0.45655-0.26977-0.91309-0.40466-1.3696-0.40467-0.40813 1e-5 -0.77474 0.1228-1.0998 0.36835-0.32512 0.24557-0.55685 0.58625-0.69519 1.022-0.20753 0.66407-0.31128 1.3904-0.31128 2.179v5.769z"/><path id="x" d="m295.09 510.05v-2.1478h1.8677v2.1478zm0 13.063v-11.019h1.8677v11.019z"/><path id="y" d="m301.53 523.11h-1.7328v-15.211h1.8677v5.4266c0.78857-0.98917 1.795-1.4838 3.0194-1.4838 0.67789 1e-5 1.3195 0.13663 1.9247 0.40985 0.60526 0.27325 1.1033 0.65716 1.4941 1.1517 0.39082 0.49459 0.69691 1.0912 0.91828 1.7898 0.22134 0.69866 0.33202 1.4457 0.33203 2.2412-1e-5 1.8884-0.46693 3.348-1.4008 4.3787-0.93385 1.0307-2.0544 1.546-3.3618 1.546-1.3005 0-2.3208-0.54301-3.0609-1.629zm-0.0208-5.5926c-1e-5 1.3212 0.17985 2.2758 0.53955 2.8638 0.58797 0.96151 1.3835 1.4423 2.3865 1.4423 0.81624 0 1.5218-0.35451 2.1167-1.0635 0.59488-0.70902 0.89233-1.7656 0.89234-3.1699-1e-5 -1.4388-0.28535-2.5006-0.85602-3.1854-0.57069-0.68481-1.2607-1.0272-2.07-1.0272-0.81625 1e-5 -1.5218 0.35452-2.1167 1.0635-0.59489 0.70904-0.89234 1.7345-0.89233 3.0765z"/><path id="z" d="m319.18 519.56 1.9299 0.23865c-0.30437 1.1275-0.86814 2.0026-1.6913 2.6251-0.82317 0.62256-1.8746 0.93384-3.1543 0.93384-1.6117 0-2.8897-0.49632-3.8339-1.489-0.94421-0.99263-1.4163-2.3847-1.4163-4.1763 0-1.8538 0.4773-3.2926 1.4319-4.3164 0.95458-1.0238 2.1928-1.5356 3.7146-1.5356 1.4734 1e-5 2.677 0.50152 3.6108 1.5045 0.93382 1.003 1.4007 2.4142 1.4008 4.2334-1e-5 0.11068-3e-3 0.2767-0.0104 0.49804h-8.2178c0.0692 1.2105 0.41158 2.1375 1.0272 2.7808 0.61563 0.64331 1.3834 0.96496 2.3035 0.96496 0.68481 0 1.2693-0.17985 1.7535-0.53955 0.48421-0.3597 0.86812-0.93383 1.1517-1.7224zm-6.1322-3.0194h6.153c-0.083-0.92691-0.31821-1.6221-0.70557-2.0856-0.5949-0.71939-1.3662-1.0791-2.3138-1.0791-0.85775 1e-5 -1.5789 0.28708-2.1634 0.8612-0.58452 0.57415-0.9079 1.342-0.97016 2.3035z"/><path id="aa" d="m323.45 523.11v-11.019h1.6809v1.6705c0.42887-0.78165 0.82489-1.297 1.188-1.546 0.36315-0.24901 0.76263-0.37353 1.1984-0.37354 0.62947 1e-5 1.2693 0.20062 1.9196 0.60181l-0.64331 1.7328c-0.45655-0.26977-0.91309-0.40466-1.3696-0.40467-0.40813 1e-5 -0.77474 0.1228-1.0998 0.36835-0.32512 0.24557-0.55685 0.58625-0.69519 1.022-0.20753 0.66407-0.31128 1.3904-0.31128 2.179v5.769z"/></g><path id="ab" d="m102.56 280.38v88.516h118.05v-88.516h-118.05z" fill="#fff" fill-rule="evenodd"/><path id="ac" d="m102.56 368.89h118.05v-88.516h-118.05v88.516z" fill="none" stroke="#000" stroke-linecap="round" stroke-linejoin="round" stroke-width="3.5938px"/><g id="ad" fill="#262626"><path id="ae" d="m125.47 314.86h6.7957c1.3452 2e-5 2.3483 0.0561 3.0093 0.16815 0.661 0.11212 1.2524 0.34599 1.7743 0.7016 0.52184 0.35565 0.95671 0.82918 1.3046 1.4206 0.34788 0.59144 0.52183 1.2544 0.52185 1.9888-2e-5 0.79631-0.21456 1.5269-0.64362 2.1918-0.42909 0.66488-1.0109 1.1635-1.7453 1.496 1.036 0.30152 1.8323 0.81564 2.3889 1.5424 0.55662 0.72673 0.83494 1.581 0.83496 2.5629-2e-5 0.77312-0.17977 1.525-0.53925 2.2556-0.35951 0.73059-0.85044 1.3143-1.4728 1.7511-0.62236 0.43681-1.3897 0.70546-2.3019 0.80597-0.57211 0.0618-1.9521 0.1005-4.14 0.11596h-5.7868zm3.4326 2.8296v3.9313h2.2498c1.3375 1e-5 2.1686-0.0193 2.4933-0.058 0.58756-0.0696 1.0495-0.27251 1.3858-0.60882 0.33629-0.3363 0.50444-0.7789 0.50445-1.3278-1e-5 -0.52571-0.14497-0.95285-0.43487-1.2814-0.28993-0.32856-0.72094-0.52763-1.293-0.59723-0.34018-0.0386-1.3182-0.058-2.934-0.058zm0 6.7609v4.5459h3.1775c1.237 1e-5 2.0217-0.0348 2.3541-0.10437 0.51024-0.0928 0.92579-0.3189 1.2466-0.6784 0.32083-0.3595 0.48125-0.84076 0.48126-1.4438-1e-5 -0.51025-0.12371-0.94319-0.37109-1.2988-0.24741-0.35562-0.60497-0.61461-1.0727-0.77697-0.46775-0.16235-1.4824-0.24353-3.0441-0.24353z"/><path id="af" d="m145.72 331.86h-3.2587v-12.316h3.0267v1.7511c0.51798-0.82722 0.98378-1.3723 1.3974-1.6351 0.41361-0.26285 0.88328-0.39428 1.409-0.39429 0.74218 1e-5 1.4573 0.20489 2.1454 0.61462l-1.0089 2.8412c-0.54892-0.35562-1.0592-0.53344-1.5308-0.53345-0.45614 1e-5 -0.84269 0.12564-1.1597 0.37689-0.31699 0.25128-0.56631 0.70548-0.74799 1.3626-0.18169 0.65716-0.27253 2.0333-0.27252 4.1284z"/><path id="ag" d="m151.07 325.53c0-1.0824 0.26673-2.1299 0.80017-3.1427 0.53345-1.0128 1.2892-1.7859 2.2672-2.3193 0.97798-0.53343 2.07-0.80016 3.2761-0.80017 1.8632 1e-5 3.3901 0.60497 4.5807 1.8149 1.1906 1.2099 1.7859 2.7388 1.7859 4.5865-1e-5 1.8632-0.6011 3.4075-1.8033 4.6329-1.2022 1.2254-2.7156 1.8381-4.5401 1.8381-1.1288 0-2.2053-0.25512-3.2297-0.76538-1.0244-0.51025-1.8033-1.2582-2.3367-2.244-0.53344-0.98572-0.80017-2.186-0.80017-3.6008zm3.3398 0.17395c-1e-5 1.2215 0.28991 2.157 0.86975 2.8064 0.57983 0.64942 1.295 0.97413 2.1454 0.97412 0.85042 1e-5 1.5636-0.3247 2.1396-0.97412 0.57596-0.64941 0.86394-1.5926 0.86395-2.8296-1e-5 -1.206-0.28799-2.1338-0.86395-2.7832-0.57598-0.6494-1.2892-0.97411-2.1396-0.97412-0.85043 1e-5 -1.5656 0.32472-2.1454 0.97412-0.57984 0.64942-0.86976 1.5849-0.86975 2.8064z"/><path id="ah" d="m166.23 331.86v-17.001h3.2587v9.0222l3.8153-4.3372h4.0124l-4.2096 4.4995 4.5111 7.8162h-3.5138l-3.0963-5.5316-1.5192 1.5887v3.9429z"/><path id="ai" d="m186.7 327.94 3.2471 0.54504c-0.41749 1.1906-1.0766 2.0971-1.9772 2.7194-0.90068 0.62236-2.0275 0.93353-3.3804 0.93353-2.1415 0-3.7264-0.69966-4.7546-2.099-0.81177-1.121-1.2176-2.5358-1.2176-4.2444 0-2.041 0.53344-3.6394 1.6003-4.7952 1.0669-1.1558 2.416-1.7337 4.0472-1.7337 1.8323 1e-5 3.278 0.60497 4.3372 1.8149 1.0592 1.2099 1.5655 3.0635 1.5192 5.5606h-8.1641c0.0232 0.96639 0.28605 1.7182 0.78858 2.2556 0.50251 0.53732 1.1287 0.80597 1.8787 0.80597 0.51024 0 0.93932-0.13916 1.2872-0.41748 0.34789-0.27832 0.61075-0.72672 0.78857-1.3452zm0.18555-3.2935c-0.0232-0.94319-0.26673-1.6602-0.73059-2.1512-0.46388-0.49091-1.0282-0.73637-1.6931-0.73638-0.71126 1e-5 -1.2988 0.259-1.7627 0.77697-0.46387 0.518-0.69194 1.2215-0.6842 2.1106z"/><path id="aj" d="m195.91 331.86h-3.2587v-12.316h3.0267v1.7511c0.51798-0.82722 0.98378-1.3723 1.3974-1.6351 0.41361-0.26285 0.88328-0.39428 1.409-0.39429 0.74218 1e-5 1.4573 0.20489 2.1454 0.61462l-1.0089 2.8412c-0.54891-0.35562-1.0592-0.53344-1.5308-0.53345-0.45614 1e-5 -0.8427 0.12564-1.1597 0.37689-0.31699 0.25128-0.56631 0.70548-0.74799 1.3626-0.18169 0.65716-0.27253 2.0333-0.27252 4.1284z"/></g><path id="ak" d="m31.697 472.25v-147.66h49.375" fill="none" stroke="#000" stroke-linecap="round" stroke-linejoin="round" stroke-width="3.5938px"/><path id="al" d="m79.119 316.86 23.438 7.7344-23.438 7.8125v-15.547z" fill-rule="evenodd"/><path id="am" d="m220.6 324.6h59.062v126.25" fill="none" stroke="#000" stroke-linecap="round" stroke-linejoin="round" stroke-width="3.5938px"/><path id="an" d="m287.48 448.89-7.8125 23.359-7.7344-23.359h15.547z" fill-rule="evenodd"/></g></svg>
