<?xml version="1.0" encoding="UTF-8"?>
<svg id="a" version="1.1" viewBox="0 0 980 421.66" xmlns="http://www.w3.org/2000/svg"><g id="b" transform="translate(615.46 -50.099)"><g id="c" transform="translate(-443.37 47.823)"><g id="d" transform="translate(-17.477 -2.1294)"><path id="e" d="m577.81 186.8h-419.92" fill="none" stroke="#000" stroke-linecap="round" stroke-linejoin="round" stroke-width="3.5938px"/><path id="f" d="m159.61 193.44-13.203-6.6406 13.203-6.5625v13.203z" fill-rule="evenodd"/><path id="g" d="m333.36 157.89v20h57.422v-20h-57.422z" fill="#fff" fill-rule="evenodd"/><text id="h" x="333.75" y="172.5" fill="#000000" font-family="Arial" font-size="16.25px" xml:space="preserve">ABORT</text><path id="i" d="m132.19 76.406v153.12h14.219v-153.12h-14.219z" fill="#fa72c6" fill-rule="evenodd"/><path id="j" d="m578.67 76.406v153.12h14.141v-153.12h-14.141z" fill="#fa72c6" fill-rule="evenodd"/><text id="k" x="533.75" y="33.75" fill="#000000" font-family="Arial" font-size="30px" xml:space="preserve">Router</text><text id="l" x="101.25" y="33.75" fill="#000000" font-family="Arial" font-size="30px" xml:space="preserve">Client</text><path id="m" d="m146.41 111.25h417.03" fill="none" stroke="#000" stroke-linecap="round" stroke-linejoin="round" stroke-width="5.2344px"/><path id="n" d="m561.41 103.05 16.406 8.2031-16.406 8.2031v-16.406z" fill-rule="evenodd"/><path id="o" d="m334.77 82.344v20h54.688v-20h-54.688z" fill="#fff" fill-rule="evenodd"/><text id="p" x="335" y="97.5" fill="#000000" font-family="Arial" font-size="16.25px" xml:space="preserve">HELLO</text><path id="q" d="m124.92 366.56 259.84-179.77" fill="none" stroke="#000" stroke-linecap="round" stroke-linejoin="round" stroke-width=".39062px"/><path id="r" d="m2.1094 319.3v94.453h245.7v-94.453h-245.7z" fill="#fff" fill-rule="evenodd"/><path id="s" d="m2.1094 413.75h245.7v-94.453h-245.7v94.453z" fill="none" stroke="#000" stroke-linecap="round" stroke-linejoin="round" stroke-width=".39062px"/><text id="t" x="25" y="360" fill="#000000" font-family="Arial" font-size="20px" xml:space="preserve">Session establishment </text><text id="u" x="46.25" y="385" fill="#000000" font-family="Arial" font-size="20px" xml:space="preserve">denied by </text><text id="v" x="138.75" y="385" fill="#000000" font-family="Arial" font-size="20px" font-weight="bold" xml:space="preserve">Router</text></g></g></g></svg>
