<?xml version="1.0" encoding="UTF-8"?>
<svg id="a" version="1.1" viewBox="0 0 965.41 515.09" xmlns="http://www.w3.org/2000/svg"><g id="b" transform="translate(130.86 27.777)"><g id="c" transform="translate(-125.72 -30.748)"><path id="d" d="m908.56 128.82h-420.16" fill="none" stroke="#000" stroke-linecap="round" stroke-linejoin="round" stroke-width="3.5958px"/><path id="e" d="m490.04 135.39-13.211-6.5662 13.211-6.6444v13.211z" fill-rule="evenodd"/><path id="f" d="m650.05 99.9v20.011h85.282v-20.011h-85.282z" fill="#fff" fill-rule="evenodd"/><text id="g" x="650.3656" y="115.06468" fill="#000000" font-family="Arial" font-size="16.259px" xml:space="preserve">REGISTER</text><path id="h" d="m461.82 76.449v430.55h14.149v-430.55h-14.149z" fill="#fa72c6" fill-rule="evenodd"/><path id="i" d="m34.003 76.449v430.55h14.227v-430.55h-14.227z" fill="#fa72c6" fill-rule="evenodd"/><path id="j" d="m908.56 76.449v430.55h14.149v-430.55h-14.149z" fill="#fa72c6" fill-rule="evenodd"/><path id="k" d="m908.56 388.81h-420.16" fill="none" stroke="#000" stroke-linecap="round" stroke-linejoin="round" stroke-width="3.5958px"/><path id="l" d="m490.04 395.38-13.211-6.5662 13.211-6.6444v13.211z" fill-rule="evenodd"/><path id="m" d="m638.01 359.89v20.011h109.36v-20.011h-109.36z" fill="#fff" fill-rule="evenodd"/><text id="n" x="637.85858" y="375.21094" fill="#000000" font-family="Arial" font-size="16.259px" xml:space="preserve">UNREGISTER</text><text id="o" x="2.5014062" y="33.768986" fill="#000000" font-family="Arial" font-size="30.017px" xml:space="preserve">Caller</text><text id="p" x="865.48651" y="33.768986" fill="#000000" font-family="Arial" font-size="30.017px" xml:space="preserve">Callee</text><text id="q" x="425.23904" y="33.768986" fill="#000000" font-family="Arial" font-size="30.017px" xml:space="preserve">Dealer</text><path id="r" d="m476.83 199.72h420.16" fill="none" stroke="#000" stroke-linecap="round" stroke-linejoin="round" stroke-width="3.5958px"/><path id="s" d="m895.35 193.08 13.211 6.6444-13.211 6.5662v-13.211z" fill-rule="evenodd"/><path id="t" d="m596.35 170.8v20.011h192.69v-20.011h-192.69z" fill="#fff" fill-rule="evenodd"/><text id="u" x="596.58539" y="186.35477" fill="#000000" font-family="Arial" font-size="16.259px" xml:space="preserve">REGISTERED or ERROR</text><path id="v" d="m476.83 459.71h420.16" fill="none" stroke="#000" stroke-linecap="round" stroke-linejoin="round" stroke-width="3.5958px"/><path id="w" d="m895.35 453.07 13.211 6.6444-13.211 6.5662v-13.211z" fill-rule="evenodd"/><path id="x" d="m584.31 430.79v20.011h216.76v-20.011h-216.76z" fill="#fff" fill-rule="evenodd"/><text id="y" x="584.07837" y="445.25031" fill="#000000" font-family="Arial" font-size="16.259px" xml:space="preserve">UNREGISTERED or ERROR</text></g></g></svg>
