<?xml version="1.0" encoding="UTF-8"?>
<svg id="a" version="1.1" viewBox="0 0 965.41 444.19" xmlns="http://www.w3.org/2000/svg"><g id="b" transform="translate(842.29 -130.81)"><g id="c" transform="translate(-837.15 128.76)"><path id="d" d="m461.82 76.449v359.66h14.149v-359.66h-14.149z" fill="#fa72c6" fill-rule="evenodd"/><path id="e" d="m34.003 76.449v359.66h14.227v-359.66h-14.227z" fill="#fa72c6" fill-rule="evenodd"/><path id="f" d="m908.56 76.449v359.66h14.149v-359.66h-14.149z" fill="#fa72c6" fill-rule="evenodd"/><path id="g" d="m48.934 151.8h398.97" fill="none" stroke="#000" stroke-linecap="round" stroke-linejoin="round" stroke-width="3.5958px"/><path id="h" d="m446.27 145.24 13.211 6.5662-13.211 6.6444v-13.211z" fill-rule="evenodd"/><path id="i" d="m233.33 122.88v20.011h41.664v-20.011h-41.664z" fill="#fff" fill-rule="evenodd"/><text id="j" x="233.88148" y="137.57735" fill="#000000" font-family="Arial" font-size="16.259px" xml:space="preserve">CALL</text><path id="k" d="m476.83 174h420.16" fill="none" stroke="#000" stroke-linecap="round" stroke-linejoin="round" stroke-width="3.5958px"/><path id="l" d="m895.35 167.44 13.211 6.5662-13.211 6.6444v-13.211z" fill-rule="evenodd"/><path id="m" d="m640.83 145.08v20.011h103.73v-20.011h-103.73z" fill="#fff" fill-rule="evenodd"/><text id="n" x="640.35999" y="160.09" fill="#000000" font-family="Arial" font-size="16.259px" xml:space="preserve">INVOCATION</text><text id="o" x="2.5014062" y="33.768986" fill="#000000" font-family="Arial" font-size="30.017px" xml:space="preserve">Caller</text><text id="p" x="865.48651" y="33.768986" fill="#000000" font-family="Arial" font-size="30.017px" xml:space="preserve">Callee</text><text id="q" x="425.23904" y="33.768986" fill="#000000" font-family="Arial" font-size="30.017px" xml:space="preserve">Dealer</text><path id="r" d="m909.1 341.52h-420.08" fill="none" stroke="#000" stroke-linecap="round" stroke-linejoin="round" stroke-width="3.5958px"/><path id="s" d="m490.67 348.16-13.211-6.6444 13.211-6.5662v13.211z" fill-rule="evenodd"/><path id="t" d="m663.19 312.6v20.011h60.19v-20.011h-60.19z" fill="#fff" fill-rule="evenodd"/><text id="u" x="662.87262" y="327.6842" fill="#000000" font-family="Arial" font-size="16.259px" xml:space="preserve">ERROR</text><path id="v" d="m460.02 365.13h-398.97" fill="none" stroke="#000" stroke-linecap="round" stroke-linejoin="round" stroke-width="3.5958px"/><path id="w" d="m62.691 371.77-13.211-6.6444 13.211-6.5662v13.211z" fill-rule="evenodd"/><path id="x" d="m224.66 336.28v20.011h60.19v-20.011h-60.19z" fill="#fff" fill-rule="evenodd"/><text id="y" x="225.12656" y="351.44757" fill="#000000" font-family="Arial" font-size="16.259px" xml:space="preserve">ERROR</text><path id="z" d="m51.826 247.01h399.05" fill="none" stroke="#000" stroke-linecap="round" stroke-linejoin="round" stroke-width="3.5958px"/><path id="aa" d="m449.24 240.37 13.211 6.6444-13.211 6.5662v-13.211z" fill-rule="evenodd"/><path id="ab" d="m223.33 218.09v20.011h67.616v-20.011h-67.616z" fill="#fff" fill-rule="evenodd"/><text id="ac" x="223.87585" y="232.63078" fill="#000000" font-family="Arial" font-size="16.259px" xml:space="preserve">CANCEL</text><path id="ad" d="m477.46 270.62h420.08" fill="none" stroke="#000" stroke-linecap="round" stroke-linejoin="round" stroke-width="3.5958px"/><path id="ae" d="m895.89 264.05 13.211 6.5662-13.211 6.5662v-13.132z" fill-rule="evenodd"/><path id="af" d="m645.6 241.7v20.011h95.366v-20.011h-95.366z" fill="#fff" fill-rule="evenodd"/><text id="ag" x="645.36279" y="256.39413" fill="#000000" font-family="Arial" font-size="16.259px" xml:space="preserve">INTERRUPT</text></g></g></svg>
