<?xml version="1.0" encoding="UTF-8"?>
<svg id="a" version="1.1" viewBox="0 0 1306.9 586.14" xmlns="http://www.w3.org/2000/svg"><g id="b" transform="translate(496.35 204.35)"><g id="c" transform="translate(-490.91 -207.48)"><path id="d" d="m1250.1 128.98h-407.96" fill="none" stroke="#000" stroke-linecap="round" stroke-linejoin="round" stroke-width="3.5958px"/><path id="e" d="m843.76 135.62-13.211-6.6444 13.211-6.5662v13.211z" fill-rule="evenodd"/><path id="f" d="m997.67 100.06v20.011h85.282v-20.011h-85.282z" fill="#fff" fill-rule="evenodd"/><text id="g" x="998.0611" y="115.06468" fill="#000000" font-family="Arial" font-size="16.259px" xml:space="preserve">REGISTER</text><path id="h" d="m816.32 76.606v501.45h14.227v-501.45h-14.227z" fill="#fa72c6" fill-rule="evenodd"/><path id="i" d="m414.53 76.606v501.45h14.227v-501.45h-14.227z" fill="#fa72c6" fill-rule="evenodd"/><path id="j" d="m1250.1 76.606v501.45h14.149v-501.45h-14.149z" fill="#fa72c6" fill-rule="evenodd"/><path id="k" d="m1250.1 407.89h-407.96" fill="none" stroke="#000" stroke-linecap="round" stroke-linejoin="round" stroke-width="3.5958px"/><path id="l" d="m843.76 414.53-13.211-6.6444 13.211-6.5662v13.211z" fill-rule="evenodd"/><path id="m" d="m985.63 378.96v20.011h109.36v-20.011h-109.36z" fill="#fff" fill-rule="evenodd"/><text id="n" x="985.55402" y="393.97147" fill="#000000" font-family="Arial" font-size="16.259px" xml:space="preserve">UNREGISTER</text><text id="o" x="376.46164" y="33.768986" fill="#000000" font-family="Arial" font-size="30.017px" xml:space="preserve">Dealer </text><text id="p" x="474.01648" y="33.768986" fill="#000000" font-family="Arial" font-size="30.017px" xml:space="preserve">1</text><text id="q" x="1206.9285" y="33.768986" fill="#000000" font-family="Arial" font-size="30.017px" xml:space="preserve">Callee</text><text id="r" x="755.42468" y="33.768986" fill="#000000" font-family="Arial" font-size="30.017px" xml:space="preserve">Dealer </text><text id="s" x="851.72882" y="33.768986" fill="#000000" font-family="Arial" font-size="30.017px" xml:space="preserve">2</text><path id="t" d="m830.55 247.17h407.96" fill="none" stroke="#000" stroke-linecap="round" stroke-linejoin="round" stroke-width="3.5958px"/><path id="u" d="m1236.9 240.6 13.21 6.5662-13.21 6.6444v-13.211z" fill-rule="evenodd"/><path id="v" d="m943.97 218.25v20.011h192.69v-20.011h-192.69z" fill="#fff" fill-rule="evenodd"/><text id="w" x="944.28082" y="232.63078" fill="#000000" font-family="Arial" font-size="16.259px" xml:space="preserve">REGISTERED or ERROR</text><path id="x" d="m830.55 526.08h407.96" fill="none" stroke="#000" stroke-linecap="round" stroke-linejoin="round" stroke-width="3.5958px"/><path id="y" d="m1236.9 519.51 13.21 6.5662-13.21 6.6444v-13.211z" fill-rule="evenodd"/><path id="z" d="m931.85 497.15v20.011h216.84v-20.011h-216.84z" fill="#fff" fill-rule="evenodd"/><text id="aa" x="931.7738" y="511.53757" fill="#000000" font-family="Arial" font-size="16.259px" xml:space="preserve">UNREGISTERED or ERROR</text><path id="ab" d="m816.32 152.66h-375.99" fill="none" stroke="#000" stroke-linecap="round" stroke-linejoin="round" stroke-width="3.5958px"/><path id="ac" d="m441.97 159.23-13.211-6.5662 13.211-6.6444v13.211z" fill-rule="evenodd"/><path id="ad" d="m579.94 123.74v20.011h85.204v-20.011h-85.204z" fill="#fff" fill-rule="evenodd"/><text id="ae" x="580.32623" y="138.82803" fill="#000000" font-family="Arial" font-size="16.259px" xml:space="preserve">REGISTER</text><path id="af" d="m428.76 223.56h376.07" fill="none" stroke="#000" stroke-linecap="round" stroke-linejoin="round" stroke-width="3.5958px"/><path id="ag" d="m803.11 216.92 13.211 6.6444-13.211 6.5662v-13.211z" fill-rule="evenodd"/><path id="ah" d="m526.16 194.64v20.011h192.76v-20.011h-192.76z" fill="#fff" fill-rule="evenodd"/><text id="ai" x="526.54602" y="210.11812" fill="#000000" font-family="Arial" font-size="16.259px" xml:space="preserve">REGISTERED or ERROR</text><path id="aj" d="m816.32 431.57h-375.99" fill="none" stroke="#000" stroke-linecap="round" stroke-linejoin="round" stroke-width="3.5958px"/><path id="ak" d="m441.97 438.14-13.211-6.5662 13.211-6.6444v13.211z" fill-rule="evenodd"/><path id="al" d="m567.9 402.65v20.011h109.28v-20.011h-109.28z" fill="#fff" fill-rule="evenodd"/><text id="am" x="567.81921" y="417.73483" fill="#000000" font-family="Arial" font-size="16.259px" xml:space="preserve">UNREGISTER</text><path id="an" d="m428.76 502.47h376.07" fill="none" stroke="#000" stroke-linecap="round" stroke-linejoin="round" stroke-width="3.5958px"/><path id="ao" d="m803.11 495.83 13.211 6.6444-13.211 6.5662v-13.211z" fill-rule="evenodd"/><path id="ap" d="m514.12 473.55v20.011h216.84v-20.011h-216.84z" fill="#fff" fill-rule="evenodd"/><text id="aq" x="514.03894" y="489.0249" fill="#000000" font-family="Arial" font-size="16.259px" xml:space="preserve">UNREGISTERED or ERROR</text><path id="ar" d="m36.349 76.449v501.45h14.227v-501.45h-14.227z" fill="#fa72c6" fill-rule="evenodd"/><text id="as" x="2.5014062" y="33.768986" fill="#000000" font-family="Arial" font-size="30.017px" xml:space="preserve">Caller</text></g></g></svg>
