<?xml version="1.0" encoding="UTF-8"?>
<svg id="a" version="1.1" viewBox="0 0 1391.3 913.79" xmlns="http://www.w3.org/2000/svg"><g id="b" transform="translate(192.77 135.97)"><g id="c" transform="translate(-184.68 -127.87)"><path id="d" d="m1231.2 857.75c13.054 0 23.607-10.631 23.607-23.685v-756.28c0-13.054-10.553-23.685-23.607-23.685v0h-179.63c-13.054 0-23.607 10.631-23.607 23.685v0 756.28c0 13.054 10.553 23.685 23.607 23.685v0h179.63z" fill="none" stroke="#000" stroke-linecap="round" stroke-linejoin="round" stroke-width="1.1725px"/><path id="e" d="m333 857.75c13.054 0 23.607-10.631 23.607-23.685v-756.28c0-13.054-10.553-23.685-23.607-23.685v0h-212.7c-13.054 0-23.685 10.631-23.685 23.685v0 756.28c0 13.054 10.631 23.685 23.685 23.685v0h212.7z" fill="none" stroke="#000" stroke-linecap="round" stroke-linejoin="round" stroke-width="1.1725px"/><path id="f" d="m384.98 77.778v756.28h614.56v-756.28h-614.56z" fill="#bfbfbf" fill-rule="evenodd"/><text id="g" x="642.86139" y="118.81679" fill="#000000" font-family="Arial" font-size="23.763px" xml:space="preserve">Transport</text><path id="h" d="m290.48 243.18c13.054 0 23.607-10.553 23.607-23.607v-69.727c0-13.054-10.553-23.685-23.607-23.685h-108.73c-13.054 0-23.607 10.631-23.607 23.685v69.727c0 13.054 10.553 23.607 23.607 23.607h108.73z" fill="#bdf808" fill-rule="evenodd"/><path id="i" d="m290.48 243.18c13.054 0 23.607-10.553 23.607-23.607v0-69.727c0-13.054-10.553-23.685-23.607-23.685v0h-108.73c-13.054 0-23.607 10.631-23.607 23.685v0 69.727c0 13.054 10.553 23.607 23.607 23.607v0h108.73z" fill="none" stroke="#000" stroke-linecap="round" stroke-linejoin="round" stroke-width="2.0324px"/><text id="j" x="190.10687" y="191.35757" fill="#000000" font-family="Arial" font-size="23.763px" xml:space="preserve">Endpoint</text><path id="k" d="m1202.8 243.18c13.054 0 23.607-10.553 23.607-23.607v-69.727c0-13.054-10.553-23.685-23.607-23.685h-108.73c-13.054 0-23.607 10.631-23.607 23.685v69.727c0 13.054 10.553 23.607 23.607 23.607h108.73z" fill="#fa72c6" fill-rule="evenodd"/><path id="l" d="m1202.8 243.18c13.054 0 23.607-10.553 23.607-23.607v0-69.727c0-13.054-10.553-23.685-23.607-23.685v0h-108.73c-13.054 0-23.607 10.631-23.607 23.685v69.727c0 13.054 10.553 23.607 23.607 23.607v0h108.73z" fill="none" stroke="#000" stroke-linecap="round" stroke-linejoin="round" stroke-width="2.0324px"/><text id="m" x="1113.1259" y="191.35757" fill="#ffffff" font-family="Arial" font-size="23.763px" xml:space="preserve">Router</text><path id="n" d="m314.08 161.03v47.292h756.36v-47.292h-756.36z" fill="#fa72c6" fill-rule="evenodd"/><path id="o" d="m314.08 208.32h756.36v-47.292h-756.36v47.292z" fill="none" stroke="#000" stroke-linecap="round" stroke-linejoin="round" stroke-width="1.1725px"/><text id="p" x="650.3656" y="191.35757" fill="#ffffff" font-family="Arial" font-size="23.763px" xml:space="preserve">Session</text><text id="q" x="200.1125" y="890.50061" fill="#000000" font-family="Arial" font-size="23.763px" xml:space="preserve">Node</text><text id="r" x="1113.1259" y="890.50061" fill="#000000" font-family="Arial" font-size="23.763px" xml:space="preserve">Node</text><path id="s" d="m290.48 431.1c13.054 0 23.607-10.553 23.607-23.607v-69.727c0-13.054-10.553-23.685-23.607-23.685h-108.73c-13.054 0-23.607 10.631-23.607 23.685v69.727c0 13.054 10.553 23.607 23.607 23.607h108.73z" fill="#bdf808" fill-rule="evenodd"/><path id="t" d="m290.48 431.1c13.054 0 23.607-10.553 23.607-23.607v0-69.727c0-13.054-10.553-23.685-23.607-23.685v0h-108.73c-13.054 0-23.607 10.631-23.607 23.685v0 69.727c0 13.054 10.553 23.607 23.607 23.607v0h108.73z" fill="none" stroke="#000" stroke-linecap="round" stroke-linejoin="round" stroke-width="2.0324px"/><text id="u" x="190.10687" y="378.96304" fill="#000000" font-family="Arial" font-size="23.763px" xml:space="preserve">Endpoint</text><path id="v" d="m1202.8 431.1c13.054 0 23.607-10.553 23.607-23.607v-69.727c0-13.054-10.553-23.685-23.607-23.685h-108.73c-13.054 0-23.607 10.631-23.607 23.685v69.727c0 13.054 10.553 23.607 23.607 23.607h108.73z" fill="#fa72c6" fill-rule="evenodd"/><path id="w" d="m1202.8 431.1c13.054 0 23.607-10.553 23.607-23.607v0-69.727c0-13.054-10.553-23.685-23.607-23.685v0h-108.73c-13.054 0-23.607 10.631-23.607 23.685v0 69.727c0 13.054 10.553 23.607 23.607 23.607v0h108.73z" fill="none" stroke="#000" stroke-linecap="round" stroke-linejoin="round" stroke-width="2.0324px"/><text id="x" x="1113.1259" y="378.96304" fill="#ffffff" font-family="Arial" font-size="23.763px" xml:space="preserve">Router</text><path id="y" d="m314.08 348.95v47.292h756.36v-47.292h-756.36z" fill="#fa72c6" fill-rule="evenodd"/><path id="z" d="m314.08 396.24h756.36v-47.292h-756.36v47.292z" fill="none" stroke="#000" stroke-linecap="round" stroke-linejoin="round" stroke-width="1.1725px"/><text id="aa" x="650.3656" y="378.96304" fill="#ffffff" font-family="Arial" font-size="23.763px" xml:space="preserve">Session</text><path id="ab" d="m1202.8 621.36c13.054 0 23.607-10.553 23.607-23.607v-69.727c0-13.054-10.553-23.685-23.607-23.685h-108.73c-13.054 0-23.607 10.631-23.607 23.685v69.727c0 13.054 10.553 23.607 23.607 23.607h108.73z" fill="#bdf808" fill-rule="evenodd"/><path id="ac" d="m1202.8 621.36c13.054 0 23.607-10.553 23.607-23.607v0-69.727c0-13.054-10.553-23.685-23.607-23.685v0h-108.73c-13.054 0-23.607 10.631-23.607 23.685v69.727c0 13.054 10.553 23.607 23.607 23.607v0h108.73z" fill="none" stroke="#000" stroke-linecap="round" stroke-linejoin="round" stroke-width="2.0324px"/><text id="ad" x="1101.8694" y="570.32062" fill="#000000" font-family="Arial" font-size="23.763px" xml:space="preserve">Endpoint</text><path id="ae" d="m290.48 621.36c13.054 0 23.607-10.553 23.607-23.607v-69.727c0-13.054-10.553-23.685-23.607-23.685h-108.73c-13.054 0-23.607 10.631-23.607 23.685v69.727c0 13.054 10.553 23.607 23.607 23.607h108.73z" fill="#fa72c6" fill-rule="evenodd"/><path id="af" d="m290.48 621.36c13.054 0 23.607-10.553 23.607-23.607v0-69.727c0-13.054-10.553-23.685-23.607-23.685h-108.73c-13.054 0-23.607 10.631-23.607 23.685v0 69.727c0 13.054 10.553 23.607 23.607 23.607v0h108.73z" fill="none" stroke="#000" stroke-linecap="round" stroke-linejoin="round" stroke-width="2.0324px"/><text id="ag" x="201.3632" y="570.32062" fill="#ffffff" font-family="Arial" font-size="23.763px" xml:space="preserve">Router</text><path id="ah" d="m314.08 539.21v47.292h756.36v-47.292h-756.36z" fill="#fa72c6" fill-rule="evenodd"/><path id="ai" d="m314.08 586.5h756.36v-47.292h-756.36v47.292z" fill="none" stroke="#000" stroke-linecap="round" stroke-linejoin="round" stroke-width="1.1725px"/><text id="aj" x="650.3656" y="570.32062" fill="#ffffff" font-family="Arial" font-size="23.763px" xml:space="preserve">Session</text><path id="ak" d="m148.68 819.91h-7.426c-8.9894 0-16.259-7.2697-16.259-16.259v0-331.51c0-8.9894-7.2697-16.259-16.181-16.259v0c8.9113 0 16.181-7.2697 16.181-16.181v0-322.06c0-8.9894 7.2697-16.259 16.259-16.259v0h7.426" fill="none" stroke="#000" stroke-linecap="round" stroke-linejoin="round" stroke-width=".39084px"/><text id="al" x="20.01125" y="462.76016" fill="#000000" font-family="Arial" font-size="23.763px" xml:space="preserve">Peers</text><path id="am" d="m167.59 39.944 68.476 86.22" fill="none" stroke="#000" stroke-linecap="round" stroke-linejoin="round" stroke-width=".39084px"/><path id="an" d="m2.1106 2.1106v75.668h330.89v-75.668h-330.89z" fill="#fff" fill-rule="evenodd"/><path id="ao" d="m2.1106 77.778h330.89v-75.668h-330.89v75.668z" fill="none" stroke="#000" stroke-linecap="round" stroke-linejoin="round" stroke-width=".39084px"/><text id="ap" x="26.264765" y="25.014063" fill="#000000" font-family="Arial" font-size="16.259px" font-weight="bold" xml:space="preserve">Endpoints </text><text id="aq" x="112.56328" y="25.014063" fill="#000000" font-family="Arial" font-size="16.259px" xml:space="preserve">support one or more of the </text><text id="ar" x="38.771797" y="45.025311" fill="#000000" font-family="Arial" font-size="16.259px" xml:space="preserve">Roles</text><text id="as" x="81.2957" y="45.025311" fill="#000000" font-family="Arial" font-size="16.259px" xml:space="preserve">: </text><text id="at" x="90.050621" y="45.025311" fill="#000000" font-family="Arial" font-size="16.259px" font-weight="bold" xml:space="preserve">Caller</text><text id="au" x="136.32664" y="45.025311" fill="#000000" font-family="Arial" font-size="16.259px" xml:space="preserve">, </text><text id="av" x="146.33226" y="45.025311" fill="#000000" font-family="Arial" font-size="16.259px" font-weight="bold" xml:space="preserve">Callee</text><text id="aw" x="195.10968" y="45.025311" fill="#000000" font-family="Arial" font-size="16.259px" xml:space="preserve">, </text><text id="ax" x="205.11531" y="45.025311" fill="#000000" font-family="Arial" font-size="16.259px" font-weight="bold" xml:space="preserve">Subscriber</text><text id="ay" x="291.41382" y="45.025311" fill="#000000" font-family="Arial" font-size="16.259px" xml:space="preserve">, </text><text id="az" x="130.07312" y="65.03656" fill="#000000" font-family="Arial" font-size="16.259px" font-weight="bold" xml:space="preserve">Publisher</text><path id="ba" d="m1216.9 39.944-68.476 86.22" fill="none" stroke="#000" stroke-linecap="round" stroke-linejoin="round" stroke-width=".39084px"/><path id="bb" d="m1061 2.1106v75.668h311.97v-75.668h-311.97z" fill="#fff" fill-rule="evenodd"/><path id="bc" d="m1061 77.778h311.97v-75.668h-311.97v75.668z" fill="none" stroke="#000" stroke-linecap="round" stroke-linejoin="round" stroke-width=".39084px"/><text id="bd" x="1084.3596" y="35.019688" fill="#000000" font-family="Arial" font-size="16.259px" font-weight="bold" xml:space="preserve">Routers</text><text id="be" x="1151.8976" y="35.019688" fill="#000000" font-family="Arial" font-size="16.259px" xml:space="preserve">support one or more of the </text><text id="bf" x="1134.3877" y="55.030937" fill="#000000" font-family="Arial" font-size="16.259px" xml:space="preserve">Roles</text><text id="bg" x="1176.9116" y="55.030937" fill="#000000" font-family="Arial" font-size="16.259px" xml:space="preserve">: </text><text id="bh" x="1185.6665" y="55.030937" fill="#000000" font-family="Arial" font-size="16.259px" font-weight="bold" xml:space="preserve">Broker</text><text id="bi" x="1239.4468" y="55.030937" fill="#000000" font-family="Arial" font-size="16.259px" xml:space="preserve">, </text><text id="bj" x="1249.4524" y="55.030937" fill="#000000" font-family="Arial" font-size="16.259px" font-weight="bold" xml:space="preserve">Dealer</text><path id="bk" d="m290.48 810.46c13.054 0 23.607-10.631 23.607-23.685v-69.727c0-13.054-10.553-23.607-23.607-23.607h-108.73c-13.054 0-23.607 10.553-23.607 23.607v69.727c0 13.054 10.553 23.685 23.607 23.685h108.73z" fill="#fa72c6" fill-rule="evenodd"/><path id="bl" d="m290.48 810.46c13.054 0 23.607-10.631 23.607-23.685v0-69.727c0-13.054-10.553-23.607-23.607-23.607h-108.73c-13.054 0-23.607 10.553-23.607 23.607v0 69.727c0 13.054 10.553 23.685 23.607 23.685v0h108.73z" fill="none" stroke="#000" stroke-linecap="round" stroke-linejoin="round" stroke-width="2.0324px"/><text id="bm" x="201.3632" y="759.17676" fill="#ffffff" font-family="Arial" font-size="23.763px" xml:space="preserve">Router</text><path id="bn" d="m314.08 728.3v47.292h756.36v-47.292h-756.36z" fill="#fa72c6" fill-rule="evenodd"/><path id="bo" d="m314.08 775.59h756.36v-47.292h-756.36v47.292z" fill="none" stroke="#000" stroke-linecap="round" stroke-linejoin="round" stroke-width="1.1725px"/><text id="bp" x="650.3656" y="759.17676" fill="#ffffff" font-family="Arial" font-size="23.763px" xml:space="preserve">Session</text><path id="bq" d="m1202.8 809.28c13.054 0 23.607-10.631 23.607-23.685v-69.727c0-13.054-10.553-23.607-23.607-23.607h-108.73c-13.054 0-23.607 10.553-23.607 23.607v69.727c0 13.054 10.553 23.685 23.607 23.685h108.73z" fill="#fa72c6" fill-rule="evenodd"/><path id="br" d="m1202.8 809.28c13.054 0 23.607-10.631 23.607-23.685v-69.727c0-13.054-10.553-23.607-23.607-23.607v0h-108.73c-13.054 0-23.607 10.553-23.607 23.607v69.727c0 13.054 10.553 23.685 23.607 23.685v0h108.73z" fill="none" stroke="#000" stroke-linecap="round" stroke-linejoin="round" stroke-width="2.0324px"/><text id="bs" x="1113.1259" y="757.92609" fill="#ffffff" font-family="Arial" font-size="23.763px" xml:space="preserve">Router</text><path id="bt" d="m384.98 77.778h614.56" fill="none" stroke="#000" stroke-linecap="round" stroke-linejoin="round" stroke-width="3.5958px"/><path id="bu" d="m384.98 834.06h614.56" fill="none" stroke="#000" stroke-linecap="round" stroke-linejoin="round" stroke-width="3.5958px"/><path id="bv" d="m602.45 857.75 89.816-82.156" fill="none" stroke="#000" stroke-linecap="round" stroke-linejoin="round" stroke-width=".39084px"/><path id="bw" d="m446.42 819.91v75.589h312.05v-75.589h-312.05z" fill="#fff" fill-rule="evenodd"/><path id="bx" d="m446.42 895.5h312.05v-75.589h-312.05v75.589z" fill="none" stroke="#000" stroke-linecap="round" stroke-linejoin="round" stroke-width=".39084px"/><text id="by" x="469.01367" y="852.97949" fill="#000000" font-family="Arial" font-size="16.259px" font-weight="bold" xml:space="preserve">Router</text><text id="bz" x="522.79388" y="852.97949" fill="#000000" font-family="Arial" font-size="16.259px" font-weight="bold" xml:space="preserve">-</text><text id="ca" x="527.79669" y="852.97949" fill="#000000" font-family="Arial" font-size="16.259px" font-weight="bold" xml:space="preserve">to</text><text id="cb" x="544.05585" y="852.97949" fill="#000000" font-family="Arial" font-size="16.259px" font-weight="bold" xml:space="preserve">-</text><text id="cc" x="549.05865" y="852.97949" fill="#000000" font-family="Arial" font-size="16.259px" font-weight="bold" xml:space="preserve">Router</text><text id="cd" x="607.84167" y="852.97949" fill="#000000" font-family="Arial" font-size="16.259px" xml:space="preserve">Sessions are an </text><text id="ce" x="461.50943" y="872.99078" fill="#000000" font-family="Arial" font-size="16.259px" xml:space="preserve">advanced feature of clustered Routers</text></g></g></svg>
