<?xml version="1.0" encoding="UTF-8" standalone="no"?>
<svg
   xmlns:dc="http://purl.org/dc/elements/1.1/"
   xmlns:cc="http://creativecommons.org/ns#"
   xmlns:rdf="http://www.w3.org/1999/02/22-rdf-syntax-ns#"
   xmlns:svg="http://www.w3.org/2000/svg"
   xmlns="http://www.w3.org/2000/svg"
   xmlns:sodipodi="http://sodipodi.sourceforge.net/DTD/sodipodi-0.dtd"
   xmlns:inkscape="http://www.inkscape.org/namespaces/inkscape"
   version="1.1"
   viewBox="0 0 400 400"
   id="svg20"
   sodipodi:docname="wamp_logo.svg"
   inkscape:export-filename="/home/oberstet/scm/wamp-proto/wamp-proto/docs/_static/wamp_logo.png"
   inkscape:export-xdpi="96"
   inkscape:export-ydpi="96"
   inkscape:version="0.92.3 (2405546, 2018-03-11)">
  <metadata
     id="metadata26">
    <rdf:RDF>
      <cc:Work
         rdf:about="">
        <dc:format>image/svg+xml</dc:format>
        <dc:type
           rdf:resource="http://purl.org/dc/dcmitype/StillImage" />
      </cc:Work>
    </rdf:RDF>
  </metadata>
  <defs
     id="defs24" />
  <sodipodi:namedview
     pagecolor="#ffffff"
     bordercolor="#666666"
     borderopacity="1"
     objecttolerance="10"
     gridtolerance="10"
     guidetolerance="10"
     inkscape:pageopacity="0"
     inkscape:pageshadow="2"
     inkscape:window-width="1712"
     inkscape:window-height="1096"
     id="namedview22"
     showgrid="false"
     inkscape:zoom="0.59"
     inkscape:cx="-267.79661"
     inkscape:cy="200"
     inkscape:window-x="57"
     inkscape:window-y="27"
     inkscape:window-maximized="0"
     inkscape:current-layer="svg20" />
  <g
     id="g16"
     transform="translate(714.974,-1573.5569)">
    <path
       style="fill:#1a1a1a"
       inkscape:connector-curvature="0"
       id="path4"
       d="m -490.25,1636 c -60.232,0 -110.88,42.136 -125.67,99.346 h 73.417 c 10.744,-16.892 29.302,-28.052 50.374,-28.052 30.085,0 55.008,22.757 59.431,52.458 h 71.454 0.72135 c -5.0367,-69.219 -61.202,-123.75 -129.72,-123.75 z m 57.307,144.07 c -4.9896,29.007 -29.584,51.055 -59.191,51.055 -20.482,0 -38.589,-10.547 -49.452,-26.65 h -74.339 c 14.804,57.2 65.456,99.346 125.67,99.346 68.507,0 124.67,-54.548 129.72,-123.75 h -0.72135 -71.694 z" />
    <g
       id="g14"
       transform="matrix(1.1294,0,0,1.1294,396.38,-765.38)">
      <path
         inkscape:connector-curvature="0"
         id="path6"
         d="m -907.99,2226.8 h -5.3052 l -6.8355,30.199 -8.4679,-30.199 h -5.1011 l -8.2638,30.199 -6.9885,-30.199 h -5.3052 l 9.5391,37.187 h 5.2032 l 8.3148,-30.556 8.5699,30.556 h 5.2032 l 9.4371,-37.187" />
      <path
         inkscape:connector-curvature="0"
         id="path8"
         d="m -877,2264 -13.059,-37.187 h -6.1214 l -13.263,37.187 h 5.0501 l 3.9279,-11.172 h 14.334 l 3.8258,11.172 h 5.3052 m -10.457,-15.15 h -11.835 l 6.1214,-16.936 5.7133,16.936" />
      <path
         inkscape:connector-curvature="0"
         id="path10"
         d="m -835.88,2264 v -37.187 h -6.5804 l -10.814,32.392 -11.018,-32.392 h -6.5804 V 2264 h 4.489 v -31.168 l 10.559,31.168 h 4.9991 l 10.457,-31.168 V 2264 h 4.489" />
      <path
         inkscape:connector-curvature="0"
         id="path12"
         d="m -799.15,2237.7 c 0,-6.9885 -4.1319,-10.916 -11.478,-10.916 h -15.354 v 37.187 h 4.744 v -15.762 h 11.682 c 6.1213,0 10.406,-4.336 10.406,-10.508 m -4.9481,-0.204 c 0,4.0809 -2.7036,6.5295 -7.2436,6.5295 h -9.8962 v -13.059 h 9.8962 c 4.54,0 7.2436,2.4485 7.2436,6.5294" />
    </g>
  </g>
</svg>
