<?xml version="1.0" encoding="UTF-8"?>
<svg id="a" version="1.1" viewBox="0 0 379.78 294.06" xmlns="http://www.w3.org/2000/svg"><g id="b" transform="translate(238.09 -250.34)"><path id="c" d="m-231.28 449.02v88.594h118.12v-88.594h-118.12z" fill="#fff" fill-rule="evenodd"/><path id="d" d="m-231.28 537.61h118.12v-88.594h-118.12v88.594z" fill="none" stroke="#000" stroke-linecap="round" stroke-linejoin="round" stroke-width="3.5938px"/><g id="e" fill="#262626"><path id="f" d="m-188.96 493.92 2.2498 0.56824c-0.47161 1.8477-1.3201 3.2567-2.5455 4.227-1.2254 0.97025-2.7233 1.4554-4.4937 1.4554-1.8323 0-3.3225-0.37303-4.4705-1.1191-1.1481-0.74605-2.0217-1.8265-2.6208-3.2413-0.59916-1.4148-0.89875-2.934-0.89874-4.5575-1e-5 -1.7704 0.33823-3.3147 1.0147-4.6329 0.67647-1.3181 1.639-2.3193 2.8876-3.0035 1.2486-0.68419 2.6228-1.0263 4.1226-1.0263 1.7008 2e-5 3.1311 0.43296 4.2908 1.2988 1.1596 0.8659 1.9676 2.0836 2.4237 3.653l-2.215 0.52185c-0.3943-1.237-0.9664-2.1376-1.7163-2.702-0.74993-0.56436-1.6931-0.84654-2.8296-0.84656-1.3066 2e-5 -2.3986 0.31313-3.2761 0.93933-0.87749 0.62624-1.494 1.467-1.8497 2.5223-0.35564 1.0553-0.53345 2.1435-0.53345 3.2645 0 1.4457 0.21067 2.7078 0.63202 3.7863 0.42134 1.0785 1.0766 1.8845 1.9656 2.4179 0.88907 0.53345 1.8516 0.80017 2.8876 0.80017 1.2602 0 2.3271-0.36336 3.2007-1.0901 0.87361-0.72672 1.465-1.8052 1.7743-3.2355z"/><path id="g" d="m-176.16 498.36c-0.77312 0.65714-1.5172 1.121-2.2324 1.3916-0.71513 0.27059-1.4824 0.40588-2.3019 0.40588-1.353 0-2.3928-0.3305-3.1195-0.99151-0.72672-0.66101-1.0901-1.5056-1.0901-2.5339 0-0.60302 0.13723-1.1539 0.41169-1.6525 0.27445-0.49866 0.63395-0.89874 1.0785-1.2003 0.44453-0.30151 0.94512-0.52958 1.5018-0.6842 0.40974-0.10823 1.0282-0.2126 1.8555-0.31311 1.6854-0.20101 2.9262-0.44067 3.7225-0.719 8e-3 -0.28604 0.0116-0.46772 0.0116-0.54504-1e-5 -0.85042-0.19716-1.4496-0.59143-1.7975-0.53346-0.47159-1.3259-0.70739-2.3773-0.7074-0.98186 1e-5 -1.7066 0.17203-2.1744 0.51606-0.46774 0.34404-0.8137 0.95287-1.0379 1.8265l-2.041-0.27832c0.18555-0.8736 0.49093-1.5791 0.91614-2.1164 0.42521-0.5373 1.0398-0.95092 1.8439-1.2408 0.80403-0.2899 1.7356-0.43486 2.7948-0.43487 1.0514 1e-5 1.9057 0.12371 2.5629 0.37109 0.65713 0.24741 1.1403 0.55859 1.4496 0.93354 0.30924 0.37497 0.52571 0.8485 0.64942 1.4206 0.0696 0.35564 0.10436 0.99732 0.10437 1.925v2.7832c-1e-5 1.9405 0.0444 3.1678 0.13336 3.682 0.0889 0.51412 0.26478 1.007 0.52765 1.4786h-2.1802c-0.21648-0.43294-0.35564-0.93933-0.41748-1.5192zm-0.17395-4.6619c-0.75766 0.30925-1.8941 0.57211-3.4094 0.78858-0.85816 0.1237-1.465 0.26286-1.8207 0.41748-0.35564 0.15462-0.63009 0.38076-0.82337 0.6784-0.19328 0.29766-0.28992 0.62816-0.28991 0.99152-1e-5 0.55664 0.21067 1.0205 0.63202 1.3916 0.42134 0.3711 1.0379 0.55664 1.8497 0.55664 0.80403 0 1.5192-0.17588 2.1454-0.52765 0.62621-0.35176 1.0862-0.83302 1.38-1.4438 0.22419-0.4716 0.33629-1.1674 0.3363-2.0874z"/><path id="h" d="m-171.02 499.88v-17.001h2.0874v17.001z"/><path id="i" d="m-165.73 499.88v-17.001h2.0874v17.001z"/><path id="j" d="m-151.97 495.91 2.157 0.26672c-0.34018 1.2602-0.97027 2.2382-1.8903 2.934-0.92001 0.6958-2.0951 1.0437-3.5254 1.0437-1.8014 0-3.2297-0.5547-4.285-1.6641-1.0553-1.1094-1.5829-2.6653-1.5829-4.6677 0-2.0719 0.53344-3.68 1.6003-4.8242 1.0669-1.1442 2.4508-1.7163 4.1516-1.7163 1.6467 1e-5 2.9919 0.56052 4.0356 1.6815 1.0437 1.121 1.5655 2.6982 1.5656 4.7314-1e-5 0.12371-4e-3 0.30925-0.0116 0.55664h-9.1846c0.0773 1.353 0.46 2.3889 1.1481 3.1079 0.68807 0.719 1.5462 1.0785 2.5745 1.0785 0.76538 1e-5 1.4187-0.201 1.9598-0.60302 0.54117-0.40202 0.97025-1.0437 1.2872-1.925zm-6.8536-3.3746h6.8768c-0.0928-1.036-0.35564-1.8129-0.78858-2.3309-0.66488-0.80402-1.5269-1.206-2.5861-1.206-0.95866 1e-5 -1.7646 0.32085-2.4179 0.96252-0.65329 0.64169-1.0147 1.4998-1.0843 2.5745z"/><path id="k" d="m-147.2 499.88v-12.316h1.8787v1.8671c0.47933-0.8736 0.92193-1.4496 1.3278-1.7279 0.40588-0.27831 0.85235-0.41747 1.3394-0.41748 0.70352 1e-5 1.4186 0.22421 2.1454 0.67261l-0.71899 1.9366c-0.51026-0.3015-1.0205-0.45226-1.5308-0.45227-0.45614 1e-5 -0.86589 0.13724-1.2292 0.41168-0.36337 0.27447-0.62236 0.65523-0.77698 1.1423-0.23193 0.74219-0.3479 1.554-0.3479 2.4353v6.4478z"/></g><path id="l" d="m16.764 449.02v88.594h118.12v-88.594h-118.12z" fill="#fff" fill-rule="evenodd"/><path id="m" d="m16.764 537.61h118.12v-88.594h-118.12v88.594z" fill="none" stroke="#000" stroke-linecap="round" stroke-linejoin="round" stroke-width="3.5938px"/><g id="n" transform="matrix(1.1284 0 0 1.1284 -5.8612 -64.236)" fill="#262626"><path id="o" d="m57.069 494.55 2.0129 0.50842c-0.42197 1.6532-1.1811 2.9139-2.2775 3.782-1.0964 0.86812-2.4366 1.3022-4.0207 1.3022-1.6394 0-2.9727-0.33376-3.9999-1.0013-1.0272-0.66752-1.8089-1.6342-2.345-2.9001-0.53609-1.2659-0.80414-2.6251-0.80414-4.0778-1e-6 -1.5841 0.30263-2.9658 0.9079-4.1452 0.60526-1.1794 1.4665-2.0752 2.5836-2.6874 1.1171-0.61217 2.3467-0.91826 3.6887-0.91828 1.5218 2e-5 2.8015 0.38739 3.8391 1.1621 1.0376 0.77475 1.7604 1.8642 2.1686 3.2684l-1.9818 0.46692c-0.3528-1.1068-0.86468-1.9126-1.5356-2.4176-0.67099-0.50495-1.5149-0.75743-2.5317-0.75745-1.169 2e-5 -2.1461 0.28017-2.9312 0.84046-0.78512 0.56031-1.3368 1.3126-1.655 2.2568-0.3182 0.94423-0.4773 1.9178-0.47729 2.9208-4e-6 1.2936 0.18849 2.4228 0.56549 3.3878 0.37699 0.96497 0.96323 1.6861 1.7587 2.1634 0.79549 0.47729 1.6567 0.71594 2.5836 0.71594 1.1275 0 2.0821-0.32511 2.8638-0.97534 0.78164-0.65023 1.3108-1.6152 1.5875-2.8949z"/><path id="p" d="m68.524 498.52c-0.69174 0.58797-1.3575 1.003-1.9974 1.2451-0.63986 0.2421-1.3264 0.36316-2.0596 0.36316-1.2105 0-2.1409-0.29572-2.7911-0.88715-0.65023-0.59143-0.97534-1.3472-0.97534-2.2672-1e-6 -0.53955 0.12278-1.0324 0.36835-1.4786 0.24556-0.44616 0.56722-0.80413 0.96497-1.0739 0.39774-0.26977 0.84564-0.47383 1.3437-0.61218 0.36661-0.0968 0.92-0.19022 1.6602-0.28015 1.508-0.17985 2.6182-0.39429 3.3307-0.64332 0.0069-0.25593 0.01037-0.41849 0.01038-0.48767-9e-6 -0.76089-0.1764-1.297-0.52918-1.6083-0.4773-0.42195-1.1863-0.63293-2.1271-0.63294-0.8785 1e-5 -1.527 0.15392-1.9455 0.46173-0.4185 0.30783-0.72805 0.85257-0.92865 1.6342l-1.8262-0.24902c0.16602-0.78165 0.43925-1.4129 0.8197-1.8936 0.38045-0.48074 0.93038-0.85082 1.6498-1.1102 0.7194-0.25939 1.5529-0.38909 2.5006-0.3891 0.94075 1e-5 1.7051 0.11069 2.2931 0.33203 0.58796 0.22137 1.0203 0.49979 1.297 0.83527 0.27668 0.3355 0.47037 0.75918 0.58106 1.2711 0.06225 0.3182 0.09337 0.89234 0.09338 1.7224v2.4902c-1.1e-5 1.7362 0.03976 2.8344 0.11932 3.2944 0.07954 0.46 0.23691 0.90098 0.47211 1.3229h-1.9507c-0.19369-0.38737-0.31821-0.84045-0.37354-1.3592zm-0.15564-4.1711c-0.6779 0.2767-1.6948 0.51188-3.0505 0.70556-0.76783 0.11069-1.3108 0.2352-1.629 0.37354-0.3182 0.13835-0.56376 0.34068-0.73669 0.60699-0.17294 0.26632-0.2594 0.56204-0.2594 0.88715-3e-6 0.49805 0.18849 0.91309 0.56549 1.2451 0.37699 0.33203 0.92865 0.49804 1.655 0.49804 0.7194 0 1.3592-0.15736 1.9196-0.4721 0.5603-0.31474 0.97188-0.74534 1.2347-1.2918 0.20059-0.42196 0.30089-1.0445 0.3009-1.8677z"/><path id="q" d="m73.121 499.88v-15.211h1.8677v15.211z"/><path id="r" d="m77.852 499.88v-15.211h1.8677v15.211z"/><path id="s" d="m90.168 496.33 1.9299 0.23865c-0.30437 1.1275-0.86813 2.0026-1.6913 2.6251-0.82317 0.62256-1.8746 0.93384-3.1543 0.93384-1.6117 0-2.8897-0.49632-3.8339-1.489-0.94422-0.99263-1.4163-2.3847-1.4163-4.1763-1e-6 -1.8538 0.47729-3.2926 1.4319-4.3164 0.95459-1.0238 2.1928-1.5356 3.7146-1.5356 1.4734 1e-5 2.677 0.50152 3.6108 1.5045 0.93383 1.003 1.4007 2.4142 1.4008 4.2334-1.1e-5 0.11068-0.0035 0.2767-0.01038 0.49804h-8.2178c0.06917 1.2105 0.41158 2.1375 1.0272 2.7808 0.61564 0.64331 1.3835 0.96496 2.3035 0.96496 0.68481 0 1.2693-0.17985 1.7535-0.53955 0.4842-0.3597 0.86812-0.93383 1.1517-1.7224zm-6.1322-3.0194h6.153c-0.08302-0.92691-0.31821-1.6221-0.70557-2.0856-0.5949-0.71939-1.3662-1.0791-2.3138-1.0791-0.85775 1e-5 -1.5789 0.28708-2.1634 0.8612-0.58452 0.57415-0.9079 1.342-0.97015 2.3035z"/><path id="t" d="m102 496.33 1.9299 0.23865c-0.30438 1.1275-0.86814 2.0026-1.6913 2.6251-0.82317 0.62256-1.8746 0.93384-3.1543 0.93384-1.6117 0-2.8897-0.49632-3.8339-1.489-0.94422-0.99263-1.4163-2.3847-1.4163-4.1763 0-1.8538 0.47729-3.2926 1.4319-4.3164 0.95459-1.0238 2.1928-1.5356 3.7146-1.5356 1.4734 1e-5 2.677 0.50152 3.6108 1.5045 0.93382 1.003 1.4007 2.4142 1.4008 4.2334-1e-5 0.11068-3e-3 0.2767-0.0104 0.49804h-8.2178c0.06917 1.2105 0.41158 2.1375 1.0272 2.7808 0.61564 0.64331 1.3835 0.96496 2.3035 0.96496 0.68481 0 1.2693-0.17985 1.7535-0.53955 0.48421-0.3597 0.86812-0.93383 1.1517-1.7224zm-6.1322-3.0194h6.153c-0.083-0.92691-0.31821-1.6221-0.70557-2.0856-0.5949-0.71939-1.3662-1.0791-2.3138-1.0791-0.85775 1e-5 -1.5789 0.28708-2.1634 0.8612-0.58452 0.57415-0.9079 1.342-0.97015 2.3035z"/></g><path id="u" d="m-101.36 257.14v88.516h118.12v-88.516h-118.12z" fill="#fff" fill-rule="evenodd"/><path id="v" d="m-101.36 345.66h118.12v-88.516h-118.12v88.516z" fill="none" stroke="#000" stroke-linecap="round" stroke-linejoin="round" stroke-width="3.5938px"/><g id="w" fill="#262626"><path id="x" d="m-76.207 291.63h6.2738c1.4148 2e-5 2.4933 0.10825 3.2355 0.32471 0.9973 0.2938 1.8516 0.81565 2.5629 1.5656 0.71125 0.74993 1.2524 1.668 1.6235 2.7542 0.37108 1.0862 0.55662 2.4256 0.55664 4.0182-1.6e-5 1.3993-0.17397 2.6054-0.52185 3.6182-0.42523 1.237-1.0321 2.2382-1.8207 3.0035-0.59531 0.57984-1.3993 1.0321-2.4121 1.3568-0.75766 0.23966-1.7704 0.35949-3.0383 0.35949h-6.4594zm3.4326 2.876v11.26h2.5629c0.95865 1e-5 1.6506-0.0541 2.0758-0.16235 0.55663-0.13916 1.0186-0.37496 1.3858-0.7074 0.36722-0.33243 0.6668-0.87941 0.89874-1.6409 0.23192-0.76151 0.34789-1.7994 0.3479-3.1137-1.3e-5 -1.3143-0.11598-2.3232-0.3479-3.0267-0.23194-0.70352-0.55665-1.2524-0.97412-1.6467-0.41749-0.39427-0.94707-0.661-1.5887-0.80017-0.47934-0.10822-1.4187-0.16234-2.818-0.16235z"/><path id="y" d="m-51.924 304.71 3.2471 0.54504c-0.41749 1.1906-1.0766 2.0971-1.9772 2.7194-0.90068 0.62236-2.0275 0.93353-3.3804 0.93353-2.1415 0-3.7264-0.69966-4.7546-2.099-0.81177-1.121-1.2177-2.5358-1.2177-4.2444-1e-6 -2.041 0.53345-3.6394 1.6003-4.7952 1.0669-1.1558 2.416-1.7337 4.0472-1.7337 1.8323 1e-5 3.278 0.60497 4.3372 1.8149 1.0592 1.2099 1.5655 3.0635 1.5192 5.5606h-8.1641c0.02319 0.96639 0.28605 1.7182 0.78857 2.2556 0.50252 0.53732 1.1287 0.80597 1.8787 0.80597 0.51025 0 0.93932-0.13916 1.2872-0.41748 0.34789-0.27832 0.61075-0.72672 0.78858-1.3452zm0.18555-3.2935c-0.0232-0.94319-0.26673-1.6602-0.73059-2.1512-0.46388-0.49091-1.0282-0.73637-1.6931-0.73639-0.71127 2e-5 -1.2988 0.25901-1.7627 0.77698-0.46387 0.518-0.69194 1.2215-0.6842 2.1106z"/><path id="z" d="m-43.4 300.07-2.9572-0.53344c0.33244-1.1906 0.90454-2.0719 1.7163-2.644 0.81176-0.57209 2.0178-0.85814 3.6182-0.85815 1.4534 1e-5 2.5358 0.17203 3.2471 0.51605 0.71125 0.34405 1.2118 0.78086 1.5018 1.3104 0.2899 0.52959 0.43486 1.5018 0.43488 2.9166l-0.03479 3.8037c-1.1e-5 1.0824 0.05217 1.8806 0.15656 2.3947 0.10436 0.51412 0.29957 1.065 0.58563 1.6525h-3.2239c-0.08505-0.21647-0.18942-0.53731-0.31311-0.96252-0.05413-0.19328-0.09278-0.32084-0.11597-0.38269-0.55665 0.54118-1.1519 0.94706-1.7859 1.2176-0.63396 0.27059-1.3104 0.40588-2.0294 0.40588-1.2679 0-2.2672-0.34403-2.9977-1.0321-0.73059-0.68807-1.0959-1.5578-1.0959-2.6092-1e-6 -0.6958 0.16622-1.3162 0.49866-1.8613 0.33244-0.54504 0.79824-0.96252 1.3974-1.2524 0.59916-0.28991 1.4631-0.54311 2.5919-0.75959 1.523-0.28604 2.5783-0.55276 3.1659-0.80017v-0.3247c-9e-6 -0.62621-0.15463-1.0727-0.46387-1.3394-0.30925-0.26671-0.89295-0.40007-1.7511-0.40009-0.57984 2e-5 -1.0321 0.11405-1.3568 0.34211-0.32471 0.22807-0.58757 0.62816-0.78857 1.2002zm4.3604 2.644c-0.41749 0.13916-1.0785 0.30538-1.983 0.49865-0.90455 0.19329-1.496 0.3827-1.7743 0.56824-0.42522 0.30152-0.63782 0.68421-0.63782 1.1481-4e-6 0.45614 0.17008 0.85043 0.51025 1.1829 0.34016 0.33244 0.77311 0.49866 1.2988 0.49866 0.58756 0 1.1481-0.19328 1.6815-0.57983 0.39428-0.29378 0.65327-0.65328 0.77698-1.0785 0.08503-0.27832 0.12756-0.8079 0.12756-1.5888z"/><path id="aa" d="m-32.615 308.63v-17.001h3.2587v17.001z"/><path id="ab" d="m-18.897 304.71 3.2471 0.54504c-0.41749 1.1906-1.0766 2.0971-1.9772 2.7194-0.90068 0.62236-2.0275 0.93353-3.3804 0.93353-2.1415 0-3.7264-0.69966-4.7546-2.099-0.81177-1.121-1.2177-2.5358-1.2177-4.2444-1e-6 -2.041 0.53345-3.6394 1.6003-4.7952 1.0669-1.1558 2.416-1.7337 4.0472-1.7337 1.8323 1e-5 3.278 0.60497 4.3372 1.8149 1.0592 1.2099 1.5655 3.0635 1.5192 5.5606h-8.1641c0.02319 0.96639 0.28605 1.7182 0.78858 2.2556 0.50252 0.53732 1.1287 0.80597 1.8787 0.80597 0.51025 0 0.93932-0.13916 1.2872-0.41748 0.34789-0.27832 0.61075-0.72672 0.78857-1.3452zm0.18555-3.2935c-0.0232-0.94319-0.26673-1.6602-0.73059-2.1512-0.46388-0.49091-1.0282-0.73637-1.6931-0.73639-0.71127 2e-5 -1.2988 0.25901-1.7627 0.77698-0.46387 0.518-0.69194 1.2215-0.6842 2.1106z"/><path id="ac" d="m-9.6888 308.63h-3.2587v-12.316h3.0267v1.7511c0.51798-0.82722 0.98378-1.3723 1.3974-1.6351 0.41361-0.26285 0.88327-0.39428 1.409-0.39429 0.74218 1e-5 1.4573 0.20489 2.1454 0.61462l-1.0089 2.8412c-0.54892-0.35562-1.0592-0.53344-1.5308-0.53345-0.45614 1e-5 -0.8427 0.12564-1.1597 0.37689-0.31698 0.25127-0.56631 0.70548-0.74799 1.3626-0.18169 0.65716-0.27253 2.0333-0.27252 4.1284z"/></g><path id="ad" d="m-172.22 449.02v-147.66h49.453" fill="none" stroke="#000" stroke-linecap="round" stroke-linejoin="round" stroke-width="3.5938px"/><path id="ae" d="m-124.72 293.63 23.359 7.7344-23.359 7.8125v-15.547z" fill-rule="evenodd"/><path id="af" d="m16.764 301.36h59.062v126.25" fill="none" stroke="#000" stroke-linecap="round" stroke-linejoin="round" stroke-width="3.5938px"/><path id="ag" d="m83.639 425.66-7.8125 23.359-7.8125-23.359h15.625z" fill-rule="evenodd"/></g></svg>
