<?xml version="1.0" encoding="UTF-8"?>
<svg id="a" version="1.1" viewBox="0 0 568.66 103.35" xmlns="http://www.w3.org/2000/svg"><g id="b" transform="translate(393.31 -382.4)"><path id="c" d="m-162.14 389.2v88.594h118.12v-88.594h-118.12z" fill="#fff" fill-rule="evenodd"/><path id="d" d="m-162.14 477.79h118.12v-88.594h-118.12v88.594z" fill="none" stroke="#000" stroke-linecap="round" stroke-linejoin="round" stroke-width="3.5938px"/><g id="e" fill="#262626"><path id="f" d="m-135.41 440.68v-17.001h6.3782c1.2988 2e-5 2.3406 0.17203 3.1253 0.51605 0.78469 0.34405 1.3993 0.87363 1.8439 1.5888 0.44453 0.71514 0.6668 1.4631 0.66681 2.244-1e-5 0.72673-0.19716 1.4109-0.59143 2.0526-0.3943 0.64169-0.9896 1.1597-1.7859 1.554 1.0282 0.30152 1.8187 0.81564 2.3715 1.5424 0.55276 0.72673 0.82915 1.5849 0.82916 2.5745-1e-5 0.79631-0.16816 1.5366-0.50445 2.2208-0.33632 0.6842-0.75187 1.2118-1.2466 1.5829-0.4948 0.3711-1.1152 0.65135-1.8613 0.84076-0.74607 0.18942-1.6603 0.28412-2.7426 0.28412zm2.2498-9.8572h3.6762c0.99731 1e-5 1.7124-0.0657 2.1454-0.19714 0.57209-0.17007 1.0031-0.45226 1.293-0.84656 0.2899-0.39427 0.43486-0.88906 0.43487-1.4844-1e-5 -0.56436-0.1353-1.0611-0.40588-1.4902-0.2706-0.42907-0.65716-0.72285-1.1597-0.88135-0.50253-0.15848-1.3646-0.23772-2.5861-0.23773h-3.3978zm0 7.851h4.2328c0.72672 0 1.237-0.0271 1.5308-0.0812 0.51798-0.0928 0.95092-0.24739 1.2988-0.46387 0.34789-0.21647 0.63394-0.53151 0.85816-0.94513 0.22419-0.41361 0.33629-0.891 0.3363-1.4322-1e-5 -0.63394-0.16237-1.1848-0.48706-1.6525-0.32472-0.46773-0.77506-0.7963-1.351-0.98572-0.57598-0.18941-1.4051-0.28411-2.4875-0.28412h-3.9313z"/><path id="g" d="m-119.74 440.68v-12.316h1.8787v1.8671c0.47933-0.8736 0.92194-1.4496 1.3278-1.7279 0.40588-0.27831 0.85236-0.41747 1.3394-0.41748 0.70353 1e-5 1.4186 0.22421 2.1454 0.67261l-0.719 1.9366c-0.51026-0.3015-1.0205-0.45226-1.5308-0.45227-0.45614 1e-5 -0.86589 0.13724-1.2292 0.41168-0.36336 0.27447-0.62236 0.65522-0.77697 1.1423-0.23194 0.74219-0.34791 1.554-0.3479 2.4353v6.4478z"/><path id="h" d="m-112.56 434.52c0-2.2807 0.63395-3.9699 1.9018-5.0678 1.0592-0.91226 2.3503-1.3684 3.8733-1.3684 1.6931 1e-5 3.077 0.55472 4.1516 1.6641 1.0746 1.1094 1.6119 2.6421 1.6119 4.5981-1e-5 1.5849-0.23774 2.8315-0.71319 3.7399-0.47548 0.90841-1.1674 1.6139-2.0758 2.1164-0.90841 0.50252-1.8999 0.75378-2.9746 0.75378-1.724 0-3.1176-0.55277-4.1806-1.6583s-1.5945-2.6982-1.5945-4.7778zm2.1454 0c0 1.5772 0.34403 2.7581 1.0321 3.5428 0.68806 0.78471 1.554 1.1771 2.5976 1.1771 1.036 1e-5 1.898-0.39428 2.5861-1.1829 0.68806-0.78857 1.0321-1.9908 1.0321-3.6066-1e-5 -1.523-0.34598-2.6769-1.0379-3.4616-0.69195-0.7847-1.552-1.1771-2.5803-1.1771-1.0437 1e-5 -1.9096 0.39044-2.5976 1.1713-0.68808 0.78085-1.0321 1.9598-1.0321 3.537z"/><path id="i" d="m-98.551 440.68v-17.001h2.0874v9.6948l4.9402-5.0098h2.702l-4.7083 4.5691 5.1837 7.7466h-2.5745l-4.0704-6.297-1.4728 1.4148v4.8822z"/><path id="j" d="m-78.257 436.71 2.157 0.26672c-0.34018 1.2602-0.97027 2.2382-1.8903 2.934-0.92001 0.6958-2.0951 1.0437-3.5254 1.0437-1.8014 0-3.2297-0.5547-4.285-1.6641-1.0553-1.1094-1.5829-2.6653-1.5829-4.6677-1e-6 -2.0719 0.53345-3.68 1.6003-4.8242 1.0669-1.1442 2.4508-1.7163 4.1516-1.7163 1.6467 1e-5 2.9919 0.56052 4.0356 1.6815 1.0437 1.121 1.5655 2.6982 1.5656 4.7314-1.3e-5 0.12371-0.0039 0.30925-0.0116 0.55664h-9.1846c0.07731 1.353 0.46 2.3889 1.1481 3.1079 0.68806 0.719 1.5462 1.0785 2.5745 1.0785 0.76537 1e-5 1.4187-0.201 1.9598-0.60302 0.54117-0.40202 0.97025-1.0437 1.2872-1.925zm-6.8536-3.3746h6.8768c-0.09278-1.036-0.35564-1.8129-0.78857-2.3309-0.66488-0.80402-1.5269-1.206-2.5861-1.206-0.95866 1e-5 -1.7646 0.32085-2.4179 0.96252-0.65328 0.64169-1.0147 1.4998-1.0843 2.5745z"/><path id="k" d="m-73.49 440.68v-12.316h1.8787v1.8671c0.47932-0.8736 0.92193-1.4496 1.3278-1.7279 0.40588-0.27831 0.85235-0.41747 1.3394-0.41748 0.70352 1e-5 1.4187 0.22421 2.1454 0.67261l-0.71899 1.9366c-0.51026-0.3015-1.0205-0.45226-1.5308-0.45227-0.45614 1e-5 -0.86589 0.13724-1.2292 0.41168-0.36337 0.27447-0.62236 0.65522-0.77698 1.1423-0.23194 0.74219-0.3479 1.554-0.3479 2.4353v6.4478z"/></g><path id="l" d="m50.512 389.2v88.594h118.05v-88.594h-118.05z" fill="#fff" fill-rule="evenodd"/><path id="m" d="m50.512 477.79h118.05v-88.594h-118.05v88.594z" fill="none" stroke="#000" stroke-linecap="round" stroke-linejoin="round" stroke-width="3.5938px"/><g id="n" fill="#262626"><path id="o" d="m77.188 440.68v-17.001h5.8563c1.322 2e-5 2.3309 0.0812 3.0267 0.24353 0.97411 0.22422 1.8052 0.6301 2.4933 1.2176 0.8968 0.75767 1.5675 1.726 2.012 2.905 0.44452 1.179 0.66679 2.5262 0.66681 4.0414-1.6e-5 1.2911-0.15077 2.4353-0.45227 3.4326-0.30153 0.99732-0.68808 1.8226-1.1597 2.4759-0.47161 0.65328-0.98766 1.1674-1.5482 1.5424-0.56052 0.37496-1.237 0.65908-2.0294 0.85236-0.79245 0.19327-1.7028 0.28991-2.731 0.28991zm2.2498-2.0062h3.6298c1.121 0 2.0004-0.10437 2.6382-0.31311 0.63781-0.20874 1.1461-0.50252 1.525-0.88135 0.53344-0.53344 0.94898-1.2505 1.2466-2.1512 0.29763-0.90066 0.44646-1.9927 0.44647-3.2761-1.4e-5 -1.7781-0.29186-3.1446-0.87555-4.0994-0.58371-0.95478-1.293-1.5945-2.128-1.9192-0.60304-0.23192-1.5733-0.34789-2.9108-0.3479h-3.5718z"/><path id="p" d="m102.51 436.71 2.157 0.26672c-0.34018 1.2602-0.97026 2.2382-1.8903 2.934-0.92001 0.6958-2.0951 1.0437-3.5254 1.0437-1.8014 0-3.2297-0.5547-4.285-1.6641-1.0553-1.1094-1.5829-2.6653-1.5829-4.6677-1e-6 -2.0719 0.53344-3.68 1.6003-4.8242 1.0669-1.1442 2.4508-1.7163 4.1516-1.7163 1.6467 1e-5 2.9919 0.56052 4.0356 1.6815 1.0437 1.121 1.5655 2.6982 1.5656 4.7314-1e-5 0.12371-4e-3 0.30925-0.0116 0.55664h-9.1846c0.07731 1.353 0.46 2.3889 1.1481 3.1079 0.68806 0.719 1.5462 1.0785 2.5745 1.0785 0.76537 1e-5 1.4186-0.201 1.9598-0.60302 0.54117-0.40202 0.97024-1.0437 1.2872-1.925zm-6.8536-3.3746h6.8768c-0.0928-1.036-0.35564-1.8129-0.78857-2.3309-0.66489-0.80402-1.5269-1.206-2.5861-1.206-0.95866 1e-5 -1.7646 0.32085-2.4179 0.96252-0.65328 0.64169-1.0147 1.4998-1.0843 2.5745z"/><path id="q" d="m115.34 439.16c-0.77312 0.65714-1.5172 1.121-2.2324 1.3916-0.71514 0.27059-1.4824 0.40588-2.3019 0.40588-1.353 0-2.3928-0.3305-3.1195-0.99151-0.72673-0.66101-1.0901-1.5056-1.0901-2.5339 0-0.60302 0.13723-1.1539 0.41168-1.6525 0.27446-0.49866 0.63395-0.89874 1.0785-1.2003 0.44453-0.30151 0.94512-0.52958 1.5018-0.6842 0.40974-0.10823 1.0282-0.2126 1.8555-0.31312 1.6854-0.201 2.9262-0.44066 3.7225-0.71899 8e-3 -0.28604 0.0116-0.46772 0.0116-0.54504 0-0.85042-0.19715-1.4496-0.59143-1.7975-0.53345-0.47159-1.3259-0.70739-2.3773-0.7074-0.98185 1e-5 -1.7066 0.17203-2.1744 0.51606-0.46774 0.34404-0.81371 0.95287-1.0379 1.8265l-2.041-0.27832c0.18554-0.8736 0.49092-1.5791 0.91614-2.1164 0.42521-0.5373 1.0398-0.95092 1.8439-1.2408 0.80403-0.2899 1.7356-0.43486 2.7948-0.43487 1.0514 1e-5 1.9057 0.12371 2.5629 0.37109 0.65714 0.24741 1.1403 0.55859 1.4496 0.93353 0.30923 0.37498 0.5257 0.84851 0.64941 1.4206 0.0696 0.35564 0.10436 0.99732 0.10437 1.925v2.7832c-1e-5 1.9405 0.0444 3.1678 0.13337 3.682 0.0889 0.51412 0.26477 1.007 0.52764 1.4786h-2.1802c-0.21648-0.43294-0.35564-0.93933-0.41748-1.5192zm-0.17395-4.6619c-0.75766 0.30925-1.8941 0.57211-3.4094 0.78858-0.85816 0.1237-1.465 0.26286-1.8207 0.41748-0.35564 0.15462-0.63009 0.38076-0.82337 0.6784-0.19328 0.29765-0.28992 0.62816-0.28992 0.99152 0 0.55664 0.21067 1.0205 0.63202 1.3916 0.42135 0.3711 1.0379 0.55664 1.8497 0.55664 0.80403 0 1.5192-0.17588 2.1454-0.52765 0.62621-0.35176 1.0862-0.83302 1.38-1.4438 0.2242-0.4716 0.3363-1.1674 0.33631-2.0874z"/><path id="r" d="m120.48 440.68v-17.001h2.0874v17.001z"/><path id="s" d="m134.24 436.71 2.157 0.26672c-0.34018 1.2602-0.97027 2.2382-1.8903 2.934-0.92001 0.6958-2.0951 1.0437-3.5254 1.0437-1.8014 0-3.2297-0.5547-4.285-1.6641-1.0553-1.1094-1.583-2.6653-1.583-4.6677 0-2.0719 0.53345-3.68 1.6003-4.8242 1.0669-1.1442 2.4508-1.7163 4.1516-1.7163 1.6467 1e-5 2.9919 0.56052 4.0356 1.6815 1.0437 1.121 1.5655 2.6982 1.5656 4.7314-1e-5 0.12371-4e-3 0.30925-0.0116 0.55664h-9.1846c0.0773 1.353 0.46 2.3889 1.1481 3.1079 0.68807 0.719 1.5462 1.0785 2.5745 1.0785 0.76537 1e-5 1.4186-0.201 1.9598-0.60302 0.54117-0.40202 0.97025-1.0437 1.2872-1.925zm-6.8536-3.3746h6.8768c-0.0928-1.036-0.35564-1.8129-0.78857-2.3309-0.66489-0.80402-1.5269-1.206-2.5861-1.206-0.95867 1e-5 -1.7646 0.32085-2.4179 0.96252-0.65329 0.64169-1.0147 1.4998-1.0843 2.5745z"/><path id="t" d="m139.01 440.68v-12.316h1.8787v1.8671c0.47933-0.8736 0.92194-1.4496 1.3278-1.7279 0.40588-0.27831 0.85235-0.41747 1.3394-0.41748 0.70353 1e-5 1.4186 0.22421 2.1454 0.67261l-0.719 1.9366c-0.51026-0.3015-1.0205-0.45226-1.5308-0.45227-0.45614 1e-5 -0.86589 0.13724-1.2292 0.41168-0.36337 0.27447-0.62236 0.65522-0.77698 1.1423-0.23193 0.74219-0.3479 1.554-0.3479 2.4353v6.4478z"/></g><g id="u"><path id="v" d="m0.38465 447.49v-11.777h-11.689v-4.9219h11.689v-11.689h4.9805v11.689h11.689v4.9219h-11.689v11.777z"/></g><path id="w" d="m-386.52 390.37v88.594h118.12v-88.594h-118.12z" fill="#fff" fill-rule="evenodd"/><path id="x" d="m-386.52 478.96h118.12v-88.594h-118.12v88.594z" fill="none" stroke="#000" stroke-linecap="round" stroke-linejoin="round" stroke-width="3.5938px"/><g id="y" fill="#262626"><path id="z" d="m-362.91 441.93v-17.001h7.2247c1.8168 2e-5 3.1369 0.15271 3.9603 0.45807 0.82335 0.30539 1.4824 0.84851 1.9772 1.6293 0.49478 0.78086 0.74217 1.6738 0.74219 2.6788-2e-5 1.2756-0.37498 2.329-1.1249 3.1601-0.74993 0.8311-1.8709 1.3549-3.363 1.5714 0.74218 0.43295 1.3549 0.90841 1.8381 1.4264 0.48318 0.51799 1.1345 1.438 1.954 2.76l2.0758 3.3166h-4.1052l-2.4817-3.6993c-0.88136-1.322-1.4844-2.155-1.8091-2.4991-0.32472-0.34403-0.66875-0.57983-1.0321-0.7074-0.36337-0.12756-0.93934-0.19134-1.7279-0.19135h-0.6958v7.0972zm3.4326-9.8108h2.5397c1.6467 1e-5 2.675-0.0696 3.0847-0.20874 0.40973-0.13915 0.73057-0.37881 0.96252-0.71899 0.23192-0.34016 0.34789-0.76537 0.3479-1.2756-1e-5 -0.57209-0.1527-1.034-0.45807-1.3858-0.30539-0.35175-0.7364-0.57402-1.293-0.66681-0.27833-0.0386-1.1133-0.058-2.5049-0.058h-2.6788z"/><path id="aa" d="m-346.53 435.6c0-1.0824 0.26672-2.1299 0.80017-3.1427 0.53345-1.0128 1.2892-1.7859 2.2672-2.3193 0.97798-0.53344 2.07-0.80016 3.2761-0.80017 1.8632 1e-5 3.3901 0.60497 4.5807 1.8149 1.1906 1.2099 1.7859 2.7388 1.7859 4.5865-1e-5 1.8632-0.60111 3.4075-1.8033 4.6329-1.2022 1.2254-2.7156 1.8381-4.5401 1.8381-1.1288 0-2.2053-0.25512-3.2297-0.76538-1.0244-0.51025-1.8033-1.2582-2.3367-2.244-0.53345-0.98571-0.80017-2.186-0.80017-3.6008zm3.3398 0.17395c0 1.2215 0.28992 2.157 0.86976 2.8064 0.57982 0.64942 1.295 0.97413 2.1454 0.97412 0.85042 1e-5 1.5636-0.3247 2.1396-0.97412 0.57596-0.64941 0.86394-1.5926 0.86395-2.8296-1e-5 -1.206-0.28799-2.1338-0.86395-2.7832-0.57598-0.64941-1.2892-0.97411-2.1396-0.97412-0.85043 1e-5 -1.5656 0.32471-2.1454 0.97412-0.57984 0.64942-0.86976 1.5849-0.86976 2.8064z"/><path id="ab" d="m-323.15 441.93v-1.8439c-0.44842 0.65715-1.0379 1.1751-1.7685 1.554-0.7306 0.37882-1.5018 0.56823-2.3135 0.56823-0.82724 0-1.5694-0.18168-2.2266-0.54504-0.65715-0.36336-1.1326-0.87362-1.4264-1.5308-0.29378-0.65715-0.44067-1.5656-0.44067-2.7252v-7.793h3.2587v5.6592c0 1.7318 0.0599 2.7929 0.17975 3.1833 0.11983 0.39042 0.33823 0.69967 0.65522 0.92773 0.31697 0.22807 0.71898 0.34211 1.206 0.3421 0.55663 1e-5 1.0553-0.15268 1.496-0.45807 0.44067-0.30537 0.74218-0.6842 0.90454-1.1365 0.16235-0.45227 0.24352-1.5598 0.24353-3.3224v-5.1953h3.2587v12.316z"/><path id="ac" d="m-311.09 429.61v2.5977h-2.2266v4.9634c0 1.005 0.0213 1.5907 0.0638 1.7569 0.0425 0.16622 0.13916 0.30345 0.28992 0.41168 0.15075 0.10824 0.33436 0.16236 0.55084 0.16236 0.30151 0 0.73832-0.10437 1.3104-0.31311l0.27832 2.5281c-0.75766 0.32471-1.6158 0.48706-2.5745 0.48706-0.58757 0-1.1172-0.0986-1.5887-0.29571-0.4716-0.19715-0.81757-0.45227-1.0379-0.76538-0.22034-0.31311-0.37303-0.73639-0.45807-1.2698-0.0696-0.37882-0.10437-1.1442-0.10437-2.2961v-5.3693h-1.496v-2.5977h1.496v-2.4469l3.2703-1.9019v4.3488z"/><path id="ad" d="m-301.67 438.01 3.2471 0.54505c-0.41749 1.1906-1.0766 2.0971-1.9772 2.7194-0.90068 0.62236-2.0275 0.93353-3.3804 0.93353-2.1415 0-3.7264-0.69966-4.7546-2.099-0.81177-1.121-1.2176-2.5358-1.2176-4.2444 0-2.041 0.53345-3.6394 1.6003-4.7952 1.0669-1.1558 2.416-1.7337 4.0472-1.7337 1.8323 1e-5 3.278 0.60497 4.3372 1.8149 1.0592 1.2099 1.5655 3.0635 1.5192 5.5606h-8.1641c0.0232 0.96639 0.28604 1.7182 0.78857 2.2556 0.50252 0.53732 1.1287 0.80597 1.8787 0.80597 0.51025 0 0.93933-0.13916 1.2872-0.41748s0.61075-0.72672 0.78858-1.3452zm0.18554-3.2934c-0.0232-0.94319-0.26673-1.6602-0.73059-2.1512-0.46387-0.49091-1.0282-0.73638-1.6931-0.73639-0.71127 1e-5 -1.2988 0.25901-1.7627 0.77698-0.46387 0.518-0.69194 1.2215-0.6842 2.1106z"/><path id="ae" d="m-292.47 441.93h-3.2587v-12.316h3.0267v1.7511c0.51798-0.82722 0.98378-1.3723 1.3974-1.6351 0.41361-0.26285 0.88327-0.39428 1.409-0.39429 0.74218 1e-5 1.4573 0.20489 2.1454 0.61462l-1.0089 2.8412c-0.54892-0.35562-1.0592-0.53344-1.5308-0.53345-0.45615 1e-5 -0.8427 0.12564-1.1597 0.37689-0.31698 0.25127-0.56631 0.70548-0.74799 1.3626-0.18168 0.65716-0.27252 2.0333-0.27252 4.1284z"/></g><g id="af"><path id="ag" d="m-197.95 429.18h-28.359v-4.9219h28.359zm0 13.037h-28.359v-4.9219h28.359z"/></g></g></svg>
