<?xml version="1.0" encoding="UTF-8"?>
<svg id="b" version="1.0" viewBox="0 0 630.66 386.54" xmlns="http://www.w3.org/2000/svg"><defs id="c"><filter id="a" x="0" y="0" width="1" height="1" color-interpolation-filters="sRGB"><feColorMatrix id="d" type="saturate" values="0"/></filter></defs><g id="e" transform="translate(-68.957 -494.26)"><g id="f" filter="url(#a)"><path id="g" class="ps018" d="m520.39 779.72c-12.452 18.979-32.204 30.745-54.189 30.745-29.972 0-55.048-13.655-55.048-46.289 0-48.006 70.163-65.096 123.92-68.188v14.256c0 31.088-0.60116 47.92-14.685 69.476m121.95 38.13v-193.57c0-46.976-8.8455-73.169-34.008-96.098-23.96-21.899-62.949-33.922-115.76-33.922-50.926 0-94.123 12.109-125.18 35.296 27.85 22.243 46.34 55.048 49.947 98.073 0-36.584 25.077-51.613 62.691-51.613 42.081 0 54.361 29.456 54.705 54.104l0.34352 11.765c-116.45 5.668-226.17 27.395-224.06 133.88 1.4857 74.629 69.046 105.12 115.42 105.03 53.932 0 84.075-14.428 113.7-51.184 0.51527 15.544 2.4905 31.947 5.1527 43.884h104.34c-5.8397-18.292-7.2997-36.584-7.2997-55.649" fill="#49ac44"/><path id="h" class="ps019" d="m311.01 775.77c-0.16317-8.1585 0.33492-15.888 1.4428-23.015-4.8693 26.88-26.408 40.277-53.588 40.277-54.241 0-69.407-40.792-69.407-110.61 0-68.875 16.326-106.23 69.132-106.23 32.797 0 56.525 17.777 56.525 51.441h102.21c-7.4113-88.197-77.342-133.37-162.39-133.37-117.16 0-185.99 82.701-185.99 196.92 0 109.84 66.625 189.62 179.38 189.62 32.849 0 70.077-7.9867 100.05-27.224-21.109-17.004-36.67-42.424-37.374-77.806" fill="#0084ca"/><path id="i" class="ps02" d="m672.39 858.12v15.372h-2.3187v-15.372h-5.7539v-2.0611h13.569l0.34351 2.0611" fill="#221f1f"/><path id="j" class="ps02" d="m697.55 873.5v-14.17l-6.0115 14.17h-2.0611l-5.9256-14.17v14.17h-2.0611v-17.433h3.0916l6.0115 14.771 6.0115-14.771h3.0058v17.433" fill="#221f1f"/></g></g></svg>
