<?xml version="1.0" encoding="UTF-8"?>
<svg id="a" version="1.1" viewBox="0 0 980 612.02" xmlns="http://www.w3.org/2000/svg"><g id="b" transform="translate(121.63 -226.35)"><g id="c" transform="translate(-96.331 225.16)"><text id="d" x="767.5" y="33.75" fill="#000000" font-family="Arial" font-size="30px" xml:space="preserve">Router</text><text id="e" x="335" y="33.75" fill="#000000" font-family="Arial" font-size="30px" xml:space="preserve">Client</text><path id="f" d="m809.14 321.88h-419.92" fill="none" stroke="#000" stroke-linecap="round" stroke-linejoin="round" stroke-width="3.5938px"/><path id="g" d="m390.94 328.44-13.203-6.5625 13.203-6.6406v13.203z" fill-rule="evenodd"/><path id="h" d="m551.25 292.97v20h84.297v-20h-84.297z" fill="#fff" fill-rule="evenodd"/><text id="i" x="551.25" y="307.5" fill="#000000" font-family="Arial" font-size="16.25px" xml:space="preserve">GOODBYE</text><path id="j" d="m363.52 211.41v137.42h14.219v-137.42h-14.219z" fill="#fa72c6" fill-rule="evenodd"/><path id="k" d="m810 211.41v137.42h14.141v-137.42h-14.141z" fill="#fa72c6" fill-rule="evenodd"/><path id="l" d="m377.73 246.25h419.84" fill="none" stroke="#000" stroke-linecap="round" stroke-linejoin="round" stroke-width="3.5938px"/><path id="m" d="m795.94 239.69 13.203 6.5625-13.203 6.6406v-13.203z" fill-rule="evenodd"/><path id="n" d="m551.25 217.34v20h84.297v-20h-84.297z" fill="#fff" fill-rule="evenodd"/><text id="o" x="551.25" y="232.5" fill="#000000" font-family="Arial" font-size="16.25px" xml:space="preserve">GOODBYE</text><path id="p" d="m809.14 500h-419.92" fill="none" stroke="#000" stroke-linecap="round" stroke-linejoin="round" stroke-width="3.5938px"/><path id="q" d="m390.94 506.64-13.203-6.6406 13.203-6.5625v13.203z" fill-rule="evenodd"/><path id="r" d="m551.25 471.09v20h84.297v-20h-84.297z" fill="#fff" fill-rule="evenodd"/><text id="s" x="551.25" y="486.25" fill="#000000" font-family="Arial" font-size="16.25px" xml:space="preserve">GOODBYE</text><path id="t" d="m363.52 466.95v137.34h14.219v-137.34h-14.219z" fill="#fa72c6" fill-rule="evenodd"/><path id="u" d="m810 466.95v137.34h14.141v-137.34h-14.141z" fill="#fa72c6" fill-rule="evenodd"/><path id="v" d="m378.59 575.62h419.84" fill="none" stroke="#000" stroke-linecap="round" stroke-linejoin="round" stroke-width="3.5938px"/><path id="w" d="m796.8 568.98 13.203 6.6406-13.203 6.5625v-13.203z" fill-rule="evenodd"/><path id="x" d="m552.11 546.72v20h84.297v-20h-84.297z" fill="#fff" fill-rule="evenodd"/><text id="y" x="552.5" y="561.25" fill="#000000" font-family="Arial" font-size="16.25px" xml:space="preserve">GOODBYE</text><path id="z" d="m299.77 159.84h141.72" fill="none" stroke="#fa72c6" stroke-linecap="round" stroke-linejoin="round" stroke-width="3.5938px"/><path id="aa" d="m781.64 112.58h141.72" fill="none" stroke="#fa72c6" stroke-linecap="round" stroke-linejoin="round" stroke-width="3.5938px"/><path id="ab" d="m441.48 159.84 340.16-47.266" fill="none" stroke="#fa72c6" stroke-linecap="round" stroke-linejoin="round" stroke-width="3.5938px"/><text id="ac" x="562.5" y="91.25" fill="#000000" font-family="Arial" font-size="20px" xml:space="preserve">Session </text><text id="ad" x="547.5" y="115" fill="#000000" font-family="Arial" font-size="20px" xml:space="preserve">established</text><text id="ae" x="583.75" y="416.25" fill="#000000" font-family="Arial" font-size="20px" font-weight="bold" xml:space="preserve">OR</text><path id="af" d="m134.38 437.19 385-26.953" fill="none" stroke="#000" stroke-linecap="round" stroke-linejoin="round" stroke-width=".39062px"/><path id="ag" d="m2.1094 390v94.453h264.53v-94.453h-264.53z" fill="#fff" fill-rule="evenodd"/><path id="ah" d="m2.1094 484.45h264.53v-94.453h-264.53v94.453z" fill="none" stroke="#000" stroke-linecap="round" stroke-linejoin="round" stroke-width=".39062px"/><text id="ai" x="37.5" y="418.75" fill="#000000" font-family="Arial" font-size="20px" xml:space="preserve">Session close may be </text><text id="aj" x="35" y="443.75" fill="#000000" font-family="Arial" font-size="20px" xml:space="preserve">initiated by both Peers </text><text id="ak" x="47.5" y="467.5" fill="#000000" font-family="Arial" font-size="20px" xml:space="preserve">(</text><text id="al" x="53.75" y="467.5" fill="#000000" font-family="Arial" font-size="20px" font-weight="bold" xml:space="preserve">Client </text><text id="am" x="115" y="467.5" fill="#000000" font-family="Arial" font-size="20px" xml:space="preserve">OR </text><text id="an" x="150" y="467.5" fill="#000000" font-family="Arial" font-size="20px" font-weight="bold" xml:space="preserve">Router</text><text id="ao" x="215" y="467.5" fill="#000000" font-family="Arial" font-size="20px" xml:space="preserve">)</text></g></g></svg>
