<?xml version="1.0" encoding="UTF-8"?>
<svg id="a" enable-background="new 0 0 792 360" version="1.1" viewBox="0 0 670 173" xml:space="preserve" xmlns="http://www.w3.org/2000/svg">

<g id="b" transform="translate(-62.1,-62.5)" fill="#808080"><g id="c">
		<path id="d" d="m159 220.4h-6.2c-61.1-16.4-62.3-101.3-3.6-117.6h13.5c-61.1 16.4-62.4 101.3-3.7 117.6z" fill="#808080"/>
	</g><g id="e">
		<path id="f" d="m172.8 225.5h-6.2c-61.1-16.4-62.3-101.3-3.6-117.6h13.5c-61.1 16.3-62.4 101.2-3.7 117.6z" fill="#808080"/>
	</g><g id="g">
		<path id="h" d="m186.6 230.5h-6.2c-61.1-16.4-62.3-101.3-3.6-117.6h13.5c-61.2 16.3-62.4 101.2-3.7 117.6z" fill="#808080"/>
	</g><path id="i" d="m80.9 227.2c-1-1-2.1-2-3.1-3 11.3-44.9 4.8-88-15.7-119.7 3.8-3.6 7.6-7.2 11.4-10.9 19.9 39.7 23 87.7 7.4 133.6z"/><path id="j" d="m85.3 231.4c-1-1-2.1-2-3.1-3 17.3-46.3 15.5-96.3-4.1-139.1 3.8-3.6 7.6-7.2 11.3-10.9 19.1 50.7 17.4 105.7-4.1 153z"/><path id="k" d="m89.6 235.5c-1-1-2.1-2-3.1-3 23.2-47.6 26.3-104.6 7.4-158.4 3.8-3.6 7.6-7.2 11.4-10.9 18.3 61.8 11.7 123.8-15.7 172.3z"/><g id="l">
	<path id="m" d="m243.3 118.7-8.7 40.3h0.3l40.8-40.3h28.7l-51.9 46.8 33.1 55.9h-24.6l-28.5-52.2-11.2 52.2h-20.6l22.1-102.7h20.5z"/>
	<path id="n" d="m312 145.6h19.7l-16.2 75.8h-19.7l16.2-75.8zm7.2-32.6h19.7l-4.1 18.8h-19.7l4.1-18.8z"/>
	<path id="o" d="m343 145.6h14.3l3.4-15.6 21.2-6.9-4.9 22.5h17.7l-3.1 14.4h-17.7l-7.2 33.1c-0.4 1.8-0.9 4.4-0.9 7.3 0 4.6 3.1 7.4 7.5 7.4 3.5 0 7.1-0.7 9.6-1.8l-3.4 15.3c-3.4 0.7-7.2 1.8-10.6 1.8-13.4 0-22.8-5.3-22.8-19.9 0-5.9 1.2-11.6 2.5-17.7l5.6-25.6h-14.3l3.1-14.3z"/>
	<path id="p" d="m402.9 145.6h19.7l5.4 56.9h0.3l27.8-56.9h21.9l4.1 56.9h0.3l29.1-56.9h20.2l-42.1 75.8h-22.2l-4.3-58h-0.3l-27.6 58h-22.4l-9.9-75.8z"/>
	<path id="q" d="m570.5 209.8h-0.3c-6.8 8.5-13.5 13.4-24.4 13.4-13.7 0-23.4-7.6-23.4-21.6 0-25 27.9-26.9 46.5-26.9h6.9c0.6-2.1 0.6-4.3 0.6-6.5 0-7.7-8.2-9.9-15.2-9.9-8.7 0-17.1 2.2-24.9 5.9l2.8-15.7c8.4-2.9 16.9-4.6 25.7-4.6 15.2 0 29.4 5.6 29.4 23.4 0 10.1-7.5 39.9-9.3 54.1h-16.6l2.2-11.6zm-19.3-1.1c14.7 0 19.3-10.2 22.4-22.4h-6.9c-9.6 0-25.5 1.6-25.5 14.4 0 5.4 5 8 10 8z"/>
	<path id="r" d="m614.1 155.8c0.6-3.2 1.2-6.6 1.8-10.2h18.8l-2.6 14.3h0.3c3.5-8.2 13.2-16 22.4-16 2.5 0 5.2 0.1 7.5 0.7l-4.1 19.3c-2.2-0.7-5-1.2-7.5-1.2-14 0-20.7 12.5-23.3 24.7l-7.1 34h-19.7l13.5-65.6z"/>
	<path id="s" d="m676.8 189.6c0 14 7.5 19.1 21 19.1 8.1 0 15.9-2.1 23.2-5.4l-2.5 15.6c-7.6 2.4-16 4.3-24.1 4.3-21.8 0-36.5-10.6-36.5-33.1 0-23.5 18.2-46.2 43.1-46.2 18.7 0 31 9.6 31 28.8 0 5.7-0.7 11.3-1.9 16.9h-53.3zm36-13.5c0.3-1.8 0.4-3.4 0.4-5.1 0-8.1-4.3-12.7-12.5-12.7-12.2 0-17.5 7.4-21.3 17.8h33.4z"/>
</g></g>
</svg>
