<?xml version="1.0" encoding="UTF-8"?>
<svg id="a" version="1.1" viewBox="0 0 1031.6 367.15" xmlns="http://www.w3.org/2000/svg"><g id="b" transform="translate(155.96 -116.08)"><g id="c" transform="translate(-149.73 114.78)"><path id="d" d="m485.19 76.449v282.82h14.149v-282.82h-14.149z" fill="#fa72c6" fill-rule="evenodd"/><path id="e" d="m57.376 76.449v282.82h14.227v-282.82h-14.227z" fill="#fa72c6" fill-rule="evenodd"/><path id="f" d="m931.93 76.449v282.82h14.149v-282.82h-14.149z" fill="#fa72c6" fill-rule="evenodd"/><path id="g" d="m72.306 122.88h398.97" fill="none" stroke="#000" stroke-linecap="round" stroke-linejoin="round" stroke-width="3.5958px"/><path id="h" d="m469.64 116.32 13.211 6.5662-13.211 6.6444v-13.211z" fill-rule="evenodd"/><path id="i" d="m241.85 93.959v20.011h71.368v-20.011h-71.368z" fill="#fff" fill-rule="evenodd"/><text id="j" x="241.3857" y="108.81117" fill="#000000" font-family="Arial" font-size="16.259px" xml:space="preserve">PUBLISH</text><path id="k" d="m500.2 232.79h420.16" fill="none" stroke="#000" stroke-linecap="round" stroke-linejoin="round" stroke-width="3.5958px"/><path id="l" d="m918.72 226.22 13.211 6.5662-13.211 6.6444v-13.211z" fill-rule="evenodd"/><path id="m" d="m688.28 203.86v20.011h55.578v-20.011h-55.578z" fill="#fff" fill-rule="evenodd"/><text id="n" x="687.88672" y="218.87305" fill="#000000" font-family="Arial" font-size="16.259px" xml:space="preserve">EVENT</text><path id="o" d="m482.85 187.92h-399.05" fill="none" stroke="#000" stroke-linecap="round" stroke-linejoin="round" stroke-width="3.5958px"/><path id="p" d="m85.517 194.48-13.211-6.5662 13.211-6.6444v13.211z" fill-rule="evenodd"/><path id="q" d="m188.15 159v20.011h178.85v-20.011h-178.85z" fill="#fff" fill-rule="evenodd"/><text id="r" x="187.60545" y="173.84773" fill="#000000" font-family="Arial" font-size="16.259px" xml:space="preserve">PUBLISHED or ERROR</text><text id="s" x="2.5014062" y="33.768986" fill="#000000" font-family="Arial" font-size="30.017px" xml:space="preserve">Publisher</text><text id="t" x="872.99078" y="33.768986" fill="#000000" font-family="Arial" font-size="30.017px" xml:space="preserve">Subscriber</text><text id="u" x="447.75171" y="33.768986" fill="#000000" font-family="Arial" font-size="30.017px" xml:space="preserve">Broker</text></g></g></svg>
