<?xml version="1.0" encoding="UTF-8"?>
<svg id="a" version="1.1" viewBox="0 0 1311.1 366.98" xmlns="http://www.w3.org/2000/svg"><g id="b" transform="translate(303.59 -159.41)"><g id="c" transform="translate(-296.81 157.76)"><path id="d" d="m433.21 76.449v282.82h14.149v-282.82h-14.149z" fill="#fa72c6" fill-rule="evenodd"/><path id="e" d="m57.376 76.449v282.82h14.227v-282.82h-14.227z" fill="#fa72c6" fill-rule="evenodd"/><path id="f" d="m837.35 76.449v282.82h14.227v-282.82h-14.227z" fill="#fa72c6" fill-rule="evenodd"/><path id="g" d="m72.306 122.88h349.34" fill="none" stroke="#000" stroke-linecap="round" stroke-linejoin="round" stroke-width="3.5958px"/><path id="h" d="m420 116.32 13.211 6.5662-13.211 6.6444v-13.211z" fill-rule="evenodd"/><path id="i" d="m217.08 93.959v20.011h71.368v-20.011h-71.368z" fill="#fff" fill-rule="evenodd"/><text id="j" x="217.62234" y="108.81117" fill="#000000" font-family="Arial" font-size="16.259px" xml:space="preserve">PUBLISH</text><path id="k" d="m851.57 281.25h352.39" fill="none" stroke="#000" stroke-linecap="round" stroke-linejoin="round" stroke-width="3.5958px"/><path id="l" d="m1202.3 274.69 13.211 6.5662-13.211 6.6444v-13.211z" fill-rule="evenodd"/><path id="m" d="m1005.7 252.33v20.011h55.578v-20.011h-55.578z" fill="#fff" fill-rule="evenodd"/><text id="n" x="1005.5653" y="267.65045" fill="#000000" font-family="Arial" font-size="16.259px" xml:space="preserve">EVENT</text><path id="o" d="m433.21 174.94h-350.12" fill="none" stroke="#000" stroke-linecap="round" stroke-linejoin="round" stroke-width="3.5958px"/><path id="p" d="m84.813 181.51-13.211-6.5662 13.211-6.6444v13.211z" fill-rule="evenodd"/><path id="q" d="m162.98 146.02v20.011h178.85v-20.011h-178.85z" fill="#fff" fill-rule="evenodd"/><text id="r" x="162.5914" y="161.3407" fill="#000000" font-family="Arial" font-size="16.259px" xml:space="preserve">PUBLISHED or ERROR</text><text id="s" x="2.5014062" y="33.768986" fill="#000000" font-family="Arial" font-size="30.017px" xml:space="preserve">Publisher</text><text id="t" x="1151.8976" y="36.27039" fill="#000000" font-family="Arial" font-size="30.017px" xml:space="preserve">Subscriber</text><text id="u" x="386.46725" y="36.27039" fill="#000000" font-family="Arial" font-size="30.017px" xml:space="preserve">Broker </text><text id="v" x="482.77139" y="36.27039" fill="#000000" font-family="Arial" font-size="30.017px" xml:space="preserve">1</text><path id="w" d="m1215.5 76.449v282.82h14.149v-282.82h-14.149z" fill="#fa72c6" fill-rule="evenodd"/><path id="x" d="m447.36 198.55h378.42" fill="none" stroke="#000" stroke-linecap="round" stroke-linejoin="round" stroke-width="3.5958px"/><path id="y" d="m824.14 191.9 13.211 6.6444-13.211 6.5662v-13.211z" fill-rule="evenodd"/><path id="z" d="m606.67 169.63v20.011h71.368v-20.011h-71.368z" fill="#fff" fill-rule="evenodd"/><text id="aa" x="606.591" y="185.10406" fill="#000000" font-family="Arial" font-size="16.259px" xml:space="preserve">PUBLISH</text><path id="ab" d="m837.35 255.3h-378.42" fill="none" stroke="#000" stroke-linecap="round" stroke-linejoin="round" stroke-width="3.5958px"/><path id="ac" d="m460.57 261.87-13.211-6.5662 13.211-6.6444v13.211z" fill-rule="evenodd"/><path id="ad" d="m552.97 226.38v20.011h178.85v-20.011h-178.85z" fill="#fff" fill-rule="evenodd"/><text id="ae" x="552.81079" y="241.3857" fill="#000000" font-family="Arial" font-size="16.259px" xml:space="preserve">PUBLISHED or ERROR</text><text id="af" x="787.94293" y="36.27039" fill="#000000" font-family="Arial" font-size="30.017px" xml:space="preserve">Broker </text><text id="ag" x="884.24707" y="36.27039" fill="#000000" font-family="Arial" font-size="30.017px" xml:space="preserve">2</text></g></g></svg>
