<?xml version="1.0" encoding="UTF-8"?>
<svg id="a" version="1.1" viewBox="0 0 471.51 43.467" xml:space="preserve" xmlns="http://www.w3.org/2000/svg">

<path id="b" d="m404.15 21.73c0 11.232 6.0835 17.736 15.954 17.736 9.8784 0 15.91-6.5044 15.91-17.736 0-11.226-6.0316-17.73-15.91-17.73-9.8706 0-15.954 6.5034-15.954 17.73zm4.7278 0c0-8.7479 4.3049-13.755 11.226-13.755 6.9262 0 11.19 5.0067 11.19 13.755 0 8.7527-4.2628 13.76-11.19 13.76-6.9204-0.0011-11.226-5.0077-11.226-13.76zm32.013 16.805h4.3548v-27.285c0.37295 0.98177 0.79482 1.7825 1.2617 2.4853l16.053 24.8h4.9568v-33.646h-4.3548v27.278c-0.37293-0.93184-0.93283-1.9126-1.5407-2.8513l-15.724-24.427h-5.0068zm-436.89 0h8.5638v-12.587h5.7556c2.9512 0 4.3979 1.1188 4.6779 3.7891 0.3289 2.9952-0.0939 5.9885 0.93773 8.7978h9.0337v-1.1756c-1.6405-0.83788-1.2177-3.2243-1.4536-7.3422-0.23296-3.976-0.65191-6.1324-4.256-7.5361 3.6041-1.8265 5.2867-4.4478 5.2867-8.2379 0-6.5044-4.0259-9.3557-12.45-9.3557h-16.096zm8.5638-19.234v-7.6731h6.6434c3.2311 0 4.8217 1.1678 4.8217 3.6471 0 2.8083-1.5906 4.026-5.0537 4.026zm24.996 19.234h26.11v-6.8842h-17.501v-7.2062h15.488v-6.7344h-15.488v-5.9455h16.939v-6.8763h-25.549zm60.279-11.791h-8.0049c-0.56186 3.6031-2.9483 5.5167-6.8313 5.5167-4.6769 0-7.5781-3.6471-7.5781-10.387 0-6.7843 3.1332-10.665 7.8111-10.665 3.6041 0 5.8025 1.6396 6.5974 4.8638h8.0979c-0.75272-7.4431-6.2714-12.027-14.413-12.027-10.297 0-16.942 7.0202-16.942 17.923 0 10.53 6.6443 17.5 16.425 17.5 8.2408-0.0011 13.665-4.6299 14.838-12.724zm2.7652-5.0136c0 10.952 6.5053 17.736 16.849 17.736 10.336 0 16.94-6.7833 16.94-17.736 0-10.946-6.6032-17.73-16.94-17.73-10.344 0-16.849 6.7833-16.849 17.73zm8.7528 0c0-6.9204 2.9453-10.617 8.096-10.617 5.1487 0 8.142 3.6961 8.142 10.617 0 6.9262-2.9512 10.629-8.142 10.629-5.1506 0-8.096-3.653-8.096-10.629zm29.347 16.805h8.559v-12.587h5.7595c2.9463 0 4.3989 1.1188 4.6778 3.7891 0.32889 2.9952-0.094 5.9885 0.9387 8.7978h9.0337v-1.1756c-1.6405-0.83788-1.2177-3.2243-1.4546-7.3422-0.23491-3.976-0.65189-6.1324-4.256-7.5361 3.6041-1.8265 5.2877-4.4478 5.2877-8.2379 0-6.5044-4.026-9.3557-12.45-9.3557h-16.096zm8.559-19.234v-7.6731h6.6482c3.2311 0 4.8218 1.1678 4.8218 3.6471 0 2.8083-1.5906 4.026-5.0586 4.026zm24.999 19.234h13.239c11.096 0 16.568-5.5735 16.568-16.805 0-10.803-5.4296-16.842-15.443-16.842h-14.363zm8.6549-7.0701v-19.464h4.6779c5.3356 0 7.722 2.9952 7.722 9.7286 0 6.6972-2.3864 9.7345-7.722 9.7345h-4.6779zm27.426 7.0701h4.6857v-5.1007h-4.6857zm12.358 0h24.383v-4.2129h-19.842v-11.275h17.967v-3.933h-17.967v-10.063h19.464v-4.162h-24.004v33.646zm37.442 0h4.7777l11.834-33.647h-4.7718l-9.4037 28.173-9.6866-28.173h-4.7258zm17.928-16.805c0 11.232 6.0815 17.736 15.954 17.736 9.8765 0 15.91-6.5044 15.91-17.736 0-11.226-6.0335-17.73-15.91-17.73-9.8725 0-15.954 6.5034-15.954 17.73zm4.7278 0c0-8.7479 4.2981-13.755 11.226-13.755 6.9262 0 11.188 5.0067 11.188 13.755 0 8.7527-4.2618 13.76-11.188 13.76-6.9282-0.0011-11.226-5.0077-11.226-13.76zm32.056 16.805h21.391v-4.2628h-16.755v-29.385h-4.6358v33.647zm23.148-12.78c0 9.1257 4.2119 13.711 12.629 13.711 8.9916 0 13.717-4.6779 13.717-13.711v-20.867h-4.5898v20.917c0 6.2244-2.8083 9.2627-8.6108 9.2627-5.8955 0-8.5609-2.9943-8.5609-9.2627v-20.917h-4.5849zm39.964 12.78h4.5917v-29.577h10.616v-4.069h-25.825v4.069h10.616zm18.539 0h4.5849v-33.646h-4.5849z" fill="#808080"/>

</svg>
