<?xml version="1.0" encoding="UTF-8"?>
<svg id="a" version="1.1" viewBox="0 0 1249.3 367.35" xmlns="http://www.w3.org/2000/svg"><g id="b" transform="translate(1074.7 249.16)"><g id="c" transform="translate(-1071.1 -253.27)"><path id="d" d="m395.61 76.449v282.82h14.227v-282.82h-14.227z" fill="#fa72c6" fill-rule="evenodd"/><path id="e" d="m34.003 76.449v282.82h14.227v-282.82h-14.227z" fill="#fa72c6" fill-rule="evenodd"/><path id="f" d="m773.79 76.449v282.82h14.227v-282.82h-14.227z" fill="#fa72c6" fill-rule="evenodd"/><path id="g" d="m48.856 122.88h335.27" fill="none" stroke="#000" stroke-linecap="round" stroke-linejoin="round" stroke-width="3.5958px"/><path id="h" d="m382.4 116.32 13.211 6.5662-13.211 6.6444v-13.211z" fill-rule="evenodd"/><path id="i" d="m201.36 93.959v20.011h41.742v-20.011h-41.742z" fill="#fff" fill-rule="evenodd"/><text id="j" x="201.3632" y="108.81117" fill="#000000" font-family="Arial" font-size="16.259px" xml:space="preserve">CALL</text><path id="k" d="m790.37 170.17h385.53" fill="none" stroke="#000" stroke-linecap="round" stroke-linejoin="round" stroke-width="3.5958px"/><path id="l" d="m1174.3 163.61 13.21 6.5662-13.21 6.6444v-13.211z" fill-rule="evenodd"/><path id="m" d="m937.01 141.25v20.011h103.73v-20.011h-103.73z" fill="#fff" fill-rule="evenodd"/><text id="n" x="936.77661" y="156.33789" fill="#000000" font-family="Arial" font-size="16.259px" xml:space="preserve">INVOCATION</text><path id="o" d="m1187.5 241.07h-385.53" fill="none" stroke="#000" stroke-linecap="round" stroke-linejoin="round" stroke-width="3.5958px"/><path id="p" d="m803.58 247.72-13.211-6.6444 13.211-6.5662v13.211z" fill-rule="evenodd"/><path id="q" d="m917.55 212.15v20.011h142.66v-20.011h-142.66z" fill="#fff" fill-rule="evenodd"/><text id="r" x="918.01605" y="227.62796" fill="#000000" font-family="Arial" font-size="16.259px" xml:space="preserve">YIELD OR ERROR</text><path id="s" d="m395.61 288.37h-335.89" fill="none" stroke="#000" stroke-linecap="round" stroke-linejoin="round" stroke-width="3.5958px"/><path id="t" d="m61.441 294.93-13.211-6.5662 13.211-6.6444v13.211z" fill-rule="evenodd"/><path id="u" d="m146.88 259.44v20.011h150.08v-20.011h-150.08z" fill="#fff" fill-rule="evenodd"/><text id="v" x="146.33226" y="273.90399" fill="#000000" font-family="Arial" font-size="16.259px" xml:space="preserve">RESULT or ERROR</text><text id="w" x="2.5014062" y="33.768986" fill="#000000" font-family="Arial" font-size="30.017px" xml:space="preserve">Caller</text><text id="x" x="1149.3961" y="36.27039" fill="#000000" font-family="Arial" font-size="30.017px" xml:space="preserve">Callee</text><text id="y" x="362.70389" y="36.27039" fill="#000000" font-family="Arial" font-size="30.017px" xml:space="preserve">Dealer </text><text id="z" x="459.00803" y="36.27039" fill="#000000" font-family="Arial" font-size="30.017px" xml:space="preserve">1</text><path id="aa" d="m1192.2 76.449v282.82h14.148v-282.82h-14.148z" fill="#fa72c6" fill-rule="evenodd"/><path id="ab" d="m412.18 146.57h347.7" fill="none" stroke="#000" stroke-linecap="round" stroke-linejoin="round" stroke-width="3.5958px"/><path id="ac" d="m758.24 139.92 13.211 6.6444-13.211 6.5662v-13.211z" fill-rule="evenodd"/><path id="ad" d="m570.95 117.64v20.011h41.742v-20.011h-41.742z" fill="#fff" fill-rule="evenodd"/><text id="ae" x="570.32062" y="132.57452" fill="#000000" font-family="Arial" font-size="16.259px" xml:space="preserve">CALL</text><path id="af" d="m771.45 264.76h-347.7" fill="none" stroke="#000" stroke-linecap="round" stroke-linejoin="round" stroke-width="3.5958px"/><path id="ag" d="m425.4 271.32-13.211-6.5662 13.211-6.6444v13.211z" fill-rule="evenodd"/><path id="ah" d="m516.77 235.84v20.011h150.08v-20.011h-150.08z" fill="#fff" fill-rule="evenodd"/><text id="ai" x="516.54041" y="251.39133" fill="#000000" font-family="Arial" font-size="16.259px" xml:space="preserve">RESULT or ERROR</text><text id="aj" x="750.42188" y="36.27039" fill="#000000" font-family="Arial" font-size="30.017px" xml:space="preserve">Dealer </text><text id="ak" x="846.72601" y="36.27039" fill="#000000" font-family="Arial" font-size="30.017px" xml:space="preserve">2</text></g></g></svg>
