<?xml version="1.0" encoding="UTF-8"?>
<svg id="a" version="1.1" viewBox="0 0 965.41 622.57" xmlns="http://www.w3.org/2000/svg"><g id="b" transform="translate(413.72 34.95)"><g id="c" transform="translate(-408.99 -34.152)"><path id="d" d="m461.2 70.899v543.59h14.227v-543.59h-14.227z" fill="#fa72c6" fill-rule="evenodd"/><path id="e" d="m33.456 70.899v543.59h14.149v-543.59h-14.149z" fill="#fa72c6" fill-rule="evenodd"/><path id="f" d="m907.93 70.899v543.59h14.149v-543.59h-14.149z" fill="#fa72c6" fill-rule="evenodd"/><path id="g" d="m48.308 144.93h398.97" fill="none" stroke="#000" stroke-linecap="round" stroke-linejoin="round" stroke-width="3.5958px"/><path id="h" d="m445.64 138.28 13.211 6.6444-13.211 6.5662v-13.211z" fill-rule="evenodd"/><path id="i" d="m232.71 116v20.011h41.742v-20.011h-41.742z" fill="#fff" fill-rule="evenodd"/><text id="j" x="232.63078" y="131.32384" fill="#000000" font-family="Arial" font-size="16.259px" xml:space="preserve">CALL</text><path id="k" d="m476.28 167.13h420.08" fill="none" stroke="#000" stroke-linecap="round" stroke-linejoin="round" stroke-width="3.5958px"/><path id="l" d="m894.72 160.48 13.211 6.6444-13.211 6.5662v-13.211z" fill-rule="evenodd"/><path id="m" d="m640.2 138.2v20.011h103.81v-20.011h-103.81z" fill="#fff" fill-rule="evenodd"/><text id="n" x="640.35999" y="152.58578" fill="#000000" font-family="Arial" font-size="16.259px" xml:space="preserve">INVOCATION</text><path id="o" d="m907.93 507.24h-420.08" fill="none" stroke="#000" stroke-linecap="round" stroke-linejoin="round" stroke-width="3.5958px"/><path id="p" d="m489.49 513.8-13.211-6.5662 13.211-6.5662v13.132z" fill-rule="evenodd"/><path id="q" d="m625.82 478.32v20.011h132.57v-20.011h-132.57z" fill="#fff" fill-rule="evenodd"/><text id="r" x="625.35156" y="492.77701" fill="#000000" font-family="Arial" font-size="16.259px" xml:space="preserve">YIELD or ERROR</text><path id="s" d="m458.85 529.44h-398.97" fill="none" stroke="#000" stroke-linecap="round" stroke-linejoin="round" stroke-width="3.5958px"/><path id="t" d="m61.519 536-13.211-6.5662 13.211-6.5662v13.132z" fill-rule="evenodd"/><path id="u" d="m178.54 500.52v20.011h150.08v-20.011h-150.08z" fill="#fff" fill-rule="evenodd"/><text id="v" x="178.85054" y="515.28967" fill="#000000" font-family="Arial" font-size="16.259px" xml:space="preserve">RESULT or ERROR</text><text id="w" x="2.5014062" y="33.768986" fill="#000000" font-family="Arial" font-size="30.017px" xml:space="preserve">Caller</text><text id="x" x="865.48651" y="33.768986" fill="#000000" font-family="Arial" font-size="30.017px" xml:space="preserve">Callee</text><text id="y" x="425.23904" y="33.768986" fill="#000000" font-family="Arial" font-size="30.017px" xml:space="preserve">Dealer</text><path id="z" d="m907.93 374.35h-420.08" fill="none" stroke="#000" stroke-linecap="round" stroke-linejoin="round" stroke-width="3.5958px"/><path id="aa" d="m489.49 380.92-13.211-6.5662 13.211-6.6444v13.211z" fill-rule="evenodd"/><path id="ab" d="m627.7 345.43v20.011h128.82v-20.011h-128.82z" fill="#fff" fill-rule="evenodd"/><text id="ac" x="627.85297" y="360.20248" fill="#000000" font-family="Arial" font-size="16.259px" xml:space="preserve">YIELD </text><text id="ad" x="680.38251" y="360.20248" fill="#000000" font-family="Arial" font-size="16.259px" xml:space="preserve">(</text><text id="ae" x="686.63599" y="360.20248" fill="#000000" font-family="Arial" font-size="16.259px" xml:space="preserve">progress</text><text id="af" x="750.42188" y="360.20248" fill="#000000" font-family="Arial" font-size="16.259px" xml:space="preserve">)</text><path id="ag" d="m458.85 396.55h-398.97" fill="none" stroke="#000" stroke-linecap="round" stroke-linejoin="round" stroke-width="3.5958px"/><path id="ah" d="m61.519 403.12-13.211-6.5662 13.211-6.6444v13.211z" fill-rule="evenodd"/><path id="ai" d="m180.41 367.63v20.011h146.41v-20.011h-146.41z" fill="#fff" fill-rule="evenodd"/><text id="aj" x="180.10126" y="382.71515" fill="#000000" font-family="Arial" font-size="16.259px" xml:space="preserve">RESULT </text><text id="ak" x="251.39133" y="382.71515" fill="#000000" font-family="Arial" font-size="16.259px" xml:space="preserve">(</text><text id="al" x="256.39413" y="382.71515" fill="#000000" font-family="Arial" font-size="16.259px" xml:space="preserve">progress</text><text id="am" x="321.43069" y="382.71515" fill="#000000" font-family="Arial" font-size="16.259px" xml:space="preserve">)</text><path id="an" d="m904.73 307.75h-420.16" fill="none" stroke="#000" stroke-linecap="round" stroke-linejoin="round" stroke-width="3.5958px"/><path id="ao" d="m486.29 314.32-13.211-6.5662 13.211-6.6444v13.211z" fill-rule="evenodd"/><path id="ap" d="m624.49 278.83v20.011h128.82v-20.011h-128.82z" fill="#fff" fill-rule="evenodd"/><text id="aq" x="624.10083" y="293.91522" fill="#000000" font-family="Arial" font-size="16.259px" xml:space="preserve">YIELD </text><text id="ar" x="677.8811" y="293.91522" fill="#000000" font-family="Arial" font-size="16.259px" xml:space="preserve">(</text><text id="as" x="682.88391" y="293.91522" fill="#000000" font-family="Arial" font-size="16.259px" xml:space="preserve">progress</text><text id="at" x="747.92047" y="293.91522" fill="#000000" font-family="Arial" font-size="16.259px" xml:space="preserve">)</text><path id="au" d="m455.8 329.95h-398.97" fill="none" stroke="#000" stroke-linecap="round" stroke-linejoin="round" stroke-width="3.5958px"/><path id="av" d="m58.47 336.52-13.211-6.5662 13.211-6.6444v13.211z" fill-rule="evenodd"/><path id="aw" d="m177.29 301.03v20.011h146.41v-20.011h-146.41z" fill="#fff" fill-rule="evenodd"/><text id="ax" x="177.59984" y="316.42789" fill="#000000" font-family="Arial" font-size="16.259px" xml:space="preserve">RESULT </text><text id="ay" x="247.63921" y="316.42789" fill="#000000" font-family="Arial" font-size="16.259px" xml:space="preserve">(</text><text id="az" x="252.64203" y="316.42789" fill="#000000" font-family="Arial" font-size="16.259px" xml:space="preserve">progress</text><text id="ba" x="317.67859" y="316.42789" fill="#000000" font-family="Arial" font-size="16.259px" xml:space="preserve">)</text><text id="bb" x="686.63599" y="432.74326" fill="#000000" font-family="Arial" font-size="16.259px" font-weight="bold" xml:space="preserve">. . .</text><text id="bc" x="236.38289" y="455.25592" fill="#000000" font-family="Arial" font-size="16.259px" font-weight="bold" xml:space="preserve">. . .</text></g></g></svg>
