<?xml version="1.0" encoding="UTF-8"?>
<svg id="a" version="1.1" viewBox="0 0 965.41 420.5" xmlns="http://www.w3.org/2000/svg"><g id="b" transform="translate(705.09 -91.205)"><g id="c" transform="translate(-698.94 89.429)"><path id="d" d="m461.82 76.449v335.97h14.149v-335.97h-14.149z" fill="#fa72c6" fill-rule="evenodd"/><path id="e" d="m34.003 76.449v335.97h14.227v-335.97h-14.227z" fill="#fa72c6" fill-rule="evenodd"/><path id="f" d="m908.56 76.449v335.97h14.149v-335.97h-14.149z" fill="#fa72c6" fill-rule="evenodd"/><path id="g" d="m48.934 151.8h398.97" fill="none" stroke="#000" stroke-linecap="round" stroke-linejoin="round" stroke-width="3.5958px"/><path id="h" d="m446.27 145.24 13.211 6.5662-13.211 6.6444v-13.211z" fill-rule="evenodd"/><path id="i" d="m233.33 122.88v20.011h41.664v-20.011h-41.664z" fill="#fff" fill-rule="evenodd"/><text id="j" x="233.88148" y="137.57735" fill="#000000" font-family="Arial" font-size="16.259px" xml:space="preserve">CALL</text><path id="k" d="m476.83 174h420.16" fill="none" stroke="#000" stroke-linecap="round" stroke-linejoin="round" stroke-width="3.5958px"/><path id="l" d="m895.35 167.44 13.211 6.5662-13.211 6.6444v-13.211z" fill-rule="evenodd"/><path id="m" d="m640.83 145.08v20.011h103.73v-20.011h-103.73z" fill="#fff" fill-rule="evenodd"/><text id="n" x="640.35999" y="160.09" fill="#000000" font-family="Arial" font-size="16.259px" xml:space="preserve">INVOCATION</text><path id="o" d="m908.56 365.13h-420.16" fill="none" stroke="#000" stroke-linecap="round" stroke-linejoin="round" stroke-width="3.5958px"/><path id="p" d="m490.04 371.77-13.211-6.6444 13.211-6.5662v13.211z" fill-rule="evenodd"/><path id="q" d="m662.56 336.28v20.011h60.268v-20.011h-60.268z" fill="#fff" fill-rule="evenodd"/><text id="r" x="662.87262" y="351.44757" fill="#000000" font-family="Arial" font-size="16.259px" xml:space="preserve">ERROR</text><path id="s" d="m459.48 294.23h-399.05" fill="none" stroke="#000" stroke-linecap="round" stroke-linejoin="round" stroke-width="3.5958px"/><path id="t" d="m62.144 300.87-13.211-6.6444 13.211-6.5662v13.211z" fill-rule="evenodd"/><path id="u" d="m224.03 265.31v20.011h60.268v-20.011h-60.268z" fill="#fff" fill-rule="evenodd"/><text id="v" x="223.87585" y="280.1575" fill="#000000" font-family="Arial" font-size="16.259px" xml:space="preserve">ERROR</text><text id="w" x="2.5014062" y="33.768986" fill="#000000" font-family="Arial" font-size="30.017px" xml:space="preserve">Caller</text><text id="x" x="865.48651" y="33.768986" fill="#000000" font-family="Arial" font-size="30.017px" xml:space="preserve">Callee</text><text id="y" x="425.23904" y="33.768986" fill="#000000" font-family="Arial" font-size="30.017px" xml:space="preserve">Dealer</text><path id="z" d="m51.279 247.01h398.97" fill="none" stroke="#000" stroke-linecap="round" stroke-linejoin="round" stroke-width="3.5958px"/><path id="aa" d="m448.61 240.37 13.211 6.6444-13.211 6.5662v-13.211z" fill-rule="evenodd"/><path id="ab" d="m222.7 218.09v20.011h67.694v-20.011h-67.694z" fill="#fff" fill-rule="evenodd"/><text id="ac" x="222.62515" y="232.63078" fill="#000000" font-family="Arial" font-size="16.259px" xml:space="preserve">CANCEL</text><path id="ad" d="m476.83 317.91h420.16" fill="none" stroke="#000" stroke-linecap="round" stroke-linejoin="round" stroke-width="3.5958px"/><path id="ae" d="m895.35 311.27 13.211 6.6444-13.211 6.5662v-13.211z" fill-rule="evenodd"/><path id="af" d="m644.97 288.99v20.011h95.444v-20.011h-95.444z" fill="#fff" fill-rule="evenodd"/><text id="ag" x="645.36279" y="303.92084" fill="#000000" font-family="Arial" font-size="16.259px" xml:space="preserve">INTERRUPT</text></g></g></svg>
