<?xml version="1.0" encoding="UTF-8"?>
<svg id="a" version="1.1" viewBox="0 0 1133.8 821.5" xmlns="http://www.w3.org/2000/svg"><g id="b" transform="translate(753.62 254.55)"><g id="c" transform="translate(-745.53 -246.46)"><path id="d" d="m230.78 193.75v165.31h614.14v-165.31h-614.14z" fill="#bfbfbf" fill-rule="evenodd"/><text id="e" x="487.5" y="235" fill="#000000" font-family="Arial" font-size="23.75px" xml:space="preserve">Transport</text><path id="f" d="m136.25 339.69c13.047 0 23.672-10.625 23.672-23.672v-69.688c0-13.047-10.625-23.594-23.672-23.594h-108.67c-13.047 0-23.594 10.547-23.594 23.594v69.688c0 13.047 10.547 23.672 23.594 23.672h108.67z" fill="#bdf808" fill-rule="evenodd"/><path id="g" d="m136.25 339.69c13.047 0 23.672-10.625 23.672-23.672v0-69.688c0-13.047-10.625-23.594-23.672-23.594v0h-108.67c-13.047 0-23.594 10.547-23.594 23.594v0 69.688c0 13.047 10.547 23.672 23.594 23.672v0h108.67z" fill="none" stroke="#000" stroke-linecap="round" stroke-linejoin="round" stroke-width="2.0312px"/><text id="h" x="50" y="288.75" fill="#000000" font-family="Arial" font-size="23.75px" font-weight="bold" xml:space="preserve">Client</text><path id="i" d="m1048.1 339.69c12.969 0 23.594-10.625 23.594-23.672v-69.688c0-13.047-10.625-23.594-23.594-23.594h-108.67c-13.047 0-23.672 10.547-23.672 23.594v69.688c0 13.047 10.625 23.672 23.672 23.672h108.67z" fill="#fa72c6" fill-rule="evenodd"/><path id="j" d="m1048.1 339.69c12.969 0 23.594-10.625 23.594-23.672v0-69.688c0-13.047-10.625-23.594-23.594-23.594v0h-108.67c-13.047 0-23.672 10.547-23.672 23.594v0 69.688c0 13.047 10.625 23.672 23.672 23.672h108.67z" fill="none" stroke="#000" stroke-linecap="round" stroke-linejoin="round" stroke-width="2.0312px"/><text id="k" x="956.25" y="288.75" fill="#ffffff" font-family="Arial" font-size="23.75px" font-weight="bold" xml:space="preserve">Router</text><path id="l" d="m159.92 257.58v47.266h755.86v-47.266h-755.86z" fill="#fa72c6" fill-rule="evenodd"/><path id="m" d="m159.92 304.84h755.86v-47.266h-755.86v47.266z" fill="none" stroke="#000" stroke-linecap="round" stroke-linejoin="round" stroke-width="1.1719px"/><text id="n" x="496.25" y="288.75" fill="#ffffff" font-family="Arial" font-size="23.75px" xml:space="preserve">Session</text><path id="o" d="m409.3 443.98v56.953h253.36v-56.953h-253.36z" fill="#fff" fill-rule="evenodd"/><path id="p" d="m409.3 500.94h253.36v-56.953h-253.36v56.953z" fill="none" stroke="#000" stroke-linecap="round" stroke-linejoin="round" stroke-width=".39062px"/><text id="q" x="511.25" y="480" fill="#000000" font-family="Arial" font-size="23.75px" xml:space="preserve">Peer</text><path id="r" d="m230.78 193.75h614.14" fill="none" stroke="#000" stroke-linecap="round" stroke-linejoin="round" stroke-width="3.5938px"/><path id="s" d="m670.78 469.22 322.97-129.53" fill="none" stroke="#000" stroke-linecap="round" stroke-linejoin="round" stroke-width=".39062px"/><path id="t" d="m662.66 472.5 8.5938-9.6875c-0.3125 4.0625 1.25 8.0469 4.2969 10.703l-12.891-1.0156z" fill-rule="evenodd"/><path id="u" d="m811.17 405.47 28.906-11.562-8.9062-22.266-28.906 11.562 8.9063 22.266z" fill="#fff" fill-rule="evenodd"/><text id="v" transform="matrix(.93358 -.35837 .35837 .93358 -89.63 316.4)" x="808.75" y="400" fill="#000000" font-family="Arial" font-size="20px" xml:space="preserve">i</text><text id="w" transform="matrix(.93358 -.35837 .35837 .93358 -88.933 317.66)" x="812.5" y="398.75" fill="#000000" font-family="Arial" font-size="20px" xml:space="preserve">s</text><text id="x" transform="matrix(.93358 -.35837 .35837 .93358 -86.925 320.99)" x="822.5" y="395" fill="#000000" font-family="Arial" font-size="20px" xml:space="preserve"> </text><text id="y" transform="matrix(.93358 -.35837 .35837 .93358 -85.697 322.62)" x="827.5" y="392.5" fill="#000000" font-family="Arial" font-size="20px" xml:space="preserve">a</text><path id="z" d="m401.17 469.22-319.22-129.53" fill="none" stroke="#000" stroke-linecap="round" stroke-linejoin="round" stroke-width=".39062px"/><path id="aa" d="m409.3 472.5-12.891 1.0156c3.0469-2.7344 4.6094-6.7187 4.2969-10.781l8.5938 9.7656z" fill-rule="evenodd"/><path id="ab" d="m233.83 393.83 28.828 11.719 8.9844-22.266-28.828-11.719-8.9844 22.266z" fill="#fff" fill-rule="evenodd"/><text id="ac" transform="matrix(.9205 .39073 -.39073 .9205 170.68 -61.406)" x="236.25" y="388.75" fill="#000000" font-family="Arial" font-size="20px" xml:space="preserve">i</text><text id="ad" transform="matrix(.9205 .39073 -.39073 .9205 171.46 -62.772)" x="240" y="390" fill="#000000" font-family="Arial" font-size="20px" xml:space="preserve">s</text><text id="ae" transform="matrix(.9205 .39073 -.39073 .9205 173.72 -66.382)" x="250" y="393.75" fill="#000000" font-family="Arial" font-size="20px" xml:space="preserve"> </text><text id="af" transform="matrix(.9205 .39073 -.39073 .9205 175.1 -68.136)" x="255" y="396.25" fill="#000000" font-family="Arial" font-size="20px" xml:space="preserve">a</text><path id="ag" d="m2.1094 526.8c0-16.953 35.938-30.703 80.312-30.703 44.375 0 80.313 13.75 80.313 30.703 0 16.953-35.938 30.703-80.313 30.703-44.375 0-80.312-13.75-80.312-30.703" fill="#fff" fill-rule="evenodd"/><path id="ah" d="m2.1094 526.8c0-16.953 35.938-30.703 80.312-30.703 44.375 0 80.313 13.75 80.313 30.703v0c0 16.953-35.938 30.703-80.313 30.703-44.375 0-80.312-13.75-80.312-30.703" fill="none" stroke="#000" stroke-linecap="round" stroke-linejoin="round" stroke-width=".39062px"/><text id="ai" x="52.5" y="533.75" fill="#000000" font-family="Arial" font-size="23.75px" font-style="italic" xml:space="preserve">Caller</text><path id="aj" d="m2.1094 576.41c0-16.953 35.938-30.703 80.312-30.703 44.375 0 80.313 13.75 80.313 30.703s-35.938 30.703-80.313 30.703c-44.375 0-80.312-13.75-80.312-30.703" fill="#fff" fill-rule="evenodd"/><path id="ak" d="m2.1094 576.41c0-16.953 35.938-30.703 80.312-30.703 44.375 0 80.313 13.75 80.313 30.703v0c0 16.953-35.938 30.703-80.313 30.703-44.375 0-80.312-13.75-80.312-30.703" fill="none" stroke="#000" stroke-linecap="round" stroke-linejoin="round" stroke-width=".39062px"/><text id="al" x="48.75" y="583.75" fill="#000000" font-family="Arial" font-size="23.75px" font-style="italic" xml:space="preserve">Callee</text><path id="am" d="m2.1094 626.02c0-16.953 35.938-30.703 80.312-30.703 44.375 0 80.313 13.75 80.313 30.703 0 16.953-35.938 30.703-80.313 30.703-44.375 0-80.312-13.75-80.312-30.703" fill="#fff" fill-rule="evenodd"/><path id="an" d="m2.1094 626.02c0-16.953 35.938-30.703 80.312-30.703 44.375 0 80.313 13.75 80.313 30.703v0c0 16.953-35.938 30.703-80.313 30.703-44.375 0-80.312-13.75-80.312-30.703" fill="none" stroke="#000" stroke-linecap="round" stroke-linejoin="round" stroke-width=".39062px"/><text id="ao" x="33.75" y="632.5" fill="#000000" font-family="Arial" font-size="23.75px" font-style="italic" xml:space="preserve">Publisher</text><path id="ap" d="m2.1094 677.97c0-16.953 35.938-30.703 80.312-30.703 44.375 0 80.313 13.75 80.313 30.703s-35.938 30.703-80.313 30.703c-44.375 0-80.312-13.75-80.312-30.703" fill="#fff" fill-rule="evenodd"/><path id="aq" d="m2.1094 677.97c0-16.953 35.938-30.703 80.312-30.703 44.375 0 80.313 13.75 80.313 30.703v0c0 16.953-35.938 30.703-80.313 30.703-44.375 0-80.312-13.75-80.312-30.703" fill="none" stroke="#000" stroke-linecap="round" stroke-linejoin="round" stroke-width=".39062px"/><text id="ar" x="26.25" y="685" fill="#000000" font-family="Arial" font-size="23.75px" font-style="italic" xml:space="preserve">Subscriber</text><path id="as" d="m230.78 359.06h614.14" fill="none" stroke="#000" stroke-linecap="round" stroke-linejoin="round" stroke-width="3.5938px"/><path id="at" d="m913.91 623.67c0-16.953 35.938-30.703 80.312-30.703 44.375 0 80.312 13.75 80.312 30.703 0 16.953-35.937 30.703-80.312 30.703-44.375 0-80.312-13.75-80.312-30.703" fill="#fff" fill-rule="evenodd"/><path id="au" d="m913.91 623.67c0-16.953 35.938-30.703 80.312-30.703 44.375 0 80.312 13.75 80.312 30.703v0c0 16.953-35.937 30.703-80.312 30.703-44.375 0-80.312-13.75-80.312-30.703" fill="none" stroke="#000" stroke-linecap="round" stroke-linejoin="round" stroke-width=".39062px"/><text id="av" x="960" y="631.25" fill="#000000" font-family="Arial" font-size="23.75px" font-style="italic" xml:space="preserve">Dealer</text><path id="aw" d="m913.91 673.28c0-16.953 35.938-30.703 80.312-30.703 44.375 0 80.312 13.75 80.312 30.703s-35.937 30.703-80.312 30.703c-44.375 0-80.312-13.75-80.312-30.703" fill="#fff" fill-rule="evenodd"/><path id="ax" d="m913.91 673.28c0-16.953 35.938-30.703 80.312-30.703 44.375 0 80.312 13.75 80.312 30.703v0c0 16.953-35.937 30.703-80.312 30.703-44.375 0-80.312-13.75-80.312-30.703" fill="none" stroke="#000" stroke-linecap="round" stroke-linejoin="round" stroke-width=".39062px"/><text id="ay" x="960" y="680" fill="#000000" font-family="Arial" font-size="23.75px" font-style="italic" xml:space="preserve">Broker</text><path id="az" d="m417.89 746.25v56.953h253.28v-56.953h-253.28z" fill="#fff" fill-rule="evenodd"/><path id="ba" d="m417.89 803.2h253.28v-56.953h-253.28v56.953z" fill="none" stroke="#000" stroke-linecap="round" stroke-linejoin="round" stroke-width=".39062px"/><text id="bb" x="520" y="781.25" fill="#000000" font-family="Arial" font-size="23.75px" xml:space="preserve">Role</text><path id="bc" d="m540.23 500.94v245.31" fill="none" stroke="#000" stroke-linecap="round" stroke-linejoin="round" stroke-width=".39062px"/><path id="bd" d="m515.78 611.56v24.062h48.906v-24.062h-48.906z" fill="#fff" fill-rule="evenodd"/><text id="be" x="516.25" y="630" fill="#000000" font-family="Arial" font-size="20px" xml:space="preserve">has a</text><path id="bf" d="m409.22 773.05-326.8-64.375" fill="none" stroke="#000" stroke-linecap="round" stroke-linejoin="round" stroke-width=".39062px"/><path id="bg" d="m417.89 774.69-12.5 3.5156c2.5-3.2812 3.2813-7.5 2.1875-11.406l10.312 7.8906z" fill-rule="evenodd"/><path id="bh" d="m236.17 731.95 30.547 6.0156 4.6875-23.594-30.547-6.0156-4.6875 23.594z" fill="#fff" fill-rule="evenodd"/><text id="bi" transform="matrix(.97815 .20791 -.20791 .97815 156.19 -33.509)" x="237.5" y="726.25" fill="#000000" font-family="Arial" font-size="20px" xml:space="preserve">i</text><text id="bj" transform="matrix(.97815 .20791 -.20791 .97815 156.27 -34.288)" x="241.25" y="726.25" fill="#000000" font-family="Arial" font-size="20px" xml:space="preserve">s</text><text id="bk" transform="matrix(.97815 .20791 -.20791 .97815 157.01 -36.313)" x="251.25" y="728.75" fill="#000000" font-family="Arial" font-size="20px" xml:space="preserve"> </text><text id="bl" transform="matrix(.97815 .20791 -.20791 .97815 157.4 -37.585)" x="257.5" y="730" fill="#000000" font-family="Arial" font-size="20px" xml:space="preserve">a</text><path id="bm" d="m679.77 772.81 314.45-68.828" fill="none" stroke="#000" stroke-linecap="round" stroke-linejoin="round" stroke-width=".39062px"/><path id="bn" d="m671.17 774.69 10.078-8.125c-0.9375 3.9844-0.0781 8.125 2.5 11.328l-12.578-3.2031z" fill-rule="evenodd"/><path id="bo" d="m816.02 735.94 30.391-6.6406-5.0781-23.438-30.391 6.6406 5.0781 23.438z" fill="#fff" fill-rule="evenodd"/><text id="bp" transform="matrix(.97815 -.20791 .20791 .97815 -133.97 185.4)" x="815" y="730" fill="#000000" font-family="Arial" font-size="20px" xml:space="preserve">i</text><text id="bq" transform="matrix(.97815 -.20791 .20791 .97815 -133.62 186.15)" x="818.75" y="728.75" fill="#000000" font-family="Arial" font-size="20px" xml:space="preserve">s</text><text id="br" transform="matrix(.97815 -.20791 .20791 .97815 -133.15 188.2)" x="828.75" y="727.5" fill="#000000" font-family="Arial" font-size="20px" xml:space="preserve"> </text><text id="bs" transform="matrix(.97815 -.20791 .20791 .97815 -132.78 189.22)" x="833.75" y="726.25" fill="#000000" font-family="Arial" font-size="20px" xml:space="preserve">a</text><path id="bt" d="m994.22 584.14-0.46875-244.45" fill="none" stroke="#000" stroke-linecap="round" stroke-linejoin="round" stroke-width=".39062px"/><path id="bu" d="m994.22 592.97-5.7812-11.562c3.5938 1.7969 7.9688 1.7969 11.562-0.0781l-5.7812 11.641z" fill-rule="evenodd"/><path id="bv" d="m1000.9 427.97 0.078 76.719 24.062-0.0781-0.1562-76.719-23.984 0.0781z" fill="#fff" fill-rule="evenodd"/><text id="bw" transform="matrix(0 1 -1 0 1433.8 -578.75)" x="1006.25" y="427.5" fill="#000000" font-family="Arial" font-size="20px" xml:space="preserve">s</text><text id="bx" transform="matrix(0 1 -1 0 1443.8 -568.75)" x="1006.25" y="437.5" fill="#000000" font-family="Arial" font-size="20px" xml:space="preserve">u</text><text id="by" transform="matrix(0,1,-1,0,1455,-557.5)" x="1006.25" y="448.75" fill="#000000" font-family="Arial" font-size="20px" xml:space="preserve">p</text><text id="bz" transform="matrix(0 1 -1 0 1466.2 -546.25)" x="1006.25" y="460" fill="#000000" font-family="Arial" font-size="20px" xml:space="preserve">p</text><text id="ca" transform="matrix(0,1,-1,0,1477.5,-535)" x="1006.25" y="471.25" fill="#000000" font-family="Arial" font-size="20px" xml:space="preserve">o</text><text id="cb" transform="matrix(0,1,-1,0,1490,-525)" x="1007.5" y="482.5" fill="#000000" font-family="Arial" font-size="20px" xml:space="preserve">r</text><text id="cc" transform="matrix(0 1 -1 0 1496.2 -518.75)" x="1007.5" y="488.75" fill="#000000" font-family="Arial" font-size="20px" xml:space="preserve">t</text><text id="cd" transform="matrix(0,1,-1,0,1502.5,-512.5)" x="1007.5" y="495" fill="#000000" font-family="Arial" font-size="20px" xml:space="preserve">s</text><path id="ce" d="m82.422 487.34-0.46875-147.66" fill="none" stroke="#000" stroke-linecap="round" stroke-linejoin="round" stroke-width=".39062px"/><path id="cf" d="m82.422 496.09-5.8594-11.562c3.6719 1.7969 7.9688 1.7969 11.641-0.0781l-5.7812 11.641z" fill-rule="evenodd"/><path id="cg" d="m88.984 379.53 0.23438 76.719 23.984-0.0781-0.23437-76.719-23.984 0.0781z" fill="#fff" fill-rule="evenodd"/><text id="ch" transform="matrix(0,1,-1,0,475,285)" x="95" y="380" fill="#000000" font-family="Arial" font-size="20px" xml:space="preserve">s</text><text id="ci" transform="matrix(0,1,-1,0,485,295)" x="95" y="390" fill="#000000" font-family="Arial" font-size="20px" xml:space="preserve">u</text><text id="cj" transform="matrix(0,1,-1,0,495,305)" x="95" y="400" fill="#000000" font-family="Arial" font-size="20px" xml:space="preserve">p</text><text id="ck" transform="matrix(0,1,-1,0,506.25,316.25)" x="95" y="411.25" fill="#000000" font-family="Arial" font-size="20px" xml:space="preserve">p</text><text id="cl" transform="matrix(0,1,-1,0,517.5,327.5)" x="95" y="422.5" fill="#000000" font-family="Arial" font-size="20px" xml:space="preserve">o</text><text id="cm" transform="matrix(0,1,-1,0,528.75,338.75)" x="95" y="433.75" fill="#000000" font-family="Arial" font-size="20px" xml:space="preserve">r</text><text id="cn" transform="matrix(0,1,-1,0,535,345)" x="95" y="440" fill="#000000" font-family="Arial" font-size="20px" xml:space="preserve">t</text><text id="co" transform="matrix(0,1,-1,0,541.25,351.25)" x="95" y="446.25" fill="#000000" font-family="Arial" font-size="20px" xml:space="preserve">s</text><path id="cp" d="m724.92 257.58c21.406-50.391-2.1875-108.52-52.578-129.92-50.391-21.328-108.59 2.2656-129.92 52.656-0.70313 1.6406-1.3281 3.3594-1.9531 5.0781" fill="none" stroke="#000" stroke-linecap="round" stroke-linejoin="round" stroke-width=".39062px"/><path id="cq" d="m726.64 253.59c-2.1875-0.9375-4.7656 0.0781-5.7031 2.2656-0.9375 2.2656 0.0781 4.7656 2.3438 5.7031 2.1875 0.9375 4.7656-0.0781 5.7031-2.2656 0.9375-2.2656-0.15626-4.7656-2.3438-5.7031" fill-rule="evenodd"/><path id="cr" d="m537.81 193.75-2.0312-12.812c2.8906 2.8125 7.0312 4.1406 11.016 3.4375l-8.9844 9.375z" fill-rule="evenodd"/><path id="cs" d="m659.61 134.53v23.984h83.438v-23.984h-83.438z" fill="#fff" fill-rule="evenodd"/><text id="ct" x="660" y="152.5" fill="#000000" font-family="Arial" font-size="20px" xml:space="preserve">runs over</text><path id="cu" d="m81.953 222.73c199.22-251.8 564.84-294.38 816.64-95.156 32.969 26.094 63.047 55.703 89.688 88.281" fill="none" stroke="#000" stroke-linecap="round" stroke-linejoin="round" stroke-width=".39062px"/><path id="cv" d="m993.75 222.73-11.797-5.3906c3.9844-0.85937 7.3438-3.5938 9.0625-7.2656l2.7344 12.656z" fill-rule="evenodd"/><path id="cw" d="m190.94 63.672v23.984h127.89v-23.984h-127.89z" fill="#fff" fill-rule="evenodd"/><text id="cx" x="191.25" y="81.25" fill="#000000" font-family="Arial" font-size="20px" xml:space="preserve">opens session</text><path id="cy" d="m1091.1 252.19c13.047 0 23.594-10.547 23.594-23.594v-11.25c0-13.047-10.547-23.594-23.594-23.594h-56.719c-13.047 0-23.594 10.547-23.594 23.594v11.25c0 13.047 10.547 23.594 23.594 23.594h56.719z" fill="#7395bf" fill-rule="evenodd"/><path id="cz" d="m1091.1 252.19c13.047 0 23.594-10.547 23.594-23.594v0-11.25c0-13.047-10.547-23.594-23.594-23.594h-56.719c-13.047 0-23.594 10.547-23.594 23.594v0 11.25c0 13.047 10.547 23.594 23.594 23.594h56.719z" fill="none" stroke="#000" stroke-linecap="round" stroke-linejoin="round" stroke-width="2.0312px"/><text id="da" x="1032.5" y="228.75" fill="#ffffff" font-family="Arial" font-size="20px" font-weight="bold" xml:space="preserve">Realm</text><path id="db" d="m869.06 257.58c-20-52.734 6.5625-111.64 59.297-131.56 52.734-20 111.64 6.5625 131.64 59.297v0.0781" fill="none" stroke="#000" stroke-linecap="round" stroke-linejoin="round" stroke-width=".39062px"/><path id="dc" d="m867.5 253.52c2.2656-0.85937 4.7656 0.3125 5.625 2.5 0.85938 2.2656-0.3125 4.7656-2.5781 5.625-2.1875 0.85938-4.6875-0.23437-5.5469-2.5-0.85938-2.2656 0.23438-4.7656 2.5-5.625" fill-rule="evenodd"/><path id="dd" d="m1062.7 193.75 1.875-12.812c-2.8906 2.8125-6.9532 4.2188-11.016 3.5938l9.1406 9.2188z" fill-rule="evenodd"/><path id="de" d="m846.09 134.14v24.062h98.984v-24.062h-98.984z" fill="#fff" fill-rule="evenodd"/><text id="df" x="846.25" y="152.5" fill="#000000" font-family="Arial" font-size="20px" xml:space="preserve">attached to</text></g></g></svg>
