<?xml version="1.0" encoding="UTF-8"?>
<svg id="a" version="1.1" viewBox="0 0 362 80" xmlns="http://www.w3.org/2000/svg" xmlns:xlink="http://www.w3.org/1999/xlink"><g id="b" transform="translate(-135.42 -1374.1)"><g id="c"><path id="d" d="m200.89 1447.2c-8.0414-22.582-16.395-44.983-25.06-67.203 3.1509 0.066 5.711 0.099 7.6804 0.099 2.1662 1e-4 4.7264-0.033 7.6804-0.099l13.785 40.765 5.7603 16.05c1.2472-2.4288 3.1263-6.3264 5.6372-11.693 2.5109-5.3664 4.3079-9.3297 5.391-11.89-1.5098-4.595-3.4218-10.158-5.7357-16.69-2.314-6.5316-4.3408-12.046-6.0803-16.542 2.7898 0.066 5.2351 0.099 7.3358 0.099 2.3303 1e-4 4.7756-0.033 7.3358-0.099 1.5426 5.9408 3.2493 11.816 5.1202 17.625 2.757-5.9407 5.2843-11.816 7.5819-17.625 2.8555 0.066 5.153 0.099 6.8926 0.099 2.0021 1e-4 4.2996-0.033 6.8926-0.099-2.1007 4.2013-4.7018 9.5676-7.8034 16.099-3.1018 6.5316-5.6045 11.98-7.5081 16.345 0.72201 2.3632 2.0677 6.3675 4.0371 12.013 1.9693 5.6454 3.4134 9.6333 4.3325 11.964l13.244-28.161 9.6004-21.072 3.1509-7.188c3.1508 0.066 5.6781 0.099 7.5819 0.099 2.1005 1e-4 4.6442-0.033 7.6312-0.099l-9.2558 18.364-19.349 39.682-4.3325 9.1574c-3.512-0.066-6.5152-0.099-9.0097-0.099-2.6258 0-5.6454 0.033-9.0589 0.099-1.9366-6.63-4.07-13.145-6.4003-19.546-3.1182 6.4003-6.0721 12.916-8.862 19.546-3.512-0.066-6.548-0.099-9.1082-0.099-2.6914 0-5.7275 0.033-9.1081 0.099z" fill="#7e8696"/><path id="e" d="m266.44 1447.2c3.4135-6.0393 7.4178-13.506 12.013-22.401l12.948-24.863c4.0371-7.6803 7.3849-14.327 10.044-19.939 4.2668 0.066 7.2865 0.099 9.0589 0.099 3.1181 1e-4 6.1705-0.033 9.1574-0.099l7.0403 20.136 15.312 41.651 2.117 5.4156-7.385-0.099c-1.7068 0-4.5787 0.033-8.6158 0.099-0.78778-2.9211-2.0268-6.8598-3.7171-11.816-1.6904-4.9561-3.1264-8.9768-4.3079-12.062h-25.897c-3.8402 7.8117-7.5819 15.771-11.225 23.878l-8.025-0.099c-1.5098 0-4.3489 0.033-8.5173 0.099zm32.149-34.119h18.856l-7.7296-22.746-3.9879 8.2712z" fill="#7e8696"/><path id="f" d="m350.14 1447.2 1.28-11.127 3.2494-39.091 1.1324-16.985c4.6936 0.066 8.1235 0.099 10.29 0.099 1.7396 1e-4 4.9069-0.033 9.502-0.099 0.52512 2.6586 0.91899 4.5459 1.1816 5.6618 0.26253 1.116 0.77127 2.9048 1.5262 5.3664 0.75489 2.4617 1.7231 5.4485 2.9048 8.9604 1.7395 5.3172 3.2986 10.569 4.6772 15.755l3.7417 14.081 6.5972-18.069 9.6005-23.484c0.32818-0.7876 0.66459-1.6985 1.0093-2.7324 0.34458-1.0339 0.92718-2.8801 1.7478-5.5387 3.9058 0.066 7.3849 0.099 10.437 0.099 2.0349 1e-4 5.2843-0.033 9.7482-0.099-0.4596 9.4528-0.80424 19.898-1.0339 31.337-0.2299 11.438-0.34472 19.98-0.34464 25.626-8e-5 2.7242 0.0328 6.1378 0.0986 10.24-3.2495-0.066-5.465-0.099-6.6465-0.099-1.7068 0-3.9715 0.033-6.7942 0.099 0.19687-3.3478 0.32815-6.1049 0.39387-8.2712l0.83696-29.294c0.0983-4.1355 0.14771-8.2055 0.14771-12.21l-0.0491-3.9879-18.167 47.904-2.117 5.8587c-3.1838-0.066-5.3664-0.099-6.548-0.099-1.477 0-3.791 0.033-6.9419 0.099l-8.4681-30.328c-0.2954-1.0831-0.98468-3.3478-2.0678-6.7942l-3.0525-10.044c-0.2954-0.9518-0.51695-1.7314-0.66464-2.3386-0.14772-0.6072-0.46772-1.9611-0.96005-4.0618l-0.64001 6.3019c-0.1641 2.0022-0.41031 5.35-0.73851 10.044l-1.9201 30.524c-0.0655 1.5098-0.11495 3.7417-0.14772 6.6957l-6.3511-0.099c-1.0831 0-3.233 0.033-6.4495 0.099z" fill="#7e8696"/><path id="g" d="m440.88 1447.2 0.88622-11.668 1.2308-25.848 0.59079-18.758c0.0328-1.7067 0.0491-3.4298 0.0491-5.1695 0-1.28-0.0176-3.2001-0.0491-5.7602 4.2012 0.066 7.6147 0.099 10.24 0.099 2.1006 1e-4 5.0218-0.049 8.7635-0.1477 3.7417-0.098 6.7121-0.1477 8.9112-0.1477 4.5294 1e-4 7.8608 0.3283 9.9943 0.9847 2.2647 0.7221 4.2504 1.8545 5.9572 3.397 1.7067 1.5428 3.0032 3.3972 3.8894 5.5634 0.98463 2.4289 1.477 5.0382 1.477 7.8281-5e-5 4.2341-1.0586 8.0825-3.1755 11.545-2.1171 3.4628-5.0465 6.0475-8.7881 7.7543-3.7418 1.7067-7.8938 2.5601-12.456 2.5601-2.2319 0-4.6115-0.2296-7.1388-0.6893-0.72211-3.4134-1.5427-6.6136-2.4616-9.6004 2.0349 0.4267 4.0535 0.64 6.0557 0.64 2.7242 0 5.0874-0.4102 7.0896-1.2308 2.0021-0.8205 3.594-2.158 4.7756-4.0126 1.1816-1.8543 1.7724-3.9467 1.7724-6.2772-5e-5 -1.3784-0.24627-2.6421-0.7385-3.7909-0.49237-1.1487-1.2062-2.0678-2.1416-2.7571-0.93547-0.6892-1.9694-1.1569-3.1017-1.4031-1.1324-0.2461-2.7489-0.3692-4.8495-0.3693-1.8381 1e-4 -3.6925 0.033-5.5634 0.099-1.8709 0.066-3.5284 0.099-4.9725 0.099-0.39389 6.4332-0.6893 12.587-0.88622 18.462l-0.59078 18.807c-0.19687 6.6629-0.29543 11.553-0.29541 14.671-2e-5 1.1816 0.0151 2.8884 0.0492 5.1203l-7.1388-0.099c-0.91903 0-3.3807 0.033-7.385 0.099z" fill="#7e8696"/><path id="h" transform="matrix(-1.0183 0 0 1.0183 684.85 939.64)" d="m515.64 431.45c17.335 9.1056 24.833 32.311 16.746 51.831-3.1892 7.6984-8.5235 14.014-15.192 17.986l-16.196-34.473z" fill="#fa72c6"/></g></g></svg>
