<?xml version="1.0" encoding="UTF-8"?>
<svg version="1.1" viewBox="0 0 400 400" xmlns="http://www.w3.org/2000/svg" xmlns:xlink="http://www.w3.org/1999/xlink">
 <g transform="translate(703.66 -1567.9)">
  <rect x="-1230.9" y="1550.8" width="398.24" height="398.24" rx="25.706" ry=".019806" fill="#fff"/>
  <g transform="translate(11.314 -5.6569)">
   <path d="m-490.25 1636c-60.232 0-110.88 42.136-125.67 99.346h73.417c10.744-16.892 29.302-28.052 50.374-28.052 30.085 0 55.008 22.757 59.431 52.458h71.454 0.72135c-5.0367-69.219-61.202-123.75-129.72-123.75zm57.307 144.07c-4.9896 29.007-29.584 51.055-59.191 51.055-20.482 0-38.589-10.547-49.452-26.65h-74.339c14.804 57.2 65.456 99.346 125.67 99.346 68.507 0 124.67-54.548 129.72-123.75h-0.72135-71.694z" fill="#1a1a1a"/>
   <g transform="matrix(1.1294 0 0 1.1294 396.38 -765.38)">
    <path d="m-907.99 2226.8h-5.3052l-6.8355 30.199-8.4679-30.199h-5.1011l-8.2638 30.199-6.9885-30.199h-5.3052l9.5391 37.187h5.2032l8.3148-30.556 8.5699 30.556h5.2032l9.4371-37.187"/>
    <path d="m-877 2264-13.059-37.187h-6.1214l-13.263 37.187h5.0501l3.9279-11.172h14.334l3.8258 11.172h5.3052m-10.457-15.15h-11.835l6.1214-16.936 5.7133 16.936"/>
    <path d="m-835.88 2264v-37.187h-6.5804l-10.814 32.392-11.018-32.392h-6.5804v37.187h4.489v-31.168l10.559 31.168h4.9991l10.457-31.168v31.168h4.489"/>
    <path d="m-799.15 2237.7c0-6.9885-4.1319-10.916-11.478-10.916h-15.354v37.187h4.744v-15.762h11.682c6.1213 0 10.406-4.336 10.406-10.508m-4.9481-0.204c0 4.0809-2.7036 6.5295-7.2436 6.5295h-9.8962v-13.059h9.8962c4.54 0 7.2436 2.4485 7.2436 6.5294"/>
   </g>
  </g>
 </g>
</svg>
