<?xml version="1.0" encoding="UTF-8"?>
<svg id="a" version="1.1" viewBox="0 0 1357.4 585.99" xmlns="http://www.w3.org/2000/svg"><g id="b" transform="translate(744.58 156.54)"><g id="c" transform="translate(-739.51 -158.32)"><path id="d" d="m1261.6 128.82h-376.07" fill="none" stroke="#000" stroke-linecap="round" stroke-linejoin="round" stroke-width="3.5958px"/><path id="e" d="m887.22 135.39-13.211-6.5662 13.211-6.6444v13.211z" fill-rule="evenodd"/><path id="f" d="m1019.6 99.9v20.011h96.382v-20.011h-96.382z" fill="#fff" fill-rule="evenodd"/><text id="g" x="1019.323" y="115.06468" fill="#000000" font-family="Arial" font-size="16.259px" xml:space="preserve">SUBSCRIBE</text><path id="h" d="m859.78 76.449v501.45h14.227v-501.45h-14.227z" fill="#fa72c6" fill-rule="evenodd"/><path id="i" d="m439.07 76.449v501.45h14.227v-501.45h-14.227z" fill="#fa72c6" fill-rule="evenodd"/><path id="j" d="m1261.6 76.449v501.45h14.149v-501.45h-14.149z" fill="#fa72c6" fill-rule="evenodd"/><path id="k" d="m1261.6 407.73h-376.07" fill="none" stroke="#000" stroke-linecap="round" stroke-linejoin="round" stroke-width="3.5958px"/><path id="l" d="m887.22 414.3-13.211-6.5662 13.211-6.6444v13.211z" fill-rule="evenodd"/><path id="m" d="m1007.6 378.81v20.011h120.46v-20.011h-120.46z" fill="#fff" fill-rule="evenodd"/><text id="n" x="1008.0667" y="393.97147" fill="#000000" font-family="Arial" font-size="16.259px" xml:space="preserve">UNSUBSCRIBE</text><text id="o" x="386.46725" y="33.768986" fill="#000000" font-family="Arial" font-size="30.017px" xml:space="preserve">Broker </text><text id="p" x="484.02209" y="33.768986" fill="#000000" font-family="Arial" font-size="30.017px" xml:space="preserve">1</text><text id="q" x="1198.1736" y="33.768986" fill="#000000" font-family="Arial" font-size="30.017px" xml:space="preserve">Subscriber</text><text id="r" x="810.45563" y="33.768986" fill="#000000" font-family="Arial" font-size="30.017px" xml:space="preserve">Broker </text><text id="s" x="906.75977" y="33.768986" fill="#000000" font-family="Arial" font-size="30.017px" xml:space="preserve">2</text><path id="t" d="m874.01 247.01h376.07" fill="none" stroke="#000" stroke-linecap="round" stroke-linejoin="round" stroke-width="3.5958px"/><path id="u" d="m1248.4 240.37 13.21 6.6444-13.21 6.5662v-13.211z" fill-rule="evenodd"/><path id="v" d="m971.41 218.09v20.011h192.76v-20.011h-192.76z" fill="#fff" fill-rule="evenodd"/><text id="w" x="971.79633" y="232.63078" fill="#000000" font-family="Arial" font-size="16.259px" xml:space="preserve">SUBSCRIBED or ERROR</text><path id="x" d="m874.01 525.92h376.07" fill="none" stroke="#000" stroke-linecap="round" stroke-linejoin="round" stroke-width="3.5958px"/><path id="y" d="m1248.4 519.28 13.21 6.6444-13.21 6.5662v-13.211z" fill-rule="evenodd"/><path id="z" d="m959.37 497v20.011h216.84v-20.011h-216.84z" fill="#fff" fill-rule="evenodd"/><text id="aa" x="959.28925" y="511.53757" fill="#000000" font-family="Arial" font-size="16.259px" xml:space="preserve">UNSUBSCRIBED or ERROR</text><path id="ab" d="m855.09 152.43h-390.22" fill="none" stroke="#000" stroke-linecap="round" stroke-linejoin="round" stroke-width="3.5958px"/><path id="ac" d="m466.51 159.07-13.211-6.6444 13.211-6.5662v13.211z" fill-rule="evenodd"/><path id="ad" d="m605.97 123.51v20.011h96.382v-20.011h-96.382z" fill="#fff" fill-rule="evenodd"/><text id="ae" x="605.34027" y="138.82803" fill="#000000" font-family="Arial" font-size="16.259px" xml:space="preserve">SUBSCRIBE</text><path id="af" d="m453.3 223.33h390.22" fill="none" stroke="#000" stroke-linecap="round" stroke-linejoin="round" stroke-width="3.5958px"/><path id="ag" d="m841.88 216.76 13.211 6.5662-13.211 6.6444v-13.211z" fill-rule="evenodd"/><path id="ah" d="m557.81 194.41v20.011h192.76v-20.011h-192.76z" fill="#fff" fill-rule="evenodd"/><text id="ai" x="557.8136" y="208.86742" fill="#000000" font-family="Arial" font-size="16.259px" xml:space="preserve">SUBSCRIBED or ERROR</text><path id="aj" d="m855.09 431.34h-390.22" fill="none" stroke="#000" stroke-linecap="round" stroke-linejoin="round" stroke-width="3.5958px"/><path id="ak" d="m466.51 437.98-13.211-6.6444 13.211-6.5662v13.211z" fill-rule="evenodd"/><path id="al" d="m593.93 402.41v20.011h120.46v-20.011h-120.46z" fill="#fff" fill-rule="evenodd"/><text id="am" x="594.08398" y="417.73483" fill="#000000" font-family="Arial" font-size="16.259px" xml:space="preserve">UNSUBSCRIBE</text><path id="an" d="m453.3 502.24h390.22" fill="none" stroke="#000" stroke-linecap="round" stroke-linejoin="round" stroke-width="3.5958px"/><path id="ao" d="m841.88 495.67 13.211 6.5662-13.211 6.6444v-13.211z" fill-rule="evenodd"/><path id="ap" d="m545.78 473.31v20.011h216.84v-20.011h-216.84z" fill="#fff" fill-rule="evenodd"/><text id="aq" x="545.30658" y="487.7742" fill="#000000" font-family="Arial" font-size="16.259px" xml:space="preserve">UNSUBSCRIBED or ERROR</text><path id="ar" d="m46.745 75.668v501.45h14.227v-501.45h-14.227z" fill="#fa72c6" fill-rule="evenodd"/><text id="as" x="2.5014062" y="33.768986" fill="#000000" font-family="Arial" font-size="30.017px" xml:space="preserve">Publisher</text></g></g></svg>
