<?xml version="1.0" encoding="UTF-8"?>
<svg id="a" version="1.1" viewBox="0 0 391.56 102.19" xmlns="http://www.w3.org/2000/svg"><g id="b" transform="translate(43.656 -416.59)"><path id="c" d="m-36.851 423.38v88.594h118.12v-88.594h-118.12z" fill="#fff" fill-rule="evenodd"/><path id="d" d="m-36.851 511.98h118.12v-88.594h-118.12v88.594z" fill="none" stroke="#000" stroke-linecap="round" stroke-linejoin="round" stroke-width="3.5938px"/><g id="e" fill="#262626"><path id="f" d="m6.174 468.83 2.2498 0.56824c-0.47161 1.8477-1.3201 3.2567-2.5455 4.227-1.2254 0.97026-2.7233 1.4554-4.4937 1.4554-1.8323 0-3.3225-0.37302-4.4705-1.1191-1.1481-0.74605-2.0217-1.8265-2.6208-3.2413-0.59916-1.4148-0.89874-2.934-0.89874-4.5575-1.2e-6 -1.7704 0.33823-3.3147 1.0147-4.6329 0.67647-1.3181 1.639-2.3193 2.8876-3.0035 1.2486-0.68418 2.6228-1.0263 4.1226-1.0263 1.7008 1e-5 3.1311 0.43296 4.2908 1.2988 1.1597 0.8659 1.9676 2.0836 2.4237 3.653l-2.215 0.52185c-0.3943-1.237-0.9664-2.1376-1.7163-2.702-0.74993-0.56435-1.6931-0.84654-2.8296-0.84655-1.3066 1e-5 -2.3986 0.31312-3.2761 0.93933-0.87749 0.62623-1.494 1.467-1.8497 2.5223-0.35564 1.0553-0.53345 2.1435-0.53345 3.2645-3.5e-6 1.4457 0.21067 2.7078 0.63202 3.7863 0.42134 1.0785 1.0766 1.8845 1.9656 2.4179 0.88907 0.53345 1.8516 0.80018 2.8876 0.80017 1.2602 1e-5 2.3271-0.36336 3.2007-1.0901 0.8736-0.72673 1.465-1.8052 1.7743-3.2355z"/><path id="g" d="m18.977 473.27c-0.77312 0.65715-1.5172 1.121-2.2324 1.3916-0.71514 0.27059-1.4824 0.40589-2.3019 0.40589-1.3529 0-2.3928-0.33051-3.1195-0.99152-0.72673-0.66101-1.0901-1.5056-1.0901-2.5339 0-0.60303 0.13723-1.1539 0.41168-1.6525 0.27445-0.49865 0.63395-0.89874 1.0785-1.2003 0.44454-0.30151 0.94513-0.52957 1.5018-0.6842 0.40974-0.10823 1.0282-0.2126 1.8555-0.31311 1.6854-0.201 2.9262-0.44067 3.7225-0.719 0.0077-0.28604 0.01159-0.46772 0.0116-0.54504-9e-6 -0.85041-0.19715-1.4496-0.59143-1.7975-0.53346-0.47158-1.3259-0.70738-2.3773-0.70739-0.98186 1e-5 -1.7066 0.17202-2.1744 0.51605-0.46774 0.34404-0.8137 0.95287-1.0379 1.8265l-2.041-0.27832c0.18554-0.87361 0.49092-1.5791 0.91614-2.1164 0.42521-0.5373 1.0398-0.95091 1.8439-1.2408 0.80403-0.28991 1.7356-0.43487 2.7948-0.43488 1.0514 1e-5 1.9057 0.12371 2.5629 0.3711 0.65714 0.2474 1.1403 0.55858 1.4496 0.93353 0.30923 0.37497 0.5257 0.8485 0.64941 1.4206 0.06957 0.35564 0.10436 0.99732 0.10437 1.925v2.7832c-1.1e-5 1.9405 0.04444 3.1678 0.13336 3.682 0.0889 0.51412 0.26478 1.007 0.52765 1.4786h-2.1802c-0.21648-0.43295-0.35564-0.93933-0.41748-1.5192zm-0.17395-4.6619c-0.75766 0.30925-1.8941 0.5721-3.4094 0.78857-0.85816 0.1237-1.4651 0.26286-1.8207 0.41748-0.35564 0.15463-0.63009 0.38076-0.82336 0.67841-0.19328 0.29765-0.28992 0.62815-0.28992 0.99151-3e-6 0.55665 0.21067 1.0205 0.63202 1.3916 0.42134 0.3711 1.0379 0.55665 1.8497 0.55664 0.80403 1e-5 1.5192-0.17588 2.1454-0.52764 0.62621-0.35177 1.0862-0.83303 1.38-1.4438 0.22419-0.4716 0.33629-1.1674 0.3363-2.0874z"/><path id="h" d="m24.114 474.79v-17.001h2.0874v17.001z"/><path id="i" d="m29.402 474.79v-17.001h2.0874v17.001z"/><path id="j" d="m43.167 470.82 2.157 0.26672c-0.34018 1.2602-0.97027 2.2382-1.8903 2.934-0.92001 0.69581-2.0951 1.0437-3.5254 1.0437-1.8014 0-3.2297-0.55471-4.285-1.6641-1.0553-1.1094-1.5829-2.6653-1.5829-4.6677-1e-6 -2.0719 0.53345-3.68 1.6003-4.8242 1.0669-1.1442 2.4508-1.7163 4.1516-1.7163 1.6467 1e-5 2.9919 0.56052 4.0356 1.6815 1.0437 1.121 1.5655 2.6982 1.5656 4.7314-1.2e-5 0.1237-0.0039 0.30925-0.0116 0.55664h-9.1846c0.07731 1.353 0.46 2.3889 1.1481 3.1079 0.68806 0.71899 1.5462 1.0785 2.5745 1.0785 0.76537 0 1.4187-0.20101 1.9598-0.60303 0.54117-0.40202 0.97025-1.0437 1.2872-1.925zm-6.8536-3.3746h6.8768c-0.09278-1.036-0.35564-1.8129-0.78857-2.3309-0.66488-0.80402-1.5269-1.206-2.5861-1.206-0.95866 1e-5 -1.7646 0.32085-2.4179 0.96252-0.65328 0.6417-1.0147 1.4998-1.0843 2.5745z"/><path id="k" d="m47.934 474.79v-12.316h1.8787v1.8671c0.47933-0.87361 0.92193-1.4496 1.3278-1.7279 0.40588-0.27831 0.85235-0.41747 1.3394-0.41748 0.70352 1e-5 1.4187 0.22422 2.1454 0.67261l-0.71899 1.9366c-0.51026-0.3015-1.0205-0.45226-1.5308-0.45227-0.45614 1e-5 -0.86589 0.13724-1.2292 0.41169-0.36337 0.27446-0.62236 0.65522-0.77698 1.1423-0.23194 0.74219-0.3479 1.554-0.3479 2.4353v6.4478z"/></g><path id="l" d="m222.99 423.38v88.594h118.12v-88.594h-118.12z" fill="#fff" fill-rule="evenodd"/><path id="m" d="m222.99 511.98h118.12v-88.594h-118.12v88.594z" fill="none" stroke="#000" stroke-linecap="round" stroke-linejoin="round" stroke-width="3.5938px"/><g id="n" fill="#262626"><path id="o" d="m262.42 468.83 2.2498 0.56824c-0.47161 1.8477-1.3201 3.2567-2.5455 4.227-1.2254 0.97026-2.7233 1.4554-4.4937 1.4554-1.8323 0-3.3225-0.37302-4.4705-1.1191-1.1481-0.74605-2.0217-1.8265-2.6208-3.2413-0.59917-1.4148-0.89875-2.934-0.89874-4.5575-1e-5 -1.7704 0.33823-3.3147 1.0147-4.6329 0.67648-1.3181 1.639-2.3193 2.8876-3.0035 1.2486-0.68418 2.6228-1.0263 4.1226-1.0263 1.7008 1e-5 3.1311 0.43296 4.2908 1.2988 1.1596 0.8659 1.9676 2.0836 2.4237 3.653l-2.215 0.52185c-0.3943-1.237-0.9664-2.1376-1.7163-2.702-0.74993-0.56435-1.6931-0.84654-2.8296-0.84655-1.3066 1e-5 -2.3986 0.31312-3.2761 0.93933-0.87749 0.62623-1.494 1.467-1.8497 2.5223-0.35564 1.0553-0.53345 2.1435-0.53345 3.2645 0 1.4457 0.21067 2.7078 0.63202 3.7863 0.42134 1.0785 1.0766 1.8845 1.9656 2.4179 0.88907 0.53345 1.8516 0.80018 2.8876 0.80017 1.2602 1e-5 2.3271-0.36336 3.2007-1.0901 0.87361-0.72673 1.465-1.8052 1.7743-3.2355z"/><path id="p" d="m275.23 473.27c-0.77312 0.65715-1.5172 1.121-2.2324 1.3916-0.71514 0.27059-1.4824 0.40589-2.3019 0.40589-1.353 0-2.3928-0.33051-3.1195-0.99152s-1.0901-1.5056-1.0901-2.5339c0-0.60303 0.13723-1.1539 0.41169-1.6525 0.27445-0.49865 0.63395-0.89874 1.0785-1.2003 0.44453-0.30151 0.94512-0.52957 1.5018-0.6842 0.40974-0.10823 1.0282-0.2126 1.8555-0.31311 1.6854-0.201 2.9262-0.44067 3.7225-0.719 8e-3 -0.28604 0.0116-0.46772 0.0116-0.54504-1e-5 -0.85041-0.19716-1.4496-0.59143-1.7975-0.53346-0.47158-1.3259-0.70738-2.3773-0.70739-0.98186 1e-5 -1.7066 0.17202-2.1744 0.51605-0.46774 0.34404-0.8137 0.95287-1.0379 1.8265l-2.041-0.27832c0.18555-0.87361 0.49093-1.5791 0.91614-2.1164 0.42521-0.5373 1.0398-0.95091 1.8439-1.2408 0.80403-0.28991 1.7356-0.43487 2.7948-0.43488 1.0514 1e-5 1.9057 0.12371 2.5629 0.3711 0.65713 0.2474 1.1403 0.55858 1.4496 0.93353 0.30924 0.37497 0.52571 0.8485 0.64942 1.4206 0.0696 0.35564 0.10435 0.99732 0.10437 1.925v2.7832c-2e-5 1.9405 0.0444 3.1678 0.13336 3.682 0.0889 0.51412 0.26478 1.007 0.52765 1.4786h-2.1802c-0.21648-0.43295-0.35564-0.93933-0.41748-1.5192zm-0.17395-4.6619c-0.75766 0.30925-1.8941 0.5721-3.4094 0.78857-0.85816 0.1237-1.465 0.26286-1.8207 0.41748-0.35564 0.15463-0.63009 0.38076-0.82337 0.67841s-0.28992 0.62815-0.28991 0.99151c-1e-5 0.55665 0.21067 1.0205 0.63202 1.3916 0.42134 0.3711 1.0379 0.55665 1.8497 0.55664 0.80403 1e-5 1.5192-0.17588 2.1454-0.52764 0.62621-0.35177 1.0862-0.83303 1.38-1.4438 0.22419-0.4716 0.33629-1.1674 0.3363-2.0874z"/><path id="q" d="m280.36 474.79v-17.001h2.0874v17.001z"/><path id="r" d="m285.65 474.79v-17.001h2.0874v17.001z"/><path id="s" d="m299.42 470.82 2.157 0.26672c-0.34018 1.2602-0.97027 2.2382-1.8903 2.934-0.92001 0.69581-2.0951 1.0437-3.5254 1.0437-1.8014 0-3.2297-0.55471-4.285-1.6641-1.0553-1.1094-1.5829-2.6653-1.5829-4.6677 0-2.0719 0.53344-3.68 1.6003-4.8242 1.0669-1.1442 2.4508-1.7163 4.1516-1.7163 1.6467 1e-5 2.9919 0.56052 4.0356 1.6815 1.0437 1.121 1.5655 2.6982 1.5656 4.7314-2e-5 0.1237-4e-3 0.30925-0.0116 0.55664h-9.1846c0.0773 1.353 0.46 2.3889 1.1481 3.1079s1.5462 1.0785 2.5745 1.0785c0.76538 0 1.4187-0.20101 1.9598-0.60303 0.54117-0.40202 0.97025-1.0437 1.2872-1.925zm-6.8536-3.3746h6.8768c-0.0928-1.036-0.35564-1.8129-0.78858-2.3309-0.66488-0.80402-1.5269-1.206-2.5861-1.206-0.95866 1e-5 -1.7646 0.32085-2.4179 0.96252-0.65329 0.6417-1.0147 1.4998-1.0843 2.5745z"/><path id="t" d="m312.64 470.82 2.157 0.26672c-0.34018 1.2602-0.97026 2.2382-1.8903 2.934-0.92001 0.69581-2.0951 1.0437-3.5254 1.0437-1.8014 0-3.2297-0.55471-4.285-1.6641-1.0553-1.1094-1.583-2.6653-1.583-4.6677 0-2.0719 0.53345-3.68 1.6003-4.8242 1.0669-1.1442 2.4508-1.7163 4.1516-1.7163 1.6467 1e-5 2.9919 0.56052 4.0356 1.6815 1.0437 1.121 1.5655 2.6982 1.5656 4.7314-1e-5 0.1237-4e-3 0.30925-0.0116 0.55664h-9.1846c0.0773 1.353 0.45999 2.3889 1.1481 3.1079 0.68806 0.71899 1.5462 1.0785 2.5745 1.0785 0.76537 0 1.4186-0.20101 1.9598-0.60303 0.54117-0.40202 0.97024-1.0437 1.2872-1.925zm-6.8536-3.3746h6.8768c-0.0928-1.036-0.35564-1.8129-0.78857-2.3309-0.66489-0.80402-1.5269-1.206-2.5861-1.206-0.95867 1e-5 -1.7646 0.32085-2.4179 0.96252-0.65328 0.6417-1.0147 1.4998-1.0843 2.5745z"/></g><path id="u" d="m81.274 467.68h120.31" fill="none" stroke="#000" stroke-linecap="round" stroke-linejoin="round" stroke-width="3.5938px"/><path id="v" d="m199.63 459.87 23.359 7.8125-23.359 7.8125v-15.625z" fill-rule="evenodd"/></g></svg>
